<?xml version="1.0" encoding="utf-8"?>
<!-- Generator: Adobe Illustrator 16.0.0, SVG Export Plug-In . SVG Version: 6.00 Build 0)  -->
<!DOCTYPE svg PUBLIC "-//W3C//DTD SVG 1.1//EN" "http://www.w3.org/Graphics/SVG/1.1/DTD/svg11.dtd">
<svg version="1.1" id="Layer_1" xmlns="http://www.w3.org/2000/svg" xmlns:xlink="http://www.w3.org/1999/xlink" x="0px" y="0px"
	 width="83px" height="80px" viewBox="0 0 83 80" enable-background="new 0 0 83 80" xml:space="preserve">
<g>
	<g>
		<path fill="#010101" d="M36.596,25.373c-2.209,0-4.007,1.798-4.007,4.006h2.671c0-0.736,0.598-1.335,1.335-1.335
			c0.737,0,1.335,0.6,1.335,1.335h2.67C40.602,27.17,38.805,25.373,36.596,25.373z"/>
	</g>
</g>
<g>
	<g>
		<path fill="#010101" d="M47.279,25.373c-2.209,0-4.006,1.798-4.006,4.006h2.67c0-0.736,0.599-1.335,1.336-1.335
			c0.736,0,1.334,0.6,1.334,1.335h2.673C51.286,27.17,49.486,25.373,47.279,25.373z"/>
	</g>
</g>
<g>
	<g>
		<path fill="#010101" d="M41.938,61.43c-2.946,0-5.341,2.396-5.341,5.342s2.396,5.343,5.341,5.343c2.946,0,5.341-2.396,5.341-5.343
			C47.279,63.824,44.884,61.43,41.938,61.43z M41.938,69.441c-1.473,0-2.671-1.197-2.671-2.672c0-1.473,1.198-2.67,2.671-2.67
			s2.671,1.197,2.671,2.67C44.607,68.244,43.41,69.441,41.938,69.441z"/>
	</g>
</g>
<g>
	<g>
		<path fill="#010101" d="M73.988,77.454v-17.36c0-11.045-8.986-20.031-20.031-20.031h-1.456c0.476-0.418,0.924-0.864,1.349-1.335
			h1.442c3.681,0,6.677-2.996,6.677-6.677v-2.354c1.609-1.079,2.672-2.914,2.672-4.991c0-2.086-1.07-3.924-2.688-5.001
			C61.773,8.811,52.873,0,41.938,0C31.001,0,22.1,8.811,21.922,19.705c-1.617,1.077-2.687,2.915-2.687,5.001
			c0,3.313,2.696,6.009,6.01,6.009h0.909c0.625,3.701,2.516,6.969,5.22,9.348h-1.456c-11.045,0-20.031,8.986-20.031,20.031v17.36
			H1.875v2.671h9.348H17.9h48.075h6.676H82v-2.671H73.988z M59.298,32.05c0,2.025-1.517,3.687-3.47,3.952
			c0.925-1.61,1.574-3.392,1.893-5.288h0.909c0.229,0,0.446-0.042,0.668-0.068V32.05z M61.969,24.706
			c0,1.84-1.496,3.338-3.339,3.338h-0.668v-6.677h0.668C60.473,21.367,61.969,22.865,61.969,24.706z M25.912,28.043h-0.667
			c-1.842,0-3.339-1.498-3.339-3.338c0-1.841,1.497-3.339,3.339-3.339h0.667V28.043z M25.245,18.696
			c-0.207,0-0.402,0.041-0.604,0.062C25.298,9.78,32.795,2.672,41.937,2.672c9.143,0,16.64,7.108,17.295,16.086
			c-0.2-0.021-0.396-0.062-0.604-0.062h-0.908C56.443,11.13,49.861,5.342,41.937,5.342c-7.924,0-14.507,5.788-15.783,13.354H25.245z
			 M55.29,21.333c-9.638-0.339-16.023-4.28-16.023-7.979c0-0.737-0.597-1.335-1.335-1.335c-0.739,0-1.335,0.598-1.335,1.335
			c0,3.336-3.451,6.103-7.935,6.593c0.712-6.699,6.394-11.935,13.276-11.935C49.289,8.012,55.271,13.986,55.29,21.333z
			 M28.583,28.043v-5.416c4.171-0.362,7.709-2.374,9.477-5.19c2.794,3.702,9.322,6.308,17.232,6.573v4.033
			c0,3.009-1.013,5.777-2.694,8.013h-10.66v2.67h7.978c-0.766,0.574-1.593,1.068-2.475,1.469c-3.504,1.592-7.503,1.592-11.009,0
			C31.811,38.094,28.583,33.444,28.583,28.043z M37.81,43.511c1.32,0.354,2.699,0.56,4.128,0.56c1.43,0,2.809-0.206,4.126-0.56
			l-4.126,8.255L37.81,43.511z M39.777,53.417h-2.355L32.08,42.732h2.356L39.777,53.417z M49.439,42.732h2.355l-5.343,10.685h-2.354
			L49.439,42.732z M16.565,60.094v17.36h-4.006v-17.36c0-9.302,7.358-16.894,16.555-17.318l5.322,10.643H23.242
			C19.56,53.417,16.565,56.412,16.565,60.094z M64.641,77.454H19.235v-17.36c0-2.209,1.797-4.007,4.006-4.007h13.354h5.341h5.341
			h13.354c2.208,0,4.007,1.798,4.007,4.007v17.36H64.641z M71.316,77.454h-4.006v-17.36c0-3.682-2.996-6.677-6.678-6.677H49.439
			l5.322-10.644c9.195,0.427,16.555,8.019,16.555,17.319V77.454z"/>
	</g>
</g>
<g>
	<g>
		<rect x="59.298" y="65.436" fill="#010101" width="2.671" height="9.349"/>
	</g>
</g>
<g>
	<g>
		<rect x="59.298" y="60.094" fill="#010101" width="2.671" height="2.672"/>
	</g>
</g>
<g>
	<g>
		<rect x="71.316" y="12.019" fill="#010101" width="2.672" height="2.671"/>
	</g>
</g>
<g>
	<g>
		<rect x="71.316" y="17.36" fill="#010101" width="2.672" height="2.671"/>
	</g>
</g>
<g>
	<g>
		<rect x="71.316" y="22.702" fill="#010101" width="2.672" height="2.67"/>
	</g>
</g>
<g>
	<g>
		<rect x="9.887" y="28.043" fill="#010101" width="2.671" height="2.671"/>
	</g>
</g>
<g>
	<g>
		<rect x="9.887" y="33.386" fill="#010101" width="2.671" height="2.671"/>
	</g>
</g>
<g>
	<g>
		<rect x="9.887" y="38.727" fill="#010101" width="2.671" height="2.669"/>
	</g>
</g>
</svg>
