<?xml version="1.0" encoding="utf-8"?>
<!-- Generator: Adobe Illustrator 16.0.0, SVG Export Plug-In . SVG Version: 6.00 Build 0)  -->
<!DOCTYPE svg PUBLIC "-//W3C//DTD SVG 1.1//EN" "http://www.w3.org/Graphics/SVG/1.1/DTD/svg11.dtd">
<svg version="1.1" id="Capa_1" xmlns="http://www.w3.org/2000/svg" xmlns:xlink="http://www.w3.org/1999/xlink" x="0px" y="0px"
	 width="83px" height="83px" viewBox="0 0 83 83" enable-background="new 0 0 83 83" xml:space="preserve">
<g>
	<g>
		<path fill="#010101" d="M30.433,30.433V33.2h16.6c0.83,0,1.383-0.554,1.383-1.384V24.9c0-0.83-0.553-1.383-1.383-1.383H9.683
			C4.288,23.517,0,27.805,0,33.2v19.366h2.767V33.2c0-3.874,3.043-6.917,6.917-6.917h1.798l3.874,10.237
			c0.138,0.415,0.692,0.83,1.245,0.83s1.106-0.415,1.521-0.83l3.874-10.237H45.65v4.15H30.433z M16.738,32.093l-2.213-5.81h4.427
			L16.738,32.093z"/>
		<path fill="#010101" d="M23.517,80.233h-5.533V53.95h-2.767v26.283H9.683v-45.65H6.917v47.034C6.917,82.447,7.47,83,8.3,83h8.3
			h8.3c0.83,0,1.383-0.553,1.383-1.383V34.583h-2.767V80.233z"/>
		<rect x="15.217" y="40.117" fill="#010101" width="2.767" height="2.766"/>
		<rect x="15.217" y="45.65" fill="#010101" width="2.767" height="2.766"/>
		<path fill="#010101" d="M15.217,22.133h2.767c3.873,0,6.917-3.043,6.917-6.917v-4.15c0-3.874-3.043-6.917-6.917-6.917h-2.767
			c-3.874,0-6.917,3.043-6.917,6.917v4.15C8.3,19.09,11.343,22.133,15.217,22.133z M11.067,11.067c0-2.352,1.798-4.15,4.15-4.15
			h2.767c2.352,0,4.15,1.798,4.15,4.15v4.15c0,2.352-1.798,4.15-4.15,4.15h-2.767c-2.352,0-4.15-1.798-4.15-4.15V11.067z"/>
		<path fill="#010101" d="M41.5,19.367h30.434c0.83,0,1.383-0.553,1.383-1.383v-16.6c0-0.83-0.553-1.383-1.383-1.383H41.5
			c-0.83,0-1.383,0.553-1.383,1.383v16.6C40.117,18.813,40.67,19.367,41.5,19.367z M42.883,2.767H70.55V16.6H42.883V2.767z"/>
		<path fill="#010101" d="M52.566,51.184H33.2c-0.83,0-1.383,0.553-1.383,1.383v11.066c0,0.83,0.553,1.384,1.383,1.384h8.3v4.149
			h-8.3c-0.83,0-1.383,0.555-1.383,1.384v11.067c0,0.83,0.553,1.383,1.383,1.383h19.366c0.83,0,1.384-0.553,1.384-1.383V70.55
			c0-0.829-0.554-1.384-1.384-1.384h-8.3v-4.149h8.3c0.83,0,1.384-0.554,1.384-1.384V52.566
			C53.95,51.736,53.396,51.184,52.566,51.184z M51.184,80.233h-16.6v-8.3h16.6V80.233z M51.184,62.25h-16.6v-8.3h16.6V62.25z"/>
		<path fill="#010101" d="M81.617,65.017c0.83,0,1.383-0.554,1.383-1.384V52.566c0-0.83-0.553-1.383-1.383-1.383H62.25
			c-0.83,0-1.383,0.553-1.383,1.383v11.066c0,0.83,0.553,1.384,1.383,1.384h8.3v4.149h-8.3c-0.83,0-1.383,0.555-1.383,1.384v11.067
			c0,0.83,0.553,1.383,1.383,1.383h19.367C82.447,83,83,82.447,83,81.617V70.55c0-0.829-0.553-1.384-1.383-1.384h-8.301v-4.149
			H81.617z M80.233,80.233H63.633v-8.3h16.601V80.233z M63.633,53.95h16.601v8.3H63.633V53.95z"/>
		<path fill="#010101" d="M73.316,48.416v-4.149c0-0.83-0.553-1.384-1.383-1.384H58.1v-20.75h-2.766v20.75H42.883
			c-0.83,0-1.383,0.554-1.383,1.384v4.149h2.767V45.65H70.55v2.766H73.316z"/>
		<rect x="45.65" y="5.533" fill="#010101" width="16.6" height="2.767"/>
		<rect x="45.65" y="11.067" fill="#010101" width="22.133" height="2.767"/>
		<rect x="38.733" y="56.717" fill="#010101" width="2.767" height="2.767"/>
		<rect x="44.267" y="56.717" fill="#010101" width="2.767" height="2.767"/>
		<rect x="38.733" y="74.7" fill="#010101" width="2.767" height="2.767"/>
		<rect x="44.267" y="74.7" fill="#010101" width="2.767" height="2.767"/>
		<rect x="67.783" y="74.7" fill="#010101" width="2.767" height="2.767"/>
		<rect x="73.316" y="74.7" fill="#010101" width="2.768" height="2.767"/>
		<rect x="67.783" y="56.717" fill="#010101" width="2.767" height="2.767"/>
		<rect x="73.316" y="56.717" fill="#010101" width="2.768" height="2.767"/>
	</g>
</g>
</svg>
