<?xml version="1.0" encoding="utf-8"?>
<!-- Generator: Adobe Illustrator 16.0.0, SVG Export Plug-In . SVG Version: 6.00 Build 0)  -->
<!DOCTYPE svg PUBLIC "-//W3C//DTD SVG 1.1//EN" "http://www.w3.org/Graphics/SVG/1.1/DTD/svg11.dtd">
<svg version="1.1" id="Capa_1" xmlns="http://www.w3.org/2000/svg" xmlns:xlink="http://www.w3.org/1999/xlink" x="0px" y="0px"
	 width="83px" height="83px" viewBox="0 0 83 83" enable-background="new 0 0 83 83" xml:space="preserve">
<g>
	<g>
		<g>
			<path fill="#010101" d="M5.188,31.125h12.104c0,4.6-1.625,6.381-2.282,6.917h-2.905V41.5h24.208v-3.458h-2.905
				c-0.64-0.536-2.283-2.317-2.283-6.917h12.104c2.865,0,5.188-2.323,5.188-5.188V15.563h24.209v11.395l-3.96-3.959l-2.438,2.438
				l6.917,6.917c0.675,0.67,1.765,0.67,2.438,0l6.916-6.917l-2.438-2.438l-3.977,3.959V13.833c0-0.955-0.775-1.729-1.73-1.729
				H48.416V5.188C48.416,2.323,46.094,0,43.229,0H5.188C2.323,0,0,2.323,0,5.188v20.75C0,28.802,2.323,31.125,5.188,31.125z
				 M19.297,38.042c1.032-2.155,1.531-4.528,1.453-6.917h6.917c-0.078,2.389,0.42,4.761,1.453,6.917H19.297z M3.458,5.188
				c0-0.955,0.774-1.729,1.729-1.729h38.041c0.955,0,1.73,0.774,1.73,1.729v20.75c0,0.955-0.775,1.729-1.73,1.729H5.188
				c-0.955,0-1.729-0.774-1.729-1.729V5.188z"/>
			<path fill="#010101" d="M77.813,58.791c0-2.864-2.322-5.188-5.188-5.188V38.042c0-0.955-0.774-1.729-1.729-1.729h-20.75
				c-0.955,0-1.73,0.774-1.73,1.729v8.646h-3.457c-0.955,0-1.73,0.774-1.73,1.729v19.021H10.375V56.043l3.96,3.959l2.438-2.438
				l-6.917-6.917c-0.675-0.671-1.764-0.671-2.438,0l-6.917,6.917l2.438,2.438l3.977-3.96v13.124c0,0.955,0.774,1.73,1.729,1.73
				h34.583v1.729c0,2.865,2.323,5.188,5.188,5.188c0,2.865,2.323,5.188,5.188,5.188h24.209C80.678,83,83,80.678,83,77.813V63.979
				C83,61.114,80.678,58.791,77.813,58.791z M51.875,39.771h17.291v13.833h-9.303l-2.974-5.965
				c-0.296-0.588-0.899-0.956-1.556-0.951h-3.459V39.771z M48.416,74.354c-0.954,0-1.729-0.773-1.729-1.729V50.146h7.574
				l2.974,5.965c0.296,0.587,0.899,0.955,1.556,0.951h13.834c0.955,0,1.729,0.774,1.729,1.729v13.834
				c0,0.955-0.773,1.729-1.729,1.729H48.416z M79.541,77.813c0,0.955-0.773,1.729-1.729,1.729H53.604
				c-0.954,0-1.729-0.773-1.729-1.729h20.75c2.865,0,5.188-2.322,5.188-5.188V62.25c0.955,0,1.729,0.774,1.729,1.729V77.813z"/>
			<path fill="#010101" d="M62.25,65l-4.824-4.825c-0.674-0.671-1.764-0.671-2.438,0l-6.052,6.052l2.438,2.438l4.824-4.824
				l4.825,4.824c0.675,0.671,1.764,0.671,2.438,0l7.781-7.781l-2.438-2.438L62.25,65z"/>
			<rect x="60.521" y="41.5" fill="#010101" width="6.916" height="3.459"/>
			<rect x="60.521" y="46.688" fill="#010101" width="6.916" height="3.459"/>
			<path fill="#010101" d="M39.771,12.104h3.458V6.917c0-0.955-0.773-1.729-1.729-1.729h-5.188v3.458h3.458V12.104z"/>
			<path fill="#010101" d="M20.75,24.208h1.729v1.729h3.458v-1.729h1.729c1.91,0,3.458-1.548,3.458-3.458v-3.458
				c0-1.91-1.548-3.458-3.458-3.458H20.75v-3.458h6.917v1.729h3.458v-1.729c0-1.91-1.548-3.458-3.458-3.458h-1.729V5.188h-3.458
				v1.729H20.75c-1.91,0-3.458,1.548-3.458,3.458v3.458c0,1.91,1.548,3.458,3.458,3.458h6.917v3.458H20.75v-1.729h-3.458v1.729
				C17.292,22.66,18.84,24.208,20.75,24.208z"/>
		</g>
	</g>
</g>
</svg>
