<?xml version="1.0" encoding="utf-8"?>
<!-- Generator: Adobe Illustrator 16.0.0, SVG Export Plug-In . SVG Version: 6.00 Build 0)  -->
<!DOCTYPE svg PUBLIC "-//W3C//DTD SVG 1.1//EN" "http://www.w3.org/Graphics/SVG/1.1/DTD/svg11.dtd">
<svg version="1.1" id="Capa_1" xmlns="http://www.w3.org/2000/svg" xmlns:xlink="http://www.w3.org/1999/xlink" x="0px" y="0px"
	 width="83px" height="83px" viewBox="0 0 83 83" enable-background="new 0 0 83 83" xml:space="preserve">
<g>
	<g>
		<path fill="#010101" d="M76.084,0H6.917C3.103,0,0,3.103,0,6.917v52.567C0,63.297,3.103,66.4,6.917,66.4h27.278l-2.075,8.3h-9.986
			c-0.764,0-1.383,0.62-1.383,1.384c0,3.813,3.103,6.916,6.917,6.916h27.667c3.813,0,6.916-3.104,6.916-6.916
			c0-0.764-0.619-1.384-1.383-1.384h-9.986l-2.076-8.3h27.279c3.813,0,6.916-3.104,6.916-6.917V6.917C83,3.103,79.896,0,76.084,0z
			 M49.8,77.467h9.446c-0.57,1.609-2.109,2.767-3.912,2.767H27.667c-1.804,0-3.342-1.157-3.913-2.767H33.2H49.8z M34.972,74.7
			l2.075-8.3h8.906l2.074,8.3H34.972z M80.233,59.483c0,2.288-1.862,4.149-4.149,4.149H47.033H35.967H6.917
			c-2.288,0-4.15-1.861-4.15-4.149V58.1h77.467V59.483z M80.233,55.334H2.767V6.917c0-2.288,1.862-4.15,4.15-4.15h69.167
			c2.287,0,4.149,1.862,4.149,4.15V55.334z"/>
	</g>
</g>
<g>
	<g>
		<path fill="#010101" d="M47.401,6.313c-0.009-0.003-0.015-0.008-0.023-0.011c-0.046-0.012-0.093-0.019-0.139-0.032
			c-0.677-0.17-1.364-0.31-2.062-0.42c-0.3-0.048-0.599-0.1-0.897-0.137c-0.269-0.032-0.536-0.057-0.808-0.081
			c-0.662-0.06-1.321-0.1-1.973-0.1c-12.967,0-23.517,10.549-23.517,23.517c0,10.388,6.777,19.208,16.135,22.312
			c0.011,0.004,0.021,0.013,0.032,0.018c0.022,0.006,0.044,0.012,0.065,0.02c0.304,0.1,0.616,0.184,0.925,0.271
			c0.284,0.079,0.57,0.153,0.858,0.222c1.289,0.311,2.617,0.512,3.98,0.599c0.017,0.001,0.033,0.004,0.051,0.004
			c0.029,0.001,0.058,0.003,0.086,0.003c0.001,0,0.001,0,0.003,0c0.46,0.027,0.916,0.07,1.382,0.07c0.73,0,1.472-0.039,2.221-0.111
			c0.666-0.063,1.32-0.166,1.969-0.284c0.074-0.014,0.146-0.019,0.219-0.032c0.004,0,0.006-0.002,0.01-0.004
			c10.861-2.073,19.099-11.628,19.099-23.085C65.017,18.125,57.516,8.942,47.401,6.313z M38.733,12.45
			c0.762,0,1.383,0.621,1.383,1.383s-0.621,1.383-1.383,1.383s-1.383-0.621-1.383-1.383S37.971,12.45,38.733,12.45z M47.033,49.028
			V38.733c0-0.762,0.621-1.383,1.383-1.383h0.256c0.572,1.606,2.094,2.767,3.895,2.767c2.288,0,4.15-1.862,4.15-4.15
			s-1.862-4.15-4.15-4.15c-1.801,0-3.322,1.161-3.895,2.767h-0.256c-2.287,0-4.149,1.862-4.149,4.15v10.86
			c-0.087,0.012-0.171,0.029-0.259,0.04c-0.25,0.032-0.498,0.056-0.747,0.077C42.68,49.76,42.095,49.8,41.5,49.8V24.9
			c0-2.288-1.862-4.15-4.15-4.15h-3.021c-0.573-1.606-2.094-2.767-3.896-2.767c-2.288,0-4.15,1.862-4.15,4.15s1.862,4.15,4.15,4.15
			c1.801,0,3.323-1.161,3.896-2.767h3.021c0.762,0,1.383,0.621,1.383,1.383v24.692c-0.79-0.104-1.562-0.26-2.318-0.447
			c-0.149-0.037-0.299-0.075-0.448-0.115V35.967c0-2.288-1.862-4.15-4.15-4.15h-0.255c-0.573-1.606-2.094-2.767-3.896-2.767
			c-2.288,0-4.15,1.862-4.15,4.15s1.862,4.15,4.15,4.15c1.801,0,3.323-1.161,3.896-2.767h0.255c0.762,0,1.383,0.621,1.383,1.383
			v12.089c-7.319-3.21-12.45-10.515-12.45-19.006c0-10.021,7.141-18.404,16.6-20.332v1.22c-1.606,0.573-2.767,2.094-2.767,3.896
			c0,2.288,1.862,4.15,4.15,4.15s4.149-1.862,4.149-4.15c0-1.801-1.16-3.323-2.766-3.896V8.371C40.576,8.34,41.032,8.3,41.5,8.3
			c1.354,0,2.746,0.148,4.15,0.44v13.394c0,2.288,1.861,4.15,4.149,4.15h1.638c0.573,1.606,2.095,2.767,3.896,2.767
			c2.287,0,4.149-1.862,4.149-4.15s-1.862-4.15-4.149-4.15c-1.802,0-3.323,1.161-3.896,2.767H49.8c-0.763,0-1.384-0.621-1.384-1.383
			V9.51c8.046,2.858,13.834,10.526,13.834,19.54C62.25,38.573,55.793,46.598,47.033,49.028z M51.184,35.967
			c0-0.762,0.621-1.383,1.383-1.383c0.763,0,1.384,0.621,1.384,1.383s-0.621,1.383-1.384,1.383
			C51.805,37.35,51.184,36.729,51.184,35.967z M31.817,22.133c0,0.762-0.622,1.383-1.384,1.383s-1.383-0.621-1.383-1.383
			s0.621-1.383,1.383-1.383S31.817,21.371,31.817,22.133z M29.05,33.2c0,0.762-0.621,1.383-1.383,1.383s-1.383-0.621-1.383-1.383
			s0.621-1.384,1.383-1.384S29.05,32.438,29.05,33.2z M53.95,24.9c0-0.762,0.621-1.383,1.384-1.383c0.762,0,1.383,0.621,1.383,1.383
			s-0.621,1.383-1.383,1.383C54.571,26.283,53.95,25.662,53.95,24.9z"/>
	</g>
</g>
</svg>
