<?xml version="1.0" encoding="utf-8"?>
<!-- Generator: Adobe Illustrator 16.0.0, SVG Export Plug-In . SVG Version: 6.00 Build 0)  -->
<!DOCTYPE svg PUBLIC "-//W3C//DTD SVG 1.1//EN" "http://www.w3.org/Graphics/SVG/1.1/DTD/svg11.dtd">
<svg version="1.1" id="Layer_1" xmlns="http://www.w3.org/2000/svg" xmlns:xlink="http://www.w3.org/1999/xlink" x="0px" y="0px"
	 width="83px" height="83px" viewBox="0 0 83 83" enable-background="new 0 0 83 83" xml:space="preserve">
<g>
	<g>
		<path fill="#010101" d="M61.713,18.76c0,1.167,1.168,2.333,2.801,2.333c2.33,0,3.03-0.934,3.03-2.333c0-0.233,0-0.233,0-0.466
			c-0.231-0.699-0.935-1.166-1.631-1.632c-0.233,0-0.699-0.234-1.165-0.234C63.111,16.43,61.713,17.362,61.713,18.76z"/>
		<path fill="#010101" d="M66.613,11.063c-0.235-1.4-1.168-2.567-2.334-2.567c-1.168,0-1.866,1.167-1.631,2.567
			c0.234,1.399,1.166,2.565,2.33,2.565C65.913,13.629,66.846,12.462,66.613,11.063z"/>
		<path fill="#010101" d="M56.116,28.558l3.966-3.966c2.331,1.866,5.134,3.033,8.165,3.033c7.229,0,13.063-5.832,13.063-13.063
			C81.309,7.331,75.477,1.5,68.246,1.5c-7.229,0-13.063,5.832-13.063,13.063c0,3.267,1.164,6.064,3.031,8.164l-3.967,3.967
			C54.948,27.392,55.648,28.093,56.116,28.558z M70.346,10.363h2.564V7.798h0.933v2.567h2.567v0.933h-2.567v2.566H72.91v-2.568
			h-2.564V10.363L70.346,10.363z M64.514,14.795c0-0.234,0-0.467,0.235-0.7c-0.235,0-0.235,0-0.466,0
			c-1.867,0-3.268-1.4-3.268-3.032c0-1.633,1.865-3.033,3.732-3.033h4.195l-0.934,0.7h-1.398c0.935,0.234,1.398,1.4,1.398,2.565
			c0,0.934-0.465,1.633-1.167,2.333c-0.698,0.467-0.933,0.7-0.933,1.167c0,0.466,0.701,1.167,1.166,1.399
			c1.166,0.7,1.398,1.633,1.398,2.798c0,1.632-1.398,3.033-4.197,3.033c-2.33,0-4.432-0.933-4.432-2.566
			c0-1.632,1.864-3.032,4.197-3.032c0.234,0,0.466,0,0.7,0C64.746,15.729,64.514,15.262,64.514,14.795z"/>
		<path fill="#010101" d="M68.246,55.15c-3.031,0-6.064,1.164-8.165,3.031l-3.965-3.967c-0.468,0.699-1.168,1.164-1.632,1.631
			l3.966,3.967c-1.866,2.33-3.033,5.133-3.033,8.164c0,7.23,5.834,13.063,13.063,13.063c7.229,0,13.063-5.832,13.063-13.063
			C81.309,60.747,75.477,55.15,68.246,55.15z M64.514,74.044h-2.564v-8.165h2.564V74.044z M63.348,64.715L63.348,64.715
			c-0.934,0-1.633-0.701-1.633-1.4c0-0.7,0.7-1.399,1.633-1.399c0.932,0,1.631,0.699,1.631,1.399
			C64.746,64.247,64.279,64.715,63.348,64.715z M75.012,74.044h-3.033v-4.198c0-1.164-0.465-1.865-1.4-1.865
			c-0.7,0-1.165,0.467-1.398,0.934c0,0.236,0,0.468,0,0.701v4.433h-2.8c0,0,0-7.464,0-8.165h2.8v1.167
			c0.233-0.466,1.166-1.399,2.565-1.399c1.864,0,3.267,1.166,3.267,3.731V74.044L75.012,74.044z"/>
		<path fill="#010101" d="M27.192,54.218l-3.966,3.968c-2.333-1.867-5.131-3.033-8.164-3.033C7.831,55.152,2,60.984,2,68.214
			s5.831,13.063,13.063,13.063c7.23,0,13.063-5.834,13.063-13.063c0-3.032-1.167-6.063-3.033-8.164l3.966-3.967
			C28.358,55.382,27.658,54.682,27.192,54.218z M20.662,66.113c0,3.966-3.032,8.396-8.398,8.396c-1.631,0-3.265-0.467-4.432-1.401
			c0.234,0,0.467,0,0.7,0c1.4,0,2.567-0.465,3.732-1.164c-1.165,0-2.332-0.935-2.798-2.103c0.233,0,0.466,0,0.466,0
			c0.234,0,0.466,0,0.701,0c-1.4-0.233-2.333-1.399-2.333-2.799l0,0c0.467,0.233,0.934,0.466,1.399,0.466
			c-0.7-0.466-1.399-1.4-1.399-2.333c0-0.464,0.233-0.933,0.467-1.397c1.399,1.865,3.497,3.031,6.064,3.031c0-0.235,0-0.466,0-0.701
			c0-1.631,1.4-3.031,3.032-3.031c0.933,0,1.633,0.466,2.101,0.934c0.7-0.234,1.399-0.467,1.866-0.699
			c-0.234,0.699-0.701,1.166-1.4,1.631c0.7,0,1.167-0.234,1.632-0.465c-0.466,0.698-0.933,1.164-1.399,1.398
			C20.662,65.879,20.662,65.879,20.662,66.113z"/>
		<path fill="#010101" d="M15.063,27.625c3.033,0,6.064-1.167,8.164-3.033l3.966,3.966c0.466-0.7,1.166-1.166,1.632-1.632
			l-3.966-3.965c1.866-2.333,3.033-5.131,3.033-8.164c0-7.231-5.832-13.063-13.063-13.063S2,7.566,2,14.797
			C2,21.793,7.831,27.625,15.063,27.625z M12.03,12.462h1.399v-1.399c0-1.866,0.7-3.033,3.033-3.033h1.866v2.332h-1.166
			c-0.933,0-0.933,0.234-0.933,0.933v1.167h2.099l-0.232,2.333h-2.102v6.531h-2.799v-6.531h-1.398v-2.333H12.03z"/>
		<g>
			<path fill="#010101" d="M53.552,47.918c-0.235-0.465-0.7-0.701-0.933-0.701c-2.102-0.699-3.965-1.164-6.064-1.863
				c-0.232,0-0.699-0.467-0.699-1.399c0-0.468,0-0.702-0.465-0.702c-0.236,0,0,0-0.236-0.232c-0.231-0.933-0.231-1.399-0.231-1.632
				c0-0.232,0.231-0.234,0.231-0.466c0.701-0.934,0.934-2.332,0.934-2.8c0,0,0.234,0,0.234-0.234
				c0.232-0.467,0.232-0.467,0.232-1.167c0.235-0.464,0.235-1.164-0.232-1.164c-0.234,0.233-0.234,0-0.234-0.467V32.29
				c0-0.934-0.699-1.632-1.165-1.865c-0.702-0.468-0.933-0.701-1.168-0.701c-0.233-0.234-0.233-0.467,0-0.7s0.466-0.233,0.466-0.467
				c0,0,0,0-0.232,0c-0.235,0-1.633,0.235-2.333,0.467c-1.167,0.233-2.333,0.7-3.267,1.4c-0.701,0.465-1.166,1.165-1.166,2.1
				c0,0.465,0,1.865,0,2.8c0,0.235,0,0.467-0.234,0.235c-0.7,0-0.233,0.934-0.233,1.165c0,0.467,0.233,0.701,0.465,1.167
				c0,0.234,0.234,0.234,0.234,0.234c0.233,0.699,0.467,2.1,0.934,2.799c0,0,0.234,0.234,0.234,0.467c0,0.466,0,1.166-0.234,1.632
				c0,0,0,0.233-0.234,0.233c-0.467,0-0.467,0.233-0.467,0.7c0,0.699-0.465,1.4-0.699,1.4c-1.167,0.465-4.664,1.632-5.832,1.865
				c-0.699,0.233-0.933,0.467-1.166,0.698l-1.167,2.8c4.665,0,6.998,2.799,11.896,3.732h2.333c4.898-0.7,8.396-3.732,11.663-3.732
				L53.552,47.918z"/>
		</g>
	</g>
</g>
</svg>
