<?xml version="1.0" encoding="utf-8"?>
<!-- Generator: Adobe Illustrator 16.0.0, SVG Export Plug-In . SVG Version: 6.00 Build 0)  -->
<!DOCTYPE svg PUBLIC "-//W3C//DTD SVG 1.1//EN" "http://www.w3.org/Graphics/SVG/1.1/DTD/svg11.dtd">
<svg version="1.1" id="Layer_1" xmlns="http://www.w3.org/2000/svg" xmlns:xlink="http://www.w3.org/1999/xlink" x="0px" y="0px"
	 width="83px" height="83px" viewBox="0 0 83 83" enable-background="new 0 0 83 83" xml:space="preserve">
<g>
	<g>
		<path fill="#010101" d="M72.265,72.156c2.194-1.459,3.646-3.95,3.646-6.779c0-4.484-3.647-8.133-8.134-8.133
			c-2.827,0-5.317,1.453-6.776,3.647c-0.968-1.458-2.393-2.579-4.066-3.173v-4.542h2.71v-2.71h-2.71v-8.134h2.71v-2.71h-4.066H51.51
			h-9.87c0.085-0.069,0.183-0.119,0.266-0.191l7.795-6.93c0.279-0.247,0.444-0.599,0.455-0.973c0.01-0.372-0.133-0.735-0.397-0.997
			l-4.066-4.067c-0.487-0.488-1.267-0.531-1.805-0.101l-5.686,4.549l-5.669-7.559c-1.273-1.697-3.3-2.71-5.423-2.71H12.2
			c-3.737,0-6.777,3.041-6.777,6.778v8.133c0,1.531,0.53,2.93,1.39,4.067H1.355C0.607,39.623,0,40.229,0,40.977v31.179h2.711V53.177
			h51.511v4.067c-2.828,0-5.319,1.453-6.779,3.647c-1.457-2.196-3.949-3.647-6.777-3.647s-5.319,1.453-6.777,3.647
			c-1.46-2.196-3.951-3.647-6.779-3.647c-2.828,0-5.318,1.453-6.777,3.647c-1.458-2.196-3.949-3.647-6.777-3.647
			c-4.486,0-8.133,3.648-8.133,8.133c0,2.829,1.452,5.32,3.646,6.779c-2.193,1.457-3.646,3.949-3.646,6.777V83h2.71v-4.066
			c0-2.99,2.433-5.423,5.423-5.423c2.989,0,5.421,2.433,5.421,5.423V83h2.712v-4.066c0-2.99,2.432-5.423,5.421-5.423
			c2.99,0,5.423,2.433,5.423,5.423V83h2.71v-4.066c0-2.99,2.433-5.423,5.423-5.423c2.991,0,5.423,2.433,5.423,5.423V83h2.71v-4.066
			c0-2.99,2.433-5.423,5.423-5.423c2.988,0,5.421,2.433,5.421,5.423V83h2.713v-4.066c0-2.99,2.432-5.423,5.42-5.423
			c2.991,0,5.423,2.433,5.423,5.423V83h2.711v-4.066C75.91,76.105,74.459,73.613,72.265,72.156z M22.007,23.356l-1.674,2.788
			l-1.673-2.788H22.007z M8.133,27.423c0-2.243,1.825-4.067,4.067-4.067h3.299l3.672,6.12c0.246,0.407,0.687,0.657,1.162,0.657
			c0.476,0,0.917-0.25,1.163-0.657l3.672-6.12h1.943c1.273,0,2.491,0.607,3.254,1.625l6.506,8.675
			c0.219,0.295,0.549,0.487,0.914,0.533c0.363,0.043,0.73-0.057,1.017-0.286l5.831-4.665l2.192,2.191l-6.722,5.976
			c-0.86,0.763-1.959,1.122-3.107,1.005c-1.146-0.115-2.157-0.687-2.848-1.606l-4.596-6.129c-0.35-0.468-0.958-0.66-1.513-0.473
			c-0.554,0.185-0.927,0.701-0.927,1.287v8.133h-5.421v-4.066c0-0.75-0.608-1.356-1.356-1.356h-6.777v-5.423h-2.712v6.779
			c0,0.748,0.608,1.354,1.356,1.354h6.777v2.712H12.2c-2.242,0-4.067-1.825-4.067-4.066V27.423z M33.161,39.623h-3.338v-4.066
			l2.157,2.875C32.319,38.886,32.725,39.272,33.161,39.623z M2.711,50.467v-8.134H12.2h8.133H51.51h2.713v8.134H2.711z M13.556,70.8
			c-2.99,0-5.423-2.433-5.423-5.423c0-2.988,2.433-5.421,5.423-5.421c2.989,0,5.421,2.433,5.421,5.421
			C18.977,68.367,16.545,70.8,13.556,70.8z M20.333,74.446c-0.604-0.908-1.381-1.688-2.291-2.29c0.91-0.604,1.688-1.384,2.291-2.291
			c0.604,0.907,1.382,1.688,2.292,2.291C21.715,72.759,20.937,73.538,20.333,74.446z M27.11,70.8c-2.989,0-5.421-2.433-5.421-5.423
			c0-2.988,2.432-5.421,5.421-5.421c2.99,0,5.423,2.433,5.423,5.421C32.533,68.367,30.1,70.8,27.11,70.8z M33.89,74.446
			c-0.604-0.908-1.384-1.688-2.292-2.29c0.908-0.604,1.688-1.384,2.292-2.291c0.603,0.907,1.381,1.688,2.29,2.291
			C35.271,72.759,34.492,73.538,33.89,74.446z M40.667,70.8c-2.99,0-5.423-2.433-5.423-5.423c0-2.988,2.433-5.421,5.423-5.421
			c2.991,0,5.423,2.433,5.423,5.421C46.09,68.367,43.657,70.8,40.667,70.8z M47.443,74.446c-0.603-0.908-1.382-1.688-2.29-2.29
			c0.908-0.604,1.688-1.384,2.29-2.291c0.604,0.907,1.384,1.688,2.292,2.291C48.827,72.759,48.047,73.538,47.443,74.446z
			 M54.223,70.8c-2.99,0-5.423-2.433-5.423-5.423c0-2.988,2.433-5.421,5.423-5.421c2.988,0,5.421,2.433,5.421,5.421
			C59.644,68.367,57.211,70.8,54.223,70.8z M61,74.446c-0.604-0.908-1.382-1.688-2.292-2.29c0.91-0.604,1.688-1.384,2.292-2.291
			c0.604,0.907,1.382,1.688,2.291,2.291C62.382,72.759,61.604,73.538,61,74.446z M67.776,70.8c-2.988,0-5.42-2.433-5.42-5.423
			c0-2.988,2.432-5.421,5.42-5.421c2.991,0,5.423,2.433,5.423,5.421C73.199,68.367,70.768,70.8,67.776,70.8z"/>
	</g>
</g>
<g>
	<g>
		<rect x="48.8" y="45.044" fill="#010101" width="2.71" height="2.713"/>
	</g>
</g>
<g>
	<g>
		<rect x="43.377" y="45.044" fill="#010101" width="2.713" height="2.713"/>
	</g>
</g>
<g>
	<g>
		<rect x="37.956" y="45.044" fill="#010101" width="2.71" height="2.713"/>
	</g>
</g>
<g>
	<g>
		<path fill="#010101" d="M20.333,1.667c-4.485,0-8.133,3.647-8.133,8.133s3.647,8.133,8.133,8.133c4.486,0,8.134-3.647,8.134-8.133
			S24.819,1.667,20.333,1.667z M20.333,15.222c-2.99,0-5.423-2.432-5.423-5.422s2.433-5.422,5.423-5.422
			c2.99,0,5.423,2.432,5.423,5.422S23.323,15.222,20.333,15.222z"/>
	</g>
</g>
<g>
	<g>
		<path fill="#010101" d="M77.267,11.155c-0.856,0-1.648,0.269-2.304,0.721l-8.59-4.295c0.02-0.163,0.05-0.324,0.05-0.492
			c0-2.243-1.825-4.067-4.066-4.067c-2.243,0-4.067,1.824-4.067,4.067c0,1.053,0.411,2.005,1.07,2.728l-4.548,6.821
			c-0.193-0.029-0.388-0.061-0.589-0.061c-1.638,0-3.045,0.979-3.689,2.378l-7.19-2.054c0.011-0.109,0.034-0.212,0.034-0.324
			c0-2.242-1.824-4.066-4.067-4.066c-2.242,0-4.066,1.825-4.066,4.066c0,2.243,1.825,4.067,4.066,4.067
			c1.145,0,2.177-0.479,2.917-1.242l8.089,2.311c0.472,1.722,2.035,2.996,3.906,2.996c2.242,0,4.066-1.824,4.066-4.066
			c0-1.053-0.413-2.005-1.072-2.728l4.55-6.821c0.192,0.028,0.387,0.06,0.59,0.06c1.093,0,2.082-0.439,2.815-1.144l8.201,4.103
			c-0.102,0.355-0.174,0.723-0.174,1.109c0,2.242,1.825,4.066,4.067,4.066c2.241,0,4.066-1.825,4.066-4.066
			S79.508,11.155,77.267,11.155z M39.31,17.934c-0.746,0-1.354-0.607-1.354-1.355c0-0.749,0.608-1.355,1.354-1.355
			c0.748,0,1.356,0.607,1.356,1.355C40.667,17.327,40.058,17.934,39.31,17.934z M54.223,22c-0.747,0-1.356-0.607-1.356-1.355
			s0.609-1.355,1.356-1.355s1.354,0.607,1.354,1.355S54.97,22,54.223,22z M62.356,8.445C61.609,8.445,61,7.837,61,7.089
			s0.609-1.355,1.356-1.355c0.746,0,1.354,0.607,1.354,1.355S63.103,8.445,62.356,8.445z M77.267,16.579
			c-0.747,0-1.356-0.607-1.356-1.355s0.609-1.355,1.356-1.355c0.746,0,1.356,0.607,1.356,1.355
			C78.623,15.97,78.013,16.579,77.267,16.579z"/>
	</g>
</g>
<g>
	<g>
		<rect x="75.91" y="23.356" fill="#010101" width="2.713" height="2.71"/>
	</g>
</g>
<g>
	<g>
		<rect x="70.489" y="23.356" fill="#010101" width="2.71" height="2.71"/>
	</g>
</g>
<g>
	<g>
		<rect x="65.066" y="23.356" fill="#010101" width="2.71" height="2.71"/>
	</g>
</g>
</svg>
