<?xml version="1.0" encoding="utf-8"?>
<!-- Generator: Adobe Illustrator 16.0.0, SVG Export Plug-In . SVG Version: 6.00 Build 0)  -->
<!DOCTYPE svg PUBLIC "-//W3C//DTD SVG 1.1//EN" "http://www.w3.org/Graphics/SVG/1.1/DTD/svg11.dtd">
<svg version="1.1" id="Capa_1" xmlns="http://www.w3.org/2000/svg" xmlns:xlink="http://www.w3.org/1999/xlink" x="0px" y="0px"
	 width="83px" height="83px" viewBox="0 0 83 83" enable-background="new 0 0 83 83" xml:space="preserve">
<g>
	<g>
		<path fill="#010101" d="M81.379,51.862H66.347c-0.417,0-0.796,0.159-1.083,0.417l-2.376-1.83
			c-0.829-0.639-1.488-1.465-1.938-2.391c0.7-1.432,1.276-2.919,1.721-4.441l7.469-1.193c0.786-0.125,1.364-0.804,1.364-1.601
			V30.682c0-0.796-0.578-1.475-1.364-1.601l-7.468-1.194c-0.568-1.951-1.347-3.83-2.322-5.609l4.436-6.124
			c0.467-0.645,0.396-1.534-0.166-2.097l-7.172-7.171c-0.563-0.563-1.452-0.634-2.098-0.167l-6.123,4.436
			c-1.779-0.976-3.658-1.753-5.609-2.321l-1.193-7.469C42.299,0.579,41.62,0,40.823,0H30.682c-0.796,0-1.475,0.579-1.601,1.365
			l-1.194,7.468c-1.951,0.568-3.83,1.346-5.609,2.322l-6.124-4.436c-0.645-0.467-1.534-0.396-2.097,0.167l-7.171,7.171
			c-0.563,0.563-0.634,1.452-0.167,2.097l4.436,6.124c-0.976,1.779-1.753,3.658-2.322,5.609l-7.468,1.194
			C0.579,29.207,0,29.885,0,30.682v10.142c0,0.796,0.579,1.476,1.365,1.601l7.468,1.193c0.568,1.951,1.346,3.83,2.322,5.609
			L6.719,55.35c-0.467,0.646-0.396,1.535,0.167,2.098l7.171,7.172c0.563,0.563,1.452,0.633,2.097,0.166l6.124-4.436
			c1.779,0.976,3.658,1.754,5.609,2.322l0.912,5.707c-0.101,0.417-0.156,0.852-0.156,1.299c0,1.521,0.618,2.901,1.617,3.9
			c-0.999,1-1.617,2.379-1.617,3.9c0,3.045,2.477,5.521,5.521,5.521h22.726c2.152,0,4.283-0.715,6-2.013l1.894-1.431
			c0.187,0.688,0.815,1.195,1.563,1.195h15.032c0.895,0,1.621-0.727,1.621-1.621V53.483C83,52.588,82.273,51.862,81.379,51.862z
			 M30.082,58.166c-0.02,0.021-0.038,0.043-0.058,0.065c-0.038,0.043-0.076,0.086-0.112,0.13c-0.022,0.027-0.044,0.055-0.066,0.082
			c-0.032,0.041-0.064,0.08-0.095,0.122c-0.022,0.03-0.044,0.062-0.066,0.092c-0.029,0.04-0.058,0.079-0.085,0.12
			c-0.021,0.031-0.042,0.064-0.063,0.096c-0.026,0.041-0.053,0.082-0.079,0.123c-0.021,0.033-0.04,0.066-0.059,0.1
			c-0.024,0.042-0.049,0.084-0.072,0.126c-0.019,0.034-0.037,0.069-0.055,0.104c-0.022,0.043-0.044,0.085-0.065,0.128
			c-0.018,0.036-0.034,0.071-0.051,0.108c-0.013,0.029-0.028,0.057-0.041,0.086c-2.146-0.594-4.197-1.473-6.104-2.617
			c-0.557-0.334-1.259-0.303-1.785,0.078l-5.853,4.239l-5.216-5.216l4.239-5.853c0.381-0.526,0.411-1.229,0.078-1.785
			c-1.251-2.085-2.185-4.341-2.776-6.706c-0.157-0.63-0.675-1.105-1.317-1.208L3.242,39.44v-7.376l7.138-1.141
			c0.641-0.103,1.159-0.578,1.317-1.208c0.591-2.364,1.524-4.621,2.775-6.706c0.334-0.557,0.304-1.259-0.077-1.785l-4.239-5.853
			l5.216-5.216l5.853,4.239c0.525,0.381,1.228,0.411,1.785,0.077c2.085-1.251,4.342-2.185,6.706-2.775
			c0.63-0.158,1.105-0.676,1.208-1.317l1.142-7.138h7.376l1.141,7.138c0.103,0.641,0.578,1.159,1.208,1.317
			c2.365,0.591,4.621,1.524,6.706,2.775c0.558,0.334,1.259,0.304,1.785-0.077l5.853-4.239l5.216,5.216l-4.239,5.853
			c-0.381,0.526-0.412,1.228-0.078,1.785c1.252,2.085,2.186,4.342,2.776,6.706c0.157,0.63,0.676,1.105,1.317,1.208l7.138,1.141
			v7.376l-7.138,1.141c-0.326,0.052-0.621,0.2-0.852,0.417v-5.671c0-1.747-0.917-3.283-2.295-4.155
			c-0.892-4.351-3.02-8.309-6.178-11.468c-8.85-8.849-23.248-8.849-32.096,0c-3.527,3.527-5.751,7.996-6.433,12.924
			c-0.659,4.767,0.233,9.71,2.512,13.921c0.293,0.542,0.851,0.85,1.427,0.85c0.261,0,0.525-0.063,0.77-0.196
			c0.788-0.426,1.081-1.409,0.654-2.197c-4.063-7.505-2.68-16.967,3.362-23.009c7.584-7.585,19.926-7.585,27.511,0
			c2.375,2.374,4.068,5.275,4.966,8.467c-0.032,0.004-0.065,0.008-0.098,0.013c-0.022,0.003-0.046,0.005-0.069,0.009
			c-1.02,0.139-1.979,0.476-2.834,0.971c-0.742-2.717-2.182-5.216-4.195-7.23c-3.078-3.079-7.171-4.774-11.525-4.774
			c-4.354,0-8.447,1.695-11.525,4.774c-6.355,6.355-6.355,16.695,0,23.05c1.574,1.574,3.416,2.789,5.439,3.6
			c-0.017,0.023-0.032,0.049-0.049,0.074c-0.045,0.065-0.089,0.133-0.132,0.201c-0.031,0.051-0.062,0.101-0.091,0.151
			c-0.043,0.074-0.085,0.149-0.125,0.227c-0.019,0.036-0.038,0.073-0.056,0.11c-0.051,0.103-0.099,0.207-0.144,0.313
			c-0.01,0.024-0.02,0.05-0.03,0.075c-0.039,0.098-0.076,0.197-0.109,0.298c-0.008,0.024-0.017,0.048-0.024,0.071
			c-0.038,0.117-0.071,0.237-0.101,0.358c-0.006,0.024-0.012,0.048-0.017,0.073c-0.026,0.114-0.05,0.229-0.069,0.347
			c-0.002,0.013-0.005,0.026-0.007,0.04c-0.02,0.125-0.035,0.253-0.045,0.381c-0.002,0.029-0.005,0.058-0.007,0.086
			c-0.009,0.131-0.016,0.262-0.016,0.395c0,1.521,0.619,2.9,1.617,3.9C30.2,58.039,30.14,58.102,30.082,58.166z M26.52,44.985
			c-5.091-5.091-5.091-13.375,0-18.466c5.091-5.091,13.375-5.091,18.466,0c2.06,2.061,3.369,4.755,3.723,7.639
			c-0.718,1.178-1.131,2.559-1.131,4.036v3.086c-0.644,1.378-1.513,2.625-2.593,3.705c-1.837,1.837-4.147,3.069-6.686,3.571h-4.133
			c-0.238,0-0.471,0.017-0.701,0.046C30.821,48.136,28.424,46.89,26.52,44.985z M47.577,46.971v1.586H45.84
			c0.502-0.396,0.981-0.822,1.438-1.279C47.379,47.176,47.479,47.074,47.577,46.971z M64.726,75.535l-3.79,2.865
			c-1.157,0.875-2.594,1.357-4.045,1.357H34.165c-1.257,0-2.279-1.022-2.279-2.279c0-1.255,1.019-2.275,2.273-2.279h3.705
			c0.896,0,1.621-0.725,1.621-1.621c0-0.895-0.726-1.621-1.621-1.621h-3.692c-0.002,0-0.004,0-0.006,0
			c-1.257,0-2.279-1.021-2.279-2.279c0-0.313,0.064-0.613,0.179-0.886c0,0,0-0.001,0-0.001c0.028-0.066,0.06-0.13,0.093-0.193
			c0.003-0.004,0.006-0.01,0.009-0.015c0.033-0.062,0.069-0.12,0.108-0.178l0-0.001c0.286-0.422,0.709-0.744,1.206-0.9
			c0.008-0.002,0.017-0.004,0.025-0.007c0.057-0.018,0.114-0.032,0.173-0.044c0.019-0.005,0.039-0.009,0.058-0.012
			c0.05-0.01,0.102-0.018,0.153-0.023c0.021-0.003,0.041-0.006,0.061-0.008c0.07-0.007,0.141-0.012,0.213-0.012h3.699
			c0.896,0,1.621-0.725,1.621-1.621c0-0.895-0.726-1.621-1.621-1.621h-3.699c-1.257,0-2.279-1.021-2.279-2.278
			s1.022-2.279,2.279-2.279c0.002,0,0.004,0,0.006,0h3.692c0.896,0,1.621-0.726,1.621-1.621s-0.726-1.621-1.621-1.621h-3.705
			c-1.253-0.003-2.273-1.024-2.273-2.278c0-0.074,0.004-0.147,0.011-0.22c0.002-0.024,0.006-0.048,0.009-0.072
			c0.006-0.048,0.013-0.095,0.022-0.142c0.005-0.027,0.012-0.055,0.018-0.081c0.01-0.043,0.021-0.086,0.033-0.128
			c0.007-0.026,0.016-0.053,0.024-0.078c0.015-0.043,0.03-0.086,0.047-0.128c0.009-0.022,0.019-0.045,0.028-0.067
			c0.021-0.046,0.042-0.092,0.065-0.136c0.009-0.017,0.017-0.033,0.026-0.05c0.031-0.055,0.063-0.109,0.099-0.162
			c0.003-0.004,0.005-0.009,0.008-0.014c0.162-0.238,0.368-0.444,0.606-0.607c0.007-0.005,0.015-0.01,0.023-0.015
			c0.05-0.033,0.101-0.064,0.154-0.094c0.014-0.008,0.028-0.015,0.042-0.022c0.046-0.025,0.093-0.047,0.141-0.068
			c0.021-0.01,0.042-0.019,0.063-0.027c0.042-0.017,0.084-0.031,0.126-0.047c0.028-0.009,0.055-0.018,0.083-0.026
			c0.036-0.011,0.072-0.02,0.109-0.028c0.035-0.008,0.07-0.018,0.105-0.024c0.141-0.027,0.286-0.043,0.435-0.043h4.297h10.736
			c0.896,0,1.621-0.726,1.621-1.621v-8.539v-3.443c0-1.012,0.333-1.947,0.895-2.703c0.022-0.03,0.046-0.059,0.069-0.088
			c0.045-0.059,0.093-0.117,0.142-0.173c0.028-0.033,0.058-0.066,0.087-0.098c0.024-0.028,0.051-0.054,0.076-0.081
			c0.033-0.035,0.066-0.069,0.101-0.102c0.022-0.022,0.046-0.044,0.068-0.065c0.044-0.041,0.088-0.081,0.133-0.119
			c0.015-0.013,0.03-0.026,0.045-0.039c0.606-0.51,1.337-0.856,2.118-0.998c0.004,0,0.007-0.001,0.011-0.002
			c0.077-0.014,0.155-0.025,0.233-0.035c0.014-0.002,0.027-0.003,0.041-0.005c0.07-0.008,0.141-0.014,0.211-0.019
			c0.018-0.001,0.035-0.003,0.053-0.004c0.086-0.005,0.172-0.008,0.258-0.008c0.922,0,1.672,0.75,1.672,1.672v9.808
			c0,0.177,0.006,0.354,0.016,0.529c0.002,0.038,0.005,0.076,0.008,0.113c0.01,0.156,0.023,0.313,0.041,0.467
			c0.002,0.018,0.003,0.034,0.005,0.051c0.091,0.771,0.27,1.531,0.539,2.267c0.019,0.052,0.044,0.101,0.067,0.149
			c0.651,1.683,1.75,3.188,3.201,4.306l3.817,2.941V75.535L64.726,75.535z M79.758,77.51h-4.273V64.891
			c0-0.896-0.727-1.621-1.621-1.621c-0.896,0-1.621,0.725-1.621,1.621V77.51h-4.274v-1.168V55.16v-0.056h11.79V77.51z"/>
	</g>
</g>
<g>
	<g>
		<path fill="#010101" d="M75.452,58.803C75.432,58.701,75.4,58.6,75.359,58.5c-0.04-0.098-0.09-0.191-0.148-0.278
			c-0.059-0.089-0.127-0.172-0.201-0.247c-0.074-0.074-0.159-0.143-0.246-0.202c-0.09-0.059-0.184-0.108-0.281-0.149
			c-0.098-0.04-0.199-0.071-0.303-0.092c-0.209-0.043-0.425-0.043-0.635,0c-0.104,0.021-0.205,0.052-0.303,0.092
			c-0.098,0.041-0.191,0.091-0.28,0.149c-0.087,0.06-0.17,0.128-0.246,0.202c-0.075,0.075-0.142,0.158-0.201,0.247
			c-0.059,0.087-0.108,0.181-0.149,0.278c-0.04,0.1-0.071,0.201-0.092,0.303c-0.021,0.105-0.031,0.213-0.031,0.318
			s0.01,0.213,0.031,0.316c0.021,0.104,0.052,0.205,0.092,0.303c0.041,0.1,0.091,0.193,0.149,0.281
			c0.06,0.088,0.126,0.172,0.201,0.246c0.076,0.074,0.159,0.143,0.246,0.201c0.089,0.059,0.183,0.108,0.28,0.148
			c0.098,0.041,0.199,0.072,0.303,0.093c0.105,0.021,0.211,0.032,0.318,0.032c0.105,0,0.213-0.012,0.316-0.032
			s0.205-0.052,0.303-0.093c0.098-0.04,0.191-0.09,0.281-0.148c0.087-0.059,0.172-0.127,0.246-0.201s0.143-0.158,0.201-0.246
			s0.108-0.182,0.148-0.281c0.041-0.098,0.072-0.199,0.093-0.303s0.032-0.211,0.032-0.316S75.473,58.908,75.452,58.803z"/>
	</g>
</g>
<g>
	<g>
		<path fill="#010101" d="M21.844,49.353c-0.302-0.312-0.717-0.489-1.151-0.493c-0.439-0.007-0.852,0.168-1.159,0.475
			c-0.631,0.631-0.629,1.658-0.001,2.292c0.317,0.321,0.736,0.481,1.154,0.481c0.409,0,0.818-0.154,1.133-0.463
			C22.457,51.021,22.465,49.993,21.844,49.353z"/>
	</g>
</g>
<g>
	<g>
		<path fill="#010101" d="M35.752,25.408c-5.704,0-10.345,4.641-10.345,10.345s4.641,10.345,10.345,10.345
			s10.345-4.641,10.345-10.345S41.457,25.408,35.752,25.408z M35.752,42.855c-3.917,0-7.103-3.187-7.103-7.103
			c0-3.917,3.186-7.103,7.103-7.103s7.103,3.186,7.103,7.103S39.669,42.855,35.752,42.855z"/>
	</g>
</g>
<g>
	<g>
		<path fill="#010101" d="M38.044,35.752l0.939-0.939c0.633-0.633,0.633-1.659,0-2.292c-0.633-0.633-1.66-0.633-2.293,0
			l-0.939,0.938l-0.938-0.938c-0.633-0.633-1.66-0.633-2.293,0c-0.633,0.633-0.633,1.659,0,2.292l0.939,0.939l-0.939,0.938
			c-0.633,0.633-0.633,1.66,0,2.293c0.317,0.316,0.731,0.475,1.146,0.475s0.83-0.158,1.146-0.475l0.938-0.939l0.939,0.939
			c0.316,0.316,0.731,0.475,1.146,0.475c0.415,0,0.83-0.158,1.146-0.475c0.633-0.633,0.633-1.66,0-2.293L38.044,35.752z"/>
	</g>
</g>
</svg>
