<?xml version="1.0" encoding="utf-8"?>
<!-- Generator: Adobe Illustrator 16.0.0, SVG Export Plug-In . SVG Version: 6.00 Build 0)  -->
<!DOCTYPE svg PUBLIC "-//W3C//DTD SVG 1.1//EN" "http://www.w3.org/Graphics/SVG/1.1/DTD/svg11.dtd">
<svg version="1.1" id="Layer_1" xmlns="http://www.w3.org/2000/svg" xmlns:xlink="http://www.w3.org/1999/xlink" x="0px" y="0px"
	 width="83px" height="83px" viewBox="0 0 512 512" enable-background="new 0 0 512 512" xml:space="preserve">
<path fill="#010101" d="M114.167,89.227h15v15h-15V89.227z"/>
<path fill="#010101" d="M143.083,89.227h15v15h-15V89.227z"/>
<path fill="#010101" d="M171.999,89.227h15v15h-15V89.227z"/>
<path fill="#010101" d="M113.167,275.459H225.5v-118H113.167V275.459z M128.167,172.459H210.5v88h-82.333V172.459z"/>
<path fill="#010101" d="M250.667,157.459H388v15H250.667V157.459z"/>
<path fill="#010101" d="M250.667,188.456H388v15H250.667V188.456z"/>
<path fill="#010101" d="M250.667,219.452H388v15H250.667V219.452z"/>
<path fill="#010101" d="M250.667,250.448H318v15h-67.333V250.448z"/>
<path fill="#010101" d="M479.44,13.77H92.06v15h387.38c9.683,0,17.56,7.877,17.56,17.56v257.78h-62.062V58.483H77.062V304.11H15
	V46.33c0-9.683,7.877-17.56,17.56-17.56h44.5v-15h-44.5C14.606,13.77,0,28.376,0,46.33V360.1c0,17.954,14.606,32.561,32.56,32.561
	h159.883l-9.458,47.266h-51.383v58.305h248.796v-58.305h-51.383l-9.459-47.266h100.383v-15H32.56c-9.683,0-17.56-7.877-17.56-17.561
	V319.11h482V360.1c0,9.684-7.877,17.561-17.56,17.561h-44.5v15h44.5c17.953,0,32.56-14.606,32.56-32.561V46.33
	C512,28.376,497.394,13.77,479.44,13.77z M365.398,454.926v28.305H146.602v-28.305H365.398z M313.718,439.926H198.282l9.458-47.266
	h96.52L313.718,439.926z M419.938,73.483v46.488h-96.463l-31.367-46.488H419.938z M92.062,73.483h181.952l31.367,46.488H92.062
	V73.483z M92.062,134.971h327.877V304.11H92.062V134.971z"/>
<path fill="#010101" d="M248.5,340.887h15v15h-15V340.887z"/>
<path fill="#010101" d="M460.28,137.008h15v15h-15V137.008z"/>
<path fill="#010101" d="M460.28,167.008h15v68.868h-15V167.008z"/>
<path fill="#010101" d="M460.28,107.008h15v15h-15V107.008z"/>
</svg>
