<?xml version="1.0" encoding="utf-8"?>
<!-- Generator: Adobe Illustrator 16.0.0, SVG Export Plug-In . SVG Version: 6.00 Build 0)  -->
<!DOCTYPE svg PUBLIC "-//W3C//DTD SVG 1.1//EN" "http://www.w3.org/Graphics/SVG/1.1/DTD/svg11.dtd">
<svg version="1.1" id="Layer_1" xmlns="http://www.w3.org/2000/svg" xmlns:xlink="http://www.w3.org/1999/xlink" x="0px" y="0px"
	 width="83px" height="83px" viewBox="0 0 480 480" enable-background="new 0 0 480 480" xml:space="preserve">
<path fill="#010101" d="M239.998,344.003h64v16h-64V344.003z"/>
<path fill="#010101" d="M287.997,304.003h16v32h-16V304.003z"/>
<path fill="#010101" d="M319.996,304.003h16v16h-16V304.003z"/>
<path fill="#010101" d="M351.996,304.003h16v16h-16V304.003z"/>
<path fill="#010101" d="M111.999,224.004h16v16h-16V224.004z"/>
<path fill="#010101" d="M143.999,224.004h16v16h-16V224.004z"/>
<path fill="#010101" d="M175.998,224.004h16v16h-16V224.004z"/>
<path fill="#010101" d="M287.997,216.004h16v32h-16V216.004z"/>
<path fill="#010101" d="M319.996,216.004h16v32h-16V216.004z"/>
<path fill="#010101" d="M351.996,216.004h16v32h-16V216.004z"/>
<path fill="#010101" d="M383.996,184.004c8.836,0,16-7.164,16-16v-48c0-8.839-7.164-16-16-16H95.999c-8.836,0-16,7.16-16,16v48
	c0,8.835,7.164,16,16,16h8v8h-8c-8.836,0-16,7.16-16,16v32h16v-32h287.997v48H239.998v16h87.999v8h-87.999v16h143.999v23.999h16
	v-23.999c0-8.84-7.164-16-16-16h-8v-8h8c8.836,0,16-7.164,16-16v-48c0-8.84-7.164-16-16-16h-8v-8H383.996z M359.996,280.004h-16v-8
	h16V280.004z M95.999,120.005h287.997v48H95.999V120.005z M327.996,184.004v8H151.999v-8H327.996z M119.999,184.004h16v8h-16
	V184.004z M359.996,192.004h-16v-8h16V192.004z"/>
<path fill="#010101" d="M111.999,136.005h16v16h-16V136.005z"/>
<path fill="#010101" d="M143.999,136.005h16v16h-16V136.005z"/>
<path fill="#010101" d="M175.998,136.005h16v16h-16V136.005z"/>
<path fill="#010101" d="M287.997,128.005h16v32h-16V128.005z"/>
<path fill="#010101" d="M319.996,128.005h16v32h-16V128.005z"/>
<path fill="#010101" d="M351.996,128.005h16v32h-16V128.005z"/>
<path fill="#010101" d="M199.998,256.004H24c-13.254,0-24,10.742-24,24v175.998c0,13.254,10.746,24,24,24h175.998
	c13.254,0,24-10.746,24-24V280.004C223.998,266.746,213.252,256.004,199.998,256.004z M24,272.004h175.998c4.418,0,8,3.582,8,8
	v23.999H16v-23.999C16,275.586,19.582,272.004,24,272.004z M199.998,464.002H24c-4.418,0-8-3.582-8-8V320.003h191.998v135.999
	C207.998,460.42,204.416,464.002,199.998,464.002z"/>
<path fill="#010101" d="M32,280.004h16v16H32V280.004z"/>
<path fill="#010101" d="M64,280.004h16v16H64V280.004z"/>
<path fill="#010101" d="M95.999,280.004h16v16h-16V280.004z"/>
<path fill="#010101" d="M66.343,362.347l-24,23.999c-3.121,3.121-3.121,8.188,0,11.313l24,24l11.312-11.313l-18.343-18.344
	l18.343-18.343L66.343,362.347z"/>
<path fill="#010101" d="M96.511,421.189l23.992-64.003l14.98,5.617l-23.992,63.999L96.511,421.189z"/>
<path fill="#010101" d="M157.655,362.347l-11.313,11.313l18.344,18.343l-18.344,18.344l11.313,11.313l24-24
	c3.121-3.125,3.121-8.191,0-11.313L157.655,362.347z"/>
<path fill="#010101" d="M438.827,48.494c-5.504-28.23-30.28-48.57-59.038-48.476s-53.398,20.598-58.723,48.859
	c-25.823-4.977-50.847,11.758-56.108,37.527l15.672,3.199c3.074-14.883,16.168-25.57,31.367-25.597
	c4.409,0.008,8.769,0.934,12.8,2.719c2.449,1.07,5.277,0.844,7.527-0.602c2.25-1.449,3.629-3.922,3.672-6.598
	c0.648-23.258,19.293-41.988,42.547-42.75c23.254-0.758,43.082,16.718,45.246,39.886c0.316,4.176,3.809,7.402,8,7.391h0.511
	c17.18,0.742,30.699,14.925,30.617,32.121s-13.738,31.25-30.921,31.832h-16v16h16c25.183,0,46.085-19.457,47.882-44.578
	C481.675,74.31,463.753,52.072,438.827,48.494z"/>
<path fill="#010101" d="M455.995,336.003H327.996c-4.418,0-8,3.582-8,8v111.999c0,4.418,3.582,8,8,8h127.999c4.418,0,8-3.582,8-8
	V344.003C463.995,339.585,460.413,336.003,455.995,336.003z M447.995,448.002H335.996v-95.999h111.999V448.002z"/>
<path fill="#010101" d="M376.453,431.201c5.199,2.789,11.512,2.48,16.414-0.801l25.602-17.047c4.449-2.969,7.121-7.965,7.121-13.313
	c0-5.352-2.672-10.344-7.121-13.313l-25.602-17.046c-4.902-3.27-11.207-3.578-16.402-0.801c-5.199,2.773-8.453,8.18-8.469,14.07
	v34.097C367.98,422.967,371.234,428.408,376.453,431.201z M383.996,382.952l25.602,17.05l-25.602,17.102V382.952z"/>
<path fill="#010101" d="M16,208.004h48v-16H24V16.006h95.999v32c0,4.418,3.582,8,8,8h24v32h16v-40c0-1.82-0.617-3.582-1.753-5
	l-32-40c-1.516-1.898-3.816-3.004-6.246-3H16c-4.418,0-8,3.582-8,8v191.998C8,204.422,11.582,208.004,16,208.004z M135.999,30.811
	l7.359,9.195h-7.359V30.811z"/>
<path fill="#010101" d="M40,40.006h64v16H40V40.006z"/>
<path fill="#010101" d="M40,72.006h64v16H40V72.006z"/>
</svg>
