<?xml version="1.0" encoding="utf-8"?>
<!-- Generator: Adobe Illustrator 16.0.0, SVG Export Plug-In . SVG Version: 6.00 Build 0)  -->
<!DOCTYPE svg PUBLIC "-//W3C//DTD SVG 1.1//EN" "http://www.w3.org/Graphics/SVG/1.1/DTD/svg11.dtd">
<svg version="1.1" id="Capa_1" xmlns="http://www.w3.org/2000/svg" xmlns:xlink="http://www.w3.org/1999/xlink" x="0px" y="0px"
	 width="83px" height="83px" viewBox="0 0 309 308" enable-background="new 0 0 309 308" xml:space="preserve">
<g>
	<path fill="#010101" d="M54.4,31.441c-12.736,0-23.1,10.364-23.1,23.1s10.364,23.1,23.1,23.1s23.1-10.364,23.1-23.1
		S67.136,31.441,54.4,31.441z M54.4,67.375c-7.074,0-12.833-5.754-12.833-12.833c0-7.079,5.759-12.833,12.833-12.833
		s12.833,5.754,12.833,12.833C67.233,61.621,61.474,67.375,54.4,67.375z"/>
	<circle fill="#010101" cx="257.166" cy="46.842" r="5.133"/>
	<circle fill="#010101" cx="236.633" cy="46.842" r="5.133"/>
	<circle fill="#010101" cx="267.434" cy="62.242" r="5.133"/>
	<circle fill="#010101" cx="246.9" cy="62.242" r="5.133"/>
	<circle fill="#010101" cx="216.1" cy="46.842" r="5.133"/>
	<circle fill="#010101" cx="226.367" cy="62.242" r="5.133"/>
	<circle fill="#010101" cx="195.566" cy="46.842" r="5.133"/>
	<circle fill="#010101" cx="205.834" cy="62.242" r="5.133"/>
	<circle fill="#010101" cx="175.033" cy="46.842" r="5.133"/>
	<circle fill="#010101" cx="185.3" cy="62.242" r="5.133"/>
	<path fill="#010101" d="M54.4,128.975c-12.736,0-23.1,10.364-23.1,23.1c0,12.735,10.364,23.1,23.1,23.1s23.1-10.364,23.1-23.1
		C77.5,139.339,67.136,128.975,54.4,128.975z M54.4,164.908c-7.074,0-12.833-5.754-12.833-12.833s5.759-12.833,12.833-12.833
		s12.833,5.754,12.833,12.833S61.474,164.908,54.4,164.908z"/>
	<path fill="#010101" d="M54.4,226.508c-12.736,0-23.1,10.365-23.1,23.101s10.364,23.101,23.1,23.101s23.1-10.365,23.1-23.101
		S67.136,226.508,54.4,226.508z M54.4,262.441c-7.074,0-12.833-5.754-12.833-12.833s5.759-12.833,12.833-12.833
		s12.833,5.754,12.833,12.833S61.474,262.441,54.4,262.441z"/>
	<path fill="#010101" d="M308.5,84.787V24.296c0-13.043-10.611-23.654-23.654-23.654H24.154C11.11,0.642,0.5,11.252,0.5,24.296
		v60.486c0,7.541,3.609,14.188,9.122,18.521C4.109,107.641,0.5,114.293,0.5,121.83v60.486c0,7.541,3.609,14.188,9.122,18.521
		C4.109,205.174,0.5,211.827,0.5,219.363v60.485c0,13.044,10.61,23.654,23.654,23.654h143.092
		c13.768,2.536,28.859,3.851,43.721,3.851c44.516,0,91.455-11.545,96.994-33.639c0.344-0.684,0.539-1.463,0.539-2.29v-46.2V223.3
		v-1.925v-42.35V177.1v-1.925V130.9v-1.925c0-0.77-0.189-1.484-0.492-2.136c-1.781-7.515-8.461-13.844-18.285-18.916
		C300.43,105.67,308.5,96.158,308.5,84.787z M10.767,182.32V121.83c0-7.382,6.006-13.388,13.388-13.388h107.082
		c-9.286,4.985-15.59,11.134-17.31,18.398c-0.303,0.657-0.493,1.366-0.493,2.136v1.925v44.275v1.925v1.926v16.684H24.154
		C16.772,195.709,10.767,189.702,10.767,182.32z M126.914,150.817c0.231,0.149,0.477,0.298,0.713,0.446
		c0.903,0.565,1.843,1.119,2.823,1.664c0.282,0.154,0.555,0.313,0.837,0.462c1.196,0.642,2.438,1.268,3.732,1.869
		c0.205,0.098,0.426,0.189,0.631,0.282c1.134,0.519,2.3,1.017,3.501,1.504c0.354,0.144,0.703,0.288,1.058,0.427
		c1.417,0.554,2.859,1.098,4.353,1.611c0.082,0.025,0.164,0.051,0.246,0.082c1.427,0.488,2.896,0.955,4.389,1.406
		c0.4,0.123,0.806,0.242,1.211,0.359c1.479,0.432,2.978,0.853,4.512,1.253c0.123,0.03,0.241,0.066,0.364,0.098
		c1.653,0.426,3.342,0.821,5.057,1.206c0.432,0.098,0.867,0.189,1.299,0.282c1.468,0.318,2.951,0.621,4.45,0.909
		c0.298,0.057,0.596,0.117,0.894,0.174c1.761,0.328,3.542,0.632,5.344,0.919c0.426,0.067,0.862,0.134,1.289,0.2
		c1.493,0.231,2.997,0.447,4.517,0.646c0.416,0.057,0.827,0.113,1.247,0.165c1.838,0.231,3.686,0.446,5.549,0.642
		c0.375,0.041,0.756,0.072,1.13,0.107c1.565,0.154,3.142,0.293,4.718,0.421c0.478,0.036,0.949,0.077,1.427,0.113
		c1.884,0.139,3.778,0.262,5.673,0.359c0.267,0.015,0.539,0.021,0.811,0.036c1.668,0.082,3.342,0.144,5.016,0.189
		c0.503,0.016,1.006,0.031,1.514,0.041c1.915,0.041,3.83,0.072,5.74,0.072c1.909,0,3.824-0.031,5.738-0.072
		c0.504-0.01,1.006-0.025,1.515-0.041c1.673-0.046,3.342-0.107,5.015-0.189c0.272-0.016,0.539-0.021,0.812-0.036
		c1.894-0.098,3.788-0.221,5.673-0.359c0.477-0.036,0.949-0.071,1.427-0.113c1.581-0.123,3.151-0.267,4.718-0.421
		c0.374-0.035,0.754-0.072,1.129-0.107c1.863-0.195,3.711-0.406,5.549-0.642c0.416-0.052,0.832-0.108,1.248-0.165
		c1.514-0.199,3.023-0.415,4.518-0.646c0.431-0.066,0.861-0.128,1.288-0.2c1.802-0.287,3.583-0.591,5.344-0.919
		c0.303-0.057,0.595-0.117,0.894-0.174c1.504-0.288,2.987-0.591,4.45-0.909c0.437-0.097,0.867-0.19,1.299-0.282
		c1.709-0.385,3.403-0.78,5.056-1.206c0.123-0.031,0.242-0.067,0.365-0.098c1.535-0.396,3.033-0.816,4.512-1.253
		c0.406-0.117,0.811-0.236,1.211-0.359c1.494-0.451,2.963-0.918,4.39-1.406c0.082-0.025,0.164-0.051,0.247-0.082
		c1.493-0.519,2.941-1.058,4.353-1.611c0.359-0.139,0.708-0.283,1.058-0.427c1.201-0.487,2.366-0.985,3.5-1.504
		c0.211-0.098,0.427-0.185,0.632-0.282c1.294-0.601,2.53-1.227,3.732-1.869c0.287-0.154,0.56-0.308,0.837-0.462
		c0.975-0.539,1.914-1.093,2.822-1.664c0.236-0.148,0.483-0.292,0.715-0.446c1.063-0.688,2.068-1.396,3.023-2.125
		c0.061-0.046,0.133-0.087,0.194-0.134v25.605c-0.123,0.596-0.205,1.201-0.107,1.812c0.071,0.375,0.123,0.745,0.123,1.124
		c0,0.564-0.159,1.141-0.298,1.71c-0.107,0.441-0.246,0.888-0.432,1.329c-0.164,0.385-0.369,0.775-0.595,1.16
		c-0.222,0.385-0.462,0.775-0.739,1.16c-0.396,0.534-0.842,1.068-1.35,1.602c-0.19,0.205-0.381,0.411-0.586,0.616
		c-10.867,10.513-42.936,20.01-83.263,20.01c-40.302,0-72.354-9.486-83.242-19.994c-0.226-0.226-0.431-0.446-0.636-0.673
		c-0.483-0.514-0.919-1.026-1.299-1.54c-0.292-0.405-0.549-0.812-0.78-1.222c-0.21-0.364-0.406-0.729-0.565-1.098
		c-0.2-0.468-0.338-0.93-0.452-1.392c-0.138-0.555-0.297-1.114-0.297-1.669c0-0.364,0.046-0.729,0.107-1.088
		c0.108-0.668,0.041-1.334-0.107-1.977v-25.481c0.062,0.046,0.133,0.087,0.195,0.133
		C124.845,149.416,125.851,150.125,126.914,150.817z M297.499,226.339c-0.164,0.386-0.369,0.775-0.595,1.16
		c-0.221,0.386-0.463,0.775-0.74,1.16c-0.395,0.534-0.842,1.067-1.35,1.602c-0.189,0.206-0.38,0.411-0.585,0.616
		c-10.868,10.513-42.936,20.01-83.263,20.01c-40.302,0-72.354-9.486-83.242-19.994c-0.226-0.227-0.431-0.447-0.637-0.673
		c-0.482-0.513-0.919-1.026-1.299-1.54c-0.292-0.405-0.549-0.811-0.78-1.222c-0.21-0.364-0.405-0.729-0.564-1.099
		c-0.2-0.467-0.339-0.93-0.452-1.391c-0.118-0.482-0.241-0.971-0.257-1.453v-0.616c0.021-0.231,0.031-0.462,0.067-0.692
		c0.072-0.441-0.026-0.873-0.072-1.31l-0.031-25.188v-0.955c0.205,0.158,0.446,0.308,0.662,0.461
		c0.646,0.483,1.324,0.955,2.017,1.423c0.565,0.374,1.15,0.744,1.746,1.114c0.919,0.564,1.843,1.123,2.829,1.662
		c0.01,0.006,0.021,0.011,0.025,0.016c10.708,5.837,25.431,10.051,41.708,12.603c0.123,0.021,0.246,0.036,0.369,0.057
		c5.252,0.815,10.642,1.452,16.124,1.92c1.165,0.098,2.325,0.2,3.501,0.282c1.145,0.082,2.289,0.154,3.439,0.216
		c1.551,0.087,3.101,0.164,4.65,0.226c0.904,0.036,1.807,0.077,2.716,0.103c2.5,0.072,4.995,0.124,7.484,0.124
		c2.484,0,4.979-0.047,7.47-0.119c0.913-0.025,1.822-0.066,2.735-0.102c1.54-0.063,3.075-0.135,4.61-0.221
		c1.16-0.067,2.314-0.139,3.47-0.222c1.155-0.082,2.294-0.179,3.444-0.276c5.533-0.468,10.975-1.115,16.272-1.936
		c0.077-0.011,0.159-0.025,0.236-0.036c17.787-2.782,33.695-7.562,44.563-14.266c0.591-0.364,1.175-0.729,1.735-1.104
		c0.693-0.462,1.37-0.935,2.012-1.417c0.231-0.17,0.493-0.328,0.719-0.503v25.604c-0.123,0.596-0.205,1.201-0.107,1.813
		c0.051,0.375,0.103,0.744,0.103,1.124c0,0.565-0.159,1.14-0.298,1.71C297.822,225.451,297.689,225.897,297.499,226.339z
		 M24.154,293.242c-7.382,0-13.388-6.006-13.388-13.389v-60.49c0-7.383,6.006-13.389,13.388-13.389h89.279v15.4v1.925v1.925v46.2
		v5.134h1.52c0.083,0.189,0.2,0.375,0.293,0.564c0.179,0.385,0.379,0.76,0.585,1.14c0.421,0.76,0.898,1.509,1.427,2.248
		c0.523,0.745,1.114,1.464,1.74,2.177c0.318,0.359,0.636,0.713,0.98,1.068c1.966,2.027,4.327,3.926,7.053,5.703
		c0.092,0.061,0.19,0.123,0.287,0.184c1.971,1.269,4.102,2.47,6.407,3.604H24.154V293.242z M298.233,270.111
		c-0.041,0.158-0.077,0.322-0.103,0.482c-2.1,12.797-37.627,26.498-87.164,26.498c-15.806,0-30.158-1.401-42.483-3.717l0.005-0.041
		c-25.528-4.83-39.655-12.987-43.607-19.865c-0.005-0.006-0.01-0.011-0.01-0.021c-0.18-0.318-0.308-0.631-0.447-0.939
		c-0.267-0.641-0.519-1.277-0.621-1.914L123.762,241c0.185,0.144,0.405,0.277,0.595,0.421c0.647,0.482,1.325,0.954,2.018,1.422
		c0.564,0.374,1.15,0.744,1.745,1.114c0.919,0.564,1.843,1.123,2.829,1.662c0.01,0.006,0.021,0.011,0.026,0.016
		c10.708,5.837,25.43,10.051,41.708,12.603c0.124,0.021,0.247,0.036,0.37,0.057c5.251,0.816,10.642,1.452,16.124,1.92
		c1.165,0.098,2.325,0.2,3.501,0.282c1.145,0.082,2.289,0.154,3.438,0.216c1.551,0.087,3.102,0.164,4.651,0.226
		c0.903,0.036,1.808,0.077,2.716,0.103c2.5,0.072,4.994,0.124,7.484,0.124c2.484,0,4.979-0.047,7.469-0.119
		c0.914-0.025,1.822-0.066,2.736-0.102c1.54-0.063,3.074-0.135,4.609-0.221c1.16-0.067,2.315-0.139,3.471-0.221
		c1.154-0.083,2.294-0.18,3.443-0.277c5.535-0.468,10.976-1.114,16.273-1.936c0.077-0.011,0.159-0.025,0.236-0.036
		c17.787-2.782,33.695-7.562,44.563-14.266c0.59-0.364,1.176-0.729,1.734-1.104c0.693-0.462,1.371-0.935,2.013-1.417
		c0.231-0.17,0.493-0.328,0.719-0.503V270.111L298.233,270.111z M298.233,130.9c0,13.023-37.325,27.592-87.267,27.592
		c-49.947,0-87.267-14.569-87.267-27.592c0-0.657,0.159-1.324,0.349-1.992c0.206-0.662,0.483-1.34,0.894-2.038
		c0.015-0.031,0.031-0.062,0.046-0.092c1.709-2.854,5.154-5.924,10.457-8.886c0.226-0.123,0.457-0.247,0.688-0.37
		c0.909-0.493,1.869-0.98,2.88-1.463c1.176-0.549,2.382-1.099,3.675-1.627c0.252-0.108,0.514-0.21,0.775-0.313
		c5.965-2.377,13.152-4.486,21.242-6.211c2.531-0.534,5.107-1.037,7.756-1.479c0.704-0.118,1.392-0.241,2.105-0.354
		c22.982-3.542,49.793-3.542,72.775,0c0.724,0.113,1.422,0.241,2.135,0.359c2.634,0.437,5.195,0.934,7.705,1.468
		C282.207,113.231,298.233,122.384,298.233,130.9z M298.233,84.787c0,7.382-6.006,13.388-13.388,13.388h-23.768
		c-0.298-0.066-0.626-0.107-0.924-0.174c-3.367-0.729-6.832-1.381-10.375-1.946c-0.344-0.051-0.688-0.107-1.031-0.159
		c-12.12-1.884-25.056-2.854-37.781-2.854s-25.651,0.97-37.771,2.854c-0.354,0.051-0.703,0.107-1.057,0.159
		c-3.532,0.565-6.986,1.217-10.344,1.94c-0.303,0.067-0.643,0.108-0.945,0.175H24.154c-7.382,0.005-13.388-6.001-13.388-13.383
		V24.296c0-7.381,6.006-13.388,13.388-13.388H284.84c7.388,0,13.394,6.006,13.394,13.388V84.787z"/>
</g>
</svg>
