<?xml version="1.0" encoding="utf-8"?>
<!-- Generator: Adobe Illustrator 16.0.0, SVG Export Plug-In . SVG Version: 6.00 Build 0)  -->
<!DOCTYPE svg PUBLIC "-//W3C//DTD SVG 1.1//EN" "http://www.w3.org/Graphics/SVG/1.1/DTD/svg11.dtd">
<svg version="1.1" id="Capa_1" xmlns="http://www.w3.org/2000/svg" xmlns:xlink="http://www.w3.org/1999/xlink" x="0px" y="0px"
	 width="83px" height="83px" viewBox="0 0 512 512" enable-background="new 0 0 512 512" xml:space="preserve">
<g>
	<g>
		<path fill="#010101" d="M214.102,452.627h36.173c4.143,0,7.5-3.357,7.5-7.5s-3.357-7.5-7.5-7.5h-36.173
			c-4.143,0-7.5,3.357-7.5,7.5S209.96,452.627,214.102,452.627L214.102,452.627z"/>
		<path fill="#010101" d="M203.981,75.446h56.414c4.144,0,7.5-3.357,7.5-7.5c0-4.143-3.356-7.5-7.5-7.5h-56.414
			c-4.143,0-7.5,3.357-7.5,7.5C196.481,72.089,199.839,75.446,203.981,75.446L203.981,75.446z"/>
		<circle fill="#010101" cx="180.385" cy="67.174" r="7.5"/>
		<circle fill="#010101" cx="283.992" cy="67.174" r="7.5"/>
		<circle fill="#010101" cx="232.189" cy="373.999" r="7.5"/>
		<circle fill="#010101" cx="183.72" cy="373.999" r="7.5"/>
		<circle fill="#010101" cx="277.721" cy="373.999" r="7.5"/>
		<path fill="#010101" d="M377.58,121.063h22.732c4.143,0,7.5-3.357,7.5-7.5s-3.357-7.5-7.5-7.5H385.08V82.711
			c0-4.143-3.357-7.5-7.5-7.5s-7.5,3.357-7.5,7.5v30.852C370.08,117.705,373.438,121.063,377.58,121.063z"/>
		<path fill="#010101" d="M255.279,158.831h-46.182c-30.206,0-54.78,25.304-54.78,56.407c0,21.953,12.522,42.071,31.903,51.252
			c1.326,0.629,2.183,2.033,2.183,3.578v17.443c0,4.288,2.501,8.194,6.371,9.953c1.442,0.656,2.958,0.979,4.459,0.978
			c2.527,0,5.012-0.911,7.027-2.671l26.689-23.293c0.614-0.537,1.381-0.832,2.158-0.832h20.171
			c30.207,0,54.781-25.306,54.781-56.409S285.484,158.831,255.279,158.831L255.279,158.831z M255.279,256.646h-20.171
			c-4.405,0-8.676,1.608-12.022,4.53l-19.683,17.179v-8.287c0-7.312-4.224-14.036-10.761-17.134
			c-14.17-6.712-23.325-21.509-23.325-37.696c0-22.832,17.846-41.407,39.78-41.407h46.182c21.936,0,39.782,18.575,39.782,41.407
			C295.061,238.071,277.215,256.646,255.279,256.646L255.279,256.646z"/>
		<path fill="#010101" d="M252.53,192.952h-40.684c-4.143,0-7.5,3.357-7.5,7.5s3.357,7.5,7.5,7.5h40.684c4.143,0,7.5-3.357,7.5-7.5
			S256.673,192.952,252.53,192.952z"/>
		<path fill="#010101" d="M240.985,222.013h-29.139c-4.143,0-7.5,3.357-7.5,7.5s3.357,7.5,7.5,7.5h29.139c4.143,0,7.5-3.357,7.5-7.5
			S245.128,222.013,240.985,222.013L240.985,222.013z"/>
		<path fill="#010101" d="M498.738,242.366c-3.513-26.566-25.521-47.946-52.33-50.837c-2.21-0.237-4.444-0.358-6.644-0.358h-0.002
			c-15.884,0-30.817,6.148-42.053,17.313c-11.249,11.179-17.444,26.045-17.444,41.859c0,10.312,2.723,20.478,7.879,29.411
			l39.942,68.836c2.442,4.203,6.809,6.712,11.679,6.712c4.871,0,9.237-2.508,11.682-6.714l39.94-68.836
			C497.932,268.419,500.474,255.491,498.738,242.366L498.738,242.366z M478.406,272.238l-38.641,66.592l-38.639-66.589
			c-3.834-6.644-5.861-14.216-5.861-21.898c0-11.79,4.623-22.878,13.018-31.219c8.406-8.354,19.586-12.953,31.481-12.953
			c1.664,0,3.358,0.092,5.036,0.272c20.021,2.158,36.449,18.093,39.065,37.888C485.166,254.152,483.274,263.807,478.406,272.238
			L478.406,272.238z"/>
		<path fill="#010101" d="M439.767,223.236c-14.055,0-25.489,11.435-25.489,25.489c0,14.056,11.436,25.49,25.489,25.49
			c14.057,0,25.49-11.436,25.49-25.49S453.822,223.236,439.767,223.236z M439.767,259.216c-5.783,0-10.488-4.706-10.488-10.49
			c0-5.784,4.705-10.489,10.488-10.489c5.784,0,10.49,4.705,10.49,10.489C450.257,254.51,445.551,259.216,439.767,259.216z"/>
		<path fill="#010101" d="M364.104,410.58c-3.238-1.934-7.287-1.979-10.566-0.116c-3.28,1.861-5.316,5.36-5.316,9.132v48.748
			c0,3.771,2.036,7.271,5.315,9.132c1.604,0.91,3.396,1.365,5.183,1.365c1.865,0,3.731-0.495,5.385-1.481l40.813-24.374
			c3.203-1.914,5.116-5.283,5.116-9.016c0-3.731-1.913-7.103-5.116-9.016L364.104,410.58z M363.221,460.414v-32.89l27.535,16.444
			L363.221,460.414z"/>
		<path fill="#010101" d="M91.896,112.45c5.513-5.629,19.988-20.545,30.716-31.614c10.823-11.197,10.823-29.417-0.001-40.615
			c-5.308-5.489-12.404-8.513-19.984-8.513c-6.849,0-13.304,2.469-18.401,6.995c-5.098-4.526-11.553-6.995-18.401-6.995
			c-7.578,0-14.676,3.022-19.985,8.514c-10.824,11.197-10.823,29.417,0.007,40.621c10.719,11.06,25.192,25.975,30.712,31.611
			c2.043,2.083,4.767,3.23,7.668,3.23C87.131,115.685,89.854,114.536,91.896,112.45z M56.624,70.41
			c-5.268-5.448-5.268-14.314-0.002-19.763c2.458-2.54,5.726-3.939,9.202-3.939c3.476,0,6.744,1.399,9.2,3.938l3.809,3.94
			c1.413,1.462,3.359,2.288,5.393,2.288c2.034,0,3.979-0.825,5.392-2.287l3.81-3.94c2.456-2.54,5.724-3.938,9.2-3.938
			c3.478,0,6.745,1.398,9.2,3.938c5.268,5.45,5.268,14.316,0.007,19.758c-9.097,9.387-20.896,21.547-27.608,28.434
			C77.512,91.948,65.714,79.79,56.624,70.41L56.624,70.41z"/>
		<path fill="#010101" d="M429.583,375.938h-65.836V175.186c4.455,1,9.081,1.544,13.833,1.544c34.831,0,63.168-28.337,63.168-63.168
			s-28.337-63.168-63.168-63.168c-4.752,0-9.378,0.545-13.833,1.544v-6.943c0-12.146-9.882-22.028-22.029-22.028H155.72V12.5
			c0-6.893-5.607-12.5-12.5-12.5H25.231c-6.893,0-12.5,5.607-12.5,12.5v122.393c0,6.893,5.607,12.5,12.5,12.5h26.077
			c4.143,0,7.5-3.357,7.5-7.5s-3.357-7.5-7.5-7.5H27.731V15H140.72v117.393H86.976c-4.143,0-7.5,3.357-7.5,7.5s3.357,7.5,7.5,7.5
			h13.655v214.201H38.72c-6.893,0-12.5,5.607-12.5,12.5v76.442c0,6.893,5.607,12.5,12.5,12.5h61.911v12.18
			c0,12.146,9.882,22.028,22.028,22.028h187.39v2.256c0,6.893,5.607,12.5,12.5,12.5h107.034c6.893,0,12.5-5.607,12.5-12.5V469
			c0-4.143-3.357-7.5-7.5-7.5s-7.5,3.357-7.5,7.5v28H325.049V390.938h102.034v42.396c0,4.143,3.357,7.5,7.5,7.5s7.5-3.357,7.5-7.5
			v-44.896C442.083,381.546,436.476,375.938,429.583,375.938z M425.748,113.563c0,26.56-21.607,48.168-48.168,48.168
			s-48.168-21.608-48.168-48.168s21.607-48.168,48.168-48.168S425.748,87.003,425.748,113.563z M341.718,37.968
			c3.876,0,7.029,3.153,7.029,7.028v12.392c-16.185,8.341-28.315,23.464-32.618,41.595H155.72V37.968H341.718z M128.978,376.594
			L91.232,410.05l-37.745-33.456H128.978z M41.22,448.036v-62.273L83.003,422.8c2.347,2.081,5.288,3.121,8.23,3.121
			c2.941,0,5.883-1.04,8.228-3.12l41.785-37.038v62.273H41.22z M310.049,482.244h-187.39c-3.875,0-7.028-3.153-7.028-7.028v-12.18
			h28.115c6.893,0,12.5-5.607,12.5-12.5v-34.264h153.803V482.244z M323.977,349.614h24.771v26.324h-26.198
			c-6.893,0-12.5,5.606-12.5,12.5v12.834H156.246v-27.18c0-6.893-5.607-12.5-12.5-12.5h-28.115v-11.979h173.012
			c4.144,0,7.5-3.357,7.5-7.5c0-4.144-3.356-7.5-7.5-7.5H115.631V147.393h27.589c6.893,0,12.5-5.607,12.5-12.5v-20.91h158.703
			c0.16,24.269,14.075,45.319,34.324,55.755v164.877h-24.771c-4.144,0-7.5,3.356-7.5,7.5
			C316.477,346.258,319.833,349.614,323.977,349.614L323.977,349.614z"/>
	</g>
</g>
</svg>
