<?xml version="1.0" encoding="utf-8"?>
<!-- Generator: Adobe Illustrator 16.0.0, SVG Export Plug-In . SVG Version: 6.00 Build 0)  -->
<!DOCTYPE svg PUBLIC "-//W3C//DTD SVG 1.1//EN" "http://www.w3.org/Graphics/SVG/1.1/DTD/svg11.dtd">
<svg version="1.1" id="Layer_1" xmlns="http://www.w3.org/2000/svg" xmlns:xlink="http://www.w3.org/1999/xlink" x="0px" y="0px"
	 width="83px" height="83px" viewBox="0 0 480 480" enable-background="new 0 0 480 480" xml:space="preserve">
<path fill="#010101" d="M456,96h-16V8c0-4.418-3.582-8-8-8H48c-4.418,0-8,3.582-8,8v88H24c-13.254,0-24,10.746-24,24v256
	c0,13.254,10.746,24,24,24h176v32h-32c-4.418,0-8,3.582-8,8v24h-16v16h192v-16h-16v-24c0-4.418-3.582-8-8-8h-32v-32h176
	c13.254,0,24-10.746,24-24V120C480,106.746,469.254,96,456,96z M424,312H56V80h368V312z M424,16v48H56V16H424z M24,112h16v208
	c0,4.418,3.582,8,8,8h384c4.418,0,8-3.582,8-8V112h16c4.418,0,8,3.582,8,8v224H16V120C16,115.582,19.582,112,24,112z M304,464H176
	v-16h128V464z M264,432h-48v-32h48V432z M456,384H24c-4.418,0-8-3.582-8-8v-16h448v16C464,380.418,460.418,384,456,384z"/>
<path fill="#010101" d="M72,32h16v16H72V32z"/>
<path fill="#010101" d="M104,32h16v16h-16V32z"/>
<path fill="#010101" d="M136,32h16v16h-16V32z"/>
<path fill="#010101" d="M248,104c0-4.418-3.582-8-8-8h-32c-4.418,0-8,3.582-8,8v112h-16v-88c0-4.418-3.582-8-8-8h-32
	c-4.418,0-8,3.582-8,8v88h-16v-48c0-4.418-3.582-8-8-8H80c-4.418,0-8,3.582-8,8v48h-8v16h192v-16h-8V104z M88,216v-40h16v40H88z
	 M152,216v-80h16v80H152z M216,216V112h16v104H216z"/>
<path fill="#010101" d="M384,232h-48v-48c0-4.418-3.582-8-8-8c-35.348,0-64,28.652-64,64s28.652,64,64,64s64-28.652,64-64
	C392,235.582,388.418,232,384,232z M328,288c-24.969,0.023-45.789-19.102-47.875-43.984c-2.09-24.887,15.25-47.211,39.875-51.352
	V240c0,4.418,3.582,8,8,8h47.336C371.402,271.082,351.414,287.969,328,288z"/>
<path fill="#010101" d="M352,152c-4.418,0-8,3.582-8,8v56c0,4.418,3.582,8,8,8h56c4.418,0,8-3.582,8-8
	C415.961,180.672,387.328,152.039,352,152z M360,208v-39.336c20.129,3.441,35.895,19.207,39.336,39.336H360z"/>
<path fill="#010101" d="M96,248c-13.254,0-24,10.746-24,24s10.746,24,24,24s24-10.746,24-24S109.254,248,96,248z M96,280
	c-4.418,0-8-3.582-8-8s3.582-8,8-8s8,3.582,8,8S100.418,280,96,280z"/>
<path fill="#010101" d="M280,96h16v16h-16V96z"/>
<path fill="#010101" d="M312,96h96v16h-96V96z"/>
<path fill="#010101" d="M280,128h32v16h-32V128z"/>
<path fill="#010101" d="M136,264h120v16H136V264z"/>
</svg>
