<?xml version="1.0" encoding="utf-8"?>
<!-- Generator: Adobe Illustrator 16.0.0, SVG Export Plug-In . SVG Version: 6.00 Build 0)  -->
<!DOCTYPE svg PUBLIC "-//W3C//DTD SVG 1.1//EN" "http://www.w3.org/Graphics/SVG/1.1/DTD/svg11.dtd">
<svg version="1.1" id="Capa_1" xmlns="http://www.w3.org/2000/svg" xmlns:xlink="http://www.w3.org/1999/xlink" x="0px" y="0px"
	 width="80px" height="80px" viewBox="0 0 80 80" enable-background="new 0 0 80 80" xml:space="preserve">
<g>
	<path fill="#010101" d="M59.936,2v3.928v1.488l1.426,0.428c1.056,0.316,2.078,0.741,3.039,1.262l1.313,0.711l1.055-1.056
		l2.779-2.779l4.472,4.471l-2.78,2.779l-1.057,1.057l0.714,1.313c0.522,0.961,0.946,1.982,1.261,3.035l0.426,1.428h1.49H78v6.323
		h-3.928h-1.488l-0.428,1.425c-0.317,1.059-0.742,2.081-1.262,3.039l-0.712,1.313l1.056,1.056l2.779,2.779l-4.471,4.471
		l-2.779-2.779l-1.056-1.056l-1.313,0.712c-0.965,0.523-1.985,0.947-3.035,1.26l-1.429,0.426v1.491v3.928h-6.322v-3.926v-1.49
		l-1.428-0.426c-0.714-0.213-1.415-0.478-2.095-0.79L49.335,9.005c0.911-0.478,1.866-0.867,2.851-1.161l1.428-0.427v-1.49V2H59.936
		 M61.936,0H51.613v5.928c-1.512,0.452-2.957,1.1-4.309,1.934l0.818,31.205c1.109,0.608,2.279,1.097,3.49,1.458v5.926h10.322v-5.928
		c1.185-0.353,2.329-0.828,3.418-1.419l4.193,4.193l7.3-7.299l-4.194-4.193c0.592-1.09,1.064-2.233,1.42-3.418H80V18.064h-5.928
		c-0.354-1.185-0.828-2.329-1.42-3.418l4.194-4.193l-7.3-7.3l-4.193,4.194c-1.09-0.591-2.233-1.064-3.418-1.419V0L61.936,0z"/>
</g>
<g>
	<rect x="15.484" y="72.258" fill="#010101" width="18.064" height="2.581"/>
	<path fill="#010101" d="M67.596,67.242L56.39,56.035l1.951-1.951l-1.825-1.823l-1.951,1.95l-1.824-1.824l1.95-1.949l-1.825-1.824
		l-1.949,1.949l-2.646-2.646c1.305-2.804,2.053-5.916,2.053-9.207c0-2.578-0.469-5.041-1.29-7.34v-1.338
		c1.894,2.151,4.658,3.518,7.742,3.518c5.691,0,10.322-4.631,10.322-10.323c0-5.691-4.631-10.322-10.322-10.322
		c-3.084,0-5.849,1.366-7.742,3.518V6.452C49.032,2.894,46.139,0,42.58,0H6.452C2.894,0,0,2.894,0,6.452v67.097
		C0,77.105,2.894,80,6.452,80H42.58c3.559,0,6.452-2.895,6.452-6.451v-3.308l7.603,7.578C58.045,79.226,59.919,80,61.911,80h0.402
		c4.05,0,7.401-3.294,7.472-7.341C69.819,70.643,69.021,68.668,67.596,67.242z M52.74,56.036L45.6,63.177l-1.826-1.821l7.145-7.145
		L52.74,56.036z M49.092,52.386l-7.147,7.147l-2.138-2.131c2.912-1.785,5.371-4.225,7.181-7.119L49.092,52.386z M47.742,38.709
		c0,10.672-8.683,19.355-19.355,19.355S9.032,49.382,9.032,38.709c0-10.672,8.683-19.354,19.355-19.354S47.742,28.038,47.742,38.709
		z M56.774,15.484c4.27,0,7.741,3.472,7.741,7.742c0,4.27-3.472,7.742-7.741,7.742c-4.271,0-7.742-3.472-7.742-7.742
		C49.032,18.956,52.504,15.484,56.774,15.484z M46.451,26.294c-3.959-5.743-10.576-9.52-18.064-9.52
		c-12.096,0-21.936,9.84-21.936,21.935s9.84,21.935,21.936,21.935c3.225,0,6.279-0.717,9.04-1.971l2.693,2.686l-1.852,1.852
		l1.824,1.824l1.854-1.854l1.827,1.821l-1.858,1.859l0.238,0.235H2.581V10.323h43.871V26.294z M45.603,66.822l0.274,0.274h-0.549
		L45.603,66.822z M6.452,2.581H42.58c2.135,0,3.871,1.737,3.871,3.871v1.291H2.581V6.452C2.581,4.317,4.317,2.581,6.452,2.581z
		 M42.58,77.42H6.452c-2.134,0-3.871-1.737-3.871-3.871v-3.871h43.871v3.871C46.451,75.683,44.715,77.42,42.58,77.42z M62.313,77.42
		H61.91c-1.305,0-2.531-0.508-3.455-1.428L47.426,64.998l7.139-7.137l11.206,11.207c0.935,0.934,1.455,2.226,1.433,3.546
		C67.157,75.264,64.963,77.42,62.313,77.42z"/>
	<path fill="#010101" d="M28.387,24.516c-7.826,0-14.194,6.368-14.194,14.193s6.368,14.194,14.194,14.194S42.58,46.535,42.58,38.709
		S36.213,24.516,28.387,24.516z M28.387,50.322c-6.403,0-11.613-5.209-11.613-11.613c0-6.402,5.21-11.613,11.613-11.613
		C34.79,27.097,40,32.307,40,38.709C40,45.113,34.79,50.322,28.387,50.322z"/>
</g>
</svg>
