<?xml version="1.0" encoding="utf-8"?>
<!-- Generator: Adobe Illustrator 16.0.0, SVG Export Plug-In . SVG Version: 6.00 Build 0)  -->
<!DOCTYPE svg PUBLIC "-//W3C//DTD SVG 1.1//EN" "http://www.w3.org/Graphics/SVG/1.1/DTD/svg11.dtd">
<svg version="1.1" id="Capa_1" xmlns="http://www.w3.org/2000/svg" xmlns:xlink="http://www.w3.org/1999/xlink" x="0px" y="0px"
	 width="80px" height="80px" viewBox="0 0 80 80" enable-background="new 0 0 80 80" xml:space="preserve">
<g>
	<path fill="#010101" d="M40,4.581c6.012,0,10.903,4.891,10.903,10.903S46.012,26.387,40,26.387
		c-6.012,0-10.903-4.891-10.903-10.903S33.988,4.581,40,4.581 M40,2.581c-7.126,0-12.903,5.777-12.903,12.903
		S32.874,28.387,40,28.387c7.127,0,12.903-5.777,12.903-12.903S47.127,2.581,40,2.581L40,2.581z"/>
</g>
<g>
	<path fill="#010101" d="M40,20.645c-2.847,0-5.161-2.315-5.161-5.161c0-2.847,2.314-5.161,5.161-5.161s5.161,2.314,5.161,5.161
		C45.161,18.33,42.847,20.645,40,20.645z M40,12.903c-1.423,0-2.581,1.157-2.581,2.581s1.157,2.581,2.581,2.581
		c1.424,0,2.58-1.157,2.58-2.581S41.424,12.903,40,12.903z"/>
	<path fill="#010101" d="M50.322,15.484h-2.58c0-0.752-0.108-1.496-0.322-2.211l2.476-0.736
		C50.18,13.492,50.322,14.484,50.322,15.484z"/>
	<path fill="#010101" d="M32.258,15.484h-2.581c0-5.691,4.631-10.323,10.323-10.323c3.374,0,6.543,1.656,8.474,4.429l-2.118,1.475
		C44.908,8.984,42.531,7.742,40,7.742C35.73,7.742,32.258,11.214,32.258,15.484z"/>
	<path fill="#010101" d="M55.484,15.484h-2.581c0-7.115-5.788-12.903-12.903-12.903c-7.115,0-12.903,5.789-12.903,12.903h-2.581
		C24.516,6.946,31.462,0,40,0S55.484,6.946,55.484,15.484z"/>
	<path fill="#010101" d="M54.193,18.064v18.064H80V18.064H54.193z M67.097,26.752l-7.853-6.107h15.704L67.097,26.752z
		 M56.774,21.994l6.72,5.226l-6.72,5.039V21.994z M59.354,33.548l6.25-4.688l1.493,1.161l1.493-1.161l6.25,4.688H59.354z
		 M70.699,27.219l6.721-5.226v10.264L70.699,27.219z"/>
	<path fill="#010101" d="M65.807,42.58c0,0.713-0.578,1.291-1.291,1.291H51.613V42.58c0-5.967-4.525-10.893-10.322-11.536v-7.818
		h-2.582v7.818c-5.797,0.644-10.322,5.569-10.322,11.536H14.193c-0.712,0-1.29-0.578-1.29-1.289v-3.872h-2.581v3.872
		c0,2.133,1.737,3.87,3.871,3.87h14.194c0,3.16,1.272,6.026,3.326,8.122c-5.611,0.895-9.778,5.715-9.778,11.455V80h36.129V64.736
		c0-5.74-4.168-10.559-9.777-11.453c1.77-1.807,2.955-4.186,3.25-6.832h12.979c2.135,0,3.871-1.736,3.871-3.871v-3.871h-2.58V42.58z
		 M55.484,64.736V77.42h-5.162v-7.742h-2.58v7.742H32.258v-7.742h-2.581v7.742h-5.161V64.738c0-4.617,3.46-8.477,8.048-8.979
		l0.479-0.053L40,65.446l6.956-9.74l0.479,0.053C52.023,56.262,55.484,60.121,55.484,64.736z M36.615,56.269
		c1.072,0.326,2.208,0.506,3.385,0.506s2.313-0.18,3.385-0.506L40,61.006L36.615,56.269z M49.032,45.161
		c0,4.979-4.053,9.032-9.032,9.032s-9.032-4.053-9.032-9.032V42.58c0-4.979,4.053-9.032,9.032-9.032s9.032,4.053,9.032,9.032V45.161
		z"/>
	<path fill="#010101" d="M18.342,20.196c1.427-1.598,2.303-3.697,2.303-6.003c0-4.979-4.053-9.032-9.032-9.032
		c-4.979,0-9.032,4.053-9.032,9.032c0,2.306,0.876,4.405,2.303,6.003C1.966,21.699,0,24.725,0,28.116v6.723h23.226v-6.723
		C23.226,24.725,21.259,21.699,18.342,20.196z M11.613,7.742c3.558,0,6.452,2.894,6.452,6.451c0,3.558-2.894,6.452-6.452,6.452
		c-3.557,0-6.452-2.894-6.452-6.452C5.161,10.636,8.056,7.742,11.613,7.742z M20.645,32.258H2.581v-4.142
		c0-2.819,1.906-5.289,4.581-6.074c1.316,0.75,2.833,1.183,4.452,1.183c1.62,0,3.136-0.433,4.452-1.183
		c2.675,0.785,4.581,3.254,4.581,6.074V32.258z"/>
</g>
</svg>
