<?xml version="1.0" encoding="utf-8"?>
<!-- Generator: Adobe Illustrator 16.0.0, SVG Export Plug-In . SVG Version: 6.00 Build 0)  -->
<!DOCTYPE svg PUBLIC "-//W3C//DTD SVG 1.1//EN" "http://www.w3.org/Graphics/SVG/1.1/DTD/svg11.dtd">
<svg version="1.1" id="Capa_1" xmlns="http://www.w3.org/2000/svg" xmlns:xlink="http://www.w3.org/1999/xlink" x="0px" y="0px"
	 width="80px" height="80px" viewBox="0 0 80 80" enable-background="new 0 0 80 80" xml:space="preserve">
<g>
	<path fill="#010101" d="M44.451,22.645v8.903H27.807v-8.903H44.451 M46.451,20.645H25.807v12.903h20.645V20.645L46.451,20.645z"/>
</g>
<g>
	<rect x="14.193" y="72.258" fill="#010101" width="18.064" height="2.581"/>
	<rect x="43.871" y="46.451" fill="#010101" width="2.58" height="2.581"/>
	<rect x="25.807" y="46.451" fill="#010101" width="15.484" height="2.581"/>
	<rect x="25.807" y="41.291" fill="#010101" width="20.645" height="2.58"/>
	<rect x="30.968" y="36.129" fill="#010101" width="15.483" height="2.581"/>
	<rect x="25.807" y="36.129" fill="#010101" width="2.581" height="2.581"/>
	<path fill="#010101" d="M58.064,9.032c-4.113,0-8.146,1.186-11.613,3.347V6.452C46.451,2.894,43.558,0,40,0H6.452
		C2.894,0,0,2.894,0,6.452v67.097C0,77.105,2.894,80,6.452,80H40c3.558,0,6.451-2.895,6.451-6.451V61.936h2.581h1.29h1.291v-2.58
		h-1.291h-1.29c-1.423,0-2.581-1.158-2.581-2.581s1.158-2.581,2.581-2.581h1.29h1.291V51.93c2.082,0.641,4.242,0.974,6.451,0.974
		C70.16,52.903,80,43.063,80,30.968S70.16,9.032,58.064,9.032z M77.354,29.677h-7.715c-0.035-0.93-0.092-1.85-0.2-2.738
		l-2.562,0.311c0.096,0.786,0.148,1.601,0.182,2.426h-7.703v-7.779c2.35-0.082,4.339-0.367,5.996-0.786
		c0.438,1.115,0.82,2.329,1.113,3.678l2.521-0.547c-0.311-1.426-0.71-2.728-1.17-3.922c2.063-0.822,3.429-1.811,4.288-2.635
		C75.111,20.861,77.047,25.045,77.354,29.677z M56.774,40.038c-1.853,0.063-3.586,0.251-5.161,0.585v-8.365h5.161V40.038z
		 M51.613,29.677v-8.365c1.575,0.333,3.309,0.522,5.161,0.585v7.779H51.613z M51.885,18.723c1.574-2.912,3.496-4.833,4.89-5.959
		v6.554C54.996,19.253,53.359,19.056,51.885,18.723z M59.355,12.742c1.395,1.115,3.316,3.027,4.901,5.979
		c-1.365,0.313-2.991,0.529-4.901,0.6V12.742z M62.554,12.16c2.848,0.68,5.455,1.978,7.661,3.764
		c-0.665,0.609-1.757,1.385-3.453,2.046C65.469,15.438,63.941,13.534,62.554,12.16z M50.835,15.484h-4.357
		c2.152-1.616,4.559-2.745,7.126-3.347C52.707,13.023,51.751,14.13,50.835,15.484z M56.774,42.618v6.552
		c-1.396-1.126-3.316-3.046-4.89-5.957C53.359,42.88,54.996,42.683,56.774,42.618z M59.355,49.195v-6.58
		c1.914,0.071,3.541,0.289,4.908,0.602C62.676,46.172,60.754,48.082,59.355,49.195z M66.77,43.969
		c1.691,0.661,2.78,1.436,3.445,2.043c-2.203,1.781-4.806,3.078-7.646,3.759C63.959,48.398,65.481,46.493,66.77,43.969z
		 M59.355,40.038v-7.78h7.689c-0.137,3.396-0.78,6.23-1.693,8.565C63.694,40.404,61.705,40.119,59.355,40.038z M6.452,2.581H40
		c2.135,0,3.871,1.737,3.871,3.871v1.291H2.581V6.452C2.581,4.317,4.317,2.581,6.452,2.581z M40,77.42H6.452
		c-2.134,0-3.871-1.737-3.871-3.871v-3.871h41.291v3.871C43.871,75.683,42.135,77.42,40,77.42z M43.871,67.097H2.581V10.323h41.291
		v5.161H18.064c-2.846,0-5.161,2.315-5.161,5.161v36.129c0,2.847,2.315,5.161,5.161,5.161h25.807V67.097z M18.064,51.613
		c-0.944,0-1.818,0.273-2.581,0.717V20.645c0-1.423,1.157-2.581,2.581-2.581h2.581v33.549H18.064z M44.588,59.355H18.064
		c-1.423,0-2.581-1.158-2.581-2.581s1.157-2.581,2.581-2.581h26.523c-0.443,0.763-0.717,1.637-0.717,2.581
		S44.145,58.592,44.588,59.355z M23.226,51.613V18.064h25.807v33.549H23.226z M51.613,47.535c0.664,0.867,1.332,1.611,1.971,2.244
		c-0.665-0.158-1.323-0.352-1.971-0.582V47.535z M72.104,44.25c-0.859-0.824-2.225-1.813-4.285-2.635
		c0.987-2.574,1.67-5.676,1.806-9.358h7.729C77.047,36.89,75.111,41.074,72.104,44.25z"/>
</g>
</svg>
