<?xml version="1.0" encoding="utf-8"?>
<!-- Generator: Adobe Illustrator 16.0.0, SVG Export Plug-In . SVG Version: 6.00 Build 0)  -->
<!DOCTYPE svg PUBLIC "-//W3C//DTD SVG 1.1//EN" "http://www.w3.org/Graphics/SVG/1.1/DTD/svg11.dtd">
<svg version="1.1" id="Layer_1" xmlns="http://www.w3.org/2000/svg" xmlns:xlink="http://www.w3.org/1999/xlink" x="0px" y="0px"
	 width="80px" height="80px" viewBox="0 0 80 80" enable-background="new 0 0 80 80" xml:space="preserve">
<g>
	<g>
		<polygon fill="#FFFFFF" points="20.604,32.047 20.604,21.27 33.566,16.557 41.387,19.163 51.709,14.001 58.105,16.134 
			58.105,32.047 		"/>
		<path fill="#010101" d="M51.805,15.351l5.051,1.684v13.763H21.854v-8.652l11.729-4.265l6.917,2.305l0.982,0.328l0.926-0.463
			L51.805,15.351 M51.613,12.652l-10.322,5.162l-7.743-2.581l-14.193,5.161v12.903h40.001V15.233L51.613,12.652L51.613,12.652z"/>
	</g>
	<polygon fill="#010101" points="67.097,80 67.097,67.097 80,67.097 	"/>
</g>
<g>
	<path fill="#010101" d="M12.903,0v54.193H3.871C1.737,54.193,0,55.93,0,58.064s1.737,3.871,3.871,3.871h3.871v1.29
		c0,2.134,1.736,3.871,3.871,3.871h1.291V80h54.193v-2.58H15.484V67.097h6.262l0.373-0.642c0.474-0.811,1.742-0.811,2.215,0
		l0.372,0.642h3.681v-2.581h-2.289c-0.727-0.81-1.771-1.29-2.873-1.29c-1.101,0-2.145,0.48-2.872,1.29h-4.87v-2.58h41.528
		c0.534,1.498,1.953,2.58,3.633,2.58c1.464,0,2.726-0.825,3.383-2.026l4.521,2.261l8.355-6.686l-8.355-6.686l-4.521,2.262
		c-0.657-1.202-1.919-2.027-3.383-2.027c-1.68,0-3.099,1.082-3.633,2.58H15.484V2.581H77.42v64.516H80V0H12.903z M3.871,59.355
		c-0.712,0-1.291-0.578-1.291-1.291s0.578-1.29,1.291-1.29h3.871v2.581H3.871z M12.903,64.516h-1.291c-0.712,0-1.29-0.578-1.29-1.29
		v-1.29h2.581V64.516z M71.16,56.774h-2.773v2.581h2.773l-2.935,2.347l-3.71-1.854v-3.566l3.71-1.855L71.16,56.774z M60.645,54.193
		c0.713,0,1.291,0.578,1.291,1.291v5.16c0,0.713-0.578,1.291-1.291,1.291c-0.711,0-1.289-0.578-1.289-1.291v-5.16
		C59.355,54.771,59.934,54.193,60.645,54.193z M56.774,59.355H10.323v-2.581h46.452V59.355z"/>
	<path fill="#010101" d="M45.973,23.134l0.957-2.396l-3.066-1.226l7.809-3.903l7.684,3.071V6.452h-40v17.39l14.193-5.676
		L45.973,23.134z M40.744,18.262l-2.15-0.86c0.965-1.19,2.42-1.917,3.986-1.917c0.848,0,1.656,0.213,2.379,0.594L40.713,18.2
		L40.744,18.262z M21.936,9.032h34.839v5.836l-5.221-2.089l-3.975,1.987c-1.378-1.184-3.129-1.863-4.999-1.863
		c-2.623,0-5.048,1.347-6.463,3.508l-2.569-1.027l-11.613,4.646V9.032z"/>
	<rect x="61.936" y="6.452" fill="#010101" width="11.613" height="2.581"/>
	<rect x="61.936" y="12.903" fill="#010101" width="11.613" height="2.581"/>
	<rect x="61.936" y="19.355" fill="#010101" width="11.613" height="2.581"/>
	<rect x="61.936" y="25.807" fill="#010101" width="11.613" height="2.581"/>
	<rect x="61.936" y="32.258" fill="#010101" width="11.613" height="2.581"/>
	<polygon fill="#010101" points="25.807,47.742 25.807,41.291 29.677,41.291 29.677,38.709 19.355,38.709 19.355,41.291 
		23.226,41.291 23.226,47.742 	"/>
	<rect x="33.548" y="38.709" fill="#010101" width="40" height="2.582"/>
	<rect x="33.548" y="45.161" fill="#010101" width="40" height="2.581"/>
</g>
</svg>
