<?xml version="1.0" encoding="utf-8"?>
<!-- Generator: Adobe Illustrator 16.0.0, SVG Export Plug-In . SVG Version: 6.00 Build 0)  -->
<!DOCTYPE svg PUBLIC "-//W3C//DTD SVG 1.1//EN" "http://www.w3.org/Graphics/SVG/1.1/DTD/svg11.dtd">
<svg version="1.1" id="Capa_1" xmlns="http://www.w3.org/2000/svg" xmlns:xlink="http://www.w3.org/1999/xlink" x="0px" y="0px"
	 width="80px" height="80px" viewBox="0 0 80 80" enable-background="new 0 0 80 80" xml:space="preserve">
<circle fill="none" stroke="#010101" stroke-width="2.5" stroke-miterlimit="10" cx="40" cy="56.774" r="11.613"/>
<rect x="38.709" y="34.839" fill="#333333" width="2.582" height="6.452"/>
<g>
	<g>
		<path fill="#010101" d="M40,17.984c4.313,0,7.822,3.509,7.822,7.823c0,4.313-3.509,7.822-7.822,7.822s-7.823-3.509-7.823-7.822
			C32.177,21.493,35.687,17.984,40,17.984 M40,15.484c-5.691,0-10.323,4.631-10.323,10.323c0,5.691,4.631,10.322,10.323,10.322
			s10.322-4.631,10.322-10.322C50.322,20.115,45.691,15.484,40,15.484L40,15.484z"/>
	</g>
	<g>
		<path fill="#010101" d="M15.484,28.307c4.313,0,7.823,3.509,7.823,7.822s-3.509,7.822-7.823,7.822s-7.823-3.509-7.823-7.822
			S11.17,28.307,15.484,28.307 M15.484,25.807c-5.691,0-10.323,4.631-10.323,10.322s4.631,10.322,10.323,10.322
			s10.323-4.631,10.323-10.322S21.175,25.807,15.484,25.807L15.484,25.807z"/>
	</g>
	<g>
		<path fill="#010101" d="M64.516,30.887c4.313,0,7.823,3.509,7.823,7.822c0,4.314-3.51,7.823-7.823,7.823s-7.822-3.509-7.822-7.823
			C56.693,34.396,60.202,30.887,64.516,30.887 M64.516,28.387c-5.691,0-10.322,4.631-10.322,10.322
			c0,5.692,4.631,10.323,10.322,10.323s10.323-4.631,10.323-10.323C74.839,33.018,70.207,28.387,64.516,28.387L64.516,28.387z"/>
	</g>
</g>
<g>
	<rect x="10.323" y="32.258" fill="#010101" width="10.322" height="2.581"/>
	<rect x="34.839" y="21.936" fill="#010101" width="10.322" height="2.581"/>
	<rect x="34.839" y="27.097" fill="#010101" width="10.322" height="2.581"/>
	<rect x="10.323" y="37.419" fill="#010101" width="10.322" height="2.581"/>
	<rect x="59.355" y="34.839" fill="#010101" width="10.322" height="2.581"/>
	<rect x="59.355" y="40" fill="#010101" width="10.322" height="2.58"/>
	<path fill="#010101" d="M64.279,69.678h11.85v-2.581h-11.85c-0.535-1.498-1.954-2.581-3.635-2.581c-2.134,0-3.87,1.737-3.87,3.871
		c0,2.135,1.736,3.871,3.87,3.871C62.325,72.258,63.744,71.176,64.279,69.678z M59.355,68.387c0-0.712,0.578-1.29,1.289-1.29
		s1.291,0.578,1.291,1.29c0,0.713-0.58,1.291-1.291,1.291S59.355,69.1,59.355,68.387z"/>
	<path fill="#010101" d="M76.129,72.258c-1.68,0-3.1,1.083-3.633,2.581H60.645v2.581h11.852c0.533,1.498,1.953,2.58,3.633,2.58
		C78.264,80,80,78.264,80,76.129S78.264,72.258,76.129,72.258z M76.129,77.42c-0.711,0-1.29-0.578-1.29-1.291
		c0-0.712,0.579-1.29,1.29-1.29s1.291,0.578,1.291,1.29C77.42,76.842,76.84,77.42,76.129,77.42z"/>
	<rect x="5.161" y="5.161" fill="#010101" width="2.581" height="2.581"/>
	<rect x="10.323" y="5.161" fill="#010101" width="2.581" height="2.581"/>
	<rect x="15.484" y="5.161" fill="#010101" width="2.581" height="2.581"/>
	<path fill="#010101" d="M0,0v61.936h24.083c1.191,3.643,3.586,6.844,6.885,8.959v1.363h-2.581v2.581h2.581V80h18.064v-5.161h2.581
		v-2.581h-2.581v-1.363c3.3-2.116,5.692-5.318,6.886-8.959H80V0H0z M46.451,77.42H33.548v-2.581h12.903V77.42z M40,60.645
		c-2.134,0-3.871-1.736-3.871-3.87s1.737-3.871,3.871-3.871c2.135,0,3.871,1.737,3.871,3.871S42.135,60.645,40,60.645z
		 M47.096,69.055l-0.645,0.373v2.83h-5.16v-9.162c2.939-0.6,5.16-3.205,5.16-6.321c0-3.558-2.894-6.452-6.451-6.452
		s-6.452,2.895-6.452,6.452c0,3.114,2.221,5.722,5.161,6.321v9.162h-5.161v-2.83l-0.644-0.373c-4.378-2.537-7.098-7.243-7.098-12.28
		c0-7.826,6.368-14.194,14.193-14.194c7.826,0,14.193,6.368,14.193,14.194C54.193,61.812,51.474,66.518,47.096,69.055z
		 M77.42,10.323h-2.581v2.581h2.581v46.452H56.549c0.134-0.85,0.226-1.709,0.226-2.581h5.161c2.135,0,3.871-1.737,3.871-3.871
		v-5.161h-2.581v5.161c0,0.712-0.579,1.29-1.29,1.29h-5.381C55.307,46.169,48.37,40,40,40s-15.307,6.169-16.555,14.193h-5.381
		c-0.711,0-1.29-0.578-1.29-1.29v-7.742h-2.581v7.742c0,2.134,1.737,3.871,3.871,3.871h5.161c0,0.872,0.092,1.731,0.226,2.581H2.581
		V12.903h69.677v-2.581H2.581V2.581H77.42V10.323z"/>
	<path fill="#010101" d="M19.355,64.516c-1.68,0-3.1,1.083-3.634,2.581H3.871v2.581h11.85c0.534,1.498,1.954,2.58,3.634,2.58
		c2.134,0,3.871-1.736,3.871-3.871C23.226,66.253,21.489,64.516,19.355,64.516z M19.355,69.678c-0.711,0-1.291-0.578-1.291-1.291
		c0-0.712,0.58-1.29,1.291-1.29s1.29,0.578,1.29,1.29C20.645,69.1,20.066,69.678,19.355,69.678z"/>
	<path fill="#010101" d="M3.871,72.258C1.737,72.258,0,73.994,0,76.129S1.737,80,3.871,80c1.68,0,3.099-1.082,3.633-2.58h11.851
		v-2.581H7.504C6.97,73.341,5.551,72.258,3.871,72.258z M3.871,77.42c-0.711,0-1.291-0.578-1.291-1.291
		c0-0.712,0.58-1.29,1.291-1.29s1.29,0.578,1.29,1.29C5.161,76.842,4.582,77.42,3.871,77.42z"/>
</g>
</svg>
