<?xml version="1.0" encoding="utf-8"?>
<!-- Generator: Adobe Illustrator 16.0.0, SVG Export Plug-In . SVG Version: 6.00 Build 0)  -->
<!DOCTYPE svg PUBLIC "-//W3C//DTD SVG 1.1//EN" "http://www.w3.org/Graphics/SVG/1.1/DTD/svg11.dtd">
<svg version="1.1" id="Capa_1" xmlns="http://www.w3.org/2000/svg" xmlns:xlink="http://www.w3.org/1999/xlink" x="0px" y="0px"
	 width="80px" height="80px" viewBox="0 0 80 80" enable-background="new 0 0 80 80" xml:space="preserve">
<g>
	<path fill="#FFFFFF" d="M68.387,22.226c-5.852,0-10.612-4.761-10.612-10.613S62.535,1,68.387,1C74.239,1,79,5.761,79,11.613
		S74.239,22.226,68.387,22.226z"/>
	<path fill="#010101" d="M68.387,2C73.688,2,78,6.313,78,11.613s-4.313,9.613-9.613,9.613c-5.3,0-9.612-4.313-9.612-9.613
		S63.087,2,68.387,2 M68.387,0c-6.403,0-11.612,5.209-11.612,11.613s5.209,11.613,11.612,11.613C74.791,23.226,80,18.017,80,11.613
		S74.791,0,68.387,0L68.387,0z"/>
</g>
<g>
	<path fill="#010101" d="M64.516,67.097v-7.741h-2.58v7.741h-2.58V58.91h-2.581v8.187H23.226V38.709h33.549v5.612h2.581v-5.612
		c0-1.423-1.158-2.581-2.581-2.581H23.226c-1.423,0-2.581,1.158-2.581,2.581v28.387h-2.581V37.419c0-2.134,1.737-3.871,3.871-3.871
		h36.129c1.99,0,3.614,1.515,3.828,3.448l-1.229,7.105l2.543,0.439l1.231-7.122h0.077c0-0.097-0.023-0.188-0.027-0.284l2.59-14.981
		l-2.543-0.438L62.61,32.848c-1.168-1.16-2.774-1.88-4.546-1.88h-15.32c0.151-0.427,0.3-0.855,0.42-1.291h5.868V19.355h-5.868
		c-0.422-1.525-1.031-2.987-1.816-4.372l4.154-4.154L38.203,3.53l-4.154,4.155c-1.384-0.786-2.846-1.395-4.372-1.817V0H19.355v5.868
		c-1.525,0.422-2.987,1.031-4.372,1.817L10.83,3.53L3.53,10.831l4.155,4.153c-0.786,1.383-1.395,2.845-1.817,4.371H0v10.322h5.868
		c0.422,1.525,1.031,2.987,1.817,4.372L3.53,38.203l7.299,7.299l4.154-4.154c0.165,0.092,0.334,0.172,0.5,0.26v25.489h-5.161v6.452
		c0,3.557,2.894,6.451,6.452,6.451h46.451c3.558,0,6.452-2.895,6.452-6.451v-6.452H64.516z M15.482,38.634l-0.875-0.562
		l-3.778,3.779l-3.65-3.65l3.779-3.778l-0.561-0.875C9.32,31.87,8.56,30.04,8.137,28.11l-0.221-1.013H2.581v-5.161h5.335
		l0.222-1.014c0.423-1.93,1.183-3.76,2.261-5.439l0.561-0.875l-3.781-3.777l3.65-3.65l3.778,3.779l0.875-0.561
		c1.679-1.078,3.509-1.837,5.439-2.261l1.014-0.222V2.581h5.161v5.335l1.014,0.222c1.931,0.423,3.76,1.183,5.439,2.261l0.875,0.561
		l3.778-3.779l3.651,3.65l-3.78,3.778l0.561,0.875c1.078,1.679,1.837,3.508,2.261,5.438l0.221,1.013h5.335v5.161h-5.335
		l-0.222,1.014c-0.213,0.977-0.543,1.929-0.932,2.857h-5.808c0.444-0.662,0.831-1.36,1.129-2.097l-2.392-0.968
		c-0.464,1.149-1.185,2.193-2.076,3.064h-8.88c-1.203,0-2.317,0.352-3.283,0.928l0.244-0.307c-2.168-1.725-3.413-4.303-3.413-7.072
		c0-4.979,4.053-9.032,9.032-9.032s9.032,4.053,9.032,9.032c0,0.384-0.024,0.763-0.07,1.134l2.56,0.312
		c0.061-0.484,0.09-0.97,0.09-1.446c0-6.404-5.209-11.613-11.613-11.613s-11.613,5.209-11.613,11.613
		c0,3.422,1.489,6.605,4.081,8.818c-0.922,1.116-1.5,2.528-1.5,4.085L15.482,38.634C15.484,38.635,15.482,38.635,15.482,38.634z
		 M33.548,69.678h12.903v1.29c0,0.712-0.578,1.29-1.29,1.29H34.839c-0.712,0-1.291-0.578-1.291-1.29V69.678z M67.097,73.549
		c0,2.134-1.737,3.871-3.871,3.871H16.774c-2.134,0-3.871-1.737-3.871-3.871v-3.871h18.064v1.29c0,2.134,1.737,3.871,3.871,3.871
		h10.322c2.134,0,3.871-1.737,3.871-3.871v-1.29h18.064V73.549z"/>
	<rect x="18.064" y="72.258" fill="#010101" width="2.581" height="2.581"/>
	<rect x="23.226" y="72.258" fill="#010101" width="2.581" height="2.581"/>
	
		<rect x="32.363" y="52.875" transform="matrix(0.7158 -0.6984 0.6984 0.7158 -27.8056 40.0158)" fill="#010101" width="5.781" height="2.581"/>
	
		<rect x="47.677" y="46.081" transform="matrix(0.328 -0.9447 0.9447 0.328 -14.5634 80.0219)" fill="#010101" width="2.578" height="8.332"/>
</g>
<g>
	<path fill="#FFFFFF" stroke="#010101" stroke-width="2" stroke-miterlimit="10" d="M30.968,64.516c-2.847,0-5.161-2.314-5.161-5.16
		c0-2.848,2.314-5.162,5.161-5.162c2.846,0,5.161,2.314,5.161,5.162C36.129,62.201,33.814,64.516,30.968,64.516z"/>
	<path fill="#FFFFFF" stroke="#010101" stroke-width="2" stroke-miterlimit="10" d="M40,54.193c-3.558,0-6.452-2.895-6.452-6.451
		c0-3.558,2.894-6.451,6.452-6.451s6.451,2.894,6.451,6.451C46.451,51.299,43.558,54.193,40,54.193z"/>
	<path fill="#FFFFFF" stroke="#010101" stroke-width="2" stroke-miterlimit="10" d="M60.645,60.645
		c-4.979,0-9.031-4.053-9.031-9.031c0-4.979,4.053-9.033,9.031-9.033c4.98,0,9.033,4.054,9.033,9.033
		C69.678,56.592,65.625,60.645,60.645,60.645z"/>
</g>
<g>
	<rect x="63.226" y="7.742" fill="#010101" width="10.323" height="2.581"/>
	<rect x="63.226" y="12.903" fill="#010101" width="10.323" height="2.581"/>
</g>
</svg>
