<?xml version="1.0" encoding="utf-8"?>
<!-- Generator: Adobe Illustrator 16.0.0, SVG Export Plug-In . SVG Version: 6.00 Build 0)  -->
<!DOCTYPE svg PUBLIC "-//W3C//DTD SVG 1.1//EN" "http://www.w3.org/Graphics/SVG/1.1/DTD/svg11.dtd">
<svg version="1.1" id="Layer_1" xmlns="http://www.w3.org/2000/svg" xmlns:xlink="http://www.w3.org/1999/xlink" x="0px" y="0px"
	 width="80px" height="80px" viewBox="0 0 80 80" enable-background="new 0 0 80 80" xml:space="preserve">
<g>
	<path fill="#010101" d="M77.5,30.887v40.081c0,0.756-0.615,1.371-1.371,1.371h-34.09L26.788,57.984h14.503h2.5v-2.5V34.839v-2.5
		h-2.5H10.323h-2.5v2.5v5.295l-1.452-1.366v-7.88h42.317c0.547,0.455,1.119,0.874,1.715,1.254v0.218
		c-0.797,0.803-1.29,1.907-1.29,3.125c0,0.693,0.16,1.35,0.445,1.936c-0.285,0.585-0.445,1.242-0.445,1.936
		c0,2.446,1.99,4.436,4.436,4.436h11.612c2.445,0,4.436-1.99,4.436-4.436c0-0.693-0.16-1.35-0.445-1.936
		c0.285-0.585,0.445-1.242,0.445-1.936c0-1.217-0.493-2.322-1.29-3.125v-0.218c0.596-0.38,1.168-0.799,1.714-1.254H77.5 M80,28.387
		H69.074c-0.971,0.914-2.068,1.695-3.268,2.31v2.852h-0.646c1.068,0,1.936,0.867,1.936,1.936s-0.867,1.936-1.936,1.936
		c1.068,0,1.936,0.867,1.936,1.936s-0.867,1.936-1.936,1.936H53.549c-1.068,0-1.936-0.868-1.936-1.936s0.867-1.936,1.936-1.936
		c-1.068,0-1.936-0.867-1.936-1.936s0.867-1.936,1.936-1.936h-0.646v-2.852c-1.198-0.614-2.297-1.396-3.269-2.31H3.871v11.46
		l11.511,10.834l-5.059-4.762V34.839h30.968v20.646H20.484l20.564,19.354h35.081c2.135,0,3.871-1.737,3.871-3.871V28.387L80,28.387z
		"/>
</g>
<g>
	<circle fill="#010101" cx="10.323" cy="24.516" r="1.291"/>
	<circle fill="#010101" cx="15.484" cy="24.516" r="1.291"/>
	<circle fill="#010101" cx="20.645" cy="24.516" r="1.291"/>
	<path fill="#010101" d="M44.17,76L26.9,59.75l-3.16-2.98L7.69,41.68l-3.64-3.43c-1.25-1.18-2.32-0.91-2.72-0.74
		C0.93,37.69,0,38.27,0,40v36.13C0,78.26,1.74,80,3.87,80h38.71c1.689,0,2.27-0.83,2.47-1.33S45.4,77.16,44.17,76z M3.87,77.42
		c-0.71,0-1.29-0.58-1.29-1.29v-1.29h2.58v-2.58H2.58v-2.58h2.58V67.1H2.58v-2.58h2.58V61.94H2.58v-2.58h2.58V56.77H2.58V54.19h2.58
		v-2.58H2.58v-2.58h2.58v-2.58H2.58v-6.04l39.33,37.01H3.87z"/>
	<path fill="#010101" d="M9.03,55.34v15.63h16.61L9.03,55.34z M11.61,61.31l7.52,7.08h-7.52V61.31z"/>
	<path fill="#010101" d="M80,7.74V0h-7.74v2.58H46.45V0h-7.74v7.74h7.74V5.16h4.359c-4.18,2.78-6.939,7.52-6.939,12.9H7.74
		c-2.13,0-3.87,1.74-3.87,3.88v9.03h47c0.25,0.16,0.479,0.34,0.74,0.49v1.46c-0.78,0.59-1.29,1.52-1.29,2.57
		c0,0.72,0.25,1.39,0.66,1.93c-0.41,0.54-0.66,1.21-0.66,1.93c0,1.78,1.449,3.23,3.229,3.23h11.61c1.78,0,3.229-1.45,3.229-3.23
		c0-0.72-0.26-1.39-0.659-1.93c0.399-0.54,0.659-1.21,0.659-1.94c0-1.05-0.51-1.97-1.29-2.56v-1.46c0.261-0.15,0.49-0.33,0.74-0.49
		H80v-9.04c0-2.13-1.74-3.87-3.87-3.87h-1.29c0-5.38-2.77-10.12-6.939-12.9h4.359v2.58H80z M74.84,2.58h2.58v2.58h-2.58V2.58z
		 M43.87,5.16h-2.58V2.58h2.58V5.16z M6.45,28.39v-6.45c0-0.72,0.58-1.29,1.29-1.29h36.37c0.489,2.91,1.8,5.58,3.75,7.74H6.45z
		 M65.16,40H53.55c-0.359,0-0.649-0.29-0.649-0.65c0-0.35,0.29-0.64,0.649-0.64h11.61c0.359,0,0.649,0.29,0.649,0.64
		C65.81,39.71,65.52,40,65.16,40z M65.16,36.13H53.55c-0.359,0-0.649-0.29-0.649-0.65c0-0.35,0.29-0.64,0.649-0.64h11.61
		c0.359,0,0.649,0.29,0.649,0.64C65.81,35.84,65.52,36.13,65.16,36.13z M76.13,20.65c0.71,0,1.29,0.57,1.29,1.29v6.45h-6.57
		c1.95-2.16,3.261-4.83,3.75-7.74H76.13z M72.26,18.06c0,4.87-2.7,9.27-7.04,11.49l-0.7,0.36v2.35h-3.88v-9.22
		c2.23-0.57,3.88-2.58,3.88-4.98c0-2.84-2.319-5.16-5.159-5.16c-2.851,0-5.17,2.32-5.17,5.16c0,2.4,1.649,4.41,3.869,4.98v9.22
		H54.19v-2.35l-0.7-0.36c-4.34-2.22-7.04-6.62-7.04-11.49c0-7.11,5.79-12.9,12.91-12.9C66.47,5.16,72.26,10.95,72.26,18.06z
		 M59.36,20.65c-1.431,0-2.591-1.16-2.591-2.59c0-1.42,1.16-2.58,2.591-2.58c1.42,0,2.58,1.16,2.58,2.58
		C61.94,19.49,60.78,20.65,59.36,20.65z"/>
	<rect x="45.161" y="46.451" fill="#010101" width="29.678" height="2.581"/>
	<rect x="45.161" y="51.613" fill="#010101" width="29.678" height="2.58"/>
	<rect x="45.161" y="56.774" fill="#010101" width="29.678" height="2.581"/>
	<rect x="45.161" y="61.936" fill="#010101" width="29.678" height="2.58"/>
</g>
<polyline fill="none" points="26.9,59.75 23.74,56.77 7.69,41.68 "/>
</svg>
