<?xml version="1.0" encoding="utf-8"?>
<!-- Generator: Adobe Illustrator 16.0.0, SVG Export Plug-In . SVG Version: 6.00 Build 0)  -->
<!DOCTYPE svg PUBLIC "-//W3C//DTD SVG 1.1//EN" "http://www.w3.org/Graphics/SVG/1.1/DTD/svg11.dtd">
<svg version="1.1" id="Capa_1" xmlns="http://www.w3.org/2000/svg" xmlns:xlink="http://www.w3.org/1999/xlink" x="0px" y="0px"
	 width="80px" height="80px" viewBox="0 0 80 80" enable-background="new 0 0 80 80" xml:space="preserve">
<g>
	<path fill="#010101" d="M30.968,21.936c0-4.98-4.052-9.032-9.032-9.032s-9.032,4.052-9.032,9.032s4.052,9.032,9.032,9.032
		S30.968,26.916,30.968,21.936z M15.484,21.936c0-3.558,2.894-6.452,6.452-6.452c3.557,0,6.452,2.894,6.452,6.452
		c0,3.557-2.895,6.452-6.452,6.452C18.378,28.387,15.484,25.493,15.484,21.936z"/>
	<rect x="59.355" y="33.548" fill="#010101" width="10.322" height="2.581"/>
	<path fill="#010101" d="M58.064,54.193h3.871c2.135,0,3.871-1.736,3.871-3.871v-3.871h3.871c1.423,0,2.58-1.157,2.58-2.58v-2.58
		h3.871c2.135,0,3.871-1.737,3.871-3.872V3.871C80,1.737,78.264,0,76.129,0H52.903c-2.134,0-3.871,1.737-3.871,3.871v33.548
		c0,2.134,1.737,3.872,3.871,3.872h3.871v2.58c0,1.423,1.157,2.58,2.581,2.58h3.87v3.871c0,0.711-0.579,1.291-1.29,1.291h-3.871
		c-2.135,0-3.871,1.736-3.871,3.871v5.16c0,2.135,1.736,3.871,3.871,3.871h18.064c0.711,0,1.291,0.58,1.291,1.291v5.161
		c0,0.711-0.58,1.29-1.291,1.29H51.613v-2.58h-2.581V47.742c0-3.558-2.894-6.451-6.452-6.451H27.097V37.88
		c0.849-0.273,1.672-0.615,2.465-1.019l4.234,4.235l7.3-7.3l-4.235-4.234c0.404-0.792,0.746-1.616,1.019-2.465h5.991V16.774H37.88
		c-0.273-0.849-0.615-1.672-1.019-2.465l4.235-4.235l-7.3-7.299L29.562,7.01c-0.792-0.404-1.616-0.746-2.465-1.019V0H16.774v5.991
		c-0.849,0.273-1.672,0.615-2.465,1.019l-4.235-4.235l-7.299,7.299L7.01,14.31c-0.404,0.792-0.746,1.616-1.019,2.465H0v10.322h5.991
		c0.273,0.849,0.615,1.672,1.019,2.465l-4.235,4.234l7.299,7.3l4.235-4.235c0.792,0.404,1.616,0.746,2.465,1.019v3.411H9.032
		c-3.558,0-6.452,2.894-6.452,6.451v21.936H0v3.871C0,77.105,2.894,80,6.452,80h38.709c3.115,0,5.722-2.221,6.321-5.161h24.646
		c2.135,0,3.871-1.737,3.871-3.871v-5.161c0-2.135-1.736-3.871-3.871-3.871H58.064c-0.711,0-1.29-0.58-1.29-1.291v-5.16
		C56.774,54.773,57.354,54.193,58.064,54.193z M77.42,28.387H51.613V7.742H77.42V28.387z M52.903,2.581h23.226
		c0.711,0,1.291,0.58,1.291,1.291v1.29H51.613v-1.29C51.613,3.16,52.192,2.581,52.903,2.581z M51.613,37.419v-6.452H77.42v6.452
		c0,0.711-0.58,1.29-1.291,1.29H52.903C52.192,38.709,51.613,38.13,51.613,37.419z M59.355,41.291h10.322v2.58H59.355V41.291z
		 M18.387,35.662c-1.287-0.332-2.514-0.84-3.649-1.51l-0.861-0.508l-3.803,3.802l-3.65-3.65l3.803-3.802l-0.508-0.861
		c-0.671-1.135-1.178-2.362-1.51-3.649l-0.25-0.968H2.581v-5.161h5.378l0.249-0.968c0.332-1.287,0.84-2.514,1.51-3.649l0.508-0.861
		l-3.801-3.803l3.65-3.65l3.803,3.803l0.861-0.508c1.135-0.671,2.362-1.178,3.649-1.51l0.968-0.25V2.581h5.161v5.378l0.968,0.249
		c1.287,0.332,2.514,0.84,3.649,1.51l0.861,0.508l3.802-3.802l3.65,3.65l-3.802,3.802l0.508,0.861
		c0.671,1.135,1.178,2.363,1.51,3.649l0.25,0.969h5.379v5.161h-5.379l-0.249,0.968c-0.332,1.287-0.84,2.514-1.51,3.649l-0.508,0.861
		l3.803,3.802l-3.65,3.65l-3.803-3.802l-0.86,0.508c-1.136,0.671-2.363,1.178-3.649,1.51l-0.969,0.25v5.379h-5.161v-5.379
		L18.387,35.662z M5.161,47.742c0-2.135,1.737-3.871,3.871-3.871h7.742h10.322H42.58c2.135,0,3.871,1.736,3.871,3.871v21.936h-2.58
		v-2.581h-2.58v2.581H10.323V49.032h30.968v15.483h2.58V49.032c0-1.423-1.158-2.581-2.58-2.581H10.323
		c-1.423,0-2.581,1.158-2.581,2.581v20.646H5.161V47.742z M49.032,73.549c0,2.134-1.737,3.871-3.871,3.871H6.452
		c-2.134,0-3.871-1.737-3.871-3.871v-1.291h46.452V73.549z"/>
</g>
<g>
	<g>
		<rect x="14.153" y="52.863" fill="#FFFFFF" width="23.306" height="12.983"/>
		<path fill="#010101" d="M36.209,54.113v10.483H15.403V54.113H36.209 M38.709,51.613H12.903v15.483h25.806V51.613L38.709,51.613z"
			/>
	</g>
	<g>
		<rect x="55.443" y="11.573" fill="#FFFFFF" width="18.146" height="12.984"/>
		<path fill="#010101" d="M72.339,12.823v10.484H56.693V12.823H72.339 M74.839,10.323H54.193v15.484h20.646V10.323L74.839,10.323z"
			/>
	</g>
</g>
</svg>
