<?xml version="1.0" encoding="utf-8"?>
<!-- Generator: Adobe Illustrator 16.0.0, SVG Export Plug-In . SVG Version: 6.00 Build 0)  -->
<!DOCTYPE svg PUBLIC "-//W3C//DTD SVG 1.1//EN" "http://www.w3.org/Graphics/SVG/1.1/DTD/svg11.dtd">
<svg version="1.1" id="Capa_1" xmlns="http://www.w3.org/2000/svg" xmlns:xlink="http://www.w3.org/1999/xlink" x="0px" y="0px"
	 width="80px" height="80px" viewBox="0 0 80 80" enable-background="new 0 0 80 80" xml:space="preserve">
<path fill="none" d="M54.193,40c-0.109,0-0.217,0.012-0.325,0.017V40c0.212-0.825,0.325-1.689,0.325-2.581
	c0-5.701-4.621-10.323-10.322-10.323c-4.811,0-8.852,3.289-9.998,7.742l-0.068,0.208c-0.498-0.124-1.01-0.208-1.547-0.208
	c-3.563,0-6.451,2.889-6.451,6.452c0,0.438,0.043,0.866,0.127,1.279v0.017c-0.044,0-0.085-0.007-0.127-0.007
	c-3.563,0-6.452,2.89-6.452,6.452s2.889,6.452,6.452,6.452h28.387c4.276,0,7.742-3.467,7.742-7.742
	C61.936,43.466,58.47,40,54.193,40z"/>
<g>
	<path d="M73.549,18.064H61.572C59.736,7.812,50.773,0,40,0C29.227,0,20.263,7.812,18.427,18.064H6.452
		C2.894,18.064,0,20.958,0,24.516v41.291c0,3.557,2.894,6.451,6.452,6.451h14.193v5.162h-5.161V80h49.032v-2.58h-5.16v-5.162h14.193
		c3.557,0,6.451-2.895,6.451-6.451V24.516C80,20.958,77.105,18.064,73.549,18.064z M59.289,20.645h-2.515v2.581h2.517
		c-0.264,4.036-1.746,7.805-4.287,10.913c-0.706-2.387-2.16-4.451-4.089-5.929c0.364-1.609,0.585-3.277,0.661-4.983h2.617v-2.581
		h-2.637c-0.167-3.85-1.031-7.129-2.232-9.848c1.985-1.014,3.293-2.155,3.99-2.872C56.732,11.174,58.957,15.65,59.289,20.645z
		 M20.717,23.226h7.708c0.16,3.718,1.006,7.217,2.534,10.44c-1.672,0.284-3.161,1.102-4.287,2.276
		C23.146,32.591,21.039,28.086,20.717,23.226z M43.871,25.807c-0.884,0-1.746,0.108-2.58,0.298v-2.879h7.703
		c-0.058,1.221-0.197,2.419-0.418,3.586C47.135,26.17,45.546,25.807,43.871,25.807z M41.291,20.645v-7.787
		c2.189-0.117,4.068-0.517,5.657-1.062c1.08,2.438,1.863,5.386,2.027,8.849H41.291z M41.291,10.279V3.943
		c1.285,1.16,2.979,2.986,4.464,5.528C44.482,9.874,43.002,10.175,41.291,10.279z M44.037,3.01c2.678,0.57,5.141,1.706,7.285,3.259
		c-0.57,0.56-1.598,1.426-3.148,2.22C46.85,6.152,45.352,4.343,44.037,3.01z M38.709,3.943v6.335
		c-1.716-0.102-3.196-0.403-4.467-0.803C35.729,6.932,37.422,5.103,38.709,3.943z M31.821,8.5c-1.552-0.793-2.574-1.662-3.146-2.226
		c2.145-1.555,4.609-2.69,7.288-3.262C34.645,4.345,33.145,6.157,31.821,8.5z M38.709,12.858v7.787h-7.685
		c0.164-3.463,0.947-6.412,2.027-8.849C34.641,12.339,36.52,12.741,38.709,12.858z M38.709,23.226v3.799
		c-2.358,1.17-4.285,3.12-5.402,5.569c-1.373-2.888-2.143-6.027-2.301-9.368H38.709z M25.807,43.871
		c2.846,0,5.161,2.314,5.161,5.161h2.581c0-3.825-2.79-7.001-6.44-7.623c-0.001-0.04-0.012-0.079-0.012-0.118
		c0-2.847,2.315-5.162,5.161-5.162c2.847,0,5.162,2.315,5.162,5.162H40c0-3.134-1.874-5.832-4.556-7.048
		c1.311-3.484,4.634-5.855,8.427-5.855c4.979,0,9.032,4.051,9.032,9.032c0,0.475-0.05,0.946-0.124,1.412
		c-4.309,0.683-7.618,4.413-7.618,8.911h2.581c0-3.558,2.895-6.451,6.451-6.451c3.558,0,6.451,2.894,6.451,6.451
		c0,3.557-2.894,6.451-6.451,6.451H25.807c-2.847,0-5.162-2.314-5.162-5.161S22.96,43.871,25.807,43.871z M26.684,7.925
		c0.698,0.716,2.005,1.858,3.991,2.872c-1.201,2.719-2.066,5.998-2.232,9.848h-7.733C21.042,15.65,23.267,11.174,26.684,7.925z
		 M6.452,20.645H18.13c-0.026,0.43-0.066,0.854-0.066,1.291c0,6.208,2.605,12.005,7.15,16.16c-0.444,0.975-0.698,2.054-0.698,3.195
		c0,0.038,0.005,0.076,0.005,0.115c-3.658,0.614-6.457,3.795-6.457,7.626c0,4.27,3.472,7.742,7.742,7.742h28.387
		c4.979,0,9.032-4.052,9.032-9.032c0-4.572-3.417-8.351-7.828-8.942c0.053-0.449,0.084-0.902,0.085-1.354
		c4.154-4.144,6.453-9.62,6.453-15.51c0-0.436-0.04-0.861-0.066-1.291h11.68c2.134,0,3.871,1.737,3.871,3.871v37.419H2.581V24.516
		C2.581,22.382,4.317,20.645,6.452,20.645z M56.774,77.42H23.226v-5.162h33.549V77.42z M73.549,69.678H6.452
		c-2.134,0-3.871-1.737-3.871-3.871v-1.291H77.42v1.291C77.42,67.94,75.683,69.678,73.549,69.678z"/>
	<rect x="69.678" y="34.839" width="2.58" height="2.581"/>
	<rect x="69.678" y="40" width="2.58" height="2.58"/>
	<rect x="69.678" y="45.161" width="2.58" height="2.581"/>
	<rect x="7.742" y="34.839" width="2.581" height="2.581"/>
	<rect x="7.742" y="40" width="2.581" height="2.58"/>
	<rect x="7.742" y="45.161" width="2.581" height="2.581"/>
</g>
</svg>
