<?xml version="1.0" encoding="utf-8"?>
<!-- Generator: Adobe Illustrator 16.0.0, SVG Export Plug-In . SVG Version: 6.00 Build 0)  -->
<!DOCTYPE svg PUBLIC "-//W3C//DTD SVG 1.1//EN" "http://www.w3.org/Graphics/SVG/1.1/DTD/svg11.dtd">
<svg version="1.1" id="Capa_1" xmlns="http://www.w3.org/2000/svg" xmlns:xlink="http://www.w3.org/1999/xlink" x="0px" y="0px"
	 width="80px" height="80px" viewBox="0 0 80 80" enable-background="new 0 0 80 80" xml:space="preserve">
<g>
	<rect x="6.452" y="27.097" fill="#010101" width="2.581" height="12.903"/>
	<rect x="32.258" y="23.226" fill="#010101" width="25.807" height="2.581"/>
	<path fill="#010101" d="M70.968,36.129v25.807H9.032v-6.451H6.452v10.322c0,3.557,2.894,6.451,6.452,6.451h7.742v5.162h-5.161V80
		h49.032v-2.58h-5.16v-5.162h7.741c3.558,0,6.452-2.895,6.452-6.451V36.129H70.968z M56.774,77.42H23.226v-5.162h33.549V77.42z
		 M67.097,69.678H12.903c-2.134,0-3.871-1.737-3.871-3.871v-1.291h61.936v1.291C70.968,67.94,69.23,69.678,67.097,69.678z"/>
</g>
<g>
	<g>
		<rect x="57.774" y="20.355" fill="#FFFFFF" width="21.226" height="16.064"/>
		<path fill="#010101" d="M78,21.355v14.064H58.774V21.355H78 M80,19.355H56.774v18.064H80V19.355L80,19.355z"/>
	</g>
	<g>
		<rect x="1" y="39.709" fill="#FFFFFF" width="21.226" height="16.065"/>
		<path fill="#010101" d="M21.226,40.709v14.065H2V40.709H21.226 M23.226,38.709H0v18.065h23.226V38.709L23.226,38.709z"/>
	</g>
	<g>
		<rect x="31.968" y="34.548" fill="#FFFFFF" width="21.226" height="21.226"/>
		<path fill="#010101" d="M52.193,35.548v19.226H32.968V35.548H52.193 M54.193,33.548H30.968v23.226h23.226V33.548L54.193,33.548z"
			/>
	</g>
	<g>
		<rect x="1" y="1" fill="#FFFFFF" width="31.548" height="26.387"/>
		<path fill="#010101" d="M31.548,2v24.387H2V2H31.548 M33.548,0H0v28.387h33.548V0L33.548,0z"/>
	</g>
</g>
<g>
	<rect x="5.161" y="5.161" fill="#010101" width="2.581" height="2.581"/>
	<rect x="10.323" y="5.161" fill="#010101" width="18.064" height="2.581"/>
	<rect x="25.807" y="20.645" fill="#010101" width="2.581" height="2.581"/>
	<rect x="5.161" y="20.645" fill="#010101" width="18.064" height="2.581"/>
	<rect x="5.161" y="15.484" fill="#010101" width="23.226" height="2.581"/>
	<rect x="5.161" y="10.323" fill="#010101" width="23.226" height="2.581"/>
	<rect x="61.936" y="24.516" fill="#010101" width="2.58" height="2.581"/>
	<rect x="67.097" y="24.516" fill="#010101" width="7.742" height="2.581"/>
	<rect x="72.258" y="29.677" fill="#010101" width="2.581" height="2.581"/>
	<rect x="61.936" y="29.677" fill="#010101" width="7.742" height="2.581"/>
	<rect x="5.161" y="43.871" fill="#010101" width="2.581" height="2.58"/>
	<rect x="10.323" y="43.871" fill="#010101" width="7.742" height="2.58"/>
	<rect x="15.484" y="49.032" fill="#010101" width="2.581" height="2.581"/>
	<rect x="5.161" y="49.032" fill="#010101" width="7.742" height="2.581"/>
	<rect x="36.129" y="38.709" fill="#010101" width="12.903" height="2.582"/>
	<rect x="36.129" y="43.871" fill="#010101" width="12.903" height="2.58"/>
	<rect x="36.129" y="49.032" fill="#010101" width="12.903" height="2.581"/>
</g>
<g>
	<rect x="48.742" y="1" fill="#FFFFFF" width="18.645" height="10.903"/>
	<path fill="#010101" d="M66.387,2v8.903H49.742V2H66.387 M68.387,0H47.742v12.903h20.645V0L68.387,0z"/>
</g>
<rect x="52.903" y="5.161" fill="#010101" width="10.322" height="2.581"/>
</svg>
