<?xml version="1.0" encoding="utf-8"?>
<!-- Generator: Adobe Illustrator 16.0.0, SVG Export Plug-In . SVG Version: 6.00 Build 0)  -->
<!DOCTYPE svg PUBLIC "-//W3C//DTD SVG 1.1//EN" "http://www.w3.org/Graphics/SVG/1.1/DTD/svg11.dtd">
<svg version="1.1" id="Layer_1" xmlns="http://www.w3.org/2000/svg" xmlns:xlink="http://www.w3.org/1999/xlink" x="0px" y="0px"
	 width="74px" height="74px" viewBox="0 0 74 74" enable-background="new 0 0 74 74" xml:space="preserve">
<path d="M73.928,37.037L73.928,37.037c0-20.414-16.549-36.963-36.964-36.963l0,0C16.549,0.074,0,16.623,0,37.037l0,0
	C0,57.453,16.549,74,36.964,74l0,0C57.379,74.002,73.928,57.453,73.928,37.037z"/>
<path fill="#98CC6D" d="M23.229,45.307c0,7.554,6.107,13.659,13.659,13.659c7.55,0,13.66-6.105,13.66-13.659v-7.806H23.229V45.307z
	 M44.927,22.615l4.101-4.098l-1.6-1.62l-4.49,4.507c-1.833-0.917-3.863-1.463-6.049-1.463c-2.186,0-4.215,0.545-6.029,1.463
	l-4.507-4.507l-1.601,1.62l4.098,4.098c-3.395,2.478-5.62,6.458-5.62,10.984v1.951h27.319v-1.951
	C50.548,29.073,48.322,25.092,44.927,22.615z M31.034,31.647c-1.073,0-1.951-0.877-1.951-1.952c0-1.071,0.878-1.951,1.951-1.951
	c1.073,0,1.951,0.88,1.951,1.951C32.985,30.771,32.107,31.647,31.034,31.647z M42.742,31.647c-1.074,0-1.951-0.877-1.951-1.952
	c0-1.071,0.877-1.951,1.951-1.951c1.072,0,1.952,0.88,1.952,1.951C44.694,30.771,43.814,31.647,42.742,31.647z"/>
</svg>
