<?xml version="1.0" encoding="utf-8"?>
<!-- Generator: Adobe Illustrator 16.0.0, SVG Export Plug-In . SVG Version: 6.00 Build 0)  -->
<!DOCTYPE svg PUBLIC "-//W3C//DTD SVG 1.1//EN" "http://www.w3.org/Graphics/SVG/1.1/DTD/svg11.dtd">
<svg version="1.1" id="Layer_1" xmlns="http://www.w3.org/2000/svg" xmlns:xlink="http://www.w3.org/1999/xlink" x="0px" y="0px"
	 width="74px" height="74px" viewBox="0 0 74 74" enable-background="new 0 0 74 74" xml:space="preserve">
<path fill="#4B72A9" d="M0,61.689v0.269C0,68.536,5.303,73.84,11.881,73.84c6.579,0,11.882-5.304,11.882-11.882v-13.09L0,61.689
	L0,61.689z M71.838,61.756c-0.201-2.551-1.275-4.899-3.088-6.713v-0.066L47.404,36.114L26.662,47.257l26.783,23.83
	c2.014,1.744,4.564,2.685,7.25,2.685c0.335,0,0.671,0,0.939-0.067c2.953-0.269,5.639-1.678,7.518-3.893
	C71.167,67.596,72.039,64.71,71.838,61.756L71.838,61.756z M23.763,13.425v-1.544C23.763,5.303,18.393,0,11.881,0
	C5.303,0,0,5.303,0,11.881v14.567L23.763,13.425L23.763,13.425z"/>
<path fill="#F68A20" d="M0,31.549L55.514,1.275C57.124,0.403,58.937,0,60.75,0c1.141,0,2.282,0.202,3.423,0.537
	c5.84,1.88,8.995,8.123,7.115,13.962c-0.806,2.417-2.35,4.497-4.498,5.907v0.067l-0.671,0.403L0,56.588V31.549L0,31.549z"/>
</svg>
