<?xml version="1.0" encoding="utf-8"?>
<!-- Generator: Adobe Illustrator 16.0.0, SVG Export Plug-In . SVG Version: 6.00 Build 0)  -->
<!DOCTYPE svg PUBLIC "-//W3C//DTD SVG 1.1//EN" "http://www.w3.org/Graphics/SVG/1.1/DTD/svg11.dtd">
<svg version="1.1" id="Layer_1" xmlns="http://www.w3.org/2000/svg" xmlns:xlink="http://www.w3.org/1999/xlink" x="0px" y="0px"
	 width="74px" height="74px" viewBox="0 0 74 74" enable-background="new 0 0 74 74" xml:space="preserve">
<path fill="#34877E" d="M73.928,36.963L73.928,36.963C73.928,16.549,57.379,0,36.964,0l0,0C16.549,0,0,16.549,0,36.963l0,0
	c0,20.416,16.549,36.964,36.964,36.964l0,0C57.379,73.928,73.928,57.379,73.928,36.963z"/>
<path fill="#97CC6D" d="M30.006,12.945l-2.284,1.32l3.161,5.477c-5.777,2.792-5.801,9.303-5.801,9.303h23.763
	c0,0-0.025-6.513-5.802-9.303l3.161-5.477l-2.284-1.32l-3.419,5.92c-1.048-0.235-2.205-0.382-3.533-0.382
	c-1.331,0-2.493,0.146-3.543,0.382L30.006,12.945L30.006,12.945z M31.688,23.764c0.732,0,1.315,0.589,1.315,1.315
	c0,0.726-0.592,1.325-1.315,1.325c-0.731,0-1.325-0.591-1.325-1.325C30.362,24.354,30.957,23.764,31.688,23.764z M42.249,23.764
	c0.732,0,1.315,0.589,1.315,1.315c0,0.726-0.592,1.325-1.315,1.325c-0.731,0-1.325-0.591-1.325-1.325
	C40.924,24.354,41.518,23.764,42.249,23.764z M52.921,30.362c-1.519,0-2.756,1.399-2.756,3.123v12.227
	c0,1.724,1.237,3.13,2.756,3.13s2.524-1.406,2.524-3.13V33.485c0-1.726-1.003-3.125-2.524-3.125 M25.082,30.362l0,22.443
	c0,0.622,0.698,1.32,1.321,1.32h3.96v4.951c0,1.643,1.046,2.97,2.641,2.97c1.584,0,2.692-1.33,2.64-2.97v-4.951h2.64v4.951
	c0,1.643,1.046,2.97,2.641,2.97c1.584,0,2.641-1.351,2.641-2.97v-4.951h3.96c0.623,0,1.32-0.696,1.32-1.32V30.362L25.082,30.362z
	 M21.237,30.362c-1.519,0-2.756,1.399-2.756,3.123v12.227c0,1.724,1.238,3.13,2.756,3.13c1.52,0,2.524-1.406,2.524-3.13V33.485
	c0-1.726-1.003-3.125-2.524-3.125"/>
</svg>
