<?xml version="1.0" encoding="utf-8"?>
<!-- Generator: Adobe Illustrator 16.0.0, SVG Export Plug-In . SVG Version: 6.00 Build 0)  -->
<!DOCTYPE svg PUBLIC "-//W3C//DTD SVG 1.1//EN" "http://www.w3.org/Graphics/SVG/1.1/DTD/svg11.dtd">
<svg version="1.1" id="Layer_1" xmlns="http://www.w3.org/2000/svg" xmlns:xlink="http://www.w3.org/1999/xlink" x="0px" y="0px"
	 width="74px" height="74px" viewBox="0 0 74 74" enable-background="new 0 0 74 74" xml:space="preserve">
<g>
	<path id="path-16" fill="#FFFFFF" d="M65.987,34.242c0-16.102-13.053-29.158-29.156-29.158c-16.102,0-29.158,13.056-29.158,29.158
		c0,8.855,3.952,16.782,10.183,22.126l-3.499,6.058v4.813c0,0.419,0.345,0.766,0.767,0.766c0.141,0,0.272-0.038,0.387-0.105
		l4.163-2.401l3.25-5.624c4.132,2.25,8.87,3.525,13.907,3.525c5.039,0,9.775-1.275,13.912-3.525l3.248,5.624l4.163,2.401
		c0.116,0.067,0.247,0.105,0.387,0.105c0.423,0,0.769-0.347,0.769-0.766v-4.813l-3.499-6.058
		C62.037,51.023,65.987,43.097,65.987,34.242z"/>
</g>
<g id="android-studio-128">
	<g id="logo_android_studio_192px_clr">
		<g>
			<g id="Group-2" transform="translate(13.000000, 8.500000)">
				<g id="Clipped" transform="translate(0.333333, 0.333333)">
					<g id="a">
					</g>
					<defs>
						<filter id="Adobe_OpacityMaskFilter" filterUnits="userSpaceOnUse" x="-10.333" y="-8.833" width="67.948" height="67.948">
							<feColorMatrix  type="matrix" values="1 0 0 0 0  0 1 0 0 0  0 0 1 0 0  0 0 0 1 0"/>
						</filter>
					</defs>
					<mask maskUnits="userSpaceOnUse" x="-10.333" y="-8.833" width="67.948" height="67.948" id="mask-2_1_">
						<g filter="url(#Adobe_OpacityMaskFilter)">
							<path id="path-1_1_" fill="#FFFFFF" d="M57.615,25.141c0-18.762-15.209-33.975-33.974-33.975
								c-18.762,0-33.975,15.212-33.975,33.975c0,10.317,4.604,19.554,11.865,25.781l-4.077,7.059v5.607
								c0,0.488,0.402,0.893,0.894,0.893c0.165,0,0.317-0.045,0.451-0.123l4.85-2.798l3.787-6.554
								c4.815,2.622,10.335,4.108,16.205,4.108c5.871,0,11.391-1.486,16.211-4.108l3.784,6.554l4.851,2.798
								c0.136,0.078,0.288,0.123,0.45,0.123c0.494,0,0.896-0.404,0.896-0.893v-5.607l-4.078-7.059
								C53.01,44.695,57.615,35.459,57.615,25.141z"/>
						</g>
					</mask>
					<circle id="Oval" mask="url(#mask-2_1_)" fill="#74C37E" cx="23.641" cy="25.141" r="33.974"/>
				</g>
				<g id="Clipped_1_" transform="translate(0.333333, 0.333333)">
					<g id="a_1_">
					</g>
					<defs>
						
							<filter id="Adobe_OpacityMaskFilter_1_" filterUnits="userSpaceOnUse" x="-10.333" y="25.141" width="67.948" height="33.974">
							<feColorMatrix  type="matrix" values="1 0 0 0 0  0 1 0 0 0  0 0 1 0 0  0 0 0 1 0"/>
						</filter>
					</defs>
					<mask maskUnits="userSpaceOnUse" x="-10.333" y="25.141" width="67.948" height="33.974" id="mask-4_1_">
						<g filter="url(#Adobe_OpacityMaskFilter_1_)">
							<path id="path-3_1_" fill="#FFFFFF" d="M57.615,25.141c0-18.762-15.209-33.975-33.974-33.975
								c-18.762,0-33.975,15.212-33.975,33.975c0,10.317,4.604,19.554,11.865,25.781l-4.077,7.059v5.607
								c0,0.488,0.402,0.893,0.894,0.893c0.165,0,0.317-0.045,0.451-0.123l4.85-2.798l3.787-6.554
								c4.815,2.622,10.335,4.108,16.205,4.108c5.871,0,11.391-1.486,16.211-4.108l3.784,6.554l4.851,2.798
								c0.136,0.078,0.288,0.123,0.45,0.123c0.494,0,0.896-0.404,0.896-0.893v-5.607l-4.078-7.059
								C53.01,44.695,57.615,35.459,57.615,25.141z"/>
						</g>
					</mask>
					<path id="Shape" mask="url(#mask-4_1_)" fill="#273238" fill-opacity="0.2" d="M23.641,58.67
						c18.614,0,33.726-14.971,33.962-33.528h0.012c0,18.761-15.209,33.974-33.974,33.974c-18.762,0-33.975-15.213-33.975-33.974
						h0.014C-10.084,43.699,5.027,58.67,23.641,58.67z"/>
				</g>
				<g id="Clipped_2_" transform="translate(0.333333, 0.333333)">
					<g id="a_2_">
					</g>
					<defs>
						
							<filter id="Adobe_OpacityMaskFilter_2_" filterUnits="userSpaceOnUse" x="-10.333" y="-8.833" width="67.948" height="33.975">
							<feColorMatrix  type="matrix" values="1 0 0 0 0  0 1 0 0 0  0 0 1 0 0  0 0 0 1 0"/>
						</filter>
					</defs>
					<mask maskUnits="userSpaceOnUse" x="-10.333" y="-8.833" width="67.948" height="33.975" id="mask-6_1_">
						<g filter="url(#Adobe_OpacityMaskFilter_2_)">
							<path id="path-5_1_" fill="#FFFFFF" d="M57.615,25.141c0-18.762-15.209-33.975-33.974-33.975
								c-18.762,0-33.975,15.212-33.975,33.975c0,10.317,4.604,19.554,11.865,25.781l-4.077,7.059v5.607
								c0,0.488,0.402,0.893,0.894,0.893c0.165,0,0.317-0.045,0.451-0.123l4.85-2.798l3.787-6.554
								c4.815,2.622,10.335,4.108,16.205,4.108c5.871,0,11.391-1.486,16.211-4.108l3.784,6.554l4.851,2.798
								c0.136,0.078,0.288,0.123,0.45,0.123c0.494,0,0.896-0.404,0.896-0.893v-5.607l-4.078-7.059
								C53.01,44.695,57.615,35.459,57.615,25.141z"/>
						</g>
					</mask>
					<path id="Shape_1_" mask="url(#mask-6_1_)" fill="#61BF7D" d="M23.641-8.833c-18.762,0-33.975,15.212-33.975,33.975h67.948
						C57.615,6.379,42.406-8.833,23.641-8.833z"/>
				</g>
				<g id="Clipped_3_" transform="translate(0.333333, 0.333333)">
					<g id="a_3_">
					</g>
					<defs>
						<filter id="Adobe_OpacityMaskFilter_3_" filterUnits="userSpaceOnUse" x="19.171" y="15.307" width="8.941" height="8.939">
							<feColorMatrix  type="matrix" values="1 0 0 0 0  0 1 0 0 0  0 0 1 0 0  0 0 0 1 0"/>
						</filter>
					</defs>
					<mask maskUnits="userSpaceOnUse" x="19.171" y="15.307" width="8.941" height="8.939" id="mask-8_1_">
						<g filter="url(#Adobe_OpacityMaskFilter_3_)">
							<path id="path-7_1_" fill="#FFFFFF" d="M57.615,25.141c0-18.762-15.209-33.975-33.974-33.975
								c-18.762,0-33.975,15.212-33.975,33.975c0,10.317,4.604,19.554,11.865,25.781l-4.077,7.059v5.607
								c0,0.488,0.402,0.893,0.894,0.893c0.165,0,0.317-0.045,0.451-0.123l4.85-2.798l3.787-6.554
								c4.815,2.622,10.335,4.108,16.205,4.108c5.871,0,11.391-1.486,16.211-4.108l3.784,6.554l4.851,2.798
								c0.136,0.078,0.288,0.123,0.45,0.123c0.494,0,0.896-0.404,0.896-0.893v-5.607l-4.078-7.059
								C53.01,44.695,57.615,35.459,57.615,25.141z"/>
						</g>
					</mask>
					<circle id="Oval_1_" mask="url(#mask-8_1_)" fill="#61BF7D" cx="23.641" cy="19.777" r="4.47"/>
				</g>
				<g id="Clipped_4_" transform="translate(0.333333, 0.333333)">
					<g id="a_4_">
					</g>
					<defs>
						<filter id="Adobe_OpacityMaskFilter_4_" filterUnits="userSpaceOnUse" x="-10.333" y="24.694" width="67.948" height="0.447">
							<feColorMatrix  type="matrix" values="1 0 0 0 0  0 1 0 0 0  0 0 1 0 0  0 0 0 1 0"/>
						</filter>
					</defs>
					<mask maskUnits="userSpaceOnUse" x="-10.333" y="24.694" width="67.948" height="0.447" id="mask-10_1_">
						<g filter="url(#Adobe_OpacityMaskFilter_4_)">
							<path id="path-9_1_" fill="#FFFFFF" d="M57.615,25.141c0-18.762-15.209-33.975-33.974-33.975
								c-18.762,0-33.975,15.212-33.975,33.975c0,10.317,4.604,19.554,11.865,25.781l-4.077,7.059v5.607
								c0,0.488,0.402,0.893,0.894,0.893c0.165,0,0.317-0.045,0.451-0.123l4.85-2.798l3.787-6.554
								c4.815,2.622,10.335,4.108,16.205,4.108c5.871,0,11.391-1.486,16.211-4.108l3.784,6.554l4.851,2.798
								c0.136,0.078,0.288,0.123,0.45,0.123c0.494,0,0.896-0.404,0.896-0.893v-5.607l-4.078-7.059
								C53.01,44.695,57.615,35.459,57.615,25.141z"/>
						</g>
					</mask>
					<polygon id="Shape_2_" mask="url(#mask-10_1_)" fill="#273238" fill-opacity="0.05" points="-10.333,24.694 57.615,24.694 
						57.615,25.141 -10.333,25.141 					"/>
				</g>
				<g id="Clipped_5_" transform="translate(0.333333, 0.333333)">
					<g id="a_5_">
					</g>
					<defs>
						<filter id="Adobe_OpacityMaskFilter_5_" filterUnits="userSpaceOnUse" x="-10.333" y="25.141" width="67.948" height="0.446">
							<feColorMatrix  type="matrix" values="1 0 0 0 0  0 1 0 0 0  0 0 1 0 0  0 0 0 1 0"/>
						</filter>
					</defs>
					<mask maskUnits="userSpaceOnUse" x="-10.333" y="25.141" width="67.948" height="0.446" id="mask-12_1_">
						<g filter="url(#Adobe_OpacityMaskFilter_5_)">
							<path id="path-11_1_" fill="#FFFFFF" d="M57.615,25.141c0-18.762-15.209-33.975-33.974-33.975
								c-18.762,0-33.975,15.212-33.975,33.975c0,10.317,4.604,19.554,11.865,25.781l-4.077,7.059v5.607
								c0,0.488,0.402,0.893,0.894,0.893c0.165,0,0.317-0.045,0.451-0.123l4.85-2.798l3.787-6.554
								c4.815,2.622,10.335,4.108,16.205,4.108c5.871,0,11.391-1.486,16.211-4.108l3.784,6.554l4.851,2.798
								c0.136,0.078,0.288,0.123,0.45,0.123c0.494,0,0.896-0.404,0.896-0.893v-5.607l-4.078-7.059
								C53.01,44.695,57.615,35.459,57.615,25.141z"/>
						</g>
					</mask>
					<polygon id="Shape_3_" mask="url(#mask-12_1_)" fill="#FFFFFF" fill-opacity="0.05" points="-10.333,25.141 57.615,25.141 
						57.615,25.587 -10.333,25.587 					"/>
				</g>
				<g id="Clipped_6_" transform="translate(0.333333, 0.333333)">
					<g id="a_6_">
					</g>
					<defs>
						<filter id="Adobe_OpacityMaskFilter_6_" filterUnits="userSpaceOnUse" x="-1.652" y="3.683" width="59.267" height="60.798">
							<feColorMatrix  type="matrix" values="1 0 0 0 0  0 1 0 0 0  0 0 1 0 0  0 0 0 1 0"/>
						</filter>
					</defs>
					<mask maskUnits="userSpaceOnUse" x="-1.652" y="3.683" width="59.267" height="60.798" id="mask-14_1_">
						<g filter="url(#Adobe_OpacityMaskFilter_6_)">
							<path id="path-13_1_" fill="#FFFFFF" d="M57.615,25.141c0-18.762-15.209-33.975-33.974-33.975
								c-18.762,0-33.975,15.212-33.975,33.975c0,10.317,4.604,19.554,11.865,25.781l-4.077,7.059v5.607
								c0,0.488,0.402,0.893,0.894,0.893c0.165,0,0.317-0.045,0.451-0.123l4.85-2.798l3.787-6.554
								c4.815,2.622,10.335,4.108,16.205,4.108c5.871,0,11.391-1.486,16.211-4.108l3.784,6.554l4.851,2.798
								c0.136,0.078,0.288,0.123,0.45,0.123c0.494,0,0.896-0.404,0.896-0.893v-5.607l-4.078-7.059
								C53.01,44.695,57.615,35.459,57.615,25.141z"/>
						</g>
					</mask>
					
						<linearGradient id="Shape_7_" gradientUnits="userSpaceOnUse" x1="13.7277" y1="39.029" x2="14.0861" y2="38.8231" gradientTransform="matrix(88.3867 0 0 -90.6667 -1197.8445 3574.4028)">
						<stop  offset="0" style="stop-color:#273238;stop-opacity:0.2"/>
						<stop  offset="1" style="stop-color:#273238;stop-opacity:0.02"/>
					</linearGradient>
					<polygon id="Shape_4_" mask="url(#mask-14_1_)" fill="url(#Shape_7_)" points="27.216,3.683 20.065,9.047 16.413,25.141 
						-1.652,64.481 57.615,64.481 57.615,34.083 					"/>
				</g>
				<g id="Clipped_7_" transform="translate(0.333333, 0.333333)">
					<g id="a_7_">
					</g>
				</g>
				<g id="Clipped_8_" transform="translate(0.333333, 0.333333)">
					<g id="a_8_">
					</g>
					<defs>
						
							<filter id="Adobe_OpacityMaskFilter_7_" filterUnits="userSpaceOnUse" x="-10.333" y="-8.833" width="67.948" height="33.975">
							<feColorMatrix  type="matrix" values="1 0 0 0 0  0 1 0 0 0  0 0 1 0 0  0 0 0 1 0"/>
						</filter>
					</defs>
					<mask maskUnits="userSpaceOnUse" x="-10.333" y="-8.833" width="67.948" height="33.975" id="mask-19_1_">
						<g filter="url(#Adobe_OpacityMaskFilter_7_)">
							<path id="path-18_1_" fill="#FFFFFF" d="M57.615,25.141c0-18.762-15.209-33.975-33.974-33.975
								c-18.762,0-33.975,15.212-33.975,33.975c0,10.317,4.604,19.554,11.865,25.781l-4.077,7.059v5.607
								c0,0.488,0.402,0.893,0.894,0.893c0.165,0,0.317-0.045,0.451-0.123l4.85-2.798l3.787-6.554
								c4.815,2.622,10.335,4.108,16.205,4.108c5.871,0,11.391-1.486,16.211-4.108l3.784,6.554l4.851,2.798
								c0.136,0.078,0.288,0.123,0.45,0.123c0.494,0,0.896-0.404,0.896-0.893v-5.607l-4.078-7.059
								C53.01,44.695,57.615,35.459,57.615,25.141z"/>
						</g>
					</mask>
					<path id="Shape_5_" mask="url(#mask-19_1_)" fill="#FFFFFF" fill-opacity="0.2" d="M23.641-8.387
						c18.614,0,33.726,14.972,33.962,33.528h0.012c0-18.762-15.209-33.975-33.974-33.975c-18.762,0-33.975,15.212-33.975,33.975
						h0.014C-10.084,6.585,5.027-8.387,23.641-8.387z"/>
				</g>
				<g id="Clipped_9_" transform="translate(0.333333, 0.333333)">
					<g id="a_9_">
					</g>
					<defs>
						<filter id="Adobe_OpacityMaskFilter_8_" filterUnits="userSpaceOnUse" x="19.029" y="21.568" width="37.988" height="50.098">
							<feColorMatrix  type="matrix" values="1 0 0 0 0  0 1 0 0 0  0 0 1 0 0  0 0 0 1 0"/>
						</filter>
					</defs>
					<mask maskUnits="userSpaceOnUse" x="19.029" y="21.568" width="37.988" height="50.098" id="mask-21_1_">
						<g filter="url(#Adobe_OpacityMaskFilter_8_)">
							<path id="path-20_1_" fill="#FFFFFF" d="M57.615,25.141c0-18.762-15.209-33.975-33.974-33.975
								c-18.762,0-33.975,15.212-33.975,33.975c0,10.317,4.604,19.554,11.865,25.781l-4.077,7.059v5.607
								c0,0.488,0.402,0.893,0.894,0.893c0.165,0,0.317-0.045,0.451-0.123l4.85-2.798l3.787-6.554
								c4.815,2.622,10.335,4.108,16.205,4.108c5.871,0,11.391-1.486,16.211-4.108l3.784,6.554l4.851,2.798
								c0.136,0.078,0.288,0.123,0.45,0.123c0.494,0,0.896-0.404,0.896-0.893v-5.607l-4.078-7.059
								C53.01,44.695,57.615,35.459,57.615,25.141z"/>
						</g>
					</mask>
					<g id="Group" mask="url(#mask-21_1_)">
						<g transform="translate(43.333333, 45.333333)">
							<g opacity="0.2" enable-background="new    ">
								
									<image overflow="visible" width="358" height="471" id="Bitmap_2_" xlink:href="BC3421DA.png"  transform="matrix(0.1061 0 0 0.1064 -24.3044 -23.7653)">
								</image>
							</g>
							<path id="Shape_6_" fill="#D8EFFC" d="M-12.465-20.192h-8.26L0.303,16.227l4.851,2.798c0.136,0.078,0.288,0.123,0.45,0.123
								c0.494,0,0.896-0.404,0.896-0.893v-5.607L-12.465-20.192z"/>
							<path id="Shape_11_" opacity="0.3" fill="#BDBDBD" enable-background="new    " d="M-12.465-20.192h-8.26L0.303,16.227
								l4.851,2.798c0.136,0.078,0.288,0.123,0.45,0.123c0.494,0,0.896-0.404,0.896-0.893v-5.607L-12.465-20.192z"/>
							<polygon id="Shape_12_" fill="#FFFFFF" fill-opacity="0.2" points="-12.465,-20.192 -12.721,-20.192 6.495,13.096 
								6.495,12.648 							"/>
							<path id="Shape_13_" fill="#212121" fill-opacity="0.1" d="M5.602,18.7c-0.167,0-0.319-0.045-0.451-0.118L0.299,15.78
								l-20.765-35.972h-0.259L0.303,16.227l4.851,2.798c0.136,0.078,0.288,0.123,0.45,0.123c0.494,0,0.896-0.404,0.896-0.893
								v-0.451C6.495,18.299,6.093,18.7,5.602,18.7L5.602,18.7z"/>
						</g>
					</g>
				</g>
				<g id="Clipped_10_" transform="translate(0.333333, 0.333333)">
					<g id="a_10_">
					</g>
					<defs>
						<filter id="Adobe_OpacityMaskFilter_9_" filterUnits="userSpaceOnUse" x="-6.127" y="21.57" width="62.021" height="50.094">
							<feColorMatrix  type="matrix" values="1 0 0 0 0  0 1 0 0 0  0 0 1 0 0  0 0 0 1 0"/>
						</filter>
					</defs>
					<mask maskUnits="userSpaceOnUse" x="-6.127" y="21.57" width="62.021" height="50.094" id="mask-23_1_">
						<g filter="url(#Adobe_OpacityMaskFilter_9_)">
							<path id="path-22_1_" fill="#FFFFFF" d="M57.615,25.141c0-18.762-15.209-33.975-33.974-33.975
								c-18.762,0-33.975,15.212-33.975,33.975c0,10.317,4.604,19.554,11.865,25.781l-4.077,7.059v5.607
								c0,0.488,0.402,0.893,0.894,0.893c0.165,0,0.317-0.045,0.451-0.123l4.85-2.798l3.787-6.554
								c4.815,2.622,10.335,4.108,16.205,4.108c5.871,0,11.391-1.486,16.211-4.108l3.784,6.554l4.851,2.798
								c0.136,0.078,0.288,0.123,0.45,0.123c0.494,0,0.896-0.404,0.896-0.893v-5.607l-4.078-7.059
								C53.01,44.695,57.615,35.459,57.615,25.141z"/>
						</g>
					</mask>
					<g id="Group_1_" mask="url(#mask-23_1_)">
						<g transform="translate(6.000000, 45.333333)">
							<g transform="matrix(1 0 0 1 9.536743e-007 0)" opacity="0.2" enable-background="new    ">
								
									<image overflow="visible" width="583" height="471" id="Bitmap_3_" xlink:href="BC3421DE.png"  transform="matrix(0.1064 0 0 0.1064 -12.1273 -23.7633)">
								</image>
							</g>
							<path id="Shape_14_" fill="#D8EFFC" d="M35.522-20.192c0,9.874-8.008,17.883-17.881,17.883c-2.937,0-5.708-0.713-8.154-1.968
								l8.154-14.127l1.033-1.788h-8.261l-18.964,32.84v5.607c0,0.488,0.402,0.893,0.894,0.893c0.167,0,0.317-0.045,0.453-0.123
								l4.85-2.798L5.907,1.923c3.5,1.858,7.491,2.92,11.734,2.92c13.826,0,25.036-11.209,25.036-25.035H35.522z"/>
							<path id="Shape_17_" fill="#FFFFFF" fill-opacity="0.4" d="M10.413-20.192l-18.964,32.84v0.448l19.222-33.288H10.413
								L10.413-20.192z M17.641-2.309c-2.937,0-5.708-0.713-8.154-1.968v0.447c2.446,1.255,5.217,1.968,8.154,1.968
								c9.873,0,17.881-8.009,17.881-17.884h7.142c0.003-0.147,0.014-0.294,0.014-0.446h-7.155
								C35.522-10.318,27.514-2.309,17.641-2.309z"/>
							<path id="Shape_18_" fill="#212121" fill-opacity="0.1" d="M18.674-20.192h-0.26L9.483-4.725v0.448L18.674-20.192z
								 M42.664-20.192C42.419-6.577,31.317,4.396,17.641,4.396c-4.243,0-8.234-1.062-11.734-2.921L-2.354,15.78l-4.85,2.802
								C-7.34,18.655-7.491,18.7-7.657,18.7c-0.491,0-0.894-0.4-0.894-0.896v0.451c0,0.488,0.402,0.893,0.894,0.893
								c0.167,0,0.317-0.045,0.453-0.123l4.85-2.798L5.907,1.923c3.5,1.858,7.491,2.92,11.734,2.92
								c13.826,0,25.036-11.209,25.036-25.035H42.664z"/>
						</g>
					</g>
				</g>
				<g id="Clipped_11_" transform="translate(0.333333, 0.333333)">
					<g id="a_11_">
					</g>
					<defs>
						<filter id="Adobe_OpacityMaskFilter_10_" filterUnits="userSpaceOnUse" x="9.336" y="0.106" width="32.187" height="41.843">
							<feColorMatrix  type="matrix" values="1 0 0 0 0  0 1 0 0 0  0 0 1 0 0  0 0 0 1 0"/>
						</filter>
					</defs>
					<mask maskUnits="userSpaceOnUse" x="9.336" y="0.106" width="32.187" height="41.843" id="mask-25_1_">
						<g filter="url(#Adobe_OpacityMaskFilter_10_)">
							<path id="path-24_1_" fill="#FFFFFF" d="M57.615,25.141c0-18.762-15.209-33.975-33.974-33.975
								c-18.762,0-33.975,15.212-33.975,33.975c0,10.317,4.604,19.554,11.865,25.781l-4.077,7.059v5.607
								c0,0.488,0.402,0.893,0.894,0.893c0.165,0,0.317-0.045,0.451-0.123l4.85-2.798l3.787-6.554
								c4.815,2.622,10.335,4.108,16.205,4.108c5.871,0,11.391-1.486,16.211-4.108l3.784,6.554l4.851,2.798
								c0.136,0.078,0.288,0.123,0.45,0.123c0.494,0,0.896-0.404,0.896-0.893v-5.607l-4.078-7.059
								C53.01,44.695,57.615,35.459,57.615,25.141z"/>
						</g>
					</mask>
					<g id="Group_2_" mask="url(#mask-25_1_)">
						<g transform="translate(29.333333, 13.333333)">
							<g transform="matrix(1 0 0 1 0 -9.536743e-007)" opacity="0.2" enable-background="new    ">
								
									<image overflow="visible" width="300" height="392" id="Bitmap_1_" xlink:href="BC3421D9.png"  transform="matrix(0.1073 0 0 0.1067 -19.9972 -13.2272)">
								</image>
							</g>
							<path id="Shape_19_" fill="#063042" d="M2.354-4.286h-4.471v-5.364h-7.152v5.364h-4.471c-1.475,0-2.681,1.208-2.681,2.683
								v13.411l8.832,8.826c0.488,0.481,1.156,0.786,1.896,0.786c0.741,0,1.413-0.302,1.895-0.786l8.834-8.826V-1.603
								C5.036-3.079,3.828-4.286,2.354-4.286z M-5.692,10.913c-2.468,0-4.47-2.001-4.47-4.469c0-2.469,2.002-4.47,4.47-4.47
								c2.469,0,4.471,2.001,4.471,4.47C-1.221,8.911-3.223,10.913-5.692,10.913z"/>
						</g>
					</g>
				</g>
				<g id="Clipped_12_" transform="translate(0.333333, 0.333333)">
					<g id="a_12_">
					</g>
					<defs>
						<filter id="Adobe_OpacityMaskFilter_11_" filterUnits="userSpaceOnUse" x="12.913" y="3.683" width="21.457" height="21.011">
							<feColorMatrix  type="matrix" values="1 0 0 0 0  0 1 0 0 0  0 0 1 0 0  0 0 0 1 0"/>
						</filter>
					</defs>
					<mask maskUnits="userSpaceOnUse" x="12.913" y="3.683" width="21.457" height="21.011" id="mask-27_1_">
						<g filter="url(#Adobe_OpacityMaskFilter_11_)">
							<path id="path-26_1_" fill="#FFFFFF" d="M57.615,25.141c0-18.762-15.209-33.975-33.974-33.975
								c-18.762,0-33.975,15.212-33.975,33.975c0,10.317,4.604,19.554,11.865,25.781l-4.077,7.059v5.607
								c0,0.488,0.402,0.893,0.894,0.893c0.165,0,0.317-0.045,0.451-0.123l4.85-2.798l3.787-6.554
								c4.815,2.622,10.335,4.108,16.205,4.108c5.871,0,11.391-1.486,16.211-4.108l3.784,6.554l4.851,2.798
								c0.136,0.078,0.288,0.123,0.45,0.123c0.494,0,0.896-0.404,0.896-0.893v-5.607l-4.078-7.059
								C53.01,44.695,57.615,35.459,57.615,25.141z"/>
						</g>
					</mask>
					<path id="Shape_22_" mask="url(#mask-27_1_)" fill="#FFFFFF" fill-opacity="0.1" d="M31.687,9.047h-4.471v0.448h4.471
						c1.475,0,2.683,1.208,2.683,2.681V11.73C34.37,10.255,33.162,9.047,31.687,9.047z M27.216,3.683h-7.152v0.448h7.152V3.683z
						 M20.065,9.047h-4.471c-1.475,0-2.681,1.208-2.681,2.683v0.446c0-1.474,1.206-2.681,2.681-2.681h4.471V9.047z M23.641,24.246
						c-2.468,0-4.47-2.001-4.47-4.469v0.446c0,2.467,2.002,4.471,4.47,4.471c2.469,0,4.471-2.003,4.471-4.471v-0.446
						C28.112,22.245,26.11,24.246,23.641,24.246z"/>
				</g>
				<g id="Clipped_13_" transform="translate(0.333333, 0.333333)">
					<g id="a_13_">
					</g>
					<defs>
						
							<filter id="Adobe_OpacityMaskFilter_12_" filterUnits="userSpaceOnUse" x="12.913" y="14.859" width="21.457" height="19.895">
							<feColorMatrix  type="matrix" values="1 0 0 0 0  0 1 0 0 0  0 0 1 0 0  0 0 0 1 0"/>
						</filter>
					</defs>
					<mask maskUnits="userSpaceOnUse" x="12.913" y="14.859" width="21.457" height="19.895" id="mask-29_1_">
						<g filter="url(#Adobe_OpacityMaskFilter_12_)">
							<path id="path-28_1_" fill="#FFFFFF" d="M57.615,25.141c0-18.762-15.209-33.975-33.974-33.975
								c-18.762,0-33.975,15.212-33.975,33.975c0,10.317,4.604,19.554,11.865,25.781l-4.077,7.059v5.607
								c0,0.488,0.402,0.893,0.894,0.893c0.165,0,0.317-0.045,0.451-0.123l4.85-2.798l3.787-6.554
								c4.815,2.622,10.335,4.108,16.205,4.108c5.871,0,11.391-1.486,16.211-4.108l3.784,6.554l4.851,2.798
								c0.136,0.078,0.288,0.123,0.45,0.123c0.494,0,0.896-0.404,0.896-0.893v-5.607l-4.078-7.059
								C53.01,44.695,57.615,35.459,57.615,25.141z"/>
						</g>
					</mask>
					<path id="Shape_23_" mask="url(#mask-29_1_)" fill="#212121" fill-opacity="0.1" d="M23.641,15.307
						c2.469,0,4.471,2.001,4.471,4.47v-0.448c0-2.467-2.002-4.47-4.471-4.47c-2.468,0-4.47,2.003-4.47,4.47v0.448
						C19.171,17.308,21.174,15.307,23.641,15.307z M25.536,33.519c-0.486,0.482-1.153,0.787-1.895,0.787
						c-0.74,0-1.413-0.298-1.896-0.787l-8.832-8.825v0.447l8.832,8.826c0.488,0.481,1.156,0.786,1.896,0.786
						c0.741,0,1.413-0.302,1.895-0.786l8.834-8.826v-0.447L25.536,33.519L25.536,33.519z"/>
				</g>
				
					<radialGradient id="Shape_29_" cx="13.6411" cy="39.9668" r="0.7951" gradientTransform="matrix(101.3333 0 0 -101.3333 -1382.3544 4051.4797)" gradientUnits="userSpaceOnUse">
					<stop  offset="0" style="stop-color:#FFFFFF;stop-opacity:0.1"/>
					<stop  offset="1" style="stop-color:#FFFFFF;stop-opacity:0"/>
				</radialGradient>
				<path id="Shape_24_" fill="url(#Shape_29_)" d="M57.948,25.475C57.948,6.712,42.739-8.5,23.975-8.5
					C5.212-8.5-10,6.712-10,25.475c0,10.317,4.604,19.554,11.865,25.781l-4.077,7.059v5.607c0,0.488,0.402,0.893,0.894,0.893
					c0.165,0,0.317-0.045,0.451-0.123l4.85-2.798L7.77,55.34c4.815,2.622,10.335,4.108,16.205,4.108
					c5.871,0,11.391-1.486,16.211-4.108l3.784,6.554l4.851,2.798c0.136,0.078,0.288,0.123,0.45,0.123
					c0.494,0,0.896-0.404,0.896-0.893v-5.607l-4.078-7.059C53.344,45.028,57.948,35.792,57.948,25.475z"/>
			</g>
			<polygon id="Shape_25_" fill="none" points="0,0 73.661,0 73.661,73.662 0,73.662 			"/>
		</g>
	</g>
</g>
</svg>
