<?xml version="1.0" encoding="UTF-8"?>
<!-- Generator: Adobe Illustrator 16.0.0, SVG Export Plug-In . SVG Version: 6.00 Build 0)  -->
<!DOCTYPE svg PUBLIC "-//W3C//DTD SVG 1.1//EN" "http://www.w3.org/Graphics/SVG/1.1/DTD/svg11.dtd">
<svg version="1.1" id="Layer_1" xmlns="http://www.w3.org/2000/svg" xmlns:xlink="http://www.w3.org/1999/xlink" x="0px" y="0px" width="74px" height="74px" viewBox="0 0 74 74" enable-background="new 0 0 74 74" xml:space="preserve">
<linearGradient id="SVGID_1_" gradientUnits="userSpaceOnUse" x1="-3942.3057" y1="-55.834" x2="-3893.9512" y2="-330.0654" gradientTransform="matrix(-0.2891 0 0 -0.2891 -1095.5283 -18.7793)">
	<stop offset="0" style="stop-color:#FCFCFC"/>
	<stop offset="1" style="stop-color:#C8C9CA"/>
</linearGradient>
<path fill="url(#SVGID_1_)" d="M16.448,0c0.434,0,40.266,0,40.989,0c1.995,0,3.932,0.318,5.811,0.983  c2.717,0.983,5.174,2.717,7.024,4.972c1.879,2.255,3.121,5.03,3.555,7.92c0.174,1.069,0.203,2.139,0.203,3.208  c0,0.983,0,35.613,0,37.173c0,0.925,0,1.879,0,2.804c0,1.271-0.059,2.572-0.318,3.816c-0.578,2.861-1.938,5.549-3.902,7.717  c-1.938,2.168-4.48,3.787-7.227,4.654C60.905,73.769,59.171,74,57.408,74c-0.781,0-41.077,0-41.684-0.029  c-2.948-0.145-5.868-1.098-8.325-2.746c-2.399-1.618-4.365-3.873-5.637-6.475c-1.098-2.226-1.647-4.712-1.647-7.197  c0-0.578,0-40.527,0-41.105c-0.058-2.457,0.462-4.885,1.532-7.082c1.243-2.602,3.18-4.885,5.579-6.504  c2.457-1.677,5.348-2.66,8.296-2.804C15.812,0,16.13,0,16.448,0z"/>
<g>
	<path fill="#F8582A" d="M36.754,20.406c-2.289,1.61-4.884,3.436-6.274,6.456c-2.415,5.268,4.941,11.016,5.256,11.258   c0.073,0.056,0.161,0.083,0.248,0.083c0.093,0,0.186-0.031,0.261-0.095c0.146-0.122,0.188-0.33,0.1-0.499   c-0.026-0.051-2.667-5.18-2.569-8.86c0.035-1.282,1.829-2.736,3.728-4.275c1.739-1.41,3.711-3.008,4.863-4.877   c2.532-4.115-0.281-8.161-0.311-8.202c-0.111-0.157-0.318-0.213-0.494-0.136s-0.273,0.268-0.234,0.457   c0.007,0.026,0.554,2.703-0.97,5.459C39.729,18.313,38.352,19.283,36.754,20.406z"/>
	<path fill="#F8582A" d="M46.401,22.22c0.162-0.122,0.209-0.343,0.11-0.521c-0.098-0.177-0.31-0.255-0.5-0.184   c-0.389,0.148-9.523,3.669-9.523,7.924c0,2.934,1.252,4.483,2.168,5.615c0.358,0.444,0.668,0.827,0.77,1.154   c0.288,0.943-0.393,2.647-0.68,3.226c-0.082,0.165-0.041,0.366,0.099,0.487c0.075,0.065,0.171,0.1,0.265,0.1   c0.082,0,0.163-0.024,0.232-0.074c0.157-0.108,3.839-2.712,3.18-5.848c-0.247-1.192-0.833-2.063-1.35-2.833   c-0.801-1.19-1.379-2.051-0.502-3.64C41.698,25.774,46.354,22.256,46.401,22.22z"/>
</g>
<g>
	<path fill="#2F6DB8" d="M22.62,40.088c-0.157,0.47-0.083,0.935,0.213,1.346c0.991,1.375,4.499,2.132,9.878,2.132   c0.001,0,0.001,0,0.001,0c0.729,0,1.498-0.015,2.287-0.042c8.602-0.308,11.791-2.988,11.923-3.102   c0.144-0.124,0.182-0.331,0.093-0.499c-0.089-0.166-0.281-0.251-0.466-0.199c-3.028,0.826-8.686,1.121-12.609,1.121   c-4.39,0-6.626-0.317-7.174-0.551c0.281-0.385,2.014-1.074,4.161-1.496c0.205-0.041,0.346-0.23,0.325-0.438   c-0.021-0.209-0.195-0.367-0.404-0.367C29.59,37.993,23.28,38.094,22.62,40.088z"/>
	<path fill="#2F6DB8" d="M51.402,37.328c-1.773,0-3.457,0.89-3.527,0.928c-0.164,0.088-0.247,0.275-0.202,0.456   s0.207,0.307,0.394,0.308c0.038,0,3.784,0.03,4.123,2.172c0.302,1.847-3.544,4.839-5.052,5.836   c-0.162,0.108-0.226,0.315-0.15,0.496c0.064,0.153,0.214,0.249,0.375,0.249c0.027,0,0.057-0.004,0.084-0.009   c0.358-0.077,8.75-1.926,7.862-6.813C54.768,37.957,52.886,37.328,51.402,37.328z"/>
	<path fill="#2F6DB8" d="M45.647,46.43c0.029-0.156-0.036-0.316-0.166-0.407l-2.013-1.409c-0.098-0.069-0.222-0.091-0.338-0.061   c-0.02,0.006-2.124,0.559-5.18,0.898c-1.213,0.136-2.57,0.208-3.928,0.208c-3.054,0-5.051-0.359-5.342-0.623   c-0.039-0.074-0.026-0.107-0.02-0.126c0.053-0.146,0.336-0.321,0.519-0.391c0.202-0.074,0.311-0.293,0.248-0.498   c-0.063-0.207-0.275-0.328-0.484-0.278c-2.018,0.488-3.005,1.169-2.934,2.025c0.128,1.518,3.644,2.297,6.616,2.502   c0.428,0.03,0.891,0.045,1.374,0.045h0.001c4.943,0,11.28-1.551,11.344-1.566C45.5,46.711,45.618,46.587,45.647,46.43z"/>
	<path fill="#2F6DB8" d="M30.478,49.688c0.151-0.099,0.22-0.288,0.165-0.461c-0.054-0.174-0.216-0.288-0.398-0.285   c-0.271,0.007-2.647,0.114-2.813,1.627c-0.05,0.452,0.079,0.866,0.385,1.229c0.853,1.011,3.156,1.611,7.039,1.837   c0.46,0.027,0.927,0.042,1.388,0.042c4.938,0,8.264-1.546,8.402-1.612c0.135-0.063,0.225-0.197,0.232-0.346   c0.008-0.149-0.067-0.29-0.194-0.368l-2.543-1.552c-0.089-0.055-0.194-0.072-0.295-0.052c-0.016,0.004-1.63,0.338-4.066,0.669   c-0.461,0.063-1.039,0.095-1.717,0.095c-2.434,0-5.141-0.397-5.66-0.658C30.395,49.803,30.404,49.741,30.478,49.688z"/>
	<path fill="#2F6DB8" d="M33.942,58.343c11.31-0.01,17.38-2.021,18.549-3.286c0.414-0.448,0.459-0.872,0.423-1.149   c-0.086-0.681-0.707-1.098-0.777-1.143c-0.17-0.109-0.398-0.081-0.53,0.072c-0.132,0.151-0.135,0.375-0.002,0.527   c0.071,0.092,0.112,0.245-0.097,0.454c-0.467,0.437-5.183,1.763-13.032,2.16c-1.075,0.056-2.202,0.085-3.353,0.085   c-7.028,0-12.172-0.963-12.847-1.523c0.26-0.375,2.08-0.972,4.015-1.311c0.218-0.037,0.365-0.243,0.332-0.462   c-0.034-0.218-0.236-0.369-0.457-0.34c-0.054,0.007-0.239,0.018-0.454,0.031c-3.193,0.195-6.882,0.63-7.075,2.274   c-0.059,0.501,0.09,0.956,0.442,1.352C19.942,57.054,22.421,58.343,33.942,58.343L33.942,58.343z"/>
	<path fill="#2F6DB8" d="M54.712,55.413c-0.159-0.074-0.348-0.037-0.468,0.092c-0.017,0.019-1.717,1.796-6.829,2.841   c-1.957,0.392-5.631,0.591-10.919,0.591c-5.299,0-10.34-0.209-10.391-0.211c-0.21-0.011-0.39,0.143-0.419,0.35   c-0.028,0.208,0.105,0.403,0.309,0.451c0.053,0.013,5.336,1.25,12.561,1.25c3.465,0,6.836-0.281,10.021-0.837   c5.939-1.041,6.355-3.985,6.37-4.109C54.967,55.655,54.872,55.486,54.712,55.413z"/>
</g>
</svg>