<?xml version="1.0" encoding="UTF-8"?>
<!-- Generator: Adobe Illustrator 16.0.0, SVG Export Plug-In . SVG Version: 6.00 Build 0)  -->
<!DOCTYPE svg PUBLIC "-//W3C//DTD SVG 1.1//EN" "http://www.w3.org/Graphics/SVG/1.1/DTD/svg11.dtd">
<svg version="1.1" id="Layer_1" xmlns="http://www.w3.org/2000/svg" xmlns:xlink="http://www.w3.org/1999/xlink" x="0px" y="0px" width="74px" height="74px" viewBox="0 0 74 74" enable-background="new 0 0 74 74" xml:space="preserve">
<g>
	<path fill="#0F80CC" d="M57.038,5.005H11.735c-3.037,0-5.521,2.485-5.521,5.52v49.961c0,3.037,2.484,5.521,5.521,5.521h29.839   C41.234,51.161,46.305,22.349,57.038,5.005L57.038,5.005z"/>
	
		<linearGradient id="SVGID_1_" gradientUnits="userSpaceOnUse" x1="-192.0952" y1="-58.6997" x2="-192.0952" y2="-56.6422" gradientTransform="matrix(21.3578 0 0 22.5514 4134.3203 1331.3877)">
		<stop offset="0" style="stop-color:#97D9F6"/>
		<stop offset="0.9202" style="stop-color:#0F80CC"/>
		<stop offset="1" style="stop-color:#0F80CC"/>
	</linearGradient>
	<path fill="url(#SVGID_1_)" d="M55.393,6.616H11.735c-2.156,0-3.91,1.754-3.91,3.909v46.317c9.887-3.796,24.726-7.069,34.988-6.921   C44.876,39.139,50.935,18.01,55.393,6.616L55.393,6.616z"/>
	<path fill="#003B57" d="M67.606,3.37c-3.104-2.767-6.86-1.655-10.568,1.635c-0.55,0.488-1.098,1.031-1.646,1.611   c-6.342,6.729-12.23,19.191-14.059,28.71c0.712,1.445,1.269,3.288,1.636,4.697c0.095,0.36,0.178,0.7,0.245,0.99   c0.162,0.683,0.249,1.126,0.249,1.126s-0.058-0.218-0.29-0.892c-0.045-0.131-0.095-0.273-0.153-0.439   c-0.025-0.069-0.061-0.152-0.099-0.243c-0.413-0.961-1.558-2.991-2.062-3.874c-0.43,1.271-0.811,2.459-1.13,3.534   c1.454,2.662,2.341,7.222,2.341,7.222s-0.078-0.297-0.442-1.327c-0.324-0.914-1.94-3.743-2.323-4.406   c-0.655,2.418-0.915,4.049-0.681,4.445c0.456,0.77,0.89,2.101,1.271,3.567c0.86,3.31,1.458,7.338,1.458,7.338   s0.021,0.268,0.053,0.679c-0.12,2.78-0.048,5.659,0.168,8.265c0.284,3.448,0.821,6.408,1.506,7.993l0.463-0.252   c-1.004-3.121-1.412-7.215-1.233-11.935c0.271-7.215,1.932-15.914,4.998-24.982C52.49,23.144,59.681,12.161,66.26,6.917   c-5.997,5.416-14.115,22.95-16.546,29.443c-2.72,7.271-4.647,14.094-5.81,20.629c2.004-6.129,8.486-8.76,8.486-8.76   s3.18-3.925,6.896-9.524c-2.227,0.506-5.882,1.377-7.106,1.89c-1.805,0.757-2.291,1.018-2.291,1.018s5.849-3.563,10.867-5.176   C67.658,25.566,75.178,10.124,67.606,3.37"/>
</g>
</svg>