<?xml version="1.0" encoding="utf-8"?>
<!-- Generator: Adobe Illustrator 16.0.0, SVG Export Plug-In . SVG Version: 6.00 Build 0)  -->
<!DOCTYPE svg PUBLIC "-//W3C//DTD SVG 1.1//EN" "http://www.w3.org/Graphics/SVG/1.1/DTD/svg11.dtd">
<svg version="1.1" id="Layer_1" xmlns="http://www.w3.org/2000/svg" xmlns:xlink="http://www.w3.org/1999/xlink" x="0px" y="0px"
	 width="83px" height="80px" viewBox="0 0 83 80" enable-background="new 0 0 83 80" xml:space="preserve">
<g>
	<g>
		<path fill="#010101" d="M71.099,22.344c-1.134-1.209-2.733-1.903-4.391-1.903h-4.017c-1.658,0-3.258,0.693-4.392,1.903
			c-1.132,1.209-1.721,2.852-1.612,4.505l0.179,2.737l0.416,6.394c0.167,2.546,1.601,4.8,3.835,6.029
			c1.121,0.617,2.352,0.926,3.583,0.926c1.229,0,2.46-0.309,3.581-0.926c2.234-1.229,3.669-3.483,3.834-6.029l0.478-7.306
			l0.119-1.825C72.819,25.195,72.232,23.553,71.099,22.344z M59.984,26.633c-0.05-0.755,0.208-1.477,0.727-2.03
			s1.221-0.858,1.98-0.858h2.896l-0.543,1.448c-0.249,0.358-1.509,1.908-4.993,2.465L59.984,26.633z M68.818,35.766
			c-0.091,1.414-0.888,2.666-2.13,3.348c-1.245,0.686-2.732,0.686-3.979,0c-1.241-0.682-2.038-1.934-2.131-3.348l-0.313-4.801
			c2.928-0.416,4.831-1.418,6.016-2.354c0.223,0.158,0.47,0.309,0.743,0.449c0.502,0.26,1.221,0.517,2.181,0.777L68.818,35.766z
			 M68.541,26.125c-0.108-0.056-0.192-0.105-0.263-0.15l0.483-1.285c0.429,0.497,0.66,1.115,0.658,1.77
			C68.909,26.298,68.654,26.184,68.541,26.125z"/>
	</g>
</g>
<g>
	<g>
		<path fill="#010101" d="M82.909,56.973L82.243,53.3c-0.82-4.527-4.406-8.141-8.925-8.992c-0.682-0.128-1.38-0.192-2.073-0.192
			h-2.004c-0.439,0-0.858,0.174-1.168,0.483L64.7,47.973l-3.374-3.375c-0.311-0.31-0.73-0.483-1.168-0.483h-2.005
			c-0.693,0-1.391,0.065-2.073,0.193c-1.469,0.277-2.841,0.838-4.086,1.662c-0.583-0.072-1.17-0.111-1.755-0.111h-3.651
			c-0.438,0-0.859,0.175-1.17,0.486l-3.99,4.004l-4.09-4.017c-0.309-0.304-0.724-0.474-1.157-0.474h-3.539
			c-0.569,0-1.14,0.038-1.708,0.105c-1.245-0.822-2.616-1.381-4.081-1.656c-0.682-0.128-1.379-0.193-2.073-0.193h-2.004
			c-0.438,0-0.858,0.174-1.168,0.483l-3.373,3.375l-3.374-3.375c-0.309-0.31-0.73-0.483-1.167-0.483H11.69
			c-0.694,0-1.392,0.065-2.074,0.193c-4.518,0.852-8.104,4.465-8.925,8.992l-0.666,3.673c-0.087,0.481,0.044,0.977,0.358,1.353
			s0.778,0.593,1.268,0.593h16.551l-0.68,3.756c-0.087,0.482,0.043,0.979,0.357,1.355c0.314,0.374,0.778,0.592,1.268,0.592h44.583
			c0.489,0,0.954-0.218,1.269-0.592c0.313-0.377,0.444-0.873,0.357-1.355l-0.681-3.756h16.605c0.489,0,0.953-0.217,1.269-0.592
			C82.864,57.95,82.996,57.454,82.909,56.973z M35.504,49.163l4.779,4.692c0.648,0.636,1.687,0.631,2.327-0.014l4.664-4.679h1.573
			L41.44,56.57l-7.408-7.407H35.504z M18.974,55.615H3.63l0.313-1.727c0.578-3.189,3.104-5.734,6.285-6.333
			c0.481-0.092,0.973-0.137,1.462-0.137h1.32l4.058,4.058c0.645,0.645,1.691,0.645,2.336,0l4.058-4.058h1.32
			c0.392,0,0.786,0.031,1.174,0.09C22.714,49.214,20.186,52.117,18.974,55.615z M21.127,61.317l0.542-2.99
			c0.767-4.236,3.962-7.671,8.074-8.781l10.53,10.529c0.645,0.646,1.69,0.646,2.336,0l10.529-10.529
			c4.112,1.111,7.308,4.545,8.074,8.781l0.541,2.99H21.127z M63.906,55.615c-1.209-3.494-3.732-6.395-6.968-8.101
			c0.401-0.063,0.811-0.096,1.215-0.096h1.32l4.058,4.058c0.311,0.31,0.729,0.483,1.169,0.483c0.438,0,0.857-0.174,1.168-0.483
			l4.058-4.058h1.318c0.49,0,0.981,0.045,1.463,0.137c3.182,0.599,5.707,3.144,6.286,6.333l0.312,1.727H63.906L63.906,55.615z"/>
	</g>
</g>
<g>
	<g>
		<path fill="#010101" d="M24.634,22.344c-1.133-1.209-2.733-1.903-4.39-1.903h-4.017c-1.657,0-3.257,0.693-4.39,1.903
			c-1.133,1.209-1.721,2.852-1.614,4.505l0.179,2.737l0.417,6.394c0.166,2.546,1.6,4.8,3.835,6.029
			c1.121,0.616,2.352,0.926,3.582,0.926c1.23,0,2.46-0.309,3.582-0.926c2.235-1.229,3.669-3.483,3.835-6.029l0.477-7.306
			l0.119-1.825C26.355,25.195,25.768,23.553,24.634,22.344z M13.521,26.635c-0.049-0.757,0.209-1.479,0.728-2.032
			c0.518-0.554,1.221-0.858,1.979-0.858h2.896l-0.547,1.458c-0.208,0.298-1.481,1.885-4.988,2.453L13.521,26.635z M22.355,35.766
			c-0.091,1.414-0.888,2.666-2.13,3.348c-1.246,0.686-2.733,0.686-3.979,0c-1.241-0.682-2.037-1.934-2.13-3.348l-0.313-4.801
			c2.927-0.416,4.83-1.418,6.015-2.354c0.223,0.158,0.471,0.308,0.743,0.449c0.502,0.26,1.222,0.517,2.181,0.777L22.355,35.766z
			 M22.077,26.125c-0.108-0.056-0.193-0.105-0.262-0.15l0.482-1.285c0.429,0.497,0.661,1.115,0.659,1.77
			C22.446,26.298,22.19,26.184,22.077,26.125z"/>
	</g>
</g>
<g>
	<g>
		<path fill="#010101" d="M49.627,18.378C48.212,16.867,46.212,16,44.141,16h-5.4c-2.071,0-4.071,0.867-5.487,2.378
			c-1.416,1.511-2.15,3.563-2.016,5.629l0.24,3.68l0.561,8.595c0.21,3.227,2.028,6.084,4.861,7.643
			c1.421,0.781,2.98,1.172,4.541,1.172c1.56,0,3.119-0.391,4.54-1.172c2.835-1.559,4.651-4.416,4.861-7.643l0.642-9.821l0,0
			l0.16-2.454C51.777,21.941,51.043,19.889,49.627,18.378z M34.664,25.783l-0.129-1.99c-0.077-1.176,0.325-2.297,1.13-3.156
			c0.806-0.859,1.897-1.333,3.076-1.333h4.714l-1.043,2.779C42.104,22.555,40.222,25.07,34.664,25.783z M47.546,36.066
			c-0.137,2.096-1.317,3.951-3.156,4.963c-1.847,1.016-4.052,1.016-5.897,0c-1.839-1.012-3.02-2.867-3.157-4.963l-0.456-6.983
			c4.399-0.532,7.102-2.085,8.659-3.409c0.358,0.301,0.788,0.58,1.287,0.839c0.716,0.37,1.793,0.739,3.27,1.12L47.546,36.066z
			 M48.346,23.792l-0.03,0.478c-1.154-0.322-1.713-0.56-1.973-0.693c-0.425-0.22-0.653-0.399-0.771-0.513l1.096-2.92
			c0.194,0.147,0.379,0.311,0.549,0.492C48.021,21.496,48.423,22.617,48.346,23.792z"/>
	</g>
</g>
<g>
	<g>
		<path fill="#010101" d="M29.242,56.807h-4.295c-0.912,0-1.652,0.74-1.652,1.652c0,0.913,0.74,1.652,1.652,1.652h4.295
			c0.913,0,1.652-0.739,1.652-1.652C30.894,57.547,30.155,56.807,29.242,56.807z"/>
	</g>
</g>
<g>
	<g>
		<path fill="#010101" d="M34.199,56.807h-0.33c-0.913,0-1.653,0.74-1.653,1.652c0,0.913,0.74,1.652,1.653,1.652h0.33
			c0.912,0,1.652-0.739,1.652-1.652C35.851,57.547,35.111,56.807,34.199,56.807z"/>
	</g>
</g>
</svg>
