<?xml version="1.0" encoding="utf-8"?>
<!-- Generator: Adobe Illustrator 16.0.0, SVG Export Plug-In . SVG Version: 6.00 Build 0)  -->
<!DOCTYPE svg PUBLIC "-//W3C//DTD SVG 1.1//EN" "http://www.w3.org/Graphics/SVG/1.1/DTD/svg11.dtd">
<svg version="1.1" id="Layer_1" xmlns="http://www.w3.org/2000/svg" xmlns:xlink="http://www.w3.org/1999/xlink" x="0px" y="0px"
	 width="83px" height="80px" viewBox="0 0 83 80" enable-background="new 0 0 83 80" xml:space="preserve">
<g>
	<g>
		<path fill="#010101" d="M81.938,23.19V5.159C81.938,2.314,79.594,0,76.713,0H7.226C4.344,0,2,2.314,2,5.159v58.923
			c0,2.881,2.344,5.227,5.226,5.227h34.366v3.777c0,3.813,3.102,6.914,6.914,6.914h26.58C78.898,80,82,76.898,82,73.086V24.101
			C82,23.792,81.979,23.488,81.938,23.19z M5.125,5.159c0-1.14,0.923-2.034,2.101-2.034h69.487c1.178,0,2.1,0.894,2.1,2.034v13.124
			c-0.875-0.563-1.885-0.934-2.971-1.053h-0.001c-0.05-0.005-0.1-0.01-0.147-0.014c-0.002,0-0.004,0-0.006,0v-9.47
			c0-0.863-0.699-1.563-1.563-1.563H9.813c-0.863,0-1.563,0.7-1.563,1.563v46.588H5.125V5.159z M41.592,60.24H25.979
			c-0.862,0-1.563,0.699-1.563,1.563c0,0.862,0.7,1.563,1.563,1.563h15.612v2.817H7.226c-1.158,0-2.101-0.942-2.101-2.102v-6.624
			h36.467V60.24z M41.592,48.689H19.314v-6.414h22.278V48.689z M42.596,20.517c0,0.001-0.002,0.002-0.002,0.004
			c-0.052,0.084-0.101,0.17-0.148,0.258c-0.014,0.025-0.027,0.051-0.041,0.077c-0.035,0.066-0.069,0.134-0.104,0.202
			c-0.013,0.024-0.024,0.049-0.036,0.074c-0.043,0.089-0.084,0.18-0.123,0.272c-0.007,0.015-0.013,0.03-0.019,0.045
			c-0.033,0.078-0.063,0.157-0.095,0.237c-0.01,0.029-0.021,0.058-0.031,0.086c-0.026,0.075-0.053,0.15-0.076,0.225
			c-0.008,0.022-0.016,0.045-0.021,0.067c-0.029,0.097-0.058,0.193-0.083,0.292c-0.006,0.023-0.012,0.046-0.017,0.07
			c-0.02,0.078-0.038,0.156-0.055,0.234c-0.007,0.03-0.013,0.061-0.02,0.091c-0.017,0.085-0.032,0.172-0.046,0.258
			c-0.002,0.017-0.005,0.033-0.009,0.049c-0.016,0.102-0.027,0.205-0.039,0.308c-0.003,0.028-0.004,0.056-0.008,0.084
			c-0.008,0.079-0.013,0.159-0.018,0.24c-0.002,0.03-0.004,0.061-0.006,0.091c-0.004,0.104-0.008,0.212-0.008,0.319V34H19.314
			V20.313h23.411C42.682,20.38,42.639,20.448,42.596,20.517z M17.751,17.188c-0.863,0-1.563,0.7-1.563,1.563v16.814
			c0,0.863,0.7,1.563,1.563,1.563h23.84v2.024h-23.84c-0.863,0-1.563,0.7-1.563,1.563v9.539c0,0.862,0.7,1.563,1.563,1.563h23.84
			v2.52H11.375V9.308h61.188v7.88H17.751z M78.875,73.086c0,2.089-1.7,3.789-3.789,3.789h-26.58c-2.09,0-3.789-1.7-3.789-3.789
			v-2.514h34.158V73.086z M78.875,67.447H44.717V29.741h34.158V67.447z M78.875,26.615H44.717v-2.514
			c0-2.089,1.699-3.789,3.789-3.789h25.62h0.96c0.111,0,0.221,0.005,0.33,0.015c0.008,0,0.016,0.001,0.021,0.001
			c1.356,0.129,2.539,0.992,3.096,2.204c0.004,0.009,0.009,0.019,0.013,0.027c0.041,0.091,0.077,0.183,0.112,0.277
			c0.006,0.018,0.012,0.036,0.018,0.053c0.03,0.091,0.059,0.183,0.082,0.276c0.006,0.018,0.01,0.037,0.014,0.055
			c0.021,0.092,0.041,0.184,0.056,0.278c0.032,0.196,0.049,0.396,0.049,0.601L78.875,26.615L78.875,26.615z"/>
	</g>
</g>
<g>
	<g>
		<path fill="#010101" d="M69.747,23.159c-0.021-0.1-0.05-0.198-0.089-0.293c-0.039-0.094-0.088-0.185-0.145-0.269
			c-0.057-0.086-0.121-0.166-0.193-0.237c-0.072-0.071-0.151-0.138-0.237-0.194c-0.085-0.056-0.177-0.104-0.271-0.144
			c-0.095-0.04-0.192-0.07-0.293-0.091c-0.201-0.041-0.408-0.041-0.61,0c-0.099,0.021-0.196,0.052-0.292,0.091
			c-0.094,0.039-0.186,0.087-0.27,0.144c-0.086,0.056-0.166,0.122-0.236,0.194c-0.293,0.291-0.459,0.694-0.459,1.104
			c0,0.102,0.01,0.205,0.029,0.305c0.021,0.1,0.051,0.199,0.09,0.292c0.039,0.095,0.088,0.186,0.145,0.27
			c0.059,0.086,0.123,0.166,0.195,0.238c0.07,0.072,0.15,0.137,0.236,0.193c0.084,0.056,0.176,0.104,0.27,0.144
			c0.096,0.039,0.193,0.07,0.292,0.089c0.102,0.02,0.204,0.031,0.307,0.031s0.204-0.011,0.306-0.031
			c0.1-0.019,0.197-0.05,0.291-0.089c0.095-0.039,0.187-0.087,0.271-0.144c0.086-0.056,0.165-0.122,0.236-0.193
			c0.072-0.071,0.139-0.152,0.193-0.238c0.057-0.084,0.105-0.175,0.146-0.27c0.039-0.094,0.067-0.192,0.089-0.292
			s0.029-0.203,0.029-0.305S69.768,23.259,69.747,23.159z"/>
	</g>
</g>
<g>
	<g>
		<path fill="#010101" d="M62.277,21.901h-6.9c-0.863,0-1.563,0.7-1.563,1.563c0,0.863,0.699,1.563,1.563,1.563h6.9
			c0.863,0,1.563-0.699,1.563-1.563C63.84,22.601,63.141,21.901,62.277,21.901z"/>
	</g>
</g>
<g>
	<g>
		<path fill="#010101" d="M63.854,72.161h-4.117c-0.862,0-1.563,0.7-1.563,1.563c0,0.862,0.699,1.563,1.563,1.563h4.117
			c0.862,0,1.563-0.7,1.563-1.563C65.417,72.861,64.717,72.161,63.854,72.161z"/>
	</g>
</g>
<g>
	<g>
		<path fill="#010101" d="M24.789,27.127l1.63-1.63c0.609-0.61,0.609-1.6,0-2.209c-0.611-0.61-1.6-0.61-2.21,0l-2.734,2.734
			c-0.61,0.61-0.61,1.6,0,2.209l2.734,2.734c0.306,0.306,0.706,0.458,1.105,0.458c0.4,0,0.8-0.152,1.105-0.458
			c0.609-0.61,0.609-1.599,0-2.209L24.789,27.127z"/>
	</g>
</g>
<g>
	<g>
		<path fill="#010101" d="M31.288,12.266c-0.021-0.1-0.05-0.198-0.089-0.292c-0.039-0.096-0.087-0.186-0.144-0.271
			c-0.058-0.086-0.122-0.166-0.194-0.237c-0.072-0.072-0.153-0.138-0.237-0.194c-0.086-0.056-0.177-0.105-0.271-0.144
			c-0.094-0.039-0.192-0.068-0.292-0.089c-0.202-0.041-0.41-0.041-0.611,0c-0.1,0.021-0.199,0.05-0.292,0.089
			c-0.093,0.039-0.184,0.088-0.27,0.144c-0.084,0.056-0.166,0.122-0.238,0.194c-0.072,0.072-0.136,0.151-0.194,0.237
			c-0.056,0.084-0.104,0.175-0.144,0.271c-0.039,0.094-0.069,0.192-0.089,0.292c-0.021,0.1-0.031,0.203-0.031,0.305
			s0.011,0.205,0.031,0.305s0.05,0.198,0.089,0.294c0.039,0.094,0.087,0.184,0.144,0.269c0.058,0.086,0.122,0.166,0.194,0.237
			c0.072,0.072,0.153,0.138,0.238,0.195c0.086,0.057,0.176,0.105,0.27,0.144c0.094,0.038,0.192,0.069,0.292,0.087
			c0.102,0.021,0.203,0.031,0.306,0.031c0.102,0,0.203-0.011,0.305-0.031c0.1-0.019,0.198-0.05,0.292-0.087
			c0.094-0.039,0.185-0.087,0.271-0.144c0.084-0.058,0.166-0.123,0.237-0.195c0.072-0.072,0.136-0.151,0.194-0.237
			c0.056-0.084,0.104-0.175,0.144-0.269c0.039-0.096,0.069-0.194,0.089-0.294s0.03-0.203,0.03-0.305S31.308,12.366,31.288,12.266z"
			/>
	</g>
</g>
<g>
	<g>
		<path fill="#010101" d="M54.184,11.008H35.693c-0.863,0-1.563,0.7-1.563,1.563c0,0.863,0.699,1.563,1.563,1.563h18.491
			c0.861,0,1.563-0.7,1.563-1.563C55.745,11.708,55.045,11.008,54.184,11.008z"/>
	</g>
</g>
<g>
	<g>
		<path fill="#010101" d="M74.295,32.032H49.297c-0.861,0-1.563,0.699-1.563,1.563v15.312c0,0.862,0.699,1.563,1.563,1.563h24.998
			c0.862,0,1.563-0.701,1.563-1.563V33.595C75.857,32.731,75.158,32.032,74.295,32.032z M50.859,47.344V35.157h21.873v12.187H50.859
			z"/>
	</g>
</g>
<g>
	<g>
		<path fill="#010101" d="M74.295,53.273H49.297c-0.861,0-1.563,0.699-1.563,1.563v9.537c0,0.862,0.699,1.563,1.563,1.563h24.998
			c0.862,0,1.563-0.699,1.563-1.563v-9.537C75.857,53.975,75.158,53.273,74.295,53.273z M50.859,62.813V56.4h21.873v6.412H50.859z"
			/>
	</g>
</g>
<g>
	<g>
		<path fill="#010101" d="M70.604,40.146l-2.733-2.734c-0.61-0.609-1.599-0.609-2.209,0c-0.611,0.61-0.611,1.6,0,2.21l1.63,1.629
			l-1.63,1.63c-0.611,0.61-0.611,1.6,0,2.21c0.305,0.306,0.704,0.457,1.104,0.457c0.399,0,0.799-0.151,1.104-0.457l2.734-2.733
			C71.215,41.745,71.215,40.756,70.604,40.146z"/>
	</g>
</g>
<g>
	<g>
		<path fill="#010101" d="M56.334,41.25l1.63-1.63c0.61-0.609,0.61-1.599,0-2.209c-0.61-0.61-1.601-0.61-2.21,0l-2.734,2.734
			c-0.609,0.61-0.609,1.6,0,2.208l2.735,2.735c0.306,0.306,0.704,0.457,1.104,0.457c0.399,0,0.799-0.151,1.104-0.457
			c0.61-0.61,0.61-1.6,0-2.21L56.334,41.25z"/>
	</g>
</g>
</svg>
