<?xml version="1.0" encoding="utf-8"?>
<!-- Generator: Adobe Illustrator 16.0.0, SVG Export Plug-In . SVG Version: 6.00 Build 0)  -->
<!DOCTYPE svg PUBLIC "-//W3C//DTD SVG 1.1//EN" "http://www.w3.org/Graphics/SVG/1.1/DTD/svg11.dtd">
<svg version="1.1" id="Capa_1" xmlns="http://www.w3.org/2000/svg" xmlns:xlink="http://www.w3.org/1999/xlink" x="0px" y="0px"
	 width="83px" height="83px" viewBox="0 0 83 83" enable-background="new 0 0 83 83" xml:space="preserve">
<g>
	<g>
		<path fill="#010101" d="M38.032,76.084v3.457h-6.917v-3.457h-3.458v5.188c0,0.954,0.774,1.729,1.729,1.729h10.375
			c0.955,0,1.729-0.774,1.729-1.729v-5.188H38.032z"/>
	</g>
</g>
<g>
	<g>
		<path fill="#010101" d="M43.22,69.166v5.188H25.928v-5.188H22.47v6.918c0,0.955,0.774,1.729,1.729,1.729h20.75
			c0.955,0,1.729-0.773,1.729-1.729v-6.918H43.22z"/>
	</g>
</g>
<g>
	<g>
		<path fill="#010101" d="M34.574,3.458V0C23.042,0.01,12.583,6.762,7.824,17.265c-6.7,14.788-0.143,32.208,14.646,38.907v7.807
			h3.458v-8.944c0-0.704-0.427-1.339-1.081-1.603C15.069,49.465,8.668,39.97,8.659,29.418C8.646,15.094,20.249,3.471,34.574,3.458z"
			/>
	</g>
</g>
<g>
	<g>
		<path fill="#010101" d="M54.813,45.605c-2.782,3.459-6.401,6.152-10.513,7.824c-0.654,0.264-1.081,0.898-1.081,1.604v8.945h3.458
			v-7.807c4.219-1.913,7.928-4.791,10.83-8.402L54.813,45.605z"/>
	</g>
</g>
<g>
	<g>
		<rect x="19.011" y="67.438" fill="#010101" width="31.125" height="3.459"/>
	</g>
</g>
<g>
	<g>
		<path fill="#010101" d="M25.928,20.75c0-0.955,0.774-1.729,1.729-1.729s1.729,0.774,1.729,1.729h3.458
			c0-2.865-2.323-5.188-5.188-5.188c-2.865,0-5.188,2.323-5.188,5.188s2.322,5.188,5.188,5.188h5.188v-3.458h-5.188
			C26.702,22.479,25.928,21.705,25.928,20.75z"/>
	</g>
</g>
<g>
	<g>
		<rect x="32.845" y="29.396" fill="#010101" width="3.458" height="34.583"/>
	</g>
</g>
<g>
	<g>
		<path fill="#010101" d="M76.074,15.563h-4.361c-0.184-0.514-0.393-1.018-0.626-1.51l3.085-3.084c0.675-0.675,0.675-1.77,0-2.445
			l-4.893-4.892c-0.675-0.675-1.77-0.675-2.444,0L63.75,6.716c-0.492-0.234-0.996-0.443-1.51-0.625V1.729
			C62.24,0.774,61.467,0,60.512,0h-6.917c-0.955,0-1.729,0.774-1.729,1.729V6.09c-0.514,0.182-1.018,0.391-1.51,0.624l-3.084-3.083
			c-0.676-0.675-1.771-0.675-2.445,0l-4.892,4.892c-0.675,0.675-0.675,1.77,0,2.445l3.084,3.084
			c-0.233,0.492-0.442,0.996-0.626,1.51h-4.36c-0.955,0-1.729,0.774-1.729,1.729v6.917c0,0.955,0.774,1.729,1.729,1.729h4.36
			c0.183,0.514,0.391,1.018,0.625,1.51l-3.083,3.085c-0.675,0.675-0.675,1.77,0,2.445l4.892,4.892c0.675,0.675,1.77,0.675,2.445,0
			l3.084-3.085c0.492,0.234,0.996,0.443,1.51,0.626v4.361c0,0.955,0.774,1.729,1.729,1.729h6.917c0.955,0,1.729-0.774,1.729-1.729
			v-4.359c0.514-0.183,1.018-0.392,1.51-0.626l3.085,3.083c0.675,0.675,1.77,0.675,2.444,0l4.893-4.892
			c0.675-0.675,0.675-1.77,0-2.445l-3.085-3.085c0.234-0.492,0.442-0.996,0.626-1.51h4.361c0.955,0,1.729-0.774,1.729-1.729v-6.917
			C77.803,16.337,77.029,15.563,76.074,15.563z M74.345,22.478h-3.909c-0.789,0-1.478,0.533-1.674,1.297
			c-0.283,1.092-0.717,2.14-1.289,3.112c-0.401,0.68-0.292,1.545,0.267,2.103l2.767,2.767l-2.445,2.445l-2.767-2.767
			c-0.558-0.558-1.423-0.668-2.103-0.266c-0.973,0.572-2.02,1.006-3.112,1.288c-0.764,0.197-1.297,0.885-1.297,1.674v3.911h-3.458
			l0.002-3.906c-0.001-0.789-0.534-1.477-1.297-1.674c-1.094-0.282-2.141-0.716-3.113-1.289c-0.68-0.401-1.545-0.292-2.103,0.267
			l-2.767,2.767l-2.445-2.445l2.767-2.767c0.559-0.558,0.668-1.423,0.267-2.103c-0.572-0.972-1.006-2.02-1.289-3.113
			c-0.196-0.763-0.885-1.296-1.674-1.297h-3.911v-3.458h3.913c0.789,0,1.478-0.534,1.674-1.297c0.283-1.093,0.717-2.14,1.289-3.113
			c0.401-0.679,0.291-1.544-0.267-2.103l-2.767-2.767l2.441-2.447l2.767,2.767c0.558,0.559,1.423,0.668,2.103,0.267
			c0.973-0.573,2.021-1.006,3.113-1.289c0.763-0.197,1.297-0.885,1.297-1.674V3.458h3.458V7.37c-0.001,0.788,0.53,1.477,1.294,1.676
			c1.092,0.282,2.14,0.716,3.111,1.288c0.68,0.401,1.545,0.292,2.104-0.266L68.058,7.3l2.446,2.442l-2.767,2.767
			c-0.558,0.558-0.668,1.423-0.267,2.103c0.572,0.973,1.006,2.021,1.289,3.113c0.197,0.763,0.885,1.297,1.674,1.297h3.911V22.478z"
			/>
	</g>
</g>
<g>
	<g>
		<path fill="#010101" d="M57.053,13.833c-3.82,0-6.916,3.097-6.916,6.917s3.096,6.917,6.916,6.917s6.917-3.097,6.917-6.917
			S60.873,13.833,57.053,13.833z M57.053,24.208c-1.91,0-3.458-1.548-3.458-3.458s1.548-3.458,3.458-3.458s3.459,1.548,3.459,3.458
			S58.963,24.208,57.053,24.208z"/>
	</g>
</g>
</svg>
