<?xml version="1.0" encoding="utf-8"?>
<!-- Generator: Adobe Illustrator 16.0.0, SVG Export Plug-In . SVG Version: 6.00 Build 0)  -->
<!DOCTYPE svg PUBLIC "-//W3C//DTD SVG 1.1//EN" "http://www.w3.org/Graphics/SVG/1.1/DTD/svg11.dtd">
<svg version="1.1" id="Layer_1" xmlns="http://www.w3.org/2000/svg" xmlns:xlink="http://www.w3.org/1999/xlink" x="0px" y="0px"
	 width="83px" height="83px" viewBox="0 0 83 80" enable-background="new 0 0 83 80" xml:space="preserve">
<g>
	<g>
		<path fill="#010101" d="M45.705,1.606C44.748,0.585,43.398,0,42,0s-2.748,0.585-3.705,1.606c-0.956,1.021-1.452,2.406-1.361,3.802
			l0.256,3.914l0,0c0.101,1.547,0.918,2.963,2.186,3.786c0.797,0.519,1.711,0.777,2.625,0.777s1.828-0.259,2.626-0.777
			c1.267-0.823,2.084-2.239,2.185-3.786l0.256-3.914C47.157,4.012,46.661,2.626,45.705,1.606z M43.887,5.2l-0.256,3.914
			c-0.035,0.549-0.313,1.043-0.741,1.321c-0.54,0.351-1.238,0.351-1.778,0c-0.429-0.278-0.705-0.772-0.742-1.321L40.114,5.2
			c-0.034-0.527,0.146-1.029,0.507-1.415C40.982,3.4,41.473,3.188,42,3.188c0.528,0,1.018,0.212,1.379,0.598
			C43.74,4.171,43.92,4.673,43.887,5.2z"/>
	</g>
</g>
<g>
	<g>
		<path fill="#010101" d="M54.604,23.244L54.162,20.8c-0.582-3.213-3.128-5.777-6.334-6.381c-0.484-0.091-0.979-0.137-1.473-0.137
			h-1.333c-0.423,0-0.827,0.168-1.127,0.466c-0.506,0.506-1.179,0.785-1.896,0.785s-1.389-0.279-1.896-0.785
			c-0.299-0.298-0.704-0.466-1.127-0.466h-1.333c-0.492,0-0.988,0.046-1.472,0.137c-3.207,0.604-5.752,3.168-6.335,6.381
			l-0.442,2.444c-0.084,0.465,0.042,0.943,0.345,1.305c0.303,0.363,0.751,0.572,1.224,0.572h22.073c0.473,0,0.92-0.209,1.223-0.572
			C54.563,24.187,54.689,23.709,54.604,23.244z M32.872,21.935l0.103-0.567c0.348-1.922,1.871-3.456,3.788-3.817
			c0.29-0.055,0.587-0.082,0.882-0.082h0.731C39.405,18.28,40.669,18.72,42,18.72c1.332,0,2.595-0.44,3.625-1.252h0.73
			c0.295,0,0.592,0.027,0.883,0.082c1.917,0.361,3.439,1.896,3.787,3.817l0.104,0.567H32.872z"/>
	</g>
</g>
<g>
	<g>
		<path fill="#010101" d="M45.705,56.346c-0.957-1.02-2.307-1.605-3.705-1.605s-2.748,0.586-3.705,1.605
			c-0.956,1.021-1.452,2.406-1.361,3.803l0.256,3.914c0.101,1.547,0.918,2.963,2.185,3.785c0.798,0.518,1.712,0.777,2.626,0.777
			s1.828-0.26,2.626-0.777c1.267-0.822,2.084-2.238,2.185-3.785l0.256-3.914C47.157,58.752,46.661,57.367,45.705,56.346z
			 M43.887,59.941l-0.256,3.912c-0.035,0.549-0.313,1.043-0.741,1.322c-0.54,0.35-1.238,0.35-1.778,0
			c-0.429-0.279-0.705-0.773-0.742-1.322l-0.255-3.912c-0.034-0.527,0.146-1.031,0.507-1.416s0.852-0.598,1.379-0.598
			c0.528,0,1.018,0.213,1.379,0.598S43.92,59.414,43.887,59.941z"/>
	</g>
</g>
<g>
	<g>
		<path fill="#010101" d="M54.604,77.984l-0.442-2.443c-0.582-3.215-3.128-5.777-6.335-6.383c-0.483-0.09-0.979-0.137-1.472-0.137
			h-1.333c-0.423,0-0.828,0.168-1.127,0.467c-1.046,1.045-2.745,1.045-3.791,0c-0.299-0.299-0.704-0.467-1.127-0.467h-1.333
			c-0.492,0-0.987,0.047-1.472,0.137c-3.207,0.605-5.752,3.168-6.335,6.383l-0.442,2.443c-0.084,0.465,0.042,0.943,0.345,1.307
			c0.303,0.361,0.751,0.57,1.223,0.57h22.074c0.473,0,0.92-0.209,1.223-0.572C54.563,78.928,54.688,78.449,54.604,77.984z
			 M32.872,76.676l0.103-0.566c0.348-1.924,1.871-3.457,3.787-3.818c0.291-0.055,0.588-0.082,0.883-0.082h0.732
			c2.119,1.666,5.129,1.666,7.246,0h0.733c0.295,0,0.591,0.027,0.882,0.082c1.917,0.361,3.439,1.895,3.787,3.816l0.104,0.568H32.872
			z"/>
	</g>
</g>
<g>
	<g>
		<path fill="#010101" d="M18.335,28.977c-0.956-1.021-2.307-1.606-3.705-1.606s-2.749,0.585-3.705,1.606s-1.452,2.406-1.361,3.801
			l0.255,3.914c0.101,1.547,0.917,2.963,2.185,3.787c0.797,0.518,1.712,0.778,2.626,0.778s1.828-0.26,2.625-0.778
			c1.268-0.824,2.084-2.239,2.185-3.786l0.255-3.914C19.787,31.383,19.291,29.997,18.335,28.977z M16.516,32.57l-0.255,3.914
			c-0.036,0.549-0.313,1.043-0.741,1.321c-0.541,0.351-1.238,0.351-1.779,0c-0.428-0.279-0.705-0.772-0.741-1.321l-0.255-3.914
			c-0.034-0.527,0.146-1.03,0.507-1.415s0.851-0.598,1.379-0.598c0.528,0,1.018,0.212,1.379,0.598
			C16.37,31.541,16.55,32.043,16.516,32.57z"/>
	</g>
</g>
<g>
	<g>
		<path fill="#010101" d="M27.234,50.615l-0.443-2.445c-0.582-3.213-3.127-5.777-6.334-6.381c-0.484-0.092-0.979-0.139-1.472-0.139
			h-1.333c-0.423,0-0.828,0.168-1.127,0.467c-1.045,1.047-2.746,1.047-3.791,0c-0.299-0.299-0.704-0.467-1.127-0.467h-1.333
			c-0.492,0-0.987,0.047-1.471,0.139c-3.207,0.604-5.752,3.168-6.335,6.381l-0.442,2.445c-0.084,0.463,0.042,0.941,0.345,1.305
			c0.303,0.363,0.751,0.572,1.223,0.572h22.073c0.472,0,0.92-0.209,1.223-0.572C27.192,51.557,27.318,51.08,27.234,50.615z
			 M5.502,49.305l0.103-0.566c0.349-1.922,1.871-3.457,3.789-3.818c0.29-0.055,0.586-0.082,0.881-0.082h0.732
			c1.029,0.813,2.293,1.252,3.624,1.252s2.595-0.439,3.625-1.252h0.731c0.295,0,0.591,0.027,0.881,0.082
			c1.917,0.361,3.44,1.896,3.788,3.818l0.103,0.566H5.502z"/>
	</g>
</g>
<g>
	<g>
		<path fill="#010101" d="M73.075,28.976c-0.956-1.021-2.307-1.605-3.705-1.605s-2.749,0.585-3.705,1.605s-1.452,2.406-1.361,3.802
			l0.255,3.914c0.102,1.547,0.918,2.963,2.186,3.787c0.798,0.518,1.712,0.778,2.626,0.778s1.829-0.26,2.626-0.778
			c1.268-0.824,2.084-2.239,2.186-3.787l0.255-3.914C74.527,31.382,74.031,29.997,73.075,28.976z M71.256,32.57l-0.255,3.914
			c-0.036,0.549-0.313,1.042-0.741,1.321c-0.54,0.351-1.238,0.351-1.779,0c-0.428-0.278-0.705-0.772-0.74-1.321l-0.256-3.914
			c-0.034-0.527,0.146-1.03,0.507-1.415s0.851-0.598,1.379-0.598s1.019,0.212,1.379,0.598C71.11,31.541,71.291,32.043,71.256,32.57z
			"/>
	</g>
</g>
<g>
	<g>
		<path fill="#010101" d="M81.975,50.615l-0.443-2.445c-0.582-3.213-3.127-5.777-6.334-6.381c-0.484-0.092-0.979-0.139-1.471-0.139
			h-1.334c-0.423,0-0.828,0.168-1.127,0.467c-1.045,1.047-2.746,1.047-3.791,0c-0.299-0.299-0.705-0.467-1.127-0.467h-1.334
			c-0.492,0-0.986,0.047-1.471,0.139c-3.207,0.604-5.752,3.168-6.335,6.381l-0.442,2.445c-0.084,0.463,0.042,0.941,0.345,1.305
			s0.751,0.572,1.224,0.572h22.072c0.473,0,0.921-0.209,1.223-0.572C81.932,51.557,82.059,51.08,81.975,50.615z M60.242,49.305
			l0.103-0.566c0.349-1.922,1.87-3.457,3.788-3.818c0.29-0.055,0.586-0.082,0.882-0.082h0.731c1.029,0.813,2.293,1.252,3.624,1.252
			s2.595-0.439,3.624-1.252h0.732c0.295,0,0.591,0.027,0.881,0.082c1.918,0.361,3.439,1.896,3.789,3.818l0.102,0.566H60.242z"/>
	</g>
</g>
<g>
	<g>
		<path fill="#010101" d="M33.723,10.279c-0.282-0.833-1.187-1.281-2.021-0.999c-6.312,2.136-11.935,6.309-15.831,11.752
			c-0.512,0.715-0.348,1.711,0.368,2.224c0.281,0.201,0.605,0.298,0.927,0.298c0.497,0,0.986-0.231,1.297-0.666
			c3.512-4.905,8.576-8.665,14.261-10.588C33.558,12.018,34.005,11.113,33.723,10.279z"/>
	</g>
</g>
<g>
	<g>
		<path fill="#010101" d="M68.178,21.032c-2.743-3.832-6.363-7.071-10.469-9.369c-0.768-0.429-1.74-0.155-2.17,0.613
			s-0.154,1.739,0.613,2.169c3.699,2.07,6.961,4.989,9.434,8.442c0.312,0.435,0.801,0.666,1.297,0.666
			c0.322,0,0.646-0.097,0.927-0.298C68.525,22.743,68.689,21.748,68.178,21.032z"/>
	</g>
</g>
<g>
	<g>
		<path fill="#010101" d="M53.168,9.571c-0.271-0.1-0.547-0.198-0.822-0.291c-0.833-0.282-1.737,0.166-2.02,0.999
			s0.165,1.738,0.998,2.02c0.248,0.084,0.497,0.172,0.74,0.262c0.183,0.067,0.369,0.099,0.553,0.099
			c0.648,0,1.258-0.399,1.494-1.042C54.416,10.792,53.994,9.876,53.168,9.571z"/>
	</g>
</g>
<g>
	<g>
		<path fill="#010101" d="M32.724,65.9c-5.685-1.922-10.75-5.682-14.262-10.588c-0.512-0.715-1.508-0.879-2.223-0.367
			c-0.716,0.512-0.88,1.508-0.368,2.223c3.897,5.443,9.52,9.617,15.831,11.752c0.169,0.059,0.342,0.086,0.511,0.086
			c0.665,0,1.285-0.42,1.509-1.084C34.005,67.088,33.558,66.184,32.724,65.9z"/>
	</g>
</g>
<g>
	<g>
		<path fill="#010101" d="M67.81,54.945c-0.716-0.512-1.711-0.348-2.224,0.369c-3.512,4.904-8.576,8.664-14.261,10.588
			c-0.834,0.281-1.281,1.186-0.999,2.02c0.225,0.664,0.845,1.084,1.51,1.084c0.169,0,0.342-0.027,0.51-0.086
			c6.404-2.166,11.879-6.229,15.832-11.75C68.689,56.453,68.525,55.457,67.81,54.945z"/>
	</g>
</g>
</svg>
