<?xml version="1.0" encoding="utf-8"?>
<!-- Generator: Adobe Illustrator 16.0.0, SVG Export Plug-In . SVG Version: 6.00 Build 0)  -->
<!DOCTYPE svg PUBLIC "-//W3C//DTD SVG 1.1//EN" "http://www.w3.org/Graphics/SVG/1.1/DTD/svg11.dtd">
<svg version="1.1" id="Capa_1" xmlns="http://www.w3.org/2000/svg" xmlns:xlink="http://www.w3.org/1999/xlink" x="0px" y="0px"
	 width="83px" height="80px" viewBox="0 0 83 80" enable-background="new 0 0 83 80" xml:space="preserve">
<g>
	<g>
		<path d="M80.166,20H38.833h-16h-20c-0.8,0-1.333,0.533-1.333,1.333v57.333C1.5,79.467,2.033,80,2.833,80h77.333
			c0.801,0,1.334-0.533,1.334-1.334V21.333C81.5,20.533,80.967,20,80.166,20z M37.5,22.667v18.667H24.167V22.667H37.5z
			 M78.834,77.334h-20V64h-2.668v13.334h-52V22.667H21.5v20c0,0.801,0.533,1.334,1.333,1.334h16c0.8,0,1.333-0.533,1.333-1.334v-20
			h16V44h2.668V22.667h20V77.334z"/>
		<rect x="10.833" y="65.334" width="12" height="2.666"/>
		<rect x="10.833" y="70.666" width="24" height="2.668"/>
		<rect x="62.834" y="26.667" width="8" height="2.667"/>
		<rect x="62.834" y="32" width="12" height="2.667"/>
		<rect x="66.834" y="70.666" width="8" height="2.668"/>
		<rect x="62.834" y="65.334" width="12" height="2.666"/>
		<path d="M80.166,0H2.833C2.033,0,1.5,0.533,1.5,1.333v12c0,0.8,0.533,1.333,1.333,1.333h77.333c0.801,0,1.334-0.533,1.334-1.333
			v-12C81.5,0.533,80.967,0,80.166,0z M78.834,12H4.167V2.667H13.5V8h2.667V2.667h10.667V8H29.5V2.667h10.667V8h2.667V2.667H53.5V8
			h2.666V2.667h10.668V8H69.5V2.667h9.334V12z"/>
		<path d="M64.566,60c0.268,0,0.399-0.133,0.666-0.268L74.033,56c0.533-0.133,0.801-0.666,0.801-1.2c0-0.532-0.268-0.933-0.801-1.2
			l-8.801-3.731c-0.267-0.269-0.532-0.4-0.934-0.4H10.967c-0.8,0-1.333,0.533-1.333,1.333v8c0,0.801,0.533,1.333,1.333,1.333H64.3
			C64.3,60,64.434,60,64.566,60z M21.5,56h41.334v1.334H21.5V56z M65.5,56.666v-4l4.666,2L65.5,56.666z M62.834,53.334H21.5V52
			h41.334V53.334z M12.167,52h6.667v5.334h-6.667V52z"/>
	</g>
</g>
</svg>
