<?xml version="1.0" encoding="utf-8"?>
<!-- Generator: Adobe Illustrator 16.0.0, SVG Export Plug-In . SVG Version: 6.00 Build 0)  -->
<!DOCTYPE svg PUBLIC "-//W3C//DTD SVG 1.1//EN" "http://www.w3.org/Graphics/SVG/1.1/DTD/svg11.dtd">
<svg version="1.1" id="Layer_1" xmlns="http://www.w3.org/2000/svg" xmlns:xlink="http://www.w3.org/1999/xlink" x="0px" y="0px"
	 width="83px" height="83px" viewBox="0 0 83 83" enable-background="new 0 0 83 83" xml:space="preserve">
<g>
	<g>
		<g>
			<g>
				<path fill="#010101" d="M65.138,36.721l2.289,4.576l0.347,0.694h0.777h11.84l0.019,34.382H2.604v-23.84h10.603h0.777
					l0.348-0.694l2.287-4.575h7.129H24.6l0.316-0.791l2.319-5.798h6.279l2.287,4.575l0.348,0.695h0.777h7.907h0.521l0.367-0.368
					l2.268-2.267h7.386h0.851l0.316-0.789l2.319-5.799H65.138 M65.915,35.464h-7.906l-2.635,6.588h-7.907l-2.635,2.635h-7.907
					l-2.635-5.27h-7.907l-2.635,6.588h-7.906l-2.635,5.272H1.347V77.63h80.32l-0.02-36.896H68.551L65.915,35.464L65.915,35.464z"/>
			</g>
		</g>
		<g>
			<line fill="none" stroke="#010101" stroke-width="2" stroke-miterlimit="10" x1="7.237" y1="67.77" x2="7.237" y2="58.545"/>
			<line fill="none" stroke="#010101" stroke-width="2" stroke-miterlimit="10" x1="12.508" y1="67.77" x2="12.508" y2="61.179"/>
			<line fill="none" stroke="#010101" stroke-width="2" stroke-miterlimit="10" x1="17.779" y1="67.77" x2="17.779" y2="53.273"/>
			<line fill="none" stroke="#010101" stroke-width="2" stroke-miterlimit="10" x1="23.049" y1="67.77" x2="23.049" y2="59.863"/>
			<line fill="none" stroke="#010101" stroke-width="2" stroke-miterlimit="10" x1="28.32" y1="67.77" x2="28.32" y2="55.909"/>
			<line fill="none" stroke="#010101" stroke-width="2" stroke-miterlimit="10" x1="33.591" y1="67.77" x2="33.591" y2="48.002"/>
			<line fill="none" stroke="#010101" stroke-width="2" stroke-miterlimit="10" x1="38.862" y1="67.77" x2="38.862" y2="51.957"/>
			<line fill="none" stroke="#010101" stroke-width="2" stroke-miterlimit="10" x1="44.132" y1="67.77" x2="44.132" y2="57.228"/>
			<line fill="none" stroke="#010101" stroke-width="2" stroke-miterlimit="10" x1="49.403" y1="67.77" x2="49.403" y2="49.321"/>
			<line fill="none" stroke="#010101" stroke-width="2" stroke-miterlimit="10" x1="54.674" y1="67.77" x2="54.674" y2="57.228"/>
			<line fill="none" stroke="#010101" stroke-width="2" stroke-miterlimit="10" x1="59.945" y1="67.77" x2="59.945" y2="45.369"/>
			<line fill="none" stroke="#010101" stroke-width="2" stroke-miterlimit="10" x1="65.216" y1="67.77" x2="65.216" y2="50.64"/>
			<line fill="none" stroke="#010101" stroke-width="2" stroke-miterlimit="10" x1="70.487" y1="67.77" x2="70.487" y2="54.592"/>
			<line fill="none" stroke="#010101" stroke-width="2" stroke-miterlimit="10" x1="75.758" y1="67.77" x2="75.758" y2="46.687"/>
		</g>
		<g>
			<line fill="none" stroke="#010101" stroke-width="2" stroke-miterlimit="10" x1="7.237" y1="73.04" x2="7.237" y2="70.405"/>
			<line fill="none" stroke="#010101" stroke-width="2" stroke-miterlimit="10" x1="12.508" y1="73.04" x2="12.508" y2="70.405"/>
			<line fill="none" stroke="#010101" stroke-width="2" stroke-miterlimit="10" x1="17.779" y1="73.04" x2="17.779" y2="70.405"/>
			<line fill="none" stroke="#010101" stroke-width="2" stroke-miterlimit="10" x1="23.049" y1="73.04" x2="23.049" y2="70.405"/>
			<line fill="none" stroke="#010101" stroke-width="2" stroke-miterlimit="10" x1="28.32" y1="73.04" x2="28.32" y2="70.405"/>
			<line fill="none" stroke="#010101" stroke-width="2" stroke-miterlimit="10" x1="33.591" y1="73.04" x2="33.591" y2="70.405"/>
			<line fill="none" stroke="#010101" stroke-width="2" stroke-miterlimit="10" x1="38.862" y1="73.04" x2="38.862" y2="70.405"/>
			<line fill="none" stroke="#010101" stroke-width="2" stroke-miterlimit="10" x1="44.132" y1="73.04" x2="44.132" y2="70.405"/>
			<line fill="none" stroke="#010101" stroke-width="2" stroke-miterlimit="10" x1="49.403" y1="73.04" x2="49.403" y2="70.405"/>
			<line fill="none" stroke="#010101" stroke-width="2" stroke-miterlimit="10" x1="54.674" y1="73.04" x2="54.674" y2="70.405"/>
			<line fill="none" stroke="#010101" stroke-width="2" stroke-miterlimit="10" x1="59.945" y1="73.04" x2="59.945" y2="70.405"/>
			<line fill="none" stroke="#010101" stroke-width="2" stroke-miterlimit="10" x1="65.216" y1="73.04" x2="65.216" y2="70.405"/>
			<line fill="none" stroke="#010101" stroke-width="2" stroke-miterlimit="10" x1="70.487" y1="73.04" x2="70.487" y2="70.405"/>
			<line fill="none" stroke="#010101" stroke-width="2" stroke-miterlimit="10" x1="75.758" y1="73.04" x2="75.758" y2="70.405"/>
		</g>
		<g>
			<g>
				<line fill="none" stroke="#010101" stroke-width="2" stroke-miterlimit="10" x1="77.075" y1="21.65" x2="74.439" y2="21.65"/>
				<line fill="none" stroke="#010101" stroke-width="2" stroke-miterlimit="10" x1="71.804" y1="21.65" x2="69.168" y2="21.65"/>
				<line fill="none" stroke="#010101" stroke-width="2" stroke-miterlimit="10" x1="66.533" y1="21.65" x2="63.899" y2="21.65"/>
			</g>
			<g>
				<line fill="none" stroke="#010101" stroke-width="2" stroke-miterlimit="10" x1="5.92" y1="32.191" x2="27.002" y2="32.191"/>
				<line fill="none" stroke="#010101" stroke-width="2" stroke-miterlimit="10" x1="5.92" y1="37.462" x2="16.461" y2="37.462"/>
			</g>
			<g>
				<line fill="none" stroke="#010101" stroke-width="2" stroke-miterlimit="10" x1="41.498" y1="21.65" x2="61.261" y2="21.65"/>
				<line fill="none" stroke="#010101" stroke-width="2" stroke-miterlimit="10" x1="29.638" y1="26.92" x2="53.355" y2="26.92"/>
				<line fill="none" stroke="#010101" stroke-width="2" stroke-miterlimit="10" x1="29.638" y1="21.65" x2="38.862" y2="21.65"/>
			</g>
		</g>
		<rect x="5.92" y="20.332" fill="#010101" width="21.083" height="7.907"/>
	</g>
	<g>
		
			<rect x="1.966" y="16.379" fill="none" stroke="#010101" stroke-width="2" stroke-miterlimit="10" width="79.062" height="60.613"/>
		
			<rect x="1.966" y="5.837" fill="none" stroke="#010101" stroke-width="2" stroke-miterlimit="10" width="79.062" height="10.542"/>
		<line fill="none" stroke="#010101" stroke-width="2" stroke-miterlimit="10" x1="5.92" y1="11.109" x2="8.555" y2="11.109"/>
		<line fill="none" stroke="#010101" stroke-width="2" stroke-miterlimit="10" x1="11.191" y1="11.109" x2="13.827" y2="11.109"/>
		<line fill="none" stroke="#010101" stroke-width="2" stroke-miterlimit="10" x1="16.461" y1="11.109" x2="19.096" y2="11.109"/>
		<line fill="none" stroke="#010101" stroke-width="2" stroke-miterlimit="10" x1="21.732" y1="11.109" x2="77.075" y2="11.109"/>
	</g>
</g>
</svg>
