<?xml version="1.0" encoding="utf-8"?>
<!-- Generator: Adobe Illustrator 16.0.0, SVG Export Plug-In . SVG Version: 6.00 Build 0)  -->
<!DOCTYPE svg PUBLIC "-//W3C//DTD SVG 1.1//EN" "http://www.w3.org/Graphics/SVG/1.1/DTD/svg11.dtd">
<svg version="1.1" id="Layer_1" xmlns="http://www.w3.org/2000/svg" xmlns:xlink="http://www.w3.org/1999/xlink" x="0px" y="0px"
	 width="83px" height="83px" viewBox="0 0 83 83" enable-background="new 0 0 83 83" xml:space="preserve">
<path fill="#FFFFFF" d="M78.219,80.578H5.103c-1.387,0-2.522-1.134-2.522-2.52V15.909h78.159v62.147
	C80.739,79.444,79.604,80.578,78.219,80.578z"/>
<g>
	<path fill="#010101" d="M73.661,22.964v50.412H9.76V22.964H73.661 M75.747,20.878H7.673v54.584h68.074V20.878L75.747,20.878z"/>
</g>
<path fill="#FFFFFF" d="M80.739,15.909H2.581V4.943c0-1.387,1.135-2.521,2.522-2.521h73.116c1.386,0,2.521,1.134,2.521,2.521V15.909
	L80.739,15.909z"/>
<g>
	<polygon fill="#FFFFFF" points="57.796,69.612 51.618,66.208 48.844,72.259 41.659,52.342 50.61,49.693 	"/>
	<polygon fill="#FFFFFF" points="25.524,69.612 31.701,66.208 34.475,72.259 41.659,52.342 32.709,49.693 	"/>
</g>
<circle fill="#FFFFFF" cx="41.659" cy="41.752" r="10.967"/>
<g>
	<path fill="#010101" d="M5.103,81.84h73.116c2.143,0,3.781-1.639,3.781-3.783c0-8.949,0-64.164,0-73.114
		c0-2.144-1.639-3.783-3.781-3.783H5.103c-2.144,0-3.783,1.639-3.783,3.783c0,8.951,0,64.165,0,73.116
		C1.32,80.201,2.958,81.84,5.103,81.84z M3.841,4.943c0-0.756,0.504-1.261,1.261-1.261h73.116c0.755,0,1.261,0.504,1.261,1.261
		v9.707H3.841V4.943z M3.841,17.171h75.636v60.886c0,0.758-0.504,1.261-1.261,1.261H5.103c-0.756,0-1.261-0.503-1.261-1.261V17.171z
		"/>
	<rect x="8.883" y="7.842" fill="#010101" width="2.521" height="2.521"/>
	<rect x="16.826" y="7.842" fill="#010101" width="2.521" height="2.521"/>
	<rect x="24.642" y="7.842" fill="#010101" width="2.521" height="2.521"/>
	<rect x="41.659" y="7.842" fill="#010101" width="33.911" height="2.521"/>
	<path fill="#010101" d="M27.163,45.66l-1.387,5.294l5.294,1.388v0.125l-6.555,18.405l7.06-3.78l3.152,6.806l5.546-15.378
		l1.512,1.513L43.3,58.52l5.547,15.378l3.151-6.806l7.06,3.781l-6.556-18.405v-0.126l5.295-1.388l-1.388-5.294l3.909-3.908
		l-3.909-3.908l1.388-5.294l-5.295-1.387l-1.387-5.294l-5.294,1.387l-4.162-3.908l-3.907,3.909l-5.295-1.387l-1.387,5.294
		l-5.295,1.387l1.387,5.295l-3.908,3.908L27.163,45.66z M34.475,70.621l-2.396-5.295l-5.294,2.898l4.791-13.489l0.755,3.026
		l5.295-1.388l1.388,1.388L34.475,70.621z M56.536,68.227l-5.295-2.9l-2.395,5.295l-4.666-12.985l1.388-1.387l5.294,1.387
		l0.756-3.026L56.536,68.227z M27.163,33.433l4.79-1.262l1.262-4.789l4.79,1.261l3.655-3.53l3.53,3.53l4.79-1.261l1.262,4.789
		l4.791,1.262l-1.261,4.79l3.529,3.53l-3.529,3.531l1.261,4.79l-4.791,1.261l-1.262,4.79l-4.79-1.261l-3.53,3.529l-3.529-3.529
		l-4.791,1.261l-1.261-4.79l-4.79-1.261l1.261-4.79l-3.53-3.531l3.53-3.53L27.163,33.433z"/>
	<polygon fill="#010101" points="38.634,47.805 39.643,46.544 48.594,35.575 39.39,43.771 37.878,38.728 34.727,39.987 
		37.752,46.164 	"/>
</g>
</svg>
