<?xml version="1.0" encoding="utf-8"?>
<!-- Generator: Adobe Illustrator 16.0.0, SVG Export Plug-In . SVG Version: 6.00 Build 0)  -->
<!DOCTYPE svg PUBLIC "-//W3C//DTD SVG 1.1//EN" "http://www.w3.org/Graphics/SVG/1.1/DTD/svg11.dtd">
<svg version="1.1" id="Layer_1" xmlns="http://www.w3.org/2000/svg" xmlns:xlink="http://www.w3.org/1999/xlink" x="0px" y="0px"
	 width="83px" height="83px" viewBox="0 0 83 83" enable-background="new 0 0 83 83" xml:space="preserve">
<g>
	<g>
		<path fill="#010101" d="M57.991,18.674v45.652H31.344v-5.089v-1.246h-1.247h-5.088V18.674H57.991 M59.237,17.427H23.762v41.81
			h6.335v6.335h29.141V17.427L59.237,17.427z"/>
	</g>
	<g>
		<path fill="none" stroke="#010101" stroke-width="2" stroke-miterlimit="10" d="M19.961,73.175c0,2.092,1.71,3.803,3.801,3.803
			h35.475c2.092,0,3.803-1.711,3.803-3.803V9.825c0-2.091-1.711-3.801-3.803-3.801H23.762c-2.09,0-3.801,1.71-3.801,3.801"/>
		<line fill="none" stroke="#010101" stroke-width="2" stroke-miterlimit="10" x1="37.699" y1="70.641" x2="45.303" y2="70.641"/>
		<g>
			<g>
				<line fill="none" stroke="#010101" stroke-width="2" stroke-miterlimit="10" x1="40.233" y1="12.359" x2="47.835" y2="12.359"/>
			</g>
			<g>
				<line fill="none" stroke="#010101" stroke-width="2" stroke-miterlimit="10" x1="35.165" y1="12.359" x2="37.699" y2="12.359"/>
			</g>
		</g>
		<line fill="none" stroke="#010101" stroke-width="2" stroke-miterlimit="10" x1="19.961" y1="55.437" x2="19.961" y2="37.699"/>
	</g>
	<g>
		<circle fill="#FFFFFF" stroke="#010101" stroke-miterlimit="10" cx="41.5" cy="41.5" r="11.403"/>
		<circle fill="none" stroke="#010101" stroke-width="2" stroke-miterlimit="10" cx="41.5" cy="38.966" r="2.534"/>
		<path fill="none" stroke="#010101" stroke-width="2" stroke-miterlimit="10" d="M35.203,51.003
			C35.52,47.798,38.218,45.3,41.5,45.3c3.282,0,5.98,2.498,6.297,5.703"/>
		<circle fill="none" stroke="#010101" stroke-width="2" stroke-miterlimit="10" cx="41.5" cy="41.5" r="11.403"/>
	</g>
	<g>
		<g>
			<line fill="none" stroke="#FFFFFF" stroke-width="2" stroke-miterlimit="10" x1="35.165" y1="61.772" x2="37.699" y2="61.772"/>
		</g>
		<g>
			<line fill="none" stroke="#FFFFFF" stroke-width="2" stroke-miterlimit="10" x1="40.233" y1="61.772" x2="42.768" y2="61.772"/>
		</g>
		<g>
			<line fill="none" stroke="#FFFFFF" stroke-width="2" stroke-miterlimit="10" x1="45.303" y1="61.772" x2="47.835" y2="61.772"/>
		</g>
	</g>
	<g>
		<g>
			<g>
				<polyline fill="none" stroke="#010101" stroke-width="2" stroke-miterlimit="10" points="78.865,35.165 78.865,36.432 
					77.599,36.432 				"/>
				
					<line fill="none" stroke="#010101" stroke-width="2" stroke-miterlimit="10" stroke-dasharray="2,2" x1="75.065" y1="36.432" x2="61.127" y2="36.432"/>
				<polyline fill="none" stroke="#010101" stroke-width="2" stroke-miterlimit="10" points="59.86,36.432 58.594,36.432 
					58.594,35.165 				"/>
				
					<line fill="none" stroke="#010101" stroke-width="2" stroke-miterlimit="10" stroke-dasharray="2,2" x1="58.594" y1="32.631" x2="58.594" y2="28.83"/>
				<polyline fill="none" stroke="#010101" stroke-width="2" stroke-miterlimit="10" points="58.594,27.563 58.594,26.296 
					59.86,26.296 				"/>
				
					<line fill="none" stroke="#010101" stroke-width="2" stroke-miterlimit="10" stroke-dasharray="2,2" x1="62.396" y1="26.296" x2="76.332" y2="26.296"/>
				<polyline fill="none" stroke="#010101" stroke-width="2" stroke-miterlimit="10" points="77.599,26.296 78.865,26.296 
					78.865,27.563 				"/>
				
					<line fill="none" stroke="#010101" stroke-width="2" stroke-miterlimit="10" stroke-dasharray="2,2" x1="78.865" y1="30.097" x2="78.865" y2="33.898"/>
			</g>
		</g>
	</g>
	<g>
		
			<rect x="4.133" y="13.627" fill="none" stroke="#010101" stroke-width="2" stroke-miterlimit="10" width="20.272" height="20.271"/>
		<rect x="7.935" y="17.427" fill="none" width="12.669" height="12.669"/>
		<g>
			<line fill="none" stroke="#010101" stroke-width="2" stroke-miterlimit="10" x1="18.071" y1="21.228" x2="10.469" y2="21.228"/>
			<line fill="none" stroke="#010101" stroke-width="2" stroke-miterlimit="10" x1="14.27" y1="26.296" x2="10.469" y2="26.296"/>
		</g>
	</g>
	<g>
		<g>
			<g>
				<polyline fill="none" stroke="#010101" stroke-width="2" stroke-miterlimit="10" points="12.359,52.902 12.359,54.17 
					11.092,54.17 				"/>
				
					<line fill="none" stroke="#010101" stroke-width="2" stroke-miterlimit="10" stroke-dasharray="2,2" x1="8.558" y1="54.17" x2="4.757" y2="54.17"/>
				<polyline fill="none" stroke="#010101" stroke-width="2" stroke-miterlimit="10" points="3.491,54.17 2.224,54.17 2.224,52.902 
									"/>
				
					<line fill="none" stroke="#010101" stroke-width="2" stroke-miterlimit="10" stroke-dasharray="2,2" x1="2.224" y1="50.37" x2="2.224" y2="46.567"/>
				<polyline fill="none" stroke="#010101" stroke-width="2" stroke-miterlimit="10" points="2.224,45.302 2.224,44.034 
					3.491,44.034 				"/>
				
					<line fill="none" stroke="#010101" stroke-width="2" stroke-miterlimit="10" stroke-dasharray="2,2" x1="6.024" y1="44.034" x2="9.825" y2="44.034"/>
				<polyline fill="none" stroke="#010101" stroke-width="2" stroke-miterlimit="10" points="11.092,44.034 12.359,44.034 
					12.359,45.302 				"/>
				
					<line fill="none" stroke="#010101" stroke-width="2" stroke-miterlimit="10" stroke-dasharray="2,2" x1="12.359" y1="47.835" x2="12.359" y2="51.635"/>
			</g>
		</g>
	</g>
	<g>
		<rect x="5.38" y="58.614" fill="none" stroke="#010101" stroke-width="2" stroke-miterlimit="10" width="25.34" height="10.136"/>
		<line fill="none" stroke="#010101" stroke-width="2" stroke-miterlimit="10" x1="24.386" y1="63.682" x2="11.715" y2="63.682"/>
	</g>
	<g>
		<line fill="none" stroke="#010101" stroke-width="2" stroke-miterlimit="10" x1="74.442" y1="14.894" x2="66.84" y2="14.894"/>
		<line fill="none" stroke="#010101" stroke-width="2" stroke-miterlimit="10" x1="66.84" y1="9.825" x2="79.511" y2="9.825"/>
	</g>
	<g>
		
			<rect x="68.107" y="51.635" fill="none" stroke="#010101" stroke-width="2" stroke-miterlimit="10" width="12.669" height="12.672"/>
		<rect x="71.907" y="55.437" fill="#010101" width="5.068" height="5.068"/>
	</g>
</g>
</svg>
