<?xml version="1.0" encoding="utf-8"?>
<!-- Generator: Adobe Illustrator 16.0.0, SVG Export Plug-In . SVG Version: 6.00 Build 0)  -->
<!DOCTYPE svg PUBLIC "-//W3C//DTD SVG 1.1//EN" "http://www.w3.org/Graphics/SVG/1.1/DTD/svg11.dtd">
<svg version="1.1" id="Layer_1" xmlns="http://www.w3.org/2000/svg" xmlns:xlink="http://www.w3.org/1999/xlink" x="0px" y="0px"
	 width="83px" height="83px" viewBox="0 0 83 83" enable-background="new 0 0 83 83" xml:space="preserve">
<g>
	<g>
		<g>
			
				<rect x="1.476" y="66.532" fill="none" stroke="#010101" stroke-width="2" stroke-miterlimit="10" width="66.75" height="10.269"/>
		</g>
		<g>
			<line fill="none" stroke="#010101" stroke-width="2" stroke-miterlimit="10" x1="1.476" y1="66.532" x2="1.476" y2="69.099"/>
			<line fill="none" stroke="#010101" stroke-width="2" stroke-miterlimit="10" x1="6.611" y1="66.532" x2="6.611" y2="70.383"/>
			<line fill="none" stroke="#010101" stroke-width="2" stroke-miterlimit="10" x1="11.745" y1="66.532" x2="11.745" y2="70.383"/>
			<line fill="none" stroke="#010101" stroke-width="2" stroke-miterlimit="10" x1="16.88" y1="66.532" x2="16.88" y2="70.383"/>
			<line fill="none" stroke="#010101" stroke-width="2" stroke-miterlimit="10" x1="22.015" y1="66.532" x2="22.015" y2="70.383"/>
			<line fill="none" stroke="#010101" stroke-width="2" stroke-miterlimit="10" x1="27.149" y1="66.532" x2="27.149" y2="70.383"/>
			<line fill="none" stroke="#010101" stroke-width="2" stroke-miterlimit="10" x1="32.284" y1="66.532" x2="32.284" y2="70.383"/>
			<line fill="none" stroke="#010101" stroke-width="2" stroke-miterlimit="10" x1="37.419" y1="66.532" x2="37.419" y2="70.383"/>
			<line fill="none" stroke="#010101" stroke-width="2" stroke-miterlimit="10" x1="42.554" y1="66.532" x2="42.554" y2="70.383"/>
			<line fill="none" stroke="#010101" stroke-width="2" stroke-miterlimit="10" x1="47.688" y1="66.532" x2="47.688" y2="70.383"/>
			<line fill="none" stroke="#010101" stroke-width="2" stroke-miterlimit="10" x1="52.822" y1="66.532" x2="52.822" y2="70.383"/>
			<line fill="none" stroke="#010101" stroke-width="2" stroke-miterlimit="10" x1="57.957" y1="66.532" x2="57.957" y2="70.383"/>
			<line fill="none" stroke="#010101" stroke-width="2" stroke-miterlimit="10" x1="63.091" y1="70.383" x2="63.091" y2="72.95"/>
		</g>
	</g>
	<g>
		<path fill="none" stroke="#010101" stroke-width="2" stroke-linejoin="round" stroke-miterlimit="10" d="M81.062,13.901
			l-3.851-7.702l-3.85,7.702v60.333c0,0.656,0.25,1.313,0.751,1.814c0.502,0.502,1.158,0.753,1.817,0.753h2.564
			c0.658,0,1.316-0.251,1.816-0.753c0.503-0.501,0.751-1.158,0.751-1.814V13.901z"/>
		
			<line fill="none" stroke="#010101" stroke-width="2" stroke-linejoin="round" stroke-miterlimit="10" x1="73.361" y1="71.666" x2="81.062" y2="71.666"/>
		
			<line fill="none" stroke="#010101" stroke-width="2" stroke-linejoin="round" stroke-miterlimit="10" x1="73.361" y1="13.901" x2="81.062" y2="13.901"/>
	</g>
	<g>
		<g>
			<polygon fill="none" stroke="#010101" stroke-width="2" stroke-miterlimit="10" points="68.226,13.901 68.226,60.112 
				1.476,60.112 1.476,6.2 60.524,6.2 			"/>
			<polyline fill="none" stroke="#010101" stroke-width="2" stroke-miterlimit="10" points="68.226,13.901 60.524,13.901 
				60.524,6.2 			"/>
		</g>
		<g>
			
				<rect x="9.178" y="19.036" fill="none" stroke="#010101" stroke-width="2" stroke-miterlimit="10" width="48.779" height="33.373"/>
			<line fill="none" stroke="#010101" stroke-width="2" stroke-miterlimit="10" x1="57.957" y1="19.036" x2="61.809" y2="19.036"/>
			<line fill="none" stroke="#010101" stroke-width="2" stroke-miterlimit="10" x1="57.957" y1="28.021" x2="61.809" y2="28.021"/>
			<line fill="none" stroke="#010101" stroke-width="2" stroke-miterlimit="10" x1="57.957" y1="40.858" x2="61.809" y2="40.858"/>
			<g>
				
					<rect x="15.597" y="25.454" fill="none" stroke="#010101" stroke-width="2" stroke-miterlimit="10" width="5.134" height="5.134"/>
				
					<rect x="25.866" y="25.454" fill="none" stroke="#010101" stroke-width="2" stroke-miterlimit="10" width="5.135" height="5.134"/>
				
					<rect x="36.135" y="25.454" fill="none" stroke="#010101" stroke-width="2" stroke-miterlimit="10" width="5.134" height="5.134"/>
				
					<rect x="46.403" y="25.454" fill="none" stroke="#010101" stroke-width="2" stroke-miterlimit="10" width="5.134" height="5.134"/>
			</g>
			
				<rect x="15.597" y="35.724" fill="none" stroke="#010101" stroke-width="2" stroke-miterlimit="10" width="25.673" height="10.269"/>
			<g>
				<line fill="none" stroke="#010101" stroke-width="2" stroke-miterlimit="10" x1="14.313" y1="13.901" x2="22.015" y2="13.901"/>
				<line fill="none" stroke="#010101" stroke-width="2" stroke-miterlimit="10" x1="24.583" y1="13.901" x2="32.284" y2="13.901"/>
				<line fill="none" stroke="#010101" stroke-width="2" stroke-miterlimit="10" x1="34.852" y1="13.901" x2="42.554" y2="13.901"/>
				<line fill="none" stroke="#010101" stroke-width="2" stroke-miterlimit="10" x1="45.12" y1="13.901" x2="52.822" y2="13.901"/>
			</g>
			<g>
				<line fill="none" stroke="#010101" stroke-width="2" stroke-miterlimit="10" x1="45.12" y1="35.724" x2="52.822" y2="35.724"/>
				<line fill="none" stroke="#010101" stroke-width="2" stroke-miterlimit="10" x1="45.12" y1="40.858" x2="52.822" y2="40.858"/>
				<line fill="none" stroke="#010101" stroke-width="2" stroke-miterlimit="10" x1="45.12" y1="45.992" x2="48.972" y2="45.992"/>
			</g>
			<g>
				<line fill="none" stroke="#010101" stroke-width="2" stroke-miterlimit="10" x1="22.015" y1="40.858" x2="24.583" y2="40.858"/>
				<line fill="none" stroke="#010101" stroke-width="2" stroke-miterlimit="10" x1="27.149" y1="40.858" x2="29.716" y2="40.858"/>
				<line fill="none" stroke="#010101" stroke-width="2" stroke-miterlimit="10" x1="32.284" y1="40.858" x2="34.852" y2="40.858"/>
			</g>
		</g>
	</g>
</g>
</svg>
