<?xml version="1.0" encoding="utf-8"?>
<!-- Generator: Adobe Illustrator 16.0.0, SVG Export Plug-In . SVG Version: 6.00 Build 0)  -->
<!DOCTYPE svg PUBLIC "-//W3C//DTD SVG 1.1//EN" "http://www.w3.org/Graphics/SVG/1.1/DTD/svg11.dtd">
<svg version="1.1" id="Layer_1" xmlns="http://www.w3.org/2000/svg" xmlns:xlink="http://www.w3.org/1999/xlink" x="0px" y="0px"
	 width="83px" height="83px" viewBox="0 0 83 83" enable-background="new 0 0 83 83" xml:space="preserve">
<g>
	<g>
		<line fill="none" stroke="#010101" stroke-width="2" stroke-miterlimit="10" x1="41.374" y1="30.04" x2="41.374" y2="36.534"/>
		<line fill="none" stroke="#010101" stroke-width="2" stroke-miterlimit="10" x1="41.374" y1="57.319" x2="41.374" y2="63.813"/>
		<line fill="none" stroke="#010101" stroke-width="2" stroke-miterlimit="10" x1="16.693" y1="57.319" x2="16.693" y2="63.813"/>
		<line fill="none" stroke="#010101" stroke-width="2" stroke-miterlimit="10" x1="66.056" y1="57.319" x2="66.056" y2="63.813"/>
	</g>
	<g>
		<rect x="7.6" y="63.813" fill="none" stroke="#010101" stroke-width="2" stroke-miterlimit="10" width="18.186" height="18.187"/>
		<rect x="7.6" y="63.813" fill="none" stroke="#010101" stroke-width="2" stroke-miterlimit="10" width="18.186" height="18.187"/>
		<line fill="none" stroke="#010101" stroke-width="2" stroke-miterlimit="10" x1="16.693" y1="75.504" x2="11.497" y2="75.504"/>
		<line fill="none" stroke="#010101" stroke-width="2" stroke-miterlimit="10" x1="11.497" y1="70.309" x2="21.889" y2="70.309"/>
	</g>
	<g>
		
			<rect x="32.281" y="63.813" fill="none" stroke="#010101" stroke-width="2" stroke-miterlimit="10" width="18.186" height="18.187"/>
		<line fill="none" stroke="#010101" stroke-width="2" stroke-miterlimit="10" x1="41.374" y1="75.504" x2="36.179" y2="75.504"/>
		<line fill="none" stroke="#010101" stroke-width="2" stroke-miterlimit="10" x1="36.179" y1="70.309" x2="46.571" y2="70.309"/>
	</g>
	<g>
		
			<rect x="56.962" y="63.813" fill="none" stroke="#010101" stroke-width="2" stroke-miterlimit="10" width="18.184" height="18.187"/>
		<line fill="none" stroke="#010101" stroke-width="2" stroke-miterlimit="10" x1="66.056" y1="75.504" x2="60.86" y2="75.504"/>
		<line fill="none" stroke="#010101" stroke-width="2" stroke-miterlimit="10" x1="60.86" y1="70.309" x2="71.251" y2="70.309"/>
	</g>
	<g>
		<g>
			
				<rect x="16.693" y="9.255" fill="none" stroke="#010101" stroke-width="2" stroke-miterlimit="10" width="49.362" height="20.785"/>
			
				<rect x="16.693" y="1.461" fill="none" stroke="#010101" stroke-width="2" stroke-miterlimit="10" width="49.362" height="7.793"/>
		</g>
		<g>
			<line fill="none" stroke="#010101" stroke-width="2" stroke-miterlimit="10" x1="60.86" y1="19.647" x2="21.889" y2="19.647"/>
			<line fill="none" stroke="#010101" stroke-width="2" stroke-miterlimit="10" x1="60.86" y1="24.844" x2="21.889" y2="24.844"/>
			<line fill="none" stroke="#010101" stroke-width="2" stroke-miterlimit="10" x1="21.889" y1="14.452" x2="41.374" y2="14.452"/>
		</g>
		<line fill="none" stroke="#010101" stroke-width="2" stroke-miterlimit="10" x1="21.889" y1="5.358" x2="24.487" y2="5.358"/>
		<line fill="none" stroke="#010101" stroke-width="2" stroke-miterlimit="10" x1="27.084" y1="5.358" x2="29.683" y2="5.358"/>
		<line fill="none" stroke="#010101" stroke-width="2" stroke-miterlimit="10" x1="32.281" y1="5.358" x2="34.879" y2="5.358"/>
	</g>
	<g>
		<rect x="7.6" y="36.534" fill="none" stroke="#010101" stroke-width="2" stroke-miterlimit="10" width="67.545" height="20.785"/>
		<g>
			<line fill="none" stroke="#010101" stroke-width="2" stroke-miterlimit="10" x1="34.879" y1="46.926" x2="37.478" y2="46.926"/>
			<line fill="none" stroke="#010101" stroke-width="2" stroke-miterlimit="10" x1="40.075" y1="46.926" x2="42.672" y2="46.926"/>
			<line fill="none" stroke="#010101" stroke-width="2" stroke-miterlimit="10" x1="45.271" y1="46.926" x2="47.87" y2="46.926"/>
		</g>
	</g>
</g>
</svg>
