<?xml version="1.0" encoding="utf-8"?>
<!-- Generator: Adobe Illustrator 16.0.0, SVG Export Plug-In . SVG Version: 6.00 Build 0)  -->
<!DOCTYPE svg PUBLIC "-//W3C//DTD SVG 1.1//EN" "http://www.w3.org/Graphics/SVG/1.1/DTD/svg11.dtd">
<svg version="1.1" id="Layer_1" xmlns="http://www.w3.org/2000/svg" xmlns:xlink="http://www.w3.org/1999/xlink" x="0px" y="0px"
	 width="83px" height="80px" viewBox="0 0 83 80" enable-background="new 0 0 83 80" xml:space="preserve">
<g>
	<g>
		<path fill="#010101" d="M22.621,35.483c-0.176-0.117-4.385-2.855-11.278-1.477c-0.567,0.113-0.975,0.611-0.975,1.189v1.296
			c0,0.67,0.543,1.212,1.212,1.212c0.67,0,1.212-0.542,1.212-1.212v-0.274c2.598-0.371,4.653-0.066,5.973,0.28
			c1.594,0.419,2.491,0.99,2.516,1.006c0.205,0.135,0.437,0.2,0.666,0.2c0.392,0,0.776-0.19,1.01-0.54
			C23.329,36.607,23.178,35.854,22.621,35.483z"/>
	</g>
</g>
<g>
	<g>
		<path fill="#010101" d="M30.219,56.439l-6.163-2.31c-0.536-0.2-0.895-0.721-0.895-1.291v-3.11c0.264-0.209,0.52-0.435,0.765-0.672
			c2.014-1.955,3.123-4.576,3.123-7.383v-2.306l0.347-0.693c0.621-1.242,0.949-2.632,0.949-4.02V27.42
			c0-0.67-0.543-1.212-1.212-1.212H13.628c-4.656,0-8.444,3.788-8.444,8.448c0,1.388,0.328,2.779,0.949,4.02l0.347,0.693v1.925
			c0,3.337,1.525,6.353,3.888,8.319v3.226c0,0.571-0.36,1.091-0.895,1.292L3.31,56.439C1.33,57.186,0,59.104,0,61.217v8.971
			C0,70.855,0.542,71.4,1.212,71.4s1.213-0.545,1.213-1.213v-8.971c0-1.107,0.697-2.113,1.736-2.505l6.163-2.312
			c0.333-0.125,0.641-0.297,0.919-0.502l4.309,3.229v11.058c0,0.67,0.542,1.213,1.212,1.213c0.67,0,1.212-0.543,1.212-1.213V59.129
			l4.308-3.23c0.278,0.207,0.585,0.379,0.919,0.504l6.163,2.311c1.039,0.391,1.736,1.396,1.736,2.506v8.969
			c0,0.67,0.542,1.213,1.212,1.213c0.669,0,1.212-0.543,1.212-1.213v-8.969C33.528,59.104,32.198,57.186,30.219,56.439z
			 M16.764,57.007l-4.129-3.096c0.102-0.345,0.158-0.704,0.158-1.071v-1.72c1.133,0.5,2.366,0.796,3.656,0.834
			c0.107,0.005,0.213,0.006,0.319,0.006c1.385,0,2.727-0.274,3.968-0.794v1.674c0,0.367,0.056,0.729,0.158,1.071L16.764,57.007z
			 M22.237,47.316c-1.539,1.49-3.565,2.279-5.716,2.215c-4.199-0.127-7.616-3.821-7.616-8.237v-2.21
			c0-0.189-0.044-0.375-0.128-0.543l-0.475-0.95c-0.453-0.907-0.693-1.921-0.693-2.94c0-3.319,2.7-6.02,6.019-6.02H25.92v6.024
			c0,1.014-0.24,2.029-0.693,2.936l-0.475,0.95c-0.084,0.168-0.128,0.354-0.128,0.543v2.591
			C24.624,43.818,23.776,45.823,22.237,47.316z"/>
	</g>
</g>
<g>
	<g>
		<path fill="#010101" d="M7.692,62.494c-0.67,0-1.212,0.543-1.212,1.213v6.479c0,0.67,0.542,1.213,1.212,1.213
			s1.212-0.543,1.212-1.213v-6.479C8.905,63.037,8.362,62.494,7.692,62.494z"/>
	</g>
</g>
<g>
	<g>
		<path fill="#010101" d="M25.836,62.494c-0.67,0-1.212,0.543-1.212,1.213v6.479c0,0.67,0.542,1.213,1.212,1.213
			s1.212-0.543,1.212-1.213v-6.479C27.048,63.037,26.506,62.494,25.836,62.494z"/>
	</g>
</g>
<g>
	<g>
		<path fill="#010101" d="M78.971,6.768H16.764c-2.098,0-3.804,1.707-3.804,3.804v11.664c0,0.669,0.542,1.212,1.212,1.212
			c0.669,0,1.212-0.543,1.212-1.212V10.572c0-0.761,0.619-1.379,1.379-1.379h62.208c0.762,0,1.381,0.619,1.381,1.379v46.655
			c0,0.763-0.619,1.381-1.381,1.381H37.5c-0.67,0-1.212,0.541-1.212,1.213c0,0.669,0.542,1.213,1.212,1.213h41.471
			c2.098,0,3.805-1.708,3.805-3.807V10.572C82.775,8.474,81.068,6.768,78.971,6.768z"/>
	</g>
</g>
<g>
	<g>
		<path fill="#010101" d="M73.786,45.646h-1.378V15.756c0-0.67-0.544-1.212-1.213-1.212H66.01c-0.67,0-1.212,0.542-1.212,1.212
			v29.891H62.04V26.124c0-0.669-0.543-1.212-1.213-1.212h-5.185c-0.67,0-1.213,0.543-1.213,1.212v19.524h-2.759V20.939
			c0-0.669-0.542-1.212-1.213-1.212h-5.185c-0.668,0-1.211,0.543-1.211,1.212v24.708h-2.759V31.308c0-0.67-0.543-1.212-1.212-1.212
			h-5.184c-0.67,0-1.212,0.542-1.212,1.212v14.338h-3.971c-0.67,0-1.212,0.543-1.212,1.213s0.542,1.213,1.212,1.213h44.062v0.001
			c0.671,0,1.213-0.544,1.213-1.214C74.999,46.188,74.457,45.646,73.786,45.646z M38.879,45.646H36.12V32.52h2.759V45.646z
			 M49.247,45.646h-2.759V22.152h2.759V45.646z M59.613,45.646h-2.758V27.336h2.758V45.646z M69.982,45.646h-2.76V16.968h2.76
			V45.646z"/>
	</g>
</g>
<g>
	<g>
		<path fill="#010101" d="M69.898,50.831h-2.592c-0.67,0-1.213,0.542-1.213,1.212c0,0.669,0.543,1.213,1.213,1.213h2.592
			c0.67,0,1.211-0.544,1.211-1.213C71.109,51.373,70.568,50.831,69.898,50.831z"/>
	</g>
</g>
<g>
	<g>
		<path fill="#010101" d="M49.164,50.831H46.57c-0.668,0-1.213,0.542-1.213,1.212c0,0.669,0.545,1.213,1.213,1.213h2.594
			c0.669,0,1.213-0.544,1.213-1.213C50.377,51.373,49.833,50.831,49.164,50.831z"/>
	</g>
</g>
<g>
	<g>
		<path fill="#010101" d="M59.531,50.831h-2.592c-0.67,0-1.213,0.542-1.213,1.212c0,0.669,0.543,1.213,1.213,1.213h2.592
			c0.67,0,1.213-0.544,1.213-1.213C60.744,51.373,60.201,50.831,59.531,50.831z"/>
	</g>
</g>
<g>
	<g>
		<path fill="#010101" d="M38.796,50.831h-2.592c-0.67,0-1.212,0.542-1.212,1.212c0,0.669,0.542,1.213,1.212,1.213h2.592
			c0.669,0,1.212-0.544,1.212-1.213C40.008,51.373,39.466,50.831,38.796,50.831z"/>
	</g>
</g>
</svg>
