<?xml version="1.0" encoding="utf-8"?>
<!-- Generator: Adobe Illustrator 16.0.0, SVG Export Plug-In . SVG Version: 6.00 Build 0)  -->
<!DOCTYPE svg PUBLIC "-//W3C//DTD SVG 1.1//EN" "http://www.w3.org/Graphics/SVG/1.1/DTD/svg11.dtd">
<svg version="1.1" id="Layer_1" xmlns="http://www.w3.org/2000/svg" xmlns:xlink="http://www.w3.org/1999/xlink" x="0px" y="0px"
	 width="83px" height="80px" viewBox="0 0 83 80" enable-background="new 0 0 83 80" xml:space="preserve">
<g>
	<g>
		<path fill="#010101" d="M71.08,69.334c2.158-1.436,3.586-3.886,3.586-6.668c0-4.411-3.588-8-8-8c-2.781,0-5.231,1.429-6.666,3.588
			c-0.952-1.433-2.354-2.537-4-3.121v-4.467h2.666V48H56v-8h2.666v-2.666h-4h-4h-9.709c0.084-0.068,0.18-0.117,0.262-0.188
			l7.668-6.816c0.274-0.243,0.436-0.589,0.447-0.957c0.01-0.366-0.131-0.723-0.391-0.981l-4-4c-0.479-0.48-1.246-0.523-1.775-0.099
			l-5.592,4.474L32,21.332c-1.252-1.669-3.246-2.666-5.334-2.666H12c-3.676,0-6.666,2.991-6.666,6.667v8
			c0,1.506,0.521,2.882,1.367,4H1.333C0.597,37.334,0,37.93,0,38.666v30.668h2.667V50.666h50.667v4
			c-2.782,0-5.232,1.429-6.668,3.588c-1.434-2.16-3.885-3.588-6.666-3.588s-5.232,1.429-6.666,3.588
			c-1.436-2.16-3.886-3.588-6.668-3.588c-2.781,0-5.231,1.429-6.666,3.588c-1.435-2.16-3.885-3.588-6.666-3.588
			c-4.412,0-8,3.589-8,8c0,2.782,1.428,5.232,3.586,6.668C6.762,70.768,5.334,73.219,5.334,76v4H8v-4
			c0-2.941,2.393-5.334,5.334-5.334c2.94,0,5.332,2.393,5.332,5.334v4h2.668v-4c0-2.941,2.392-5.334,5.332-5.334
			C29.607,70.666,32,73.059,32,76v4h2.666v-4c0-2.941,2.393-5.334,5.334-5.334s5.334,2.393,5.334,5.334v4H48v-4
			c0-2.941,2.393-5.334,5.334-5.334c2.94,0,5.332,2.393,5.332,5.334v4h2.668v-4c0-2.941,2.392-5.334,5.332-5.334
			C69.607,70.666,72,73.059,72,76v4h2.666v-4C74.666,73.219,73.238,70.768,71.08,69.334z M21.646,21.334L20,24.076l-1.646-2.742
			H21.646z M8,25.334c0-2.206,1.795-4,4-4h3.245l3.612,6.02C19.098,27.754,19.532,28,20,28s0.902-0.246,1.143-0.646l3.612-6.02
			h1.911c1.252,0,2.45,0.597,3.201,1.598l6.399,8.533c0.216,0.29,0.54,0.479,0.899,0.524c0.357,0.043,0.718-0.056,1-0.281
			L43.9,27.12l2.156,2.155l-6.611,5.878c-0.846,0.751-1.927,1.104-3.057,0.989c-1.127-0.113-2.121-0.675-2.801-1.58l-4.521-6.029
			c-0.344-0.46-0.942-0.649-1.488-0.465c-0.545,0.182-0.912,0.69-0.912,1.266v8h-5.332v-4C21.334,32.596,20.736,32,20,32h-6.666
			v-5.334h-2.668v6.668c0,0.736,0.598,1.332,1.334,1.332h6.666v2.668H12c-2.205,0-4-1.795-4-4V25.334z M32.617,37.334h-3.283v-4
			l2.122,2.828C31.789,36.609,32.189,36.989,32.617,37.334z M2.667,48v-8H12h8h30.666h2.668v8H2.667z M13.334,68
			C10.393,68,8,65.607,8,62.666c0-2.94,2.393-5.332,5.334-5.332c2.94,0,5.332,2.392,5.332,5.332C18.666,65.607,16.274,68,13.334,68z
			 M20,71.587c-0.594-0.894-1.359-1.66-2.254-2.253c0.895-0.594,1.66-1.361,2.254-2.254c0.594,0.893,1.359,1.66,2.254,2.254
			C21.359,69.927,20.594,70.693,20,71.587z M26.666,68c-2.94,0-5.332-2.393-5.332-5.334c0-2.94,2.392-5.332,5.332-5.332
			c2.941,0,5.334,2.392,5.334,5.332C32,65.607,29.607,68,26.666,68z M33.334,71.587c-0.594-0.894-1.361-1.66-2.254-2.253
			c0.893-0.594,1.66-1.361,2.254-2.254c0.593,0.893,1.359,1.66,2.253,2.254C34.693,69.927,33.927,70.693,33.334,71.587z M40,68
			c-2.941,0-5.334-2.393-5.334-5.334c0-2.94,2.393-5.332,5.334-5.332s5.334,2.392,5.334,5.332C45.334,65.607,42.941,68,40,68z
			 M46.666,71.587c-0.593-0.894-1.359-1.66-2.253-2.253c0.894-0.594,1.66-1.361,2.253-2.254c0.594,0.893,1.361,1.66,2.254,2.254
			C48.027,69.927,47.26,70.693,46.666,71.587z M53.334,68C50.393,68,48,65.607,48,62.666c0-2.94,2.393-5.332,5.334-5.332
			c2.94,0,5.332,2.392,5.332,5.332C58.666,65.607,56.274,68,53.334,68z M60,71.587c-0.594-0.894-1.359-1.66-2.254-2.253
			c0.895-0.594,1.66-1.361,2.254-2.254c0.594,0.893,1.359,1.66,2.254,2.254C61.359,69.927,60.594,70.693,60,71.587z M66.666,68
			c-2.94,0-5.332-2.393-5.332-5.334c0-2.94,2.392-5.332,5.332-5.332c2.941,0,5.334,2.392,5.334,5.332C72,65.607,69.607,68,66.666,68
			z"/>
	</g>
</g>
<g>
	<g>
		<rect x="48" y="42.666" fill="#010101" width="2.666" height="2.668"/>
	</g>
</g>
<g>
	<g>
		<rect x="42.666" y="42.666" fill="#010101" width="2.668" height="2.668"/>
	</g>
</g>
<g>
	<g>
		<rect x="37.334" y="42.666" fill="#010101" width="2.666" height="2.668"/>
	</g>
</g>
<g>
	<g>
		<path fill="#010101" d="M20,0c-4.412,0-8,3.588-8,8s3.588,8,8,8s8-3.588,8-8S24.412,0,20,0z M20,13.333
			c-2.941,0-5.334-2.392-5.334-5.333S17.059,2.667,20,2.667S25.334,5.059,25.334,8S22.941,13.333,20,13.333z"/>
	</g>
</g>
<g>
	<g>
		<path fill="#010101" d="M76,9.333c-0.842,0-1.621,0.264-2.266,0.709l-8.449-4.225c0.02-0.16,0.049-0.319,0.049-0.484
			c0-2.206-1.795-4-4-4c-2.206,0-4,1.794-4,4c0,1.036,0.404,1.972,1.053,2.683l-4.474,6.709c-0.19-0.028-0.381-0.059-0.579-0.059
			c-1.611,0-2.995,0.963-3.629,2.339l-7.072-2.02c0.01-0.108,0.033-0.209,0.033-0.319c0-2.205-1.794-4-4-4c-2.205,0-4,1.795-4,4
			c0,2.206,1.795,4,4,4c1.126,0,2.141-0.471,2.869-1.221l7.957,2.273c0.464,1.693,2.001,2.947,3.842,2.947c2.205,0,4-1.794,4-4
			c0-1.036-0.406-1.972-1.055-2.683l4.475-6.709c0.189,0.028,0.381,0.059,0.58,0.059c1.075,0,2.049-0.432,2.769-1.125l8.068,4.035
			C72.07,12.592,72,12.953,72,13.333c0,2.205,1.795,4,4,4s4-1.795,4-4C80,11.128,78.205,9.333,76,9.333z M38.666,16
			c-0.734,0-1.332-0.597-1.332-1.333c0-0.736,0.598-1.333,1.332-1.333c0.735,0,1.334,0.597,1.334,1.333
			C40,15.403,39.401,16,38.666,16z M53.334,20C52.599,20,52,19.403,52,18.667c0-0.736,0.599-1.333,1.334-1.333
			c0.734,0,1.332,0.597,1.332,1.333C54.666,19.403,54.068,20,53.334,20z M61.334,6.667C60.599,6.667,60,6.069,60,5.333
			C60,4.597,60.599,4,61.334,4c0.734,0,1.332,0.597,1.332,1.333C62.666,6.069,62.068,6.667,61.334,6.667z M76,14.667
			c-0.734,0-1.334-0.597-1.334-1.333c0-0.736,0.6-1.333,1.334-1.333s1.334,0.597,1.334,1.333C77.334,14.069,76.734,14.667,76,14.667
			z"/>
	</g>
</g>
<g>
	<g>
		<rect x="74.666" y="21.334" fill="#010101" width="2.668" height="2.666"/>
	</g>
</g>
<g>
	<g>
		<rect x="69.334" y="21.334" fill="#010101" width="2.666" height="2.666"/>
	</g>
</g>
<g>
	<g>
		<rect x="64" y="21.334" fill="#010101" width="2.666" height="2.666"/>
	</g>
</g>
</svg>
