<?xml version="1.0" encoding="utf-8"?>
<!-- Generator: Adobe Illustrator 16.0.0, SVG Export Plug-In . SVG Version: 6.00 Build 0)  -->
<!DOCTYPE svg PUBLIC "-//W3C//DTD SVG 1.1//EN" "http://www.w3.org/Graphics/SVG/1.1/DTD/svg11.dtd">
<svg version="1.1" id="Layer_1" xmlns="http://www.w3.org/2000/svg" xmlns:xlink="http://www.w3.org/1999/xlink" x="0px" y="0px"
	 width="83px" height="80px" viewBox="0 0 83 80" enable-background="new 0 0 83 80" xml:space="preserve">
<g>
	<g>
		<path fill="#010101" d="M24.411,0.309H11.959c-0.86,0-1.557,0.697-1.557,1.557v12.452c0,0.859,0.697,1.556,1.557,1.556h12.452
			c0.859,0,1.556-0.697,1.556-1.556V1.866C25.967,1.005,25.27,0.309,24.411,0.309z M22.854,12.761h-9.339v-9.34h9.339V12.761
			L22.854,12.761z"/>
	</g>
</g>
<g>
	<g>
		<path fill="#010101" d="M43.089,0.309H30.637c-0.859,0-1.556,0.697-1.556,1.557v12.452c0,0.859,0.697,1.556,1.556,1.556h12.452
			c0.859,0,1.556-0.697,1.556-1.556V1.866C44.645,1.005,43.948,0.309,43.089,0.309z M41.531,12.761h-9.338v-9.34h9.338V12.761z"/>
	</g>
</g>
<g>
	<g>
		<path fill="#010101" d="M61.766,0.309H49.313c-0.857,0-1.555,0.697-1.555,1.557v12.452c0,0.859,0.695,1.556,1.555,1.556h12.453
			c0.858,0,1.559-0.697,1.559-1.556V1.866C63.323,1.005,62.625,0.309,61.766,0.309z M60.209,12.761h-9.338v-9.34h9.338V12.761z"/>
	</g>
</g>
<g>
	<g>
		<path fill="#010101" d="M63.323,32.994V20.542c0-0.859-0.698-1.556-1.558-1.556H49.313c-0.857,0-1.555,0.697-1.555,1.556v3.082
			c-6.896-3.353-15.126-3.066-21.792,0.861v-3.943c0-0.859-0.697-1.556-1.556-1.556H11.959c-0.86,0-1.557,0.697-1.557,1.556v12.452
			c0,0.86,0.697,1.558,1.557,1.558h4.85c-3.993,8.534-2.47,19.03,4.567,26.069c0.52,0.521,1.059,1.008,1.615,1.469L8.83,76.248
			c-0.411,0.414-0.958,0.641-1.54,0.641c-0.583,0-1.13-0.227-1.542-0.641c-0.85-0.85-0.849-2.229,0-3.08l6.255-6.256
			c0.608-0.607,0.608-1.596,0-2.201c-0.608-0.607-1.593-0.607-2.202,0l-6.255,6.256c-2.063,2.063-2.063,5.422,0,7.484
			C4.546,79.449,5.875,80,7.289,80c1.413,0,2.742-0.551,3.742-1.549L25.552,63.93c1.132,0.699,2.313,1.293,3.527,1.777v4.645
			c0,0.857,0.697,1.556,1.556,1.556h12.452c0.858,0,1.556-0.695,1.556-1.556v-4.069c1.063-0.334,2.103-0.748,3.114-1.24v5.312
			c0,0.858,0.695,1.557,1.556,1.557h12.451c0.859,0,1.56-0.697,1.56-1.557V57.898c0-0.859-0.698-1.558-1.56-1.558H57.32
			c1.066-1.741,1.902-3.62,2.472-5.588c0.237-0.823-0.235-1.688-1.063-1.926c-0.824-0.242-1.688,0.233-1.928,1.063
			c-0.928,3.205-2.673,6.153-5.048,8.528c-7.767,7.769-20.407,7.769-28.175,0s-7.768-20.407,0-28.174
			c7.768-7.77,20.406-7.77,28.175,0c2.583,2.582,4.404,5.813,5.265,9.342c0.205,0.836,1.047,1.349,1.883,1.146
			c0.834-0.203,1.348-1.046,1.144-1.88c-0.362-1.485-0.873-2.926-1.521-4.301h3.242C62.625,34.552,63.323,33.854,63.323,32.994z
			 M50.871,63.209c1.084-0.758,2.117-1.621,3.083-2.588c0.377-0.377,0.737-0.768,1.087-1.168h5.168v9.34h-9.338V63.209z
			 M32.193,66.703c1.795,0.438,3.634,0.654,5.473,0.654c1.292,0,2.588-0.107,3.866-0.324v1.762h-9.339V66.703L32.193,66.703z
			 M22.854,26.69c-0.507,0.427-1,0.876-1.478,1.354c-1.059,1.059-1.992,2.197-2.801,3.394h-5.061V22.1h9.339L22.854,26.69
			L22.854,26.69z M56.753,31.438c-0.819-1.211-1.754-2.351-2.799-3.394c-0.968-0.967-1.999-1.83-3.083-2.59V22.1h9.337v9.339
			L56.753,31.438L56.753,31.438z"/>
	</g>
</g>
<g>
	<g>
		<path fill="#010101" d="M80.443,18.987H67.991c-0.859,0-1.556,0.697-1.556,1.557v12.453c0,0.858,0.694,1.557,1.556,1.557h12.452
			c0.857,0,1.557-0.697,1.557-1.557V20.542C82,19.684,81.303,18.987,80.443,18.987z M78.889,31.438h-9.341V22.1h9.341V31.438z"/>
	</g>
</g>
<g>
	<g>
		<path fill="#010101" d="M80.443,37.664H67.991c-0.859,0-1.556,0.697-1.556,1.557v12.451c0,0.859,0.694,1.559,1.556,1.559h12.452
			c0.857,0,1.557-0.698,1.557-1.559V39.221C82,38.361,81.303,37.664,80.443,37.664z M78.889,50.117h-9.341v-9.34h9.341V50.117z"/>
	</g>
</g>
<g>
	<g>
		<path fill="#010101" d="M80.443,56.342H67.991c-0.859,0-1.556,0.697-1.556,1.557v12.453c0,0.857,0.694,1.556,1.556,1.556h12.452
			c0.857,0,1.557-0.695,1.557-1.556V57.898C82,57.039,81.303,56.342,80.443,56.342z M78.889,68.793h-9.341v-9.34h9.341V68.793z"/>
	</g>
</g>
<g>
	<g>
		<path fill="#010101" d="M16.41,60.305c-0.289-0.289-0.691-0.455-1.1-0.455c-0.409,0-0.812,0.166-1.101,0.455
			c-0.29,0.289-0.456,0.689-0.456,1.103c0,0.409,0.167,0.812,0.456,1.101c0.289,0.288,0.691,0.456,1.101,0.456
			s0.811-0.168,1.1-0.456c0.29-0.289,0.456-0.691,0.456-1.101C16.866,60.996,16.7,60.594,16.41,60.305z"/>
	</g>
</g>
<g>
	<g>
		<path fill="#010101" d="M59.145,42.775c-0.857,0-1.556,0.697-1.556,1.559l-0.002,0.131c-0.005,0.859,0.688,1.561,1.548,1.564
			c0.002,0,0.008,0,0.01,0c0.854,0,1.551-0.688,1.559-1.545l0.001-0.15C60.701,43.475,60.004,42.775,59.145,42.775z"/>
	</g>
</g>
<g>
	<g>
		<path fill="#010101" d="M48.893,33.106c-6.19-6.19-16.263-6.19-22.453,0c-2.999,2.999-4.65,6.986-4.65,11.228
			c0,4.24,1.651,8.229,4.65,11.227s6.986,4.648,11.226,4.648c4.241,0,8.229-1.65,11.227-4.648s4.649-6.985,4.649-11.227
			S51.891,36.105,48.893,33.106z M25.996,49.51c-0.714-1.609-1.092-3.363-1.092-5.178c0-1.813,0.378-3.566,1.092-5.176V49.51z
			 M37.666,57.096c-1.802,0-3.547-0.375-5.148-1.08h10.296C41.212,56.721,39.468,57.096,37.666,57.096z M44.052,52.9H29.109V37.959
			h14.942L44.052,52.9L44.052,52.9z M45.605,34.847H29.127c2.419-2.181,5.479-3.271,8.539-3.271c3.189,0,6.38,1.188,8.846,3.562
			C46.257,34.955,45.943,34.847,45.605,34.847z M47.164,52.855V36.402c0-0.336-0.107-0.646-0.29-0.902
			c2.292,2.388,3.556,5.514,3.556,8.832C50.43,47.511,49.273,50.512,47.164,52.855z"/>
	</g>
</g>
</svg>
