<?xml version="1.0" encoding="utf-8"?>
<!-- Generator: Adobe Illustrator 16.0.0, SVG Export Plug-In . SVG Version: 6.00 Build 0)  -->
<!DOCTYPE svg PUBLIC "-//W3C//DTD SVG 1.1//EN" "http://www.w3.org/Graphics/SVG/1.1/DTD/svg11.dtd">
<svg version="1.1" id="Layer_1" xmlns="http://www.w3.org/2000/svg" xmlns:xlink="http://www.w3.org/1999/xlink" x="0px" y="0px"
	 width="83px" height="80px" viewBox="0 0 83 80" enable-background="new 0 0 83 80" xml:space="preserve">
<g>
	<g>
		<path fill="#010101" d="M76.488,0H6.276C5.571,0,5,0.572,5,1.276v20.426c0,0.705,0.571,1.276,1.276,1.276h70.212
			c0.705,0,1.277-0.571,1.277-1.276V1.276C77.766,0.572,77.193,0,76.488,0z M7.553,2.553h47.234v17.873H7.553V2.553z M75.213,20.426
			H57.34V2.553h17.873V20.426z"/>
		<path fill="#010101" d="M26.702,62.979h22.341c0.705,0,1.275-0.57,1.275-1.275s-0.57-1.276-1.275-1.276H26.702
			c-0.705,0-1.277,0.571-1.277,1.276S25.997,62.979,26.702,62.979z"/>
		<path fill="#010101" d="M71.383,53.617H26.702c-0.705,0-1.277,0.57-1.277,1.275s0.572,1.276,1.277,1.276h44.681
			c0.705,0,1.276-0.571,1.276-1.276S72.088,53.617,71.383,53.617z"/>
		<path fill="#010101" d="M26.702,42.553h22.341c0.705,0,1.275-0.57,1.275-1.275c0-0.704-0.57-1.276-1.275-1.276H26.702
			c-0.705,0-1.277,0.572-1.277,1.276C25.425,41.98,25.997,42.553,26.702,42.553z"/>
		<path fill="#010101" d="M26.702,35.744h44.681c0.705,0,1.276-0.571,1.276-1.275c0-0.705-0.571-1.277-1.276-1.277H26.702
			c-0.705,0-1.277,0.572-1.277,1.277C25.425,35.173,25.997,35.744,26.702,35.744z"/>
		<path fill="#010101" d="M76.488,26.383H6.276C5.571,26.383,5,26.955,5,27.66v20.425c0,0.705,0.571,1.276,1.276,1.276h70.212
			c0.705,0,1.277-0.571,1.277-1.276V27.66C77.766,26.955,77.193,26.383,76.488,26.383z M75.213,46.809H7.553V28.936h67.66V46.809
			L75.213,46.809z"/>
		<path fill="#010101" d="M61.421,14.008c0.985,0.985,2.294,1.528,3.688,1.528c0.955,0,1.873-0.256,2.674-0.736l2.697,2.698
			c0.25,0.249,0.576,0.374,0.902,0.374s0.653-0.125,0.902-0.374c0.499-0.499,0.499-1.307,0-1.805l-2.697-2.698
			c0.479-0.8,0.735-1.717,0.735-2.674c0-1.393-0.542-2.703-1.528-3.688c-0.984-0.985-2.294-1.527-3.688-1.527
			s-2.701,0.542-3.688,1.527C59.389,8.667,59.389,11.975,61.421,14.008z M63.227,8.439c0.502-0.502,1.172-0.779,1.883-0.779
			s1.379,0.277,1.882,0.779c0.503,0.503,0.778,1.171,0.778,1.882c0,0.711-0.275,1.379-0.778,1.882s-1.171,0.78-1.882,0.78
			s-1.381-0.277-1.883-0.78C62.188,11.166,62.188,9.477,63.227,8.439z"/>
		<path fill="#010101" d="M21.596,51.915H11.383c-0.705,0-1.276,0.571-1.276,1.276v10.213c0,0.705,0.571,1.275,1.276,1.275h10.213
			c0.705,0,1.276-0.57,1.276-1.275V53.191C22.872,52.486,22.301,51.915,21.596,51.915z M20.319,62.127h-7.66v-7.658h7.66V62.127z"/>
		<path fill="#010101" d="M49.043,75.744H26.702c-0.705,0-1.277,0.572-1.277,1.277s0.572,1.275,1.277,1.275h22.341
			c0.705,0,1.275-0.57,1.275-1.275S49.748,75.744,49.043,75.744z"/>
		<path fill="#010101" d="M71.383,68.936H26.702c-0.705,0-1.277,0.572-1.277,1.277s0.572,1.276,1.277,1.276h44.681
			c0.705,0,1.276-0.571,1.276-1.276S72.088,68.936,71.383,68.936z"/>
		<path fill="#010101" d="M21.596,67.234H11.383c-0.705,0-1.276,0.57-1.276,1.275v10.213c0,0.704,0.571,1.276,1.276,1.276h10.213
			c0.705,0,1.276-0.572,1.276-1.276V68.511C22.872,67.807,22.301,67.234,21.596,67.234z M20.319,77.447h-7.66v-7.66h7.66V77.447z"/>
		<path fill="#010101" d="M11.383,44.256h10.213c0.705,0,1.276-0.572,1.276-1.277V32.766c0-0.705-0.571-1.276-1.276-1.276H11.383
			c-0.705,0-1.276,0.571-1.276,1.276v10.212C10.106,43.684,10.678,44.256,11.383,44.256z M12.659,34.043h7.66v7.659h-7.66V34.043z"
			/>
	</g>
</g>
</svg>
