<?xml version="1.0" encoding="utf-8"?>
<!-- Generator: Adobe Illustrator 16.0.0, SVG Export Plug-In . SVG Version: 6.00 Build 0)  -->
<!DOCTYPE svg PUBLIC "-//W3C//DTD SVG 1.1//EN" "http://www.w3.org/Graphics/SVG/1.1/DTD/svg11.dtd">
<svg version="1.1" id="Layer_1" xmlns="http://www.w3.org/2000/svg" xmlns:xlink="http://www.w3.org/1999/xlink" x="0px" y="0px"
	 width="83px" height="80px" viewBox="0 0 83 80" enable-background="new 0 0 83 80" xml:space="preserve">
<g>
	<g>
		<path fill="#010101" d="M75.333,0H8.667C4.991,0,2,2.991,2,6.667V48v5.333C2,57.01,4.991,60,8.667,60H31.07l-2.182,12h-5.24
			c-1.524,0-2.896,0.848-3.578,2.211c-0.624,1.249-0.559,2.704,0.174,3.893C20.979,79.29,22.252,80,23.648,80h36.704
			c1.396,0,2.668-0.71,3.401-1.896c0.733-1.188,0.802-2.644,0.174-3.893C63.248,72.848,61.878,72,60.352,72h-5.236l-2.184-12h22.401
			C79.01,60,82,57.01,82,53.333V48V6.667C82,2.991,79.01,0,75.333,0z M54,74.667h6.352c0.51,0,0.967,0.282,1.193,0.737
			c0.301,0.6,0.059,1.104-0.059,1.297c-0.118,0.188-0.465,0.632-1.135,0.632H23.648c-0.67,0-1.019-0.442-1.135-0.633
			c-0.117-0.191-0.359-0.696-0.058-1.298c0.226-0.453,0.685-0.735,1.192-0.735H30h10.667c0.735,0,1.333-0.599,1.333-1.334
			s-0.598-1.334-1.333-1.334h-9.069L33.777,60h16.444l2.184,11.999h-3.736c-0.736,0-1.334,0.599-1.334,1.334
			s0.598,1.334,1.334,1.334H54L54,74.667z M79.333,53.333c0,2.205-1.794,4-4,4h-24H32.667h-24c-2.205,0-4-1.795-4-4v-4h74.667
			L79.333,53.333L79.333,53.333z M79.333,46.667H4.667v-40c0-2.205,1.795-4,4-4h66.667c2.206,0,4,1.795,4,4L79.333,46.667
			L79.333,46.667z"/>
	</g>
</g>
<g>
	<g>
		<path fill="#010101" d="M38,26.667H24.667V13.333c0-0.736-0.599-1.333-1.333-1.333c-8.823,0-16,7.177-16,15.999
			c0,8.823,7.177,16,16,16c8.823,0,16-7.179,16-16C39.333,27.264,38.736,26.667,38,26.667z M23.333,41.334
			C15.981,41.334,10,35.354,10,28c0-6.901,5.272-12.596,12-13.266V28c0,0.736,0.598,1.333,1.333,1.333H36.6
			C35.93,36.063,30.234,41.334,23.333,41.334z"/>
	</g>
</g>
<g>
	<g>
		<path fill="#010101" d="M28.667,6.667c-0.735,0-1.333,0.598-1.333,1.333v14.667c0,0.736,0.598,1.333,1.333,1.333h14.667
			c0.734,0,1.333-0.598,1.333-1.333C44.667,13.844,37.489,6.667,28.667,6.667z M30,21.333V9.4
			c6.29,0.626,11.307,5.644,11.934,11.933H30z"/>
	</g>
</g>
<g>
	<g>
		<path fill="#010101" d="M75.333,5.333H48.667c-0.735,0-1.334,0.597-1.334,1.333v36c0,0.734,0.599,1.333,1.334,1.333h26.666
			c0.735,0,1.334-0.599,1.334-1.333v-36C76.667,5.931,76.068,5.333,75.333,5.333z M74,41.334H50V8h24V41.334z"/>
	</g>
</g>
<g>
	<g>
		<path fill="#010101" d="M62,12h-8c-0.736,0-1.333,0.597-1.333,1.333s0.597,1.333,1.333,1.333h8c0.736,0,1.333-0.597,1.333-1.333
			S62.736,12,62,12z"/>
	</g>
</g>
<g>
	<g>
		<path fill="#010101" d="M70,17.333H54c-0.736,0-1.333,0.598-1.333,1.333C52.667,19.402,53.264,20,54,20h16
			c0.736,0,1.333-0.598,1.333-1.333C71.333,17.931,70.736,17.333,70,17.333z"/>
	</g>
</g>
<g>
	<g>
		<path fill="#010101" d="M62,22.667h-8c-0.736,0-1.333,0.597-1.333,1.333s0.597,1.333,1.333,1.333h8
			c0.736,0,1.333-0.597,1.333-1.333S62.736,22.667,62,22.667z"/>
	</g>
</g>
<g>
	<g>
		<path fill="#010101" d="M70,28H54c-0.736,0-1.333,0.598-1.333,1.333c0,0.737,0.597,1.333,1.333,1.333h16
			c0.736,0,1.333-0.598,1.333-1.333S70.736,28,70,28z"/>
	</g>
</g>
<g>
	<g>
		<path fill="#010101" d="M62,33.333h-8c-0.736,0-1.333,0.597-1.333,1.333S53.264,36,54,36h8c0.736,0,1.333-0.598,1.333-1.333
			S62.736,33.333,62,33.333z"/>
	</g>
</g>
<g>
	<g>
		<path fill="#010101" d="M44.667,52h-5.333C38.598,52,38,52.598,38,53.333s0.598,1.334,1.333,1.334h5.333
			c0.736,0,1.333-0.599,1.333-1.334C46,52.598,45.402,52,44.667,52z"/>
	</g>
</g>
</svg>
