<?xml version="1.0" encoding="utf-8"?>
<!-- Generator: Adobe Illustrator 16.0.0, SVG Export Plug-In . SVG Version: 6.00 Build 0)  -->
<!DOCTYPE svg PUBLIC "-//W3C//DTD SVG 1.1//EN" "http://www.w3.org/Graphics/SVG/1.1/DTD/svg11.dtd">
<svg version="1.1" id="Layer_1" xmlns="http://www.w3.org/2000/svg" xmlns:xlink="http://www.w3.org/1999/xlink" x="0px" y="0px"
	 width="83px" height="80px" viewBox="0 0 83 80" enable-background="new 0 0 83 80" xml:space="preserve">
<g>
	<g>
		<path fill="#010101" d="M46.602,14.094C42.659,10.152,37.417,7.98,31.84,7.98s-10.818,2.172-14.761,6.114
			c-8.14,8.14-8.14,21.383,0,29.523c3.942,3.944,9.185,6.115,14.761,6.115s10.819-2.171,14.761-6.115
			c3.943-3.943,6.114-9.185,6.114-14.762C52.716,23.28,50.545,18.037,46.602,14.094z M18.76,15.775
			c3.495-3.493,8.139-5.418,13.081-5.418c4.94,0,9.586,1.926,13.08,5.418c2.758,2.757,4.536,6.233,5.164,10.003l-6.48,6.338
			c-0.613-0.347-1.321-0.545-2.074-0.545c-1.467,0-2.762,0.75-3.522,1.885l-9.524-2.988c0-0.028,0.002-0.056,0.002-0.083
			c0-2.336-1.901-4.236-4.237-4.236c-2.336,0-4.237,1.9-4.237,4.236c0,0.764,0.205,1.48,0.559,2.1l-4.997,5.181
			C11.782,30.654,12.843,21.692,18.76,15.775z M43.389,35.808c0,1.025-0.834,1.859-1.859,1.859c-1.024,0-1.859-0.834-1.859-1.859
			s0.835-1.859,1.859-1.859C42.555,33.949,43.389,34.783,43.389,35.808z M26.107,30.385c0,1.025-0.834,1.859-1.859,1.859
			c-1.025,0-1.859-0.834-1.859-1.859c0-1.025,0.834-1.859,1.859-1.859C25.273,28.526,26.107,29.36,26.107,30.385z M44.92,41.937
			c-3.493,3.494-8.139,5.417-13.08,5.417s-9.586-1.923-13.081-5.417c-0.693-0.694-1.32-1.43-1.88-2.201l5.403-5.599
			c0.587,0.309,1.256,0.485,1.966,0.485c1.466,0,2.762-0.75,3.523-1.885l9.523,2.988c-0.001,0.028-0.002,0.056-0.002,0.083
			c0,2.336,1.9,4.236,4.236,4.236s4.237-1.9,4.237-4.236c0-0.719-0.182-1.397-0.499-1.993l5.071-4.958
			C50.339,33.797,48.414,38.442,44.92,41.937z"/>
	</g>
</g>
<g>
	<g>
		<path fill="#010101" d="M21.313,16.729l1.559,1.794c3.688-3.204,8.856-4.192,13.49-2.579l0.783-2.245
			C31.708,11.806,25.642,12.967,21.313,16.729z"/>
	</g>
</g>
<g>
	<g>
		<path fill="#010101" d="M40.196,15.141l-1.236,2.03c0.628,0.383,1.232,0.823,1.794,1.306l1.55-1.802
			C41.645,16.107,40.936,15.59,40.196,15.141z"/>
	</g>
</g>
<g>
	<g>
		<path fill="#010101" d="M34.685,42.233c-2.675,0.565-5.424,0.328-7.952-0.686l-0.883,2.207c1.916,0.769,3.939,1.156,5.979,1.156
			c1.115,0,2.236-0.116,3.347-0.35L34.685,42.233z"/>
	</g>
</g>
<g>
	<g>
		<path fill="#010101" d="M61.621,47.955l-1.727,1.727l-4.282-4.577c5.067-7.41,6.288-16.678,3.658-24.983l3.398-3.323
			c0.598,0.323,1.28,0.506,2.006,0.506c2.337,0,4.237-1.899,4.237-4.236c0-0.691-0.167-1.345-0.463-1.922l7.294-7.133V7.7h2.378V0
			H70.42v2.377h3.597l-7.199,7.039c-0.629-0.37-1.359-0.583-2.142-0.583c-2.336,0-4.236,1.9-4.236,4.236
			c0,0.748,0.195,1.45,0.536,2.06l-2.604,2.546c-1.401-3.338-3.456-6.464-6.171-9.179C40.974-2.73,22.707-2.73,11.481,8.496
			c-10,10-11.092,25.587-3.276,36.808l-2.001,2.074c-0.588-0.308-1.257-0.484-1.967-0.484C1.9,46.894,0,48.794,0,51.13
			s1.9,4.235,4.237,4.235c2.336,0,4.237-1.899,4.237-4.235c0-0.764-0.205-1.48-0.56-2.1l1.749-1.813
			c0.57,0.688,1.175,1.354,1.818,1.998c5.613,5.613,12.987,8.42,20.359,8.42c5.66,0,11.32-1.655,16.183-4.963l4.293,4.589
			l-1.786,1.784l20.79,20.718l11.09-11.09L61.621,47.955z M64.676,11.209c1.025,0,1.859,0.834,1.859,1.859
			c0,1.025-0.834,1.859-1.859,1.859s-1.859-0.834-1.859-1.859C62.816,12.043,63.65,11.209,64.676,11.209z M4.237,52.989
			c-1.025,0-1.859-0.835-1.859-1.859c0-1.025,0.834-1.858,1.859-1.858c1.025,0,1.859,0.833,1.859,1.858
			C6.095,52.154,5.261,52.989,4.237,52.989z M13.162,47.535c-10.298-10.3-10.298-27.058,0-37.357
			c5.149-5.151,11.914-7.725,18.679-7.725c6.765,0,13.529,2.575,18.678,7.725c10.3,10.298,10.3,27.057,0,37.357
			C40.219,57.834,23.461,57.834,13.162,47.535z M49.945,51.245c0.778-0.63,1.531-1.306,2.255-2.03
			c0.698-0.698,1.354-1.425,1.966-2.175l4.047,4.323l-4.215,4.214L49.945,51.245z M71.318,76.402L53.896,59.041l7.728-7.726
			l17.422,17.361L71.318,76.402z"/>
	</g>
</g>
<g>
	<g>
		<polygon fill="#010101" points="61.623,54.766 58.221,58.168 59.901,59.851 61.623,58.128 68.184,64.691 69.865,63.009 		"/>
	</g>
</g>
<g>
	<g>
		
			<rect x="70.753" y="65.52" transform="matrix(-0.7069 0.7073 -0.7073 -0.7069 170.0235 63.0763)" fill="#010101" width="2.379" height="2.491"/>
	</g>
</g>
<g>
	<g>
		<rect x="12.881" y="58.853" fill="#010101" width="2.377" height="2.591"/>
	</g>
</g>
<g>
	<g>
		<rect x="12.881" y="73.371" fill="#010101" width="2.377" height="2.591"/>
	</g>
</g>
<g>
	<g>
		<rect x="32.462" y="63.848" fill="#010101" width="2.377" height="2.592"/>
	</g>
</g>
<g>
	<g>
		<rect x="66.534" y="42.467" fill="#010101" width="2.378" height="2.59"/>
	</g>
</g>
<g>
	<g>
		<rect x="69.232" y="21.835" fill="#010101" width="2.378" height="2.59"/>
	</g>
</g>
<g>
	<g>
		<rect x="77.111" y="32.758" fill="#010101" width="2.378" height="2.592"/>
	</g>
</g>
</svg>
