<?xml version="1.0" encoding="utf-8"?>
<!-- Generator: Adobe Illustrator 16.0.0, SVG Export Plug-In . SVG Version: 6.00 Build 0)  -->
<!DOCTYPE svg PUBLIC "-//W3C//DTD SVG 1.1//EN" "http://www.w3.org/Graphics/SVG/1.1/DTD/svg11.dtd">
<svg version="1.1" id="Layer_1" xmlns="http://www.w3.org/2000/svg" xmlns:xlink="http://www.w3.org/1999/xlink" x="0px" y="0px"
	 width="83px" height="80px" viewBox="0 0 83 80" enable-background="new 0 0 83 80" xml:space="preserve">
<g>
	<g>
		<path fill="#010101" d="M80.093,0H1.274C0.57,0,0,0.571,0,1.274v16.308v61.153c0,0.703,0.57,1.273,1.274,1.273h78.819
			c0.704,0,1.273-0.57,1.273-1.273V17.582V1.274C81.366,0.571,80.797,0,80.093,0z M78.818,77.459H2.548V18.855h76.27V77.459
			L78.818,77.459z M78.818,16.307H2.548V2.548h76.27V16.307L78.818,16.307z"/>
	</g>
</g>
<g>
	<g>
		<path fill="#010101" d="M67.862,5.436H52.914c-0.704,0-1.274,0.57-1.274,1.274s0.57,1.274,1.274,1.274h14.948
			c0.703,0,1.273-0.57,1.273-1.274S68.565,5.436,67.862,5.436z"/>
	</g>
</g>
<g>
	<g>
		<path fill="#010101" d="M74.656,5.436h-2.718c-0.703,0-1.273,0.57-1.273,1.274s0.57,1.274,1.273,1.274h2.718
			c0.704,0,1.275-0.57,1.275-1.274C75.931,6.006,75.36,5.436,74.656,5.436z"/>
	</g>
</g>
<g>
	<g>
		<path fill="#010101" d="M42.042,4.077c-2.95,0-5.351,2.401-5.351,5.351s2.401,5.351,5.351,5.351c2.95,0,5.352-2.4,5.352-5.351
			C47.394,6.478,44.992,4.077,42.042,4.077z M42.042,12.231c-1.545,0-2.803-1.258-2.803-2.803s1.258-2.803,2.803-2.803
			c1.546,0,2.803,1.257,2.803,2.803S43.588,12.231,42.042,12.231z"/>
	</g>
</g>
<g>
	<g>
		<path fill="#010101" d="M27.094,4.077c-2.951,0-5.351,2.401-5.351,5.351s2.4,5.351,5.351,5.351c2.95,0,5.352-2.4,5.352-5.351
			C32.445,6.478,30.043,4.077,27.094,4.077z M27.094,12.231c-1.545,0-2.802-1.258-2.802-2.803s1.257-2.803,2.802-2.803
			s2.803,1.257,2.803,2.803S28.639,12.231,27.094,12.231z"/>
	</g>
</g>
<g>
	<g>
		<path fill="#010101" d="M12.146,4.077c-2.951,0-5.351,2.401-5.351,5.351s2.4,5.351,5.351,5.351s5.351-2.4,5.351-5.351
			C17.497,6.478,15.096,4.077,12.146,4.077z M12.146,12.231c-1.545,0-2.803-1.258-2.803-2.803s1.258-2.803,2.803-2.803
			s2.803,1.257,2.803,2.803S13.691,12.231,12.146,12.231z"/>
	</g>
</g>
<g>
	<g>
		<path fill="#010101" d="M26.838,36.2c0.027-1.021-0.344-1.99-1.046-2.731c-0.702-0.741-1.651-1.165-2.671-1.192
			c-1.018-0.028-1.99,0.344-2.732,1.045l-12.91,12.23c-0.773,0.733-1.208,1.765-1.193,2.829s0.479,2.084,1.273,2.794l12.91,11.552
			c0.702,0.628,1.606,0.974,2.547,0.974h0c1.086,0,2.125-0.464,2.849-1.273c1.405-1.57,1.271-3.992-0.3-5.396l-9.816-8.784
			l9.896-9.375C26.387,38.168,26.81,37.221,26.838,36.2z M23.893,37.021L12.992,47.348c-0.258,0.246-0.403,0.588-0.397,0.944
			c0.005,0.355,0.159,0.692,0.424,0.932l10.848,9.705c0.523,0.469,0.568,1.275,0.1,1.798c-0.245,0.274-0.583,0.426-0.95,0.426
			c-0.313,0-0.614-0.115-0.849-0.325L9.257,49.276c-0.265-0.237-0.419-0.575-0.424-0.932c-0.005-0.355,0.14-0.699,0.398-0.943
			l12.91-12.229c0.239-0.226,0.548-0.349,0.875-0.349c0.012,0,0.023,0,0.035,0c0.34,0.009,0.656,0.15,0.891,0.397
			c0.234,0.247,0.358,0.57,0.349,0.91C24.281,36.471,24.14,36.788,23.893,37.021z"/>
	</g>
</g>
<g>
	<g>
		<path fill="#010101" d="M73.888,45.552l-12.909-12.23c-1.53-1.448-3.954-1.383-5.403,0.147c-1.449,1.53-1.384,3.953,0.146,5.403
			l9.897,9.375l-9.817,8.784c-1.569,1.404-1.705,3.826-0.3,5.396c0.725,0.81,1.764,1.274,2.85,1.274h0.001
			c0.94,0,1.845-0.347,2.546-0.975l12.91-11.551c0.795-0.711,1.258-1.73,1.273-2.795S74.661,46.285,73.888,45.552z M72.109,49.276
			l-12.91,11.552c-0.234,0.209-0.535,0.324-0.848,0.324h-0.001c-0.368,0-0.706-0.151-0.951-0.425
			c-0.468-0.523-0.423-1.33,0.101-1.799l10.847-9.705c0.267-0.239,0.42-0.576,0.426-0.932c0.004-0.356-0.14-0.697-0.398-0.944
			L57.473,37.022c-0.51-0.483-0.532-1.291-0.048-1.802c0.249-0.264,0.587-0.397,0.925-0.397c0.314,0,0.63,0.115,0.876,0.349
			l12.91,12.229c0.258,0.244,0.402,0.588,0.396,0.943l0,0l0,0C72.528,48.701,72.374,49.04,72.109,49.276z"/>
	</g>
</g>
<g>
	<g>
		<path fill="#010101" d="M50.488,36.462c-0.264-0.985-0.897-1.81-1.782-2.318l0,0c-1.827-1.051-4.169-0.421-5.22,1.405
			l-12.91,22.423c-1.051,1.825-0.421,4.168,1.405,5.219c0.58,0.334,1.239,0.511,1.904,0.511c1.364,0,2.635-0.734,3.315-1.915
			l12.91-22.424C50.62,38.479,50.755,37.447,50.488,36.462z M47.902,38.091l-12.91,22.424c-0.227,0.394-0.65,0.638-1.106,0.638
			c-0.224,0-0.436-0.058-0.633-0.17c-0.609-0.351-0.819-1.132-0.468-1.739l12.91-22.424c0.234-0.409,0.663-0.637,1.105-0.637
			c0.216,0,0.434,0.054,0.634,0.169c0.295,0.17,0.505,0.444,0.595,0.773C48.117,37.453,48.073,37.797,47.902,38.091z"/>
	</g>
</g>
</svg>
