<?xml version="1.0" encoding="utf-8"?>
<!-- Generator: Adobe Illustrator 16.0.0, SVG Export Plug-In . SVG Version: 6.00 Build 0)  -->
<!DOCTYPE svg PUBLIC "-//W3C//DTD SVG 1.1//EN" "http://www.w3.org/Graphics/SVG/1.1/DTD/svg11.dtd">
<svg version="1.1" id="Layer_1" xmlns="http://www.w3.org/2000/svg" xmlns:xlink="http://www.w3.org/1999/xlink" x="0px" y="0px"
	 width="83px" height="80px" viewBox="0 0 83 80" enable-background="new 0 0 83 80" xml:space="preserve">
<g>
	<g>
		<g>
			<path fill="#010101" d="M70.693,7.855v28.343H81V7.855H70.693z M78.424,33.621h-5.152V10.432h5.152V33.621z"/>
			<path fill="#010101" d="M57.811,20.889c-0.824-0.738-1.684-1.429-2.576-2.069v-0.658h-0.971
				c-5.021-3.321-10.955-5.153-17.063-5.153h-1.29v32.208h32.208V43.93c0-2.619-0.349-5.207-0.997-7.729h0.997V13.008H57.811V20.889
				z M38.486,42.639V15.613c3.646,0.167,7.198,1.053,10.472,2.548h-4.03v18.037h10.307V22.111c0.902,0.746,1.771,1.535,2.576,2.394
				v11.693h6.646c0.596,2.101,0.959,4.257,1.062,6.44H38.486L38.486,42.639z M52.657,20.738v12.883h-5.153V20.738H52.657z
				 M60.387,15.584h5.153v18.037h-5.153V15.584z"/>
			
				<rect x="9.808" y="44.251" transform="matrix(0.7071 -0.7071 0.7071 0.7071 -27.0597 25.7472)" fill="#010101" width="15.485" height="2.575"/>
			<path fill="#010101" d="M16.584,40.063c0-2.131-1.734-3.864-3.865-3.864c-2.13,0-3.865,1.733-3.865,3.864
				c0,2.13,1.734,3.865,3.865,3.865C14.852,43.928,16.584,42.193,16.584,40.063z M11.432,40.063c0-0.711,0.577-1.287,1.289-1.287
				c0.711,0,1.288,0.576,1.288,1.287c0,0.71-0.577,1.289-1.288,1.289C12.009,41.352,11.432,40.773,11.432,40.063z"/>
			<path fill="#010101" d="M23.025,46.504c-2.131,0-3.864,1.732-3.864,3.865c0,2.131,1.733,3.863,3.864,3.863
				c2.131,0,3.865-1.732,3.865-3.863C26.891,48.236,25.157,46.504,23.025,46.504z M23.025,51.657c-0.711,0-1.289-0.577-1.289-1.288
				s0.578-1.288,1.289-1.288s1.289,0.577,1.289,1.288S23.736,51.657,23.025,51.657z"/>
			<path fill="#010101" d="M57.627,66.398c3.479-5.129,5.337-11.084,5.337-17.317v-1.289H33.333V18.161h-1.288
				c-1.273,0-2.568,0.112-3.865,0.276V0.125H1.125v18.036h16.214l2.517,2.517C8.578,25.52,1.125,36.686,1.125,49.081
				C1.125,66.128,14.996,80,32.044,80c7.476,0,14.599-2.702,20.226-7.584l3.985,3.984c0.782,0.783,1.813,1.178,2.843,1.178
				c1.03,0,2.063-0.395,2.844-1.178c1.567-1.566,1.567-4.117,0-5.688L57.627,66.398z M18.406,15.584H3.702V2.702h21.901v20.08
				L18.406,15.584z M32.044,77.424c-15.628,0-28.343-12.715-28.343-28.343c0-11.712,7.261-22.22,18.136-26.422l6.343,6.342v-7.979
				c0.861-0.119,1.723-0.213,2.576-0.254V50.37h29.604c-0.227,5.083-1.803,9.93-4.584,14.179l-2.055-2.055
				c0.145-0.584,0.225-1.191,0.225-1.817c0-4.263-3.467-7.729-7.729-7.729s-7.73,3.468-7.73,7.729c0,4.263,3.468,7.729,7.73,7.729
				c0.626,0,1.234-0.083,1.818-0.227l2.408,2.407C45.309,74.99,38.835,77.424,32.044,77.424z M51.369,60.676
				c0,2.842-2.313,5.153-5.153,5.153c-2.84,0-5.153-2.312-5.153-5.153c0-2.843,2.313-5.152,5.153-5.152
				C49.057,55.523,51.369,57.833,51.369,60.676z M60.12,74.58c-0.563,0.563-1.479,0.563-2.043,0l-7.517-7.516
				c0.803-0.549,1.496-1.241,2.043-2.045l7.517,7.518C60.684,73.102,60.684,74.018,60.12,74.58z"/>
			<rect x="6.277" y="5.278" fill="#010101" width="16.748" height="2.577"/>
			<rect x="6.277" y="10.432" fill="#010101" width="16.748" height="2.577"/>
			<rect x="44.928" y="59.387" fill="#010101" width="2.576" height="2.577"/>
			<rect x="33.333" y="59.387" fill="#010101" width="2.577" height="2.577"/>
			<rect x="28.18" y="59.387" fill="#010101" width="2.576" height="2.577"/>
			<rect x="23.025" y="59.387" fill="#010101" width="2.578" height="2.577"/>
		</g>
	</g>
</g>
</svg>
