<?xml version="1.0" encoding="utf-8"?>
<!-- Generator: Adobe Illustrator 16.0.0, SVG Export Plug-In . SVG Version: 6.00 Build 0)  -->
<!DOCTYPE svg PUBLIC "-//W3C//DTD SVG 1.1//EN" "http://www.w3.org/Graphics/SVG/1.1/DTD/svg11.dtd">
<svg version="1.1" id="Layer_1" xmlns="http://www.w3.org/2000/svg" xmlns:xlink="http://www.w3.org/1999/xlink" x="0px" y="0px"
	 width="83px" height="80px" viewBox="0 0 83 80" enable-background="new 0 0 83 80" xml:space="preserve">
<g>
	<g>
		<path fill="#010101" d="M77.313,51.969V7.031C77.313,3.154,74.158,0,70.281,0H18.563c-3.877,0-7.031,3.154-7.031,7.031v2.5h-2.5
			C5.154,9.531,2,12.686,2,16.563s3.154,7.031,7.031,7.031h2.5v9.375h-2.5C5.154,32.969,2,36.123,2,40s3.154,7.031,7.031,7.031h2.5
			v9.375h-2.5C5.154,56.406,2,59.561,2,63.438s3.154,7.031,7.031,7.031h2.5v2.344c0,1.869,0.718,3.648,2.022,5.013
			C14.895,79.229,16.674,80,18.563,80h47.031C74.641,80,82,72.57,82,63.438C82,58.979,80.211,54.928,77.313,51.969z M9.031,18.906
			c-1.292,0-2.344-1.051-2.344-2.344s1.051-2.344,2.344-2.344h4.844c1.292,0,2.344,1.051,2.344,2.344s-1.051,2.344-2.344,2.344
			H9.031z M9.031,42.344c-1.292,0-2.344-1.051-2.344-2.344s1.051-2.344,2.344-2.344h4.844c1.292,0,2.344,1.051,2.344,2.344
			s-1.051,2.344-2.344,2.344H9.031z M13.875,65.781H9.031c-1.292,0-2.344-1.051-2.344-2.344s1.051-2.345,2.344-2.345h4.844
			c1.292,0,2.344,1.052,2.344,2.345S15.167,65.781,13.875,65.781z M18.563,75.313c-1.249,0-2.344-1.168-2.344-2.5v-2.746
			c2.728-0.969,4.688-3.572,4.688-6.629c0-3.056-1.959-5.66-4.688-6.627V46.628c2.728-0.968,4.688-3.571,4.688-6.628
			c0-3.056-1.959-5.66-4.688-6.628V23.19c2.728-0.968,4.688-3.572,4.688-6.628s-1.959-5.66-4.688-6.628V7.031
			c0-1.293,1.051-2.344,2.344-2.344h51.719c1.293,0,2.344,1.051,2.344,2.344v41.585c-2.133-1.017-4.517-1.585-7.03-1.585
			c-9.048,0-16.406,7.359-16.406,16.406c0,4.652,1.912,8.862,4.981,11.875H18.563L18.563,75.313z M65.594,75.313
			c-6.462,0-11.719-5.326-11.719-11.875c0-6.461,5.257-11.719,11.719-11.719c6.463,0,11.719,5.258,11.719,11.719
			C77.313,69.984,72.057,75.313,65.594,75.313z"/>
	</g>
</g>
<g>
	<g>
		<path fill="#010101" d="M65.594,18.906H51.531c-1.295,0-2.344,1.049-2.344,2.344s1.049,2.344,2.344,2.344h14.063
			c1.295,0,2.344-1.049,2.344-2.344S66.889,18.906,65.594,18.906z"/>
	</g>
</g>
<g>
	<g>
		<path fill="#010101" d="M65.594,37.656H51.531c-1.295,0-2.344,1.049-2.344,2.344s1.049,2.344,2.344,2.344h14.063
			c1.295,0,2.344-1.049,2.344-2.344S66.889,37.656,65.594,37.656z"/>
	</g>
</g>
<g>
	<g>
		<path fill="#010101" d="M70.281,61.094h-2.344V58.75c0-1.295-1.049-2.344-2.345-2.344c-1.295,0-2.344,1.049-2.344,2.344v4.688
			c0,1.295,1.049,2.345,2.344,2.345h4.688c1.295,0,2.344-1.05,2.344-2.345S71.576,61.094,70.281,61.094z"/>
	</g>
</g>
<g>
	<g>
		<path fill="#010101" d="M43.657,14.905c-0.915-0.915-2.399-0.915-3.314,0l-7.718,7.718l-3.689-3.689
			c-0.915-0.915-2.399-0.915-3.314,0c-0.915,0.916-0.915,2.399,0,3.314l5.347,5.347c0.458,0.458,1.058,0.687,1.657,0.687
			s1.199-0.229,1.657-0.687l9.375-9.375C44.572,17.305,44.572,15.82,43.657,14.905z"/>
	</g>
</g>
<g>
	<g>
		<path fill="#010101" d="M43.657,33.655c-0.915-0.915-2.399-0.915-3.314,0l-7.718,7.718l-3.689-3.689
			c-0.915-0.915-2.399-0.915-3.314,0c-0.915,0.916-0.915,2.399,0,3.314l5.347,5.348c0.458,0.457,1.058,0.687,1.657,0.687
			s1.199-0.229,1.657-0.687l9.375-9.375C44.572,36.055,44.572,34.57,43.657,33.655z"/>
	</g>
</g>
<g>
	<g>
		<path fill="#010101" d="M43.657,52.404c-0.915-0.914-2.399-0.914-3.314,0l-7.718,7.719l-3.689-3.689
			c-0.915-0.914-2.399-0.914-3.314,0c-0.915,0.916-0.915,2.399,0,3.314l5.347,5.348c0.458,0.457,1.058,0.687,1.657,0.687
			s1.199-0.229,1.657-0.687l9.375-9.375C44.572,54.805,44.572,53.32,43.657,52.404z"/>
	</g>
</g>
</svg>
