<?xml version="1.0" encoding="utf-8"?>
<!-- Generator: Adobe Illustrator 16.0.0, SVG Export Plug-In . SVG Version: 6.00 Build 0)  -->
<!DOCTYPE svg PUBLIC "-//W3C//DTD SVG 1.1//EN" "http://www.w3.org/Graphics/SVG/1.1/DTD/svg11.dtd">
<svg version="1.1" id="Layer_1" xmlns="http://www.w3.org/2000/svg" xmlns:xlink="http://www.w3.org/1999/xlink" x="0px" y="0px"
	 width="83px" height="80px" viewBox="0 0 83 80" enable-background="new 0 0 83 80" xml:space="preserve">
<g>
	<g>
		<g>
			<path fill="#010101" d="M75.839,18.195v-5.826L63.471,0H26.807v18.064H7.452C3.894,18.064,1,20.958,1,24.516v41.291
				c0,3.558,2.894,6.451,6.452,6.451h15.484v5.162h-5.161V80h46.452v-2.58h-5.162v-5.162h15.484c3.557,0,6.451-2.895,6.451-6.451
				V24.516C81,21.401,78.779,18.795,75.839,18.195z M62.936,3.115l9.789,9.789h-9.789V3.115z M29.387,2.581h30.968v12.903h12.901
				v41.292h-43.87V2.581z M56.484,77.42H25.516v-5.162h30.968V77.42z M78.42,65.807c0,2.135-1.736,3.871-3.871,3.871H7.452
				c-2.134,0-3.871-1.736-3.871-3.871v-1.291H78.42V65.807z M78.42,61.936H3.581V24.516c0-2.134,1.737-3.871,3.871-3.871h19.355
				v38.71h49.032V20.883c1.498,0.534,2.581,1.953,2.581,3.633V61.936L78.42,61.936z"/>
			<path fill="#010101" d="M24.226,32.258c0-4.979-4.053-9.032-9.032-9.032s-9.032,4.053-9.032,9.032s4.053,9.033,9.032,9.033
				S24.226,37.237,24.226,32.258z M16.484,29.677c0,0.712-0.578,1.291-1.291,1.291c-0.712,0-1.29-0.578-1.29-1.291
				c0-0.712,0.578-1.29,1.29-1.29C15.906,28.387,16.484,28.965,16.484,29.677z M15.193,38.709c-0.896,0-1.751-0.186-2.527-0.518
				c0.24-1.175,1.282-2.063,2.527-2.063c1.245,0,2.288,0.888,2.528,2.063C16.944,38.523,16.09,38.709,15.193,38.709z M15.193,33.549
				c-2.105,0-3.914,1.27-4.715,3.081c-1.068-1.152-1.736-2.682-1.736-4.372c0-3.29,2.485-5.983,5.672-6.373
				c-1.763,0.361-3.091,1.925-3.091,3.792C11.323,31.812,13.06,33.549,15.193,33.549c2.134,0,3.871-1.737,3.871-3.872
				c0-1.867-1.329-3.431-3.092-3.792c3.188,0.39,5.672,3.083,5.672,6.373c0,1.69-0.668,3.22-1.737,4.372
				C19.107,34.818,17.299,33.549,15.193,33.549z"/>
			<path fill="#010101" d="M6.161,50.322c0,4.979,4.053,9.033,9.032,9.033s9.032-4.055,9.032-9.033c0-4.979-4.053-9.031-9.032-9.031
				S6.161,45.344,6.161,50.322z M15.193,56.773c-0.896,0-1.751-0.187-2.527-0.519c0.24-1.175,1.282-2.063,2.527-2.063
				c1.245,0,2.288,0.889,2.528,2.063C16.944,56.588,16.09,56.773,15.193,56.773z M16.484,47.742c0,0.712-0.578,1.29-1.291,1.29
				c-0.712,0-1.29-0.578-1.29-1.29c0-0.713,0.578-1.291,1.29-1.291C15.906,46.451,16.484,47.029,16.484,47.742z M14.414,43.949
				c-1.763,0.361-3.091,1.926-3.091,3.793c0,2.134,1.737,3.871,3.871,3.871c2.134,0,3.871-1.737,3.871-3.871
				c0-1.867-1.329-3.432-3.092-3.793c3.188,0.391,5.672,3.083,5.672,6.373c0,1.689-0.668,3.22-1.737,4.371
				c-0.801-1.812-2.609-3.08-4.715-3.08c-2.105,0-3.914,1.27-4.715,3.08c-1.068-1.151-1.736-2.682-1.736-4.371
				C8.742,47.032,11.227,44.34,14.414,43.949z"/>
			<path fill="#010101" d="M47.451,10.211V7.742H34.548v12.903h12.903v-7.263l4.621-3.301l-1.5-2.099L47.451,10.211z M44.871,12.056
				l-2.441,1.743l-1.808-1.808l-1.825,1.824l3.354,3.354l2.721-1.943v2.839h-7.742v-7.742h7.742V12.056z"/>
			<path fill="#010101" d="M47.451,25.695v-2.47H34.548v12.903h12.903v-7.263l4.621-3.301l-1.5-2.099L47.451,25.695z M44.871,27.54
				l-2.441,1.743l-1.808-1.808L38.797,29.3l3.354,3.354l2.721-1.943v2.839h-7.742v-7.742h7.742V27.54z"/>
			<path fill="#010101" d="M47.451,41.18v-2.471H34.548v12.904h12.903V44.35l4.621-3.301l-1.5-2.098L47.451,41.18z M44.871,43.023
				l-2.441,1.742l-1.808-1.808l-1.825,1.824l3.354,3.354l2.721-1.942v2.839h-7.742v-7.741h7.742V43.023z"/>
			<rect x="52.613" y="18.064" fill="#010101" width="15.482" height="2.581"/>
			<rect x="52.613" y="33.549" fill="#010101" width="15.482" height="2.58"/>
			<rect x="52.613" y="49.032" fill="#010101" width="15.482" height="2.581"/>
			<rect x="52.613" y="43.871" fill="#010101" width="15.482" height="2.58"/>
			<rect x="52.613" y="28.387" fill="#010101" width="15.482" height="2.581"/>
			<rect x="52.613" y="12.903" fill="#010101" width="5.16" height="2.581"/>
		</g>
	</g>
</g>
</svg>
