<?xml version="1.0" encoding="utf-8"?>
<!-- Generator: Adobe Illustrator 16.0.0, SVG Export Plug-In . SVG Version: 6.00 Build 0)  -->
<!DOCTYPE svg PUBLIC "-//W3C//DTD SVG 1.1//EN" "http://www.w3.org/Graphics/SVG/1.1/DTD/svg11.dtd">
<svg version="1.1" id="Layer_1" xmlns="http://www.w3.org/2000/svg" xmlns:xlink="http://www.w3.org/1999/xlink" x="0px" y="0px"
	 width="83px" height="80px" viewBox="0 0 83 80" enable-background="new 0 0 83 80" xml:space="preserve">
<g>
	<g>
		<g>
			<path fill="#010101" d="M56.139,76.77H43.523v-3.672c0-0.896-0.719-1.617-1.615-1.617c-0.897,0-1.616,0.721-1.616,1.617v3.672
				H27.677c-0.897,0-1.616,0.717-1.616,1.615c0,0.896,0.718,1.615,1.616,1.615h28.478c0.897,0,1.617-0.719,1.617-1.615
				C57.755,77.486,57.037,76.77,56.139,76.77z"/>
			<path fill="#010101" d="M39.444,45.223c-4.047,0.946-7.181,4.293-7.817,8.453h-6.462c0.669-2.447,2.905-4.242,5.549-4.242
				c0.897,0,1.616-0.719,1.616-1.615s-0.718-1.615-1.616-1.615c-4.439,0-8.144,3.23-8.862,7.475H9.105
				c-0.164-0.049-0.31-0.08-0.49-0.08C7.718,53.594,7,54.313,7,55.21v8.813c0,2.039,1.665,3.703,3.705,3.703h62.406
				c2.041,0,3.705-1.664,3.705-3.703V21.069c0-2.04-1.664-3.705-3.705-3.705H55.648c-0.896,0-1.615,0.718-1.615,1.616
				s0.719,1.616,1.615,1.616h17.463c0.262,0,0.474,0.212,0.474,0.473v42.97c0,0.262-0.212,0.475-0.474,0.475H10.705
				c-0.261,0-0.473-0.213-0.473-0.475v-7.115h58.293c0.897,0,1.617-0.719,1.617-1.615s-0.72-1.615-1.617-1.615h-6.901
				c-0.72-4.242-4.424-7.476-8.862-7.476c-0.896,0-1.615,0.718-1.615,1.616c0,0.896,0.72,1.615,1.615,1.615
				c2.66,0,4.881,1.795,5.549,4.242h-6.43c-0.686-4.635-4.505-8.258-9.204-8.684C40.733,44.896,39.444,45.223,39.444,45.223z
				 M41.761,48.191c3.346,0,6.135,2.352,6.838,5.482H34.923C35.609,50.543,38.416,48.191,41.761,48.191z"/>
			<path fill="#010101" d="M29.848,18.98c0-0.897-0.718-1.616-1.616-1.616H10.705C8.665,17.364,7,19.029,7,21.069v28.185
				c0,0.896,0.718,1.615,1.616,1.615c0.898,0,1.616-0.719,1.616-1.615V21.069c0-0.261,0.212-0.473,0.473-0.473h17.527
				C29.13,20.596,29.848,19.877,29.848,18.98z"/>
			<path fill="#010101" d="M47.914,43.574c0.896,0,1.615-0.719,1.615-1.615v-3.118h3.559c0.896,0,1.615-0.718,1.615-1.616V34.01
				c0-1.094-0.311-2.171-0.898-3.101l-2.496-3.933c-0.244-0.375-0.357-0.816-0.357-1.256V12.811c0-1.958-0.701-3.852-1.99-5.336
				l-5.975-6.92C42.676,0.196,42.234,0,41.761,0l0,0c-0.473,0-0.914,0.212-1.224,0.571L34.629,7.49
				c-1.256,1.485-1.958,3.362-1.958,5.304v12.827c0,0.49-0.146,0.947-0.424,1.338l-2.66,3.835c-0.686,0.979-1.045,2.122-1.045,3.313
				v3.117c0,0.897,0.718,1.616,1.616,1.616l2.938,0.016v3.117c0,0.897,0.718,1.615,1.615,1.615c0.898,0,1.616-0.718,1.616-1.615
				v-3.117l0.017-0.016c0.897,0,1.616-0.718,1.616-1.616s-0.718-1.616-1.616-1.616h-4.57v-1.501c0-0.522,0.163-1.028,0.457-1.469
				l2.66-3.835c0.653-0.947,0.996-2.04,0.996-3.199V12.795c0-1.175,0.424-2.317,1.175-3.199l4.733-5.5l4.732,5.483
				c0.768,0.898,1.19,2.04,1.19,3.215v12.909c0,1.061,0.293,2.089,0.864,2.987l2.497,3.933c0.262,0.408,0.394,0.881,0.394,1.371v1.6
				H47.13c-0.897,0-1.614,0.718-1.614,1.616c0,0.587,0.311,1.093,0.782,1.371v3.379C46.299,42.855,47.033,43.574,47.914,43.574z"/>
		</g>
		<path fill="#010101" d="M39.982,38.368v6.968c0,0.865,0.653,1.633,1.518,1.682c0.932,0.049,1.714-0.686,1.714-1.615V38.37
			c0-0.898-0.718-1.616-1.616-1.616l0,0C40.701,36.752,39.982,37.47,39.982,38.368z"/>
	</g>
</g>
</svg>
