<?xml version="1.0" encoding="utf-8"?>
<!-- Generator: Adobe Illustrator 16.0.0, SVG Export Plug-In . SVG Version: 6.00 Build 0)  -->
<!DOCTYPE svg PUBLIC "-//W3C//DTD SVG 1.1//EN" "http://www.w3.org/Graphics/SVG/1.1/DTD/svg11.dtd">
<svg version="1.1" id="Layer_1" xmlns="http://www.w3.org/2000/svg" xmlns:xlink="http://www.w3.org/1999/xlink" x="0px" y="0px"
	 width="83px" height="80px" viewBox="0 0 83 80" enable-background="new 0 0 83 80" xml:space="preserve">
<g>
	<g>
		<path fill="#010101" d="M63.48,4.027H51.85v2.357h11.633c0.893,0,1.617,0.726,1.617,1.618c0,0.259-0.06,0.507-0.177,0.736
			l2.097,1.079c0.287-0.558,0.438-1.185,0.438-1.814C67.457,5.81,65.674,4.027,63.48,4.027z"/>
	</g>
</g>
<g>
	<g>
		<rect x="45.521" y="4.027" fill="#010101" width="2.93" height="2.357"/>
	</g>
</g>
<g>
	<g>
		<polygon fill="#010101" points="71.419,25.883 69.751,27.549 71.217,29.015 66.377,33.855 68.043,35.522 74.55,29.015 		"/>
	</g>
</g>
<g>
	<g>
		
			<rect x="63.841" y="35.769" transform="matrix(0.707 -0.7072 0.7072 0.707 -7.0998 56.7602)" fill="#010101" width="2.22" height="2.358"/>
	</g>
</g>
<g>
	<g>
		<path fill="#010101" d="M81.098,18.976l-0.871-0.873c-2.533-2.534-6.656-2.534-9.188,0l-0.853,0.853l-1.666,1.666l-4.321,4.321
			v-8.97c4.077-0.364,7.286-3.798,7.286-7.969C71.484,3.59,67.895,0,63.48,0H9.297C4.885,0,1.295,3.59,1.295,8.002v63.713h6.824
			v8.162h56.079V45.063l14.381-14.38l1.259-1.259l0.408-0.408l0.852-0.852C82.324,26.937,83,25.305,83,23.569
			C83,21.834,82.324,20.202,81.098,18.976z M14.963,2.357h48.52c3.113,0,5.646,2.532,5.646,5.645c0,3.113-2.532,5.645-5.646,5.645
			h-48.52c1.443-1.448,2.336-3.444,2.336-5.645S16.406,3.806,14.963,2.357z M8.119,13.647L8.119,13.647v55.712H3.652V8.002
			c0-3.113,2.532-5.645,5.645-5.645c3.112,0,5.645,2.532,5.645,5.645c0,3.113-2.532,5.645-5.645,5.645H8.119z M61.841,77.521
			L61.841,77.521H10.476V16.004h51.365V27.3l-5.108,5.109H15.927v2.357h38.446l-4.934,4.933H15.927v2.357h31.157L42.15,46.99H15.927
			v2.357h23.866l-0.411,0.41l-1.34,4.521H15.927v2.357h21.416L35.88,61.57H15.927v2.355H57.57V61.57H43.531l5.91-1.754l3.182-3.18
			h4.947v-2.357h-2.592l6.861-6.859L61.841,77.521L61.841,77.521z M40.994,52.613l5.592,5.594l-7.949,2.355L40.994,52.613z
			 M48.82,57.107l-6.728-6.729l28.091-28.091l6.729,6.726L48.82,57.107z M79.432,26.496l-0.854,0.853l-6.727-6.728l0.853-0.852
			c1.614-1.614,4.239-1.614,5.854,0l0.871,0.872c0.782,0.782,1.213,1.822,1.213,2.928C80.645,24.675,80.212,25.714,79.432,26.496z"
			/>
	</g>
</g>
</svg>
