<svg xmlns="http://www.w3.org/2000/svg" xmlns:xlink="http://www.w3.org/1999/xlink" width="365" height="365" viewBox="0 0 365 365">
  <defs>
    <clipPath id="clip-java-icon">
      <rect width="365" height="365"/>
    </clipPath>
  </defs>
  <g id="java-icon" clip-path="url(#clip-java-icon)">
    <g id="java-icon-2" data-name="java-icon" transform="translate(44.006 -0.001)">
      <path id="Path_6" data-name="Path 6" d="M91,102s-14.03,8.532,9.752,10.973c28.63,3.65,43.88,3.046,75.567-3.046a114.292,114.292,0,0,0,20.109,9.752C125.139,150.162,34.914,117.859,90.988,102ZM81.874,62.39S66.635,73.967,90.406,76.42c31.082,3.046,55.458,3.65,97.524-4.871a37.185,37.185,0,0,0,14.623,9.137C116.618,106.281,20.326,83.127,81.874,62.4Zm168.21,69.465s10.357,8.532-11.577,15.239c-40.835,12.2-171.255,15.855-207.824,0-12.8-5.475,11.577-13.4,19.391-14.623a60.946,60.946,0,0,1,12.2-1.825c-14.03-9.752-93.247,20.109-40.219,28.63,145.659,23.771,265.723-10.357,227.933-27.421ZM97.592,20.939S31.162,36.794,73.821,42.269c18.284,2.441,54.237,1.825,87.761-.6,27.421-2.441,54.865-7.3,54.865-7.3A146.878,146.878,0,0,0,199.987,42.9C132.348,60.576,2.52,52.649,39.705,34.364c31.687-15.239,57.9-13.4,57.9-13.4ZM216.447,87.37C284.7,52.01,253.016,17.9,231.07,22.159a38.525,38.525,0,0,0-7.927,2.441,10.447,10.447,0,0,1,6.091-4.871c43.276-15.239,77.4,45.705-14.03,69.465a7.627,7.627,0,0,0,1.22-1.825ZM104.322,183.662c65.815,4.266,166.385-2.441,168.814-33.535,0,0-4.871,12.2-54.237,21.33-56.074,10.357-125.55,9.125-166.385,2.441,0,0,8.532,7.3,51.808,9.752Z" transform="translate(0 180.179)" fill="#4e7896"/>
      <path id="Path_7" data-name="Path 7" d="M95.736,0s37.789,38.394-35.953,96.293c-59.119,46.926-13.4,73.742,0,104.22C25.039,169.431.059,142,17.123,116.414,42.1,78.614,110.975,60.443,95.736,0ZM76.345,174.918c17.68,20.109-4.871,38.394-4.871,38.394s45.1-23.155,24.375-51.808c-18.889-27.421-33.535-40.835,45.705-86.54,0,0-124.934,31.082-65.21,99.954Z" transform="translate(79.374 0)" fill="#f58219"/>
    </g>
  </g>
</svg>
