<svg xmlns="http://www.w3.org/2000/svg" xmlns:xlink="http://www.w3.org/1999/xlink" width="365" height="365" viewBox="0 0 365 365">
  <defs>
    <clipPath id="clip-mysql-icon">
      <rect width="365" height="365"/>
    </clipPath>
  </defs>
  <g id="mysql-icon" clip-path="url(#clip-mysql-icon)">
    <g id="mysql-icon-2" data-name="mysql-icon" transform="translate(0.8 1.755)">
      <path id="Path_8" data-name="Path 8" d="M.2,258.2h12V210.9l18.5,41.2c2.2,5,5.2,6.8,11.1,6.8s8.8-1.8,10.9-6.8l18.5-41.2v47.3h12V211c0-4.6-1.8-6.8-5.6-8-9.1-2.8-15.2-.4-18,5.8L41.4,249.5,23.8,208.8c-2.6-6.1-8.9-8.6-18-5.8C2,204.2.2,206.4.2,211v47.2Zm93.1-38.5h12v26.1c-.1,1.4.5,4.7,7,4.8,3.3.1,25.8,0,26.1,0v-31h12c.1,0,0,42.3,0,42.5.1,10.4-13,12.7-18.9,12.9h-38v-8.1h37.9c7.7-.8,6.8-4.6,6.8-5.9v-3.1H112.7c-11.8-.1-19.4-5.3-19.5-11.2.1-.7.3-26.8.1-27Z" fill="#00618a"/>
      <path id="Path_9" data-name="Path 9" d="M159.5,258.2H194a26.54,26.54,0,0,0,11.1-2.3c5.2-2.4,7.7-5.6,7.7-9.8v-8.8c0-3.5-2.9-6.7-8.5-8.8a28.572,28.572,0,0,0-10.3-1.8H179.5c-4.8,0-7.1-1.5-7.7-4.7a4.1,4.1,0,0,1-.1-1.1v-5.5a3.751,3.751,0,0,1,.1-1c.6-2.5,1.8-3.2,6.1-3.6.3,0,.8-.1,1.2-.1h34.2v-8H179.7c-4.8,0-7.4.3-9.7,1-7.1,2.2-10.3,5.8-10.3,11.9v7c0,5.4,6.1,10,16.4,11.1,1.2.1,2.3.2,3.5.2H192a5.283,5.283,0,0,1,1.3.1c3.8.3,5.4,1,6.6,2.4a2.8,2.8,0,0,1,.9,2.1v7a4.109,4.109,0,0,1-1.7,2.8A8.991,8.991,0,0,1,194,250c-.5,0-.8.1-1.3.1H159.6l-.1,8.1Zm128-13.9c0,8.2,6.1,12.8,18.4,13.7,1.1.1,2.3.1,3.5.2h31.2v-8H309.1c-7,0-9.7-1.8-9.7-6V202.9h-12l.1,41.4Zm-67.1.4V216.2c0-7.2,5.1-11.6,15.1-13a17.745,17.745,0,0,1,3.2-.2h22.7c1.1,0,2.2.1,3.3.2,10,1.4,15.1,5.8,15.1,13v28.5c0,5.9-2.2,9-7.1,11.1l11.8,10.7H270.6l-9.5-8.6-9.6.6H238.7a25.7,25.7,0,0,1-7-1c-7.6-2.2-11.3-6.2-11.3-12.8Zm12.9-.7a5.02,5.02,0,0,0,.2,1.2c.7,3.3,3.8,5.2,8.5,5.2h11l-10-9h13.9l8.7,7.9a5.638,5.638,0,0,0,3-3.8,4.868,4.868,0,0,0,.1-1.2V217a4.484,4.484,0,0,0-.1-1.1c-.7-3.1-3.8-4.8-8.4-4.8H242.1c-5.3,0-8.8,2.3-8.8,5.9v27Z" fill="#e48e00"/>
      <g id="Group_2" data-name="Group 2">
        <path id="Path_10" data-name="Path 10" d="M351.2,189.6c-7.4-.2-13,.5-17.8,2.5-1.4.6-3.5.6-3.8,2.3.8.8.9,2,1.5,2.9a22.052,22.052,0,0,0,4.8,5.7,62.732,62.732,0,0,0,5.9,4.2c3.6,2.2,7.6,3.5,11.1,5.7,2,1.3,4.1,2.9,6.1,4.4,1,.7,1.7,1.9,2.9,2.3v-.2c-.7-.9-.8-2-1.5-2.9l-2.7-2.7a44.078,44.078,0,0,0-9.6-9.2c-2.9-2.1-9.3-4.8-10.5-8.2l-.2-.2a44.438,44.438,0,0,0,6.3-1.5c3.1-.8,6-.6,9.2-1.5l4.4-1.3v-.8c-1.6-1.7-2.8-3.9-4.6-5.4a129.057,129.057,0,0,0-15.1-11.3c-2.9-1.8-6.5-3-9.6-4.6-1-.5-2.9-.8-3.6-1.7-1.6-2.1-2.5-4.7-3.8-7.1-2.6-5.1-5.2-10.6-7.5-15.9-1.6-3.6-2.6-7.2-4.6-10.5-9.5-15.6-19.7-25.1-35.6-34.3-3.4-2-7.4-2.8-11.7-3.8l-6.9-.4c-1.4-.6-2.9-2.3-4.2-3.1-5.3-3.3-18.7-10.5-22.6-1.1-2.5,6,3.7,11.8,5.9,14.9,1.5,2.1,3.5,4.5,4.6,6.9.7,1.6.8,3.2,1.5,4.8,1.5,4.1,2.8,8.6,4.8,12.4a47.6,47.6,0,0,0,3.4,5.7c.8,1.1,2.1,1.5,2.3,3.1-1.3,1.8-1.4,4.6-2.1,6.9-3.3,10.3-2,23.1,2.7,30.8,1.5,2.3,4.9,7.4,9.6,5.4,4.1-1.7,3.2-6.9,4.4-11.5.3-1,.1-1.8.6-2.5v.2l3.8,7.5c2.8,4.5,7.7,9.2,11.9,12.4,2.2,1.6,3.9,4.5,6.7,5.4V194h-.2c-.5-.9-1.4-1.2-2.1-1.9a48.792,48.792,0,0,1-4.8-5.4,127.711,127.711,0,0,1-10.3-16.8c-1.5-2.8-2.7-5.9-4-8.8-.5-1.1-.5-2.8-1.5-3.4-1.4,2.1-3.4,3.8-4.4,6.3-1.7,4-1.9,8.8-2.5,13.8-.4.1-.2,0-.4.2-2.9-.7-3.9-3.7-5-6.3-2.7-6.5-3.2-17-.8-24.5.6-1.9,3.4-8.1,2.3-9.8-.5-1.8-2.3-2.8-3.4-4.2a37.8,37.8,0,0,1-3.4-5.9c-2.2-5.1-3.3-10.8-5.7-15.9a41.047,41.047,0,0,0-4.6-7.1c-1.7-2.4-3.7-4.2-5-7.1-.5-1-1.1-2.7-.4-3.8a1.721,1.721,0,0,1,1.3-1.3c1.2-.9,4.6.3,5.9.8a47.52,47.52,0,0,1,9,4.6c1.4.9,2.7,2.7,4.4,3.1h1.9c2.9.7,6.3.2,9,1a55.494,55.494,0,0,1,13.2,6.3,81.962,81.962,0,0,1,28.7,31.4c1.1,2.1,1.6,4.1,2.5,6.3,1.9,4.4,4.4,9,6.3,13.4a63.4,63.4,0,0,0,6.5,12.4c1.4,1.9,6.9,2.9,9.4,4a48.559,48.559,0,0,1,6.3,2.5c3.2,1.9,6.2,4.2,9.2,6.3,1.4,1.3,5.9,3.6,6.2,5.4Z" fill="#00618a"/>
        <path id="Path_11" data-name="Path 11" d="M257.6,109.9a21.112,21.112,0,0,0-3.8.4v.2h.2c.7,1.5,2,2.5,2.9,3.8l2.1,4.4.2-.2c1.3-.9,1.9-2.4,1.9-4.6a8.476,8.476,0,0,1-1-1.9c-.6-.9-1.8-1.4-2.5-2.1Z" fill="#00618a" fill-rule="evenodd"/>
      </g>
      <path id="Path_12" data-name="Path 12" d="M346.2,250a8.8,8.8,0,1,0,8.8-8.8A8.683,8.683,0,0,0,346.2,250Zm15.7,0a6.9,6.9,0,1,1-6.9-7A6.873,6.873,0,0,1,361.9,250Zm-4.5,5h2l-2.9-4.4c1.6-.2,2.7-.9,2.7-2.8,0-2-1.3-2.9-3.8-2.9h-3.9V255h1.7v-4.4h1.6l2.6,4.4Zm-4.2-5.8v-2.9h2c1,0,2.2.2,2.2,1.4,0,1.4-1.1,1.5-2.4,1.5Z" fill="#e48e00" fill-rule="evenodd"/>
    </g>
  </g>
</svg>
