<svg xmlns="http://www.w3.org/2000/svg" xmlns:xlink="http://www.w3.org/1999/xlink" width="365" height="365" viewBox="0 0 365 365">
  <defs>
    <clipPath id="clip-objectivec-icon">
      <rect width="365" height="365"/>
    </clipPath>
  </defs>
  <g id="objectivec-icon" clip-path="url(#clip-objectivec-icon)">
    <path id="objectivec-icon-2" data-name="objectivec-icon" d="M226.351,412.357c-98.066,0-181.219-82.833-181.98-181.526A179.889,179.889,0,0,1,96.912,102.485,182.914,182.914,0,0,1,226.831,47.37,183.849,183.849,0,0,1,409.344,228.176,183.339,183.339,0,0,1,227.831,412.37h-1.481Zm.56-355.436a173.386,173.386,0,0,0-123.089,52.3A170.337,170.337,0,0,0,53.908,230.737C54.629,324.268,133.447,402.7,226.3,402.7h1.24A173.825,173.825,0,0,0,399.781,228.2a171.024,171.024,0,0,0-51.687-120.9,170.226,170.226,0,0,0-121.182-50.38ZM85.294,283.238V176.622h25.944v9.551H97.472v87.7h13.766v9.55Zm88.035-54.355c0,19.394-11.8,30.519-27.8,30.519s-26.651-12.472-26.651-29.519c0-17.82,11.178-30.386,27.5-30.386s26.931,13.1,26.944,29.385Zm-43.284.854c0,11.8,5.936,21.1,16.1,21.1s16.006-9.551,16.006-21.6c0-10.938-5.389-21.249-16.006-21.249s-16.26,10.044-16.26,21.982Zm52.314-28.211a88.773,88.773,0,0,1,15.38-1.294,27.373,27.373,0,0,1,16.62,3.681,12.224,12.224,0,0,1,6.016,10.831,13.447,13.447,0,0,1-9.551,12.565,14.6,14.6,0,0,1,11.7,14.326,15.055,15.055,0,0,1-5.589,11.938c-4.108,3.628-10.938,5.389-21.5,5.389a103.067,103.067,0,0,1-12.992-.76ZM192.871,224.4h5.389c7.3,0,11.418-3.441,11.418-8.363s-4.108-7.99-10.831-7.99a29.336,29.336,0,0,0-6.016.427Zm0,26.651a43.427,43.427,0,0,0,5.589.24c6.843,0,12.805-2.574,12.805-9.551s-5.829-9.551-13.139-9.551h-5.242Zm50.474-50.3H253.9v37.642c0,16.006-7.736,21.355-19.1,21.355a28.333,28.333,0,0,1-8.937-1.534l1.294-8.55a23.17,23.17,0,0,0,6.536,1.054c6.016,0,9.551-2.774,9.551-12.805Zm40.6,31.386v7.31H261.979v-7.31Zm51.261,24.837a36.511,36.511,0,0,1-14.953,2.574c-18.394,0-29.572-11.525-29.572-29.078a29.146,29.146,0,0,1,27.571-30.639,31.9,31.9,0,0,1,3.388.013,33.56,33.56,0,0,1,14.326,2.574l-2.281,8.4a28.147,28.147,0,0,0-11.365-2.241c-11.8,0-20.3,7.4-20.3,21.355,0,12.712,7.5,20.928,20.208,20.928a29.428,29.428,0,0,0,11.525-2.148Zm33.147-80.632v106.9h-25.93v-9.551h13.752V185.946H342.424V176.4Z" transform="translate(-44.346 -47.37)" fill="#f1592a"/>
  </g>
</svg>
