<svg xmlns="http://www.w3.org/2000/svg" xmlns:xlink="http://www.w3.org/1999/xlink" width="365" height="365" viewBox="0 0 365 365">
  <defs>
    <clipPath id="clip-reactnative-icon">
      <rect width="365" height="365"/>
    </clipPath>
  </defs>
  <g id="reactnative-icon" clip-path="url(#clip-reactnative-icon)">
    <g id="reactnative-icon-2" data-name="reactnative-icon" transform="translate(-0.13 -1.86)">
      <path id="Path_13" data-name="Path 13" d="M365,184.36c0-24.17-30.27-47.08-76.68-61.28,10.71-47.3,5.95-84.93-15.02-96.98a32.565,32.565,0,0,0-16.66-4.16V38.53a17.291,17.291,0,0,1,8.48,1.93c10.11,5.8,14.5,27.89,11.08,56.3-.82,6.99-2.15,14.35-3.79,21.86a361.2,361.2,0,0,0-47.23-8.11,363.032,363.032,0,0,0-30.94-37.19c24.24-22.54,47-34.88,62.47-34.88V21.86c-20.45,0-47.23,14.58-74.3,39.86-27.07-25.14-53.85-39.57-74.3-39.57V38.74c15.4,0,38.23,12.27,62.47,34.66a350.946,350.946,0,0,0-30.72,37.11,347.217,347.217,0,0,0-47.3,8.18c-1.71-7.44-2.97-14.65-3.87-21.57-3.49-28.41.82-50.5,10.86-56.37a16.528,16.528,0,0,1,8.55-1.93V22.23a33.225,33.225,0,0,0-16.81,4.16C70.41,38.45,65.73,76,76.51,123.16,30.25,137.44.13,160.27.13,184.37c0,24.17,30.27,47.08,76.68,61.28-10.71,47.3-5.95,84.93,15.02,96.98a32.647,32.647,0,0,0,16.73,4.16c20.45,0,47.23-14.58,74.3-39.86,27.07,25.14,53.85,39.57,74.3,39.57a33.129,33.129,0,0,0,16.81-4.17c20.9-12.05,25.59-49.61,14.8-96.76,46.11-14.2,76.23-37.11,76.23-61.21Zm-96.83-49.6c-2.75,9.59-6.17,19.49-10.04,29.38-3.05-5.95-6.25-11.9-9.74-17.85-3.42-5.95-7.07-11.75-10.71-17.4,10.56,1.56,20.74,3.49,30.49,5.87ZM234.1,213.97c-5.8,10.04-11.75,19.56-17.92,28.41-11.08.97-22.31,1.49-33.62,1.49-11.23,0-22.46-.52-33.47-1.41-6.17-8.85-12.2-18.3-18-28.26-5.65-9.74-10.78-19.63-15.47-29.6,4.61-9.97,9.82-19.93,15.4-29.67,5.8-10.04,11.75-19.56,17.92-28.41,11.08-.97,22.31-1.49,33.62-1.49,11.23,0,22.46.52,33.47,1.41,6.17,8.85,12.2,18.3,18,28.26,5.65,9.74,10.78,19.63,15.47,29.6C244.82,194.26,239.68,204.22,234.1,213.97Zm24.03-9.67q5.85,14.535,10.26,29.6c-9.74,2.38-20.01,4.39-30.64,5.95,3.64-5.73,7.29-11.6,10.71-17.63,3.42-5.95,6.62-11.97,9.67-17.92Zm-75.42,79.35a307.938,307.938,0,0,1-20.68-23.8c6.69.3,13.54.52,20.45.52,6.99,0,13.91-.15,20.68-.52A287.855,287.855,0,0,1,182.71,283.65Zm-55.33-43.8c-10.56-1.56-20.75-3.5-30.49-5.88,2.75-9.59,6.17-19.49,10.04-29.38,3.05,5.95,6.25,11.9,9.74,17.85S123.74,234.19,127.38,239.85ZM182.34,85.08a307.928,307.928,0,0,1,20.68,23.8c-6.69-.3-13.54-.52-20.45-.52-6.99,0-13.91.15-20.68.52A289.508,289.508,0,0,1,182.34,85.08Zm-55.03,43.8c-3.64,5.73-7.29,11.6-10.71,17.63-3.42,5.95-6.62,11.9-9.67,17.85q-5.85-14.535-10.26-29.6C106.41,132.45,116.67,130.45,127.31,128.88ZM60,222c-26.33-11.23-43.36-25.95-43.36-37.63S33.67,157.89,60,146.74c6.4-2.75,13.39-5.21,20.6-7.51a357.877,357.877,0,0,0,16.73,45.29,351.943,351.943,0,0,0-16.51,45.07C73.46,227.28,66.47,224.75,60,222Zm40.01,106.28c-10.11-5.8-14.5-27.89-11.08-56.3.82-6.99,2.15-14.35,3.79-21.86a361.2,361.2,0,0,0,47.23,8.11,363.031,363.031,0,0,0,30.94,37.19c-24.24,22.54-47,34.88-62.47,34.88A18,18,0,0,1,100.01,328.28Zm176.41-56.67c3.49,28.41-.82,50.5-10.86,56.37a16.528,16.528,0,0,1-8.55,1.93c-15.4,0-38.23-12.27-62.47-34.66a350.945,350.945,0,0,0,30.72-37.11,347.216,347.216,0,0,0,47.3-8.18,206.06,206.06,0,0,1,3.86,21.65ZM305.06,222c-6.4,2.75-13.39,5.21-20.6,7.51a357.876,357.876,0,0,0-16.73-45.29,351.943,351.943,0,0,0,16.51-45.07c7.36,2.3,14.35,4.83,20.9,7.59,26.33,11.23,43.36,25.95,43.36,37.63-.09,11.67-17.12,26.47-43.44,37.63Z" fill="#61dafb"/>
      <path id="Path_14" data-name="Path 14" d="M182.49,218.35a33.99,33.99,0,1,0-33.99-33.99A33.993,33.993,0,0,0,182.49,218.35Z" fill="#61dafb"/>
    </g>
  </g>
</svg>
