<svg xmlns="http://www.w3.org/2000/svg" xmlns:xlink="http://www.w3.org/1999/xlink" width="365" height="365" viewBox="0 0 365 365">
  <defs>
    <clipPath id="clip-swift-icon">
      <rect width="365" height="365"/>
    </clipPath>
  </defs>
  <g id="swift-icon" clip-path="url(#clip-swift-icon)">
    <g id="swift-icon-2" data-name="swift-icon" transform="translate(1.526 19.392)">
      <path id="Path_15" data-name="Path 15" d="M335.3,230.5C359.23,156.24,316.61,60.28,232.68.75a6.208,6.208,0,0,0-8.78,8.47c36.28,55.16,45.6,111.05,26.1,154.61C191.88,124.58,86.76,32.95,85.66,31.99a6.209,6.209,0,0,0-9.27,8.09c1.64,2.49,31.01,47.04,62.64,85.79-22.8-16.29-47.97-36.9-92.73-74.33a6.206,6.206,0,0,0-9.28,7.99c44.35,72.78,118.15,140.28,154.53,171.22C107.7,268.32,12.07,206.5,11.09,205.85a6.205,6.205,0,0,0-8.6,8.59c18.29,27.81,43.42,48.48,75.54,70.96,42.74,29.93,85.28,41.2,121.5,41.2,37.44,0,68.13-12.05,85.3-28.01.07-.09,7.76-8.03,24.8-3.04,13.58,3.97,32.29,18.92,38.84,25.68a6.213,6.213,0,0,0,10.51-2.92,96.868,96.868,0,0,0,2.49-21.83A95.544,95.544,0,0,0,335.3,230.5Z" fill="#fff"/>
      <path id="Path_16" data-name="Path 16" d="M348.65,304.7c-9.46-7.81-23.43-17.52-35.54-21.06-24.76-7.22-37.03,6.12-37.14,6.28-30.32,28.14-109.58,42.21-190.83-14.69-21.11-14.78-39.05-28.69-53.79-44.34a284.822,284.822,0,0,0,38.33,14.7c50.72,15.26,97.76,12.5,136.07-8a6.2,6.2,0,0,0,1.04-10.24c-27.14-22.6-88.02-76.16-134.44-138,45.2,37.28,66.22,52.72,99.56,72.73a6.213,6.213,0,0,0,7.53-9.78c-21.35-20.74-46.57-53.65-65.3-79.62,38.4,32.43,98.18,81.59,134.97,105.44a6.2,6.2,0,0,0,8.87-2.32c21.57-41,18.74-92.5-7.16-144.72C314.6,88.33,344.4,168.1,322.36,230.03a6.219,6.219,0,0,0,1.51,6.52,83.257,83.257,0,0,1,25.19,59.92C349.05,299.23,348.92,301.97,348.65,304.7Z" fill="#ee312d"/>
    </g>
  </g>
</svg>
