<?xml version="1.0" encoding="utf-8"?>
<!-- Generator: Adobe Illustrator 16.0.0, SVG Export Plug-In . SVG Version: 6.00 Build 0)  -->
<!DOCTYPE svg PUBLIC "-//W3C//DTD SVG 1.1//EN" "http://www.w3.org/Graphics/SVG/1.1/DTD/svg11.dtd">
<svg version="1.1" id="Layer_1" xmlns="http://www.w3.org/2000/svg" xmlns:xlink="http://www.w3.org/1999/xlink" x="0px" y="0px"
	 width="74px" height="74px" viewBox="0 0 74 74" enable-background="new 0 0 74 74" xml:space="preserve">
<linearGradient id="SVGID_1_" gradientUnits="userSpaceOnUse" x1="37.1401" y1="73.4209" x2="37.1401" y2="0.4995">
	<stop  offset="0" style="stop-color:#2E3192"/>
	<stop  offset="1" style="stop-color:#00AEEF"/>
</linearGradient>
<path fill="#FFFFFF" stroke="url(#SVGID_1_)" stroke-width="0.5" stroke-miterlimit="10" d="M39.452,73.171
	C58.4,71.985,73.39,56.241,73.39,36.999c0-20.016-16.224-36.25-36.25-36.25c-20.016,0-36.25,16.234-36.25,36.25
	c0,19.252,15.02,35.016,33.987,36.172"/>
<linearGradient id="SVGID_2_" gradientUnits="userSpaceOnUse" x1="37.1401" y1="68.5215" x2="37.1401" y2="5.3984">
	<stop  offset="0" style="stop-color:#2E3192"/>
	<stop  offset="1" style="stop-color:#00AEEF"/>
</linearGradient>
<path fill="#FFFFFF" stroke="url(#SVGID_2_)" stroke-width="0.5" stroke-miterlimit="10" d="M39.452,68.272
	c16.234-1.186,29.039-14.735,29.039-31.273c0-17.312-14.04-31.351-31.351-31.351c-17.312,0-31.352,14.04-31.352,31.351
	c0,16.548,12.835,30.107,29.088,31.273"/>
<linearGradient id="SVGID_3_" gradientUnits="userSpaceOnUse" x1="37.1401" y1="63.5928" x2="37.1401" y2="10.2969">
	<stop  offset="0" style="stop-color:#2E3192"/>
	<stop  offset="1" style="stop-color:#00AEEF"/>
</linearGradient>
<path fill="#FFFFFF" stroke="url(#SVGID_3_)" stroke-width="0.5" stroke-miterlimit="10" d="M39.452,63.344
	c13.529-1.165,24.141-12.521,24.141-26.345c0-14.608-11.845-26.453-26.453-26.453S10.688,22.391,10.688,36.999
	c0,13.844,10.64,25.209,24.189,26.345"/>
<linearGradient id="SVGID_4_" gradientUnits="userSpaceOnUse" x1="37.1401" y1="58.6846" x2="37.1401" y2="15.1958">
	<stop  offset="0" style="stop-color:#2E3192"/>
	<stop  offset="1" style="stop-color:#00AEEF"/>
</linearGradient>
<path fill="#FFFFFF" stroke="url(#SVGID_4_)" stroke-width="0.5" stroke-miterlimit="10" d="M39.452,58.436
	c10.816-1.156,19.241-10.316,19.241-21.437c0-11.903-9.649-21.554-21.553-21.554s-21.554,9.65-21.554,21.554
	c0,11.14,8.455,20.311,19.291,21.437"/>
<linearGradient id="SVGID_5_" gradientUnits="userSpaceOnUse" x1="37.1401" y1="53.7461" x2="37.1401" y2="20.0942">
	<stop  offset="0" style="stop-color:#2E3192"/>
	<stop  offset="1" style="stop-color:#00AEEF"/>
</linearGradient>
<path fill="#FFFFFF" stroke="url(#SVGID_5_)" stroke-width="0.5" stroke-miterlimit="10" d="M39.452,53.488
	c8.102-1.117,14.343-8.073,14.343-16.489c0-9.2-7.455-16.655-16.655-16.655s-16.655,7.456-16.655,16.655
	c0,8.436,6.26,15.401,14.392,16.499"/>
<linearGradient id="SVGID_6_" gradientUnits="userSpaceOnUse" x1="37.1401" y1="48.7861" x2="37.1401" y2="24.9932">
	<stop  offset="0" style="stop-color:#2E3192"/>
	<stop  offset="1" style="stop-color:#00AEEF"/>
</linearGradient>
<path fill="#FFFFFF" stroke="url(#SVGID_6_)" stroke-width="0.5" stroke-miterlimit="10" d="M39.452,48.53
	c5.389-1.077,9.444-5.829,9.444-11.531c0-6.495-5.262-11.756-11.756-11.756c-6.496,0-11.757,5.261-11.757,11.756
	c0,5.722,4.085,10.483,9.494,11.542"/>
<linearGradient id="SVGID_7_" gradientUnits="userSpaceOnUse" x1="37.1401" y1="43.7119" x2="37.1401" y2="29.8916">
	<stop  offset="0" style="stop-color:#2E3192"/>
	<stop  offset="1" style="stop-color:#00AEEF"/>
</linearGradient>
<path fill="#FFFFFF" stroke="url(#SVGID_7_)" stroke-width="0.5" stroke-miterlimit="10" d="M39.452,43.455
	c2.655-0.949,4.546-3.478,4.546-6.456c0-3.792-3.066-6.858-6.858-6.858s-6.858,3.066-6.858,6.858c0,2.998,1.92,5.546,4.595,6.477"/>
<circle fill="#174D97" stroke="#174D97" stroke-width="0.5" stroke-miterlimit="10" cx="37.14" cy="37" r="1.959"/>
<linearGradient id="SVGID_8_" gradientUnits="userSpaceOnUse" x1="35.1812" y1="36.3682" x2="35.1812" y2="36.3682">
	<stop  offset="0" style="stop-color:#2E3192"/>
	<stop  offset="1" style="stop-color:#00AEEF"/>
</linearGradient>
<path stroke="url(#SVGID_8_)" stroke-width="0.5" stroke-miterlimit="10" d="M35.181,36.368"/>
</svg>
