<?xml version="1.0" encoding="utf-8"?>
<!-- Generator: Adobe Illustrator 16.0.0, SVG Export Plug-In . SVG Version: 6.00 Build 0)  -->
<!DOCTYPE svg PUBLIC "-//W3C//DTD SVG 1.1//EN" "http://www.w3.org/Graphics/SVG/1.1/DTD/svg11.dtd">
<svg version="1.1" id="Layer_1" xmlns="http://www.w3.org/2000/svg" xmlns:xlink="http://www.w3.org/1999/xlink" x="0px" y="0px"
	 width="74px" height="74px" viewBox="0 0 74 74" enable-background="new 0 0 74 74" xml:space="preserve">
<linearGradient id="SVGID_1_" gradientUnits="userSpaceOnUse" x1="-3308.4858" y1="-635.5181" x2="-3052.7695" y2="-635.5181" gradientTransform="matrix(-0.2891 0 0 -0.2891 -882.3301 -146.7051)">
	<stop  offset="0" style="stop-color:#33A4A7"/>
	<stop  offset="1" style="stop-color:#006BC7"/>
</linearGradient>
<path fill="url(#SVGID_1_)" d="M16.448,0c0.434,0,40.266,0,40.989,0c1.995,0,3.932,0.318,5.811,0.983
	c2.717,0.983,5.174,2.717,7.024,4.972c1.879,2.255,3.121,5.03,3.555,7.92c0.174,1.069,0.203,2.139,0.203,3.208
	c0,0.983,0,35.613,0,37.173c0,0.925,0,1.879,0,2.804c0,1.271-0.059,2.572-0.318,3.816c-0.578,2.861-1.938,5.549-3.902,7.717
	c-1.938,2.168-4.48,3.787-7.227,4.654C60.905,73.769,59.171,74,57.408,74c-0.781,0-41.077,0-41.684-0.029
	c-2.948-0.145-5.868-1.098-8.325-2.746c-2.399-1.618-4.365-3.873-5.637-6.475c-1.098-2.226-1.647-4.712-1.647-7.197
	c0-0.578,0-40.527,0-41.105c-0.058-2.457,0.462-4.885,1.532-7.082c1.243-2.602,3.18-4.885,5.579-6.504
	c2.457-1.677,5.348-2.66,8.296-2.804C15.812,0,16.13,0,16.448,0z"/>
<path opacity="0.3" fill="#455868" d="M52.389,38.488c0.068,7.2,6.318,9.596,6.387,9.627c-0.053,0.17-0.998,3.415-3.293,6.768
	c-1.984,2.899-4.041,5.787-7.283,5.846c-3.188,0.06-4.211-1.889-7.854-1.889c-3.642,0-4.78,1.83-7.796,1.948
	c-3.13,0.119-5.513-3.134-7.513-6.021c-4.086-5.908-7.208-16.694-3.016-23.975c2.083-3.615,5.806-5.905,9.846-5.963
	c3.073-0.059,5.975,2.068,7.854,2.068c1.877,0,5.402-2.558,9.107-2.182c1.553,0.065,5.908,0.627,8.703,4.72
	C57.307,29.574,52.336,32.468,52.389,38.488 M46.4,20.806c1.662-2.011,2.781-4.812,2.477-7.597c-2.395,0.096-5.293,1.596-7.01,3.606
	c-1.539,1.78-2.889,4.629-2.524,7.36C42.012,24.381,44.74,22.818,46.4,20.806"/>
<path fill="#FFFFFF" stroke="#517B9E" stroke-width="0.5" stroke-miterlimit="10" d="M50.056,37.488
	c0.067,7.2,6.317,9.596,6.387,9.627c-0.053,0.17-0.999,3.415-3.293,6.768c-1.984,2.899-4.042,5.787-7.284,5.846
	c-3.187,0.06-4.211-1.889-7.854-1.889c-3.641,0-4.78,1.83-7.795,1.948c-3.13,0.119-5.513-3.134-7.513-6.021
	c-4.086-5.908-7.208-16.694-3.016-23.975c2.083-3.615,5.806-5.905,9.846-5.963c3.073-0.059,5.975,2.068,7.854,2.068
	c1.878,0,5.402-2.558,9.108-2.182c1.552,0.065,5.907,0.627,8.703,4.72C54.973,28.574,50.002,31.468,50.056,37.488 M44.067,19.806
	c1.662-2.011,2.781-4.812,2.476-7.597c-2.395,0.096-5.292,1.596-7.01,3.606c-1.539,1.78-2.888,4.629-2.524,7.36
	C39.679,23.381,42.406,21.818,44.067,19.806"/>
</svg>
