<?xml version="1.0" encoding="utf-8"?>
<!-- Generator: Adobe Illustrator 16.0.0, SVG Export Plug-In . SVG Version: 6.00 Build 0)  -->
<!DOCTYPE svg PUBLIC "-//W3C//DTD SVG 1.1//EN" "http://www.w3.org/Graphics/SVG/1.1/DTD/svg11.dtd">
<svg version="1.1" id="Layer_1" xmlns="http://www.w3.org/2000/svg" xmlns:xlink="http://www.w3.org/1999/xlink" x="0px" y="0px"
	 width="74px" height="74px" viewBox="0 0 256 256" enable-background="new 0 0 256 256" xml:space="preserve">
<linearGradient id="SVGID_1_" gradientUnits="userSpaceOnUse" x1="-2136.2397" y1="-584.6768" x2="-2087.8853" y2="-310.4453" gradientTransform="matrix(-1 0 0 1 -1983.8711 575.5449)">
	<stop  offset="0" style="stop-color:#FAAE42"/>
	<stop  offset="1" style="stop-color:#EF3E31"/>
</linearGradient>
<path fill="url(#SVGID_1_)" d="M56.9,0c1.5,0,139.3,0,141.8,0c6.899,0,13.6,1.1,20.1,3.4c9.4,3.4,17.9,9.4,24.3,17.2
	C249.6,28.4,253.9,38,255.4,48c0.6,3.7,0.699,7.4,0.699,11.1c0,3.4,0,123.2,0,128.6c0,3.2,0,6.5,0,9.7
	c0,4.399-0.199,8.899-1.1,13.199c-2,9.9-6.7,19.2-13.5,26.7c-6.7,7.5-15.5,13.101-25,16.101c-5.8,1.8-11.8,2.6-17.9,2.6
	c-2.699,0-142.1,0-144.2-0.1c-10.2-0.5-20.3-3.801-28.8-9.5C17.3,240.8,10.5,233,6.1,224c-3.8-7.7-5.7-16.3-5.7-24.9
	c0-2,0-140.2,0-142.2C0.2,48.4,2,40,5.7,32.4c4.3-9,11-16.9,19.3-22.5c8.5-5.8,18.5-9.2,28.7-9.7C54.7,0,55.8,0,56.9,0z"/>
<path fill="#FFFFFF" d="M144.7,38c84.399,57.4,57.1,120.7,57.1,120.7s24,27.1,14.3,50.8c0,0-9.899-16.6-26.5-16.6
	c-16,0-25.399,16.6-57.6,16.6c-71.7,0-105.6-59.9-105.6-59.9C91,192.1,135.1,162,135.1,162c-29.1-16.9-91-97.7-91-97.7
	c53.9,45.9,77.2,58,77.2,58c-13.9-11.5-52.9-67.7-52.9-67.7c31.2,31.6,93.2,75.7,93.2,75.7C179.2,81.5,144.7,38,144.7,38z"/>
</svg>
