<?xml version="1.0" encoding="utf-8"?>
<!-- Generator: Adobe Illustrator 23.0.3, SVG Export Plug-In . SVG Version: 6.00 Build 0)  -->
<svg version="1.1" id="Layer_1" xmlns="http://www.w3.org/2000/svg" xmlns:xlink="http://www.w3.org/1999/xlink" x="0px" y="0px"
	 viewBox="0 0 74 74" style="enable-background:new 0 0 74 74;" xml:space="preserve" width="74px" height="74px">
<style type="text/css">
	.st0{fill:#194A58;}
	.st1{fill:#1A9465;}
	.st2{fill:#69EA6B;}
	.st3{fill:#FFFFFF;}
</style>
<title>Health_Kit</title>
<path class="st0" d="M41.9,73.4c-1.3,0.2-2.7,0.3-4,0.4c-3.8,0-7.4-1.4-10.3-3.9c-2.1-1.8-4.3-3.4-6.4-5.1c-3.8-3-7.6-6.1-11.5-9.1
	c-1.3-1-2.6-2-3.8-3c-3-2.7-4.4-6.9-2.4-10.8c0.3-0.7,0.7-1.4,1.1-2l0.2,0.2c-0.1,0.3-0.2,0.5-0.3,0.7c0.3,0.7,0.7,1.3,1.4,1.7
	c0.4,0.2,0.7,0.4,1,0.7c0.9,0.7,1.7,1.6,2.6,2.2c1,0.7,1.9,1.7,3,2.3c0.5,0.3,1,0.7,1.6,1c0.2,0.1,0.3,0.2,0.4,0.4
	c0.1,0.4,0.4,0.6,0.8,0.7c0.4,0.1,0.5,0.5,0.8,0.7c0.5,0.3,0.9,0.7,1.2,1.1c0.1,0.1,0.2,0.2,0.3,0.2c1,0.5,1.9,1.2,2.7,2
	c0.5,0.5,1.2,0.9,1.8,1.2c0.1,0.1,0.3,0.1,0.4,0.2c0.5,0.8,1.4,1.2,2.1,1.9c0.2,0.3,0.6,0.5,1,0.6c0.3,0.1,0.5,0.2,0.6,0.4
	c0.7,1.1,2,1.6,3,2.3c1.1,0.8,2.4,1.4,3.7,1.7c2,0.6,4.1,0.8,6.1,0.7c1.1,0,2.2-0.2,3.2-0.6c0.4-0.2,0.9-0.3,1.3-0.3
	c0.7-0.1,1.3-0.4,1.8-0.8c0.1-0.1,0.3-0.3,0.5-0.3c0.9-0.4,1.7-0.9,2.4-1.6c0.7-0.6,1.5-1.1,2.2-1.7c0.8-0.5,1.4-1.2,2.2-1.6
	c0.1,0,0.1-0.1,0.2-0.2c0.3-0.8,1.1-1,1.8-1.4c0.7-0.4,1.2-0.9,1.7-1.5c0.5-0.5,1-0.8,1.6-1c0.3-0.1,0.6-0.3,0.8-0.6
	c0.4-0.6,0.9-1.1,1.6-1.4c0.3-0.1,0.5-0.3,0.7-0.6c0.1-0.2,0.2-0.3,0.4-0.4c0.8-0.4,1.3-1.2,2-1.6c0.8-0.5,1.5-1,2.2-1.6
	c0.5-0.3,0.9-0.7,1.3-1.1c0.3-0.3,0.6-0.7,1-0.8c0.1,0,0.2-0.1,0.2-0.2c0.3-0.9,1.2-1.1,1.9-1.5c0.6-0.4,1-0.9,1.4-1.5
	c0.1-0.1,0.1-0.3,0.3-0.3c0.7,0.8,1.1,1.7,1.4,2.7c0.8,2.3,0.5,4.7-0.6,6.8c-0.1,0.2-0.1,0.3-0.2,0.5l0,0c-0.1,0.2-0.2,0.3-0.4,0.5
	c-1.5,2-3.5,3.3-5.4,4.8c-3.5,2.8-7.1,5.7-10.6,8.5c-2.1,1.7-4.2,3.3-6.3,5c-1,0.8-2,1.6-3.1,2.3c-1.3,0.8-2.7,1.4-4.2,1.8
	C42.2,73.3,42,73.4,41.9,73.4z"/>
<path class="st1" d="M1.9,34.2c0.4-0.4,0.5-0.9,0.8-1.3c0.3,0.2,0.6,0.5,0.8,0.8c0.4,0.6,1,1.1,1.7,1.4c0.6,0.4,1.1,0.9,1.6,1.4
	c0.4,0.4,0.9,0.8,1.4,1.1c0.6,0.4,1.2,0.9,1.7,1.4c0.5,0.5,1,0.9,1.6,1.3c0.6,0.4,1.1,0.8,1.7,1.2c1.1,1,2.2,1.9,3.3,2.7
	c0.7,0.4,1.2,1.1,2,1.4c0.1,0,0.1,0.1,0.1,0.1c0.5,0.9,1.5,1.2,2.3,1.9c0.6,0.4,1.1,0.8,1.6,1.3c0.6,0.6,1.2,1.1,1.9,1.5
	c0.9,0.8,1.9,1.6,3,2.2c1.2,0.7,2.4,1.3,3.7,1.8c1.6,0.5,3.3,0.8,5,0.8c1.1,0,2.2-0.1,3.3-0.3c0.8-0.2,1.6-0.5,2.5-0.6
	c0.5-0.1,0.9-0.3,1.4-0.6c0.6-0.3,1.3-0.7,1.9-0.9c0.6-0.2,0.9-0.7,1.3-1.1c1-0.8,2.1-1.6,3.2-2.4c0.6-0.5,1.2-1,1.8-1.6
	c0.3-0.3,0.6-0.6,1-0.7c0.7-0.3,1.4-0.8,1.9-1.5c0.8-0.8,1.7-1.4,2.6-1.9c0.5-0.3,0.8-0.9,1.3-1.2c0.8-0.7,1.7-1.3,2.6-2
	c0.8-0.5,1.6-1.1,2.3-1.9c0.7-0.6,1.4-1.2,2.2-1.7c0.1-0.1,0.3-0.2,0.4-0.3c0.6-0.7,1.3-1.3,2.1-1.7c0.4-0.3,0.8-0.6,1.3-0.8
	c0.2-0.1,0.3-0.2,0.4-0.4c0.2-0.5,0.6-0.8,1-1.2c0.8,1.2,1.4,2.5,1.7,3.9c0.3,1.5,0.1,3.1-0.5,4.5c-0.3,0.5-0.5,1-0.7,1.6
	c-0.8,0.8-1.4,1.6-2.2,2.4c-0.8,0.8-1.8,1.4-2.7,2.1c-1.9,1.5-3.7,3-5.6,4.5c-2,1.6-4,3.1-5.9,4.7c-2.9,2.3-5.7,4.6-8.6,6.8
	c-1.3,0.9-2.7,1.6-4.2,2.1c-1.7,0.5-3.6,0.8-5.4,0.8c-3.6,0-7.1-1.3-9.8-3.6c-3.2-2.6-6.4-5.1-9.6-7.7c-1.7-1.3-3.3-2.6-5-3.9
	c-2.5-2-5-3.8-7.4-5.9C2.2,43,1,40.1,1.2,37.2C1.3,36.2,1.6,35.1,1.9,34.2z"/>
<path class="st2" d="M8.5,39.4c-0.7-0.6-1.4-1.2-2.2-1.8c-1.5-1.1-2.8-2.4-3.8-4c-0.7-1.3-1.1-2.8-1.2-4.3c0-2.3,0.9-4.6,2.5-6.3
	c0.2-0.2,0.3-0.4,0.5-0.5c0.6-0.6,1.2-1.2,1.9-1.6c3.7-3,7.4-5.9,11.1-8.8c2.1-1.7,4.3-3.4,6.4-5.1c1.2-0.9,2.4-1.9,3.7-2.9
	c1.4-1,2.9-1.8,4.5-2.3c0.5,0,1.1-0.2,1.6-0.4c2.2-0.3,4.4-0.3,6.6,0l0,0c1.1,0.1,2.1,0.4,3.1,0.9c0.8,0.3,1.6,0.7,2.3,1.2
	c4.4,3.5,8.9,7,13.3,10.5c0.5,0.4,1,0.8,1.5,1.1c0.7,0.7,1.5,1.3,2.3,1.9c2.1,1.7,4.1,3.3,6.2,5c0.8,0.8,1.6,1.6,2.2,2.6
	c0.4,0.6,0.6,1.2,0.8,1.9c0,0,0,0.1,0,0.1c0.4,1.7,0.3,3.4-0.1,5c-0.8,2.2-2.2,4.1-4.1,5.4c-0.9,0.6-1.6,1.3-2.5,2
	c-0.1,0.6-0.7,0.7-1.1,1c-0.5,0.4-1.1,0.9-1.6,1.3c-0.2,0.2-0.4,0.3-0.6,0.5c-0.2,0.1-0.3,0.2-0.4,0.3c0,0-0.1,0.1-0.1,0.1
	c-0.2,0.1-0.3,0.2-0.4,0.3c-0.1,0.1-0.1,0.1-0.2,0.2c-0.8,0.5-1.5,1.1-2.2,1.7c-1.7,1.2-3.2,2.6-4.9,3.8c-0.1,0.1-0.3,0.2-0.4,0.4
	c-1.5,1.1-3,2.3-4.5,3.5c-1.3,1.1-2.6,2.1-4.1,3.1c-1.6,0.9-3.3,1.5-5.1,1.7c-0.2,0-0.5,0.1-0.7,0.1c-0.5,0-0.9,0-1.4,0.1
	c-0.1,0-0.1,0-0.2,0c-0.3,0-0.6,0-0.9,0c-0.1,0-0.1,0-0.2,0c-0.5-0.1-1-0.1-1.5-0.1c-0.1,0-0.1,0-0.2,0c-0.4-0.1-0.9-0.1-1.4-0.2
	c-1-0.3-1.9-0.6-2.8-0.9c-0.1,0-0.1,0-0.2-0.1c-0.3-0.2-0.7-0.3-1.1-0.4c-0.1,0-0.2-0.1-0.3-0.1c-0.2-0.2-0.5-0.4-0.7-0.5
	c0,0-0.1-0.1-0.1-0.1c-0.4-0.4-0.8-0.7-1.3-1c-0.1,0-0.1-0.1-0.2-0.2c-0.6-0.5-1.2-1-1.9-1.5c0,0-0.1-0.1-0.1-0.1
	c-0.1-0.1-0.2-0.2-0.4-0.3c0,0-0.1-0.1-0.1-0.1c-0.2-0.3-0.5-0.5-0.9-0.6c-0.1,0-0.1-0.1-0.2-0.2c-0.7-0.7-1.5-1.4-2.4-1.9
	c0,0-0.1-0.1-0.1-0.1c-0.2-0.2-0.4-0.4-0.6-0.5c0,0-0.1-0.1-0.1-0.1c-0.1-0.2-0.3-0.3-0.5-0.4c0,0-0.1-0.1-0.1-0.1
	c-0.7-0.5-1.2-1.1-1.9-1.5c-0.5-0.4-1-0.8-1.5-1.2c-1.2-0.9-2.3-2-3.6-2.8c0,0-0.1-0.1-0.1-0.1c-0.8-0.8-1.7-1.6-2.6-2.2l-0.1-0.1
	C8.9,39.8,8.7,39.5,8.5,39.4z"/>
<g>
	<g>
		<path class="st3" d="M53.5,22c0.4,0.3,0.6,0.7,0.6,1.2l0.1,6c0,0.3,0,0.6-0.1,0.9c-0.1,0.3-0.2,0.6-0.4,0.9c0,0-0.1,0.1-0.1,0.1
			c-0.1,0.1-0.2,0.2-0.3,0.3c-0.3,0.3-0.8,0.7-1.5,1.3c-0.7,0.6-1.7,1.1-3,1.7c-1.3,0.6-2.9,1.1-4.8,1.5c-1.9,0.4-4.2,0.7-6.9,0.7
			c-2.1,0.1-4,0-5.6-0.3c-1.6-0.2-3.1-0.5-4.3-0.9c-1.2-0.4-2.3-0.8-3.2-1.2c-0.9-0.4-1.6-0.8-2.1-1.2c-0.6-0.4-1-0.7-1.2-1
			c-0.3-0.3-0.4-0.4-0.4-0.5c-0.2-0.2-0.3-0.5-0.5-0.8s-0.2-0.6-0.2-0.9l-0.1-6c0-0.4,0.1-0.8,0.4-1c0.2-0.2,0.4-0.3,0.7-0.4
			c0.3,0,0.5,0,0.8,0l7,2c0.4,0.1,0.7,0.3,0.9,0.7c0.2,0.3,0.4,0.7,0.4,1.1l0,2.2c0,0.1,0,0.1,0.1,0.2c0,0.1,0.1,0.2,0.1,0.2
			c0.4,0.2,0.9,0.5,1.5,0.6c0.5,0.2,1.3,0.3,2.2,0.4c0.9,0.1,2,0.2,3.4,0.1c1.4,0,2.5-0.1,3.4-0.3c0.9-0.2,1.6-0.3,2.2-0.5
			c0.5-0.2,0.9-0.4,1.1-0.5l0.3-0.2c0,0,0.1-0.1,0.1-0.2c0-0.1,0.1-0.2,0.1-0.2L44,25.6c0-0.5,0.2-1,0.6-1.3
			c0.3-0.3,0.5-0.4,0.7-0.5l0,0l6.9-1.9C52.7,21.8,53.1,21.8,53.5,22z"/>
	</g>
</g>
</svg>
