<svg id="Layer_1" data-name="Layer 1" xmlns="http://www.w3.org/2000/svg" viewBox="0 0 100 100" width="74px" height="74px"><defs><style>.cls-1{fill:#ebe6e7;}.cls-2{fill:#e9e4e4;}.cls-3{fill:#eae4e5;}.cls-4{fill:#ece6e7;}.cls-5{fill:#f1eced;}.cls-6{fill:#eadfe2;}.cls-7{fill:#ebdddf;}.cls-8{fill:#edd0d5;}.cls-9{fill:#55d8e3;}.cls-10{fill:#64aef5;}.cls-11{fill:#ede9ea;}.cls-12{fill:#59d3df;}.cls-13{fill:#e4e5e6;}.cls-14{fill:#64abf1;}.cls-15{fill:#68aaef;}.cls-16{fill:#5ad1de;}.cls-17{fill:#fefefe;}.cls-18{fill:#63aff6;}.cls-19{fill:#73b1ee;}.cls-20{fill:#66aef2;}.cls-21{fill:#aa8abd;}.cls-22{fill:#5298d9;}.cls-23{fill:#51cdd9;}.cls-24{fill:#4f94d3;}.cls-25{fill:#4e92d1;}.cls-26{fill:#4fc8d3;}.cls-27{fill:#4ec6d1;}.cls-28{fill:#ebeaea;}.cls-29{fill:#4cc3cf;}.cls-30{fill:#e9eaea;}.cls-31{fill:#dbe3e5;}.cls-32{fill:#fe456d;}.cls-33{fill:#fe528c;}.cls-34{fill:#eaeaea;}.cls-35{fill:#e7e9ea;}.cls-36{fill:#e0e6e6;}.cls-37{fill:#fe2f34;}.cls-38{fill:#fe4160;}.cls-39{fill:#fe2721;}.cls-40{fill:#e7e9e9;}.cls-41{fill:#fe251b;}.cls-42{fill:#fe313a;}.cls-43{fill:#fe312d;}.cls-44{fill:#fe4e82;}.cls-45{fill:#fe4b7b;}.cls-46{fill:#fe4f84;}.cls-47{fill:#4ec5d0;}.cls-48{fill:#4fc5d0;}.cls-49{fill:#86d2d6;}.cls-50{fill:#fe4366;}.cls-51{fill:#fe3748;}.cls-52{fill:#fe3441;}.cls-53{fill:#fe3c54;}.cls-54{fill:#fe4874;}.cls-55{fill:#fe3e59;}.cls-56{fill:#fe3e5a;}.cls-57{fill:#fe1b22;}.cls-58{fill:#fe4b7c;}.cls-59{fill:#fe5087;}.cls-60{fill:#fe1f12;}.cls-61{fill:#fe2d2f;}.cls-62{fill:#fe394e;}.cls-63{fill:#fe2b2a;}.cls-64{fill:#fe2214;}.cls-65{fill:#fe323b;}.cls-66{fill:#fe2314;}.cls-67{fill:#fe2823;}</style></defs><title>Health_Kit</title><path class="cls-1" d="M19.18727,19.92886q.06392-.001.12785-.00013a1.68879,1.68879,0,0,0,.59242-.44915l.18239-.244-.00551.0034a29.32616,29.32616,0,0,0,3.006-2.34706.25037.25037,0,0,1,.1614-.15168q3.61442-2.83589,7.22719-5.67387c.9454-.74578,1.87225-1.51507,2.80755-2.27365l-.00451.0054a3.274,3.274,0,0,0,1.04075-.865.21208.21208,0,0,1,.24474-.17713l1.02723-.71381c.11791-.23969.366-.3118.56894-.44213A21.64908,21.64908,0,0,1,43.54854,2.1072a.136.136,0,0,1,.15252-.05177l.584-.09a.57793.57793,0,0,1-.06734.56583,3.65487,3.65487,0,0,1-1.64914.84062,18.1319,18.1319,0,0,0-4.13978,2.46443C36.67959,7.19462,34.91743,8.53781,33.19,9.92373c-3.43849,2.75881-6.90163,5.48646-10.35493,8.22648-1.90565,1.512-3.79411,3.04587-5.72517,4.52631-1.37616,1.055-2.68038,2.2048-4.08427,3.2217a15.52945,15.52945,0,0,1-2.16438,1.54057c-.383-.054-.34354-.27113-.20227-.5272,1.26109-1.31294,2.83259-2.24936,4.18606-3.45045.34213-.30361.69439-.59582,1.042-.89326a.15587.15587,0,0,1,.1301-.12121A21.62853,21.62853,0,0,0,19.17885,19.937Z"/><path class="cls-2" d="M93.2963,35.024A10.58238,10.58238,0,0,1,93.02,37.35978c-.40265-.34406-.23509-.80631-.194-1.2031a7.30625,7.30625,0,0,0-.575-3.44886.67241.67241,0,0,1-.08817-.20425,3.08693,3.08693,0,0,0-1.00229-2.14309,17.10646,17.10646,0,0,0-4.54351-4.70837c-1.236-.96337-2.43891-1.97088-3.66469-2.9473-1.30091-1.03627-2.61864-2.05306-3.92875-3.07863-.31648-.24774-.68581-.48235-.65342-.97459a.42247.42247,0,0,1,.10537-.18073,5.72917,5.72917,0,0,1,1.67311,1.17159c.80209.65029,1.6165,1.28128,2.45564,1.8817a73.903,73.903,0,0,1,7.13379,5.78991,11.12882,11.12882,0,0,1,3.48755,7.43085A1.50551,1.50551,0,0,0,93.2963,35.024Z"/><path class="cls-3" d="M78.51016,18.49305l-.00283.15265c-.36315.32042-.64151.02158-.89744-.15822-1.30353-.9158-2.49357-1.97733-3.74734-2.95781-2.20437-1.72388-4.38061-3.48359-6.57835-5.21592C65.12485,8.61171,62.988,6.881,60.80561,5.20823c-.21183-.16237-.42165-.33583-.39381-.64913a.33821.33821,0,0,1,.11032-.18716c.25782-.124.40538.12258.609.18107l-.01585-.01183a3.37384,3.37384,0,0,0,.59831.44554l-.01067-.00811a13.72459,13.72459,0,0,0,2.03644,1.607l-.01473-.0103a4.01194,4.01194,0,0,0,.74473.594c1.34755.894,2.553,1.97194,3.82851,2.95909q1.63015,1.26157,3.25656,2.528a.36864.36864,0,0,1,.16375.166l.41917.41439c1.14155.95145,2.27792,1.90936,3.47685,2.78928l1.58907,1.29846C77.58743,17.77157,78.24777,17.90977,78.51016,18.49305Z"/><path class="cls-4" d="M10.659,26.91158l.11863.42616c.222.40615-.095.6256-.31448.86347a11.51119,11.51119,0,0,0-2.82092,5.68073,9.50249,9.50249,0,0,0,.46957,4.89932,7.58746,7.58746,0,0,1,.65311,1.89413.42815.42815,0,0,1-.46065.333,10.01769,10.01769,0,0,1-1.5624-5.08225,15.70294,15.70294,0,0,1,.27478-3.21863,14.54935,14.54935,0,0,1,1.859-3.81694A16.63714,16.63714,0,0,1,10.659,26.91158Z"/><path class="cls-5" d="M46.889,1.32753,48.172,1.17088a11.13749,11.13749,0,0,1,2.93136-.14468,5.367,5.367,0,0,0,2.14137.42724c.21063-.02526.8048.02273.7023.60922a.756.756,0,0,1-.7381.1664,22.90469,22.90469,0,0,0-6.52252-.00167.933.933,0,0,1-.49561-.03141.55361.55361,0,0,1-.19774-.16265c-.22026-.5053.29359-.3629.46388-.5242a.79018.79018,0,0,0,.01473-.11118A.30254.30254,0,0,1,46.889,1.32753Z"/><path class="cls-6" d="M61.13109,4.553,60.527,4.42419c-.35023.16725-.60753-.08016-.86092-.229A18.6647,18.6647,0,0,0,56.395,2.68954c-.32385-.114-.80114-.13812-.84294-.65812l.05907-.0938A14.395,14.395,0,0,1,61.13109,4.553Z"/><path class="cls-7" d="M78.51016,18.49305c-.404-.42488-.99574-.6398-1.30692-1.16852a30.76055,30.76055,0,0,1,3.67936,2.77426c.58974.45455,1.14873.949,1.7217,1.42538A4.77325,4.77325,0,0,1,81.05538,20.502C80.18541,19.86163,79.35636,19.16569,78.51016,18.49305Z"/><path class="cls-6" d="M51.24567,1.22671,51.828,1.164q.6547.08077,1.30932.16164a.336.336,0,0,1,.42246.05736,1.317,1.317,0,0,0,.72435.154.52141.52141,0,0,1,.4498.10555l.87711.29512-.03025.0468a.61564.61564,0,0,1-.87991.19414c-.19654-.11372-.4241-.069-.62514-.14812-.02477-.02419-.04936-.04866-.074-.07313a1.416,1.416,0,0,0-1.18123-.347A3.52693,3.52693,0,0,1,51.24567,1.22671Z"/><path class="cls-7" d="M75.61416,16.02606a9.47878,9.47878,0,0,1-2.39724-1.768c-.385-.2973-.87293-.522-1.07961-1.02129A25.48217,25.48217,0,0,1,75.61416,16.02606Z"/><path class="cls-5" d="M44.1415,2.39647c-.09661-.19177.02622-.31049.14354-.431a.11969.11969,0,0,1,.11091-.01863c.17506-.15467.45417.10637.6035-.15107l-.00968.00329a.74771.74771,0,0,1,1.0326.15532l.00374.00661A1.26944,1.26944,0,0,1,44.1415,2.39647Z"/><path class="cls-6" d="M63.73931,6.58558a4.63393,4.63393,0,0,1-2.03646-1.60687A14.915,14.915,0,0,1,63.73931,6.58558Z"/><path class="cls-1" d="M46.02235,1.95435a2.53933,2.53933,0,0,0-1.03254-.15527q.0135-.05647.02377-.11354a.48458.48458,0,0,1,.56521-.08107l.87811-.09532C46.31985,1.66516,46.07407,1.715,46.02235,1.95435Z"/><path class="cls-6" d="M64.46932,7.16928a.96326.96326,0,0,1-.74471-.59389A1.58,1.58,0,0,1,64.46932,7.16928Z"/><path class="cls-8" d="M19.90754,19.47958c-.06041.33045-.29936.42545-.59239.44916A1.1708,1.1708,0,0,1,19.90754,19.47958Z"/><path class="cls-6" d="M61.71354,4.98672a.66353.66353,0,0,1-.5983-.4454C61.3735,4.61069,61.62071,4.695,61.71354,4.98672Z"/><path class="cls-1" d="M44.99944,1.79573c-.11424.39727-.38839.15591-.60341.15108A.97779.97779,0,0,1,44.99944,1.79573Z"/><path class="cls-9" d="M9.4142,57.25471l-.36347-.20542c.05394-.2771-.34134-.30161-.31627-.56247C7.55923,55.895,7.681,54.63107,7.26278,53.6465a12.68266,12.68266,0,0,1-.546-4.02715c.02759-.50122.07417-.99914.12308-1.49712.01692-.07588.03215-.15273.0454-.22942.17551-.54511.31268-1.10242.49268-1.64642.1048-.31672.228-.6327.62866-.68544.471.366.20254.82018.07183,1.18909a9.60533,9.60533,0,0,0,.20628,7.21188,13.36518,13.36518,0,0,0,4.4208,5.35192c1.96016,1.48406,3.87146,3.03658,5.78616,4.58222,1.23651.99817,2.49186,1.97791,3.74888,2.953,2.63,2.04,5.209,4.146,7.8252,6.2042,2.99479,2.35611,5.93789,4.77914,8.97833,7.07534a17.42823,17.42823,0,0,0,7.915,3.169,20.63657,20.63657,0,0,0,8.45715-.51494,17.3836,17.3836,0,0,0,6.89151-3.69628c1.62876-1.363,3.32654-2.63918,4.98993-3.95795q3.65606-2.89861,7.3058-5.80686C77.13544,67.312,79.69,65.328,82.206,63.29926a81.5969,81.5969,0,0,0,7.05093-5.76462,9.86309,9.86309,0,0,0,1.12193-1.32415c.216-.31192.44228-.66793.93023-.46359.12415.66153-.52726.90633-.74429,1.38469l-.00821.231a.85708.85708,0,0,1-.2446.65573,10.85887,10.85887,0,0,1-2.48,2.29866q-4.492,3.52755-8.95831,7.08745-7.06652,5.62972-14.164,11.22034c-1.189.94189-2.34145,1.93128-3.5969,2.79429a33.13324,33.13324,0,0,1-3.18179,1.67916c-1.15734.38281-2.2948.81266-3.49138,1.088a20.77422,20.77422,0,0,1-4.94673.47821A18.89049,18.89049,0,0,1,37.67689,80.5489Q31.63443,75.759,25.59421,70.966q-5.95334-4.725-11.90678-9.45a30.14286,30.14286,0,0,1-3.90708-3.33034c-.0879-.14942-.19151-.28933-.28078-.43814A4.81121,4.81121,0,0,0,9.4142,57.25471Z"/><path class="cls-10" d="M67.32617,90.80917c-1.11564.71281-2.084,1.61732-3.13667,2.412-.1897.14321-.336.34808-.58536.40479-1.34226.8753-2.48752,2.0218-3.90973,2.79321-.6986.37891-1.44929.63905-2.13776,1.03266a10.965,10.965,0,0,1-2.76122.79379.42735.42735,0,0,1-.2-.07365c-.12828-.53144.29537-.57439.62053-.67467a20.61428,20.61428,0,0,0,5.07293-2.27357c1.325-.84646,2.48029-1.91665,3.71742-2.8792q3.56894-2.77678,7.10134-5.59958c3.18731-2.54068,6.40546-5.04257,9.57782-7.602,1.97114-1.59031,3.97226-3.14292,5.964-4.70724a19.62555,19.62555,0,0,0,3.66135-3.48125,1.0346,1.0346,0,0,1,.35768-.35289c.20839-.05915.40932-.21013.63719-.05979a.28543.28543,0,0,1-.02061.31577l.00284-.00574a6.25818,6.25818,0,0,0-.7409.98091c-2.19154,2.72649-5.18,4.52758-7.84206,6.70164-3.97986,3.25032-8.0513,6.3884-12.07727,9.58244C69.51539,88.99931,68.42608,89.91091,67.32617,90.80917Z"/><path class="cls-11" d="M92.43236,32.55874c.31756-.05355.26156.18871.29708.36751A14.3294,14.3294,0,0,1,93.02,37.35977a8.12478,8.12478,0,0,1-1.18052,3.421c-.39908.69884-.87361,1.35459-1.31435,2.02964-.05756.15815-.03108.34272-.151.48129a32.01409,32.01409,0,0,1-3.50206,3.06578,2.99554,2.99554,0,0,0-.44786.26388,17.73982,17.73982,0,0,0-1.51593.95644c-.26441.21135-.52663.2458-.68553-.14132-.02544-.31.17607-.47966.39182-.646,1.22275-.94241,2.46016-1.87218,3.62453-2.88154a10.77581,10.77581,0,0,0,4.06332-9.92607C92.24546,33.52269,91.93922,32.98876,92.43236,32.55874Z"/><path class="cls-12" d="M90.23481,43.13267q.14523-.16089.2904-.322a11.02634,11.02634,0,0,1,.59767,13.7774c-.15387.21414-.2791.45779-.5581.54351.09527-.52917.65242-.81989.70735-1.36993-.41027-.453-.08152-.85439.10481-1.24978a11.507,11.507,0,0,0,1.0095-2.98772,9.42219,9.42219,0,0,0-.95211-5.79651,6.62155,6.62155,0,0,0-.90808-1.7823A2.79161,2.79161,0,0,1,90.23481,43.13267Z"/><path class="cls-13" d="M8.30428,41.00835c.02932-.17857.12385-.24973.30192-.18331a.6547.6547,0,0,1,.64554.37423,20.53326,20.53326,0,0,0,4.70742,4.54643,16.35836,16.35836,0,0,1,2.16813,1.78981,1.50838,1.50838,0,0,0,.61181.58829.807.807,0,0,1,.2173.21922c.27972.45629.77917.68032,1.129,1.06494.15842.17416.39417.28488.27865.581a.45345.45345,0,0,1-.17251.12119c-.30323.08412-.5023-.11915-.70265-.27808-1.24919-.99083-2.537-1.9334-3.7415-2.98013-.32685-.284-.73209-.45506-1.05526-.74309a35.76858,35.76858,0,0,1-3.05933-2.82133.76354.76354,0,0,1-.18245-.47136A10.69084,10.69084,0,0,1,8.30428,41.00835Z"/><path class="cls-14" d="M90.12968,57.78974q.21345-.21367.42687-.42727a9.70821,9.70821,0,0,1,1.74732,2.99338,13.20979,13.20979,0,0,1,.80391,3.48669,10.72172,10.72172,0,0,1-1.44,6.27238c-.07572.13115-.1552.24474-.33238.20614-.45164-.32689-.18693-.69244-.03134-1.02617a11.1931,11.1931,0,0,0,1.09874-3.73169,10.15125,10.15125,0,0,0-1.139-5.59061c-.25514-.50224-.34456-1.12108-.85484-1.48177C90.21691,58.297,90.27234,58.00446,90.12968,57.78974Z"/><path class="cls-15" d="M91.26732,70.26056c.30506-.0699.38636-.34015.50948-.57154a10.76061,10.76061,0,0,0,.70259-8.48736,2.3052,2.3052,0,0,1-.17553-.84574,7.71489,7.71489,0,0,1,.90558,3.468,10.31568,10.31568,0,0,1-1.92432,7.0336l-.01627-.30092a.19154.19154,0,0,1-.06085-.2317Z"/><path class="cls-16" d="M9.4504,42.8162l.31085.32851a.78767.78767,0,0,1-.08921.251c-.03129.053-.06387.10468-.09758.15622a5.26159,5.26159,0,0,0-.31592.70452c-.34859.25906-.37647.69907-.58293,1.03847-.15372.25268-.27715.51832-.64388.316a3.02784,3.02784,0,0,0-.71475,1.6187,1.06354,1.06354,0,0,1-.32582.696,8.99743,8.99743,0,0,1,1.27507-3.49543q.18867-.34632.37557-.69359Z"/><path class="cls-15" d="M90.54711,71.8327a1.427,1.427,0,0,1,.74087-.98091A1.99163,1.99163,0,0,1,90.54711,71.8327Z"/><path class="cls-17" d="M15.86224,47.77974A23.6069,23.6069,0,0,0,13.25163,45.623a17.61127,17.61127,0,0,1-4.6454-4.798A11.78446,11.78446,0,0,1,7.166,35.58129a11.02582,11.02582,0,0,1,3.042-7.59285c.194-.21321.38-.43363.56971-.6507a10.456,10.456,0,0,1,2.333-1.92374c4.4601-3.57392,8.96106-7.09654,13.43166-10.65744,2.5835-2.0578,5.15069-4.139,7.77018-6.15285,1.48929-1.14495,2.9569-2.31808,4.43485-3.47778a18.43812,18.43812,0,0,1,5.394-2.72949,5.84515,5.84515,0,0,0,1.88461-.4355,26.11784,26.11784,0,0,1,7.97573-.00359l.00063.00055A11.45953,11.45953,0,0,1,57.7515,3.06509,11.63791,11.63791,0,0,1,60.52565,4.571q8.05719,6.36452,16.10942,12.7353a11.16933,11.16933,0,0,0,1.8723,1.33932A18.58532,18.58532,0,0,0,81.27373,20.953c2.48512,2.015,5.00666,3.98517,7.4909,6.00129a14.34189,14.34189,0,0,1,2.64715,3.141,10.1787,10.1787,0,0,1,1.01632,2.32431q-.00012.06964.00427.13915a11.94189,11.94189,0,0,1-.16347,6.07261,13.075,13.075,0,0,1-4.95778,6.49327c-1.03131.74492-1.99752,1.58-2.99328,2.37414-.16728.6793-.83069.87359-1.27977,1.26352-.62512.54276-1.29017,1.04132-1.89539,1.60949a7.7737,7.7737,0,0,0-.76045.60066,2.51422,2.51422,0,0,0-.5176.39289,1.01951,1.01951,0,0,1-.14373.11654,2.10655,2.10655,0,0,0-.50551.401,1.67551,1.67551,0,0,1-.22522.18388c-.92315.66585-1.81994,1.36452-2.6786,2.11184-2.04321,1.4841-3.93079,3.16836-5.9802,4.64427a4.41586,4.41586,0,0,0-.451.46885c-1.846,1.34081-3.585,2.819-5.402,4.19619a42.48151,42.48151,0,0,1-4.94507,3.71623,18.2454,18.2454,0,0,1-6.18217,2.10978c-.28645.04157-.5694.09634-.85438.14454a7.64763,7.64763,0,0,0-1.6908.11408,1.22963,1.22963,0,0,1-.22772.0336c-.34826.00952-.69643.00651-1.04451.00287a1.99349,1.99349,0,0,1-.23066-.01853,7.3328,7.3328,0,0,0-1.82956-.12735,1.57865,1.57865,0,0,1-.22515-.02289c-.54454-.11739-1.09907-.177-1.64656-.27729-1.15361-.304-2.27078-.72046-3.39723-1.10643-.06381-.02543-.1282-.05117-.19229-.07617a4.78823,4.78823,0,0,0-1.28635-.53168.7176.7176,0,0,1-.35822-.15566,3.56311,3.56311,0,0,0-.87261-.58219.79891.79891,0,0,1-.16236-.10824A8.12673,8.12673,0,0,0,37.798,65.392a1.21908,1.21908,0,0,1-.23283-.18744c-.72619-.641-1.49785-1.225-2.26826-1.81005a.90562.90562,0,0,1-.16342-.10987,1.94135,1.94135,0,0,0-.45781-.35834.84452.84452,0,0,1-.15011-.12212,2.19594,2.19594,0,0,0-1.08628-.769.5423.5423,0,0,1-.2212-.2,21.08724,21.08724,0,0,0-2.86422-2.34753,1.09057,1.09057,0,0,1-.15564-.1206,2.78866,2.78866,0,0,0-.7329-.61907.98189.98189,0,0,1-.15137-.11788,2.2595,2.2595,0,0,0-.59558-.47386,1.29755,1.29755,0,0,1-.15688-.11742c-.80993-.57732-1.50723-1.29956-2.3568-1.82548-.57748-.50908-1.20634-.9552-1.78669-1.46062-1.44892-1.14591-2.83411-2.37343-4.36844-3.40983a.83036.83036,0,0,1-.1627-.11771,32.01382,32.01382,0,0,0-3.15657-2.71442l-.14969-.1437C16.31945,48.1978,16.12067,47.95228,15.86224,47.77974Z"/><path class="cls-11" d="M92.4281,32.41959a17.508,17.508,0,0,1-1.01627-2.32432A3.95968,3.95968,0,0,1,92.4281,32.41959Z"/><path class="cls-5" d="M60.52565,4.571a25.64163,25.64163,0,0,0-6.52322-2.61309c.53219-.35331,1.04908.21508,1.57846.02636a12.911,12.911,0,0,0,2.55746,1.11459A25.69528,25.69528,0,0,1,60.527,4.42419Z"/><path class="cls-18" d="M54.56483,98.09857l.16309.01377c-.4236.58539-1.11615.44692-1.67828.54423a19.00137,19.00137,0,0,1-7.146-.17658c-1.00562-.20837-1.97769-.54-2.97272-.78632a13.73347,13.73347,0,0,1-4.32426-2.26658c-2.625-2.02708-5.22015-4.09271-7.82763-6.14244a7.674,7.674,0,0,0-.85613-.7426Q23.78866,83.69529,17.65566,78.847c-2.288-1.81282-4.65055-3.544-6.824-5.486A11.14269,11.14269,0,0,1,6.91334,62.65322a11.68758,11.68758,0,0,1,2.16223-4.85065c.12507-.174.226-.36541.33838-.5483a.54342.54342,0,0,1,.21425.39033.69745.69745,0,0,1-.153.6768,14.1283,14.1283,0,0,0-1.28731,2.82474c-1.44419,3.94241-.55307,7.45543,2.13514,10.56569,1.70225,1.96951,3.90043,3.37142,5.905,4.99273,3.94066,3.18732,7.94028,6.3009,11.90972,9.45212,3.02344,2.40023,6.06921,4.77443,9.07992,7.19038a21.37544,21.37544,0,0,0,5.97652,3.61943,19.71962,19.71962,0,0,0,10.60758.87447A.63488.63488,0,0,1,54.56483,98.09857Z"/><path class="cls-19" d="M42.93092,97.69367a6.78312,6.78312,0,0,1,2.24772.48871,18.557,18.557,0,0,0,8.30767.2725,2.69736,2.69736,0,0,0,1.24159-.34257c1.04166.03921,1.92191-.55355,2.90542-.742a.09994.09994,0,0,1,.17358.029A19.2554,19.2554,0,0,1,47.90536,98.893,15.94841,15.94841,0,0,1,42.93092,97.69367Z"/><path class="cls-20" d="M57.8069,97.39924l-.17368-.02885a30.93451,30.93451,0,0,0,4.0395-2.38589A5.78706,5.78706,0,0,1,63.60415,93.626,18.25143,18.25143,0,0,1,57.8069,97.39924Z"/><path class="cls-21" d="M29.92291,88.54205a1.27869,1.27869,0,0,1,.85614.74258A1.86342,1.86342,0,0,1,29.92291,88.54205Z"/><path class="cls-22" d="M54.56483,98.09856a33.52739,33.52739,0,0,1-4.82031.45194,19.4168,19.4168,0,0,1-12.40736-4.66935c-2.52455-2.12958-5.1759-4.10862-7.76568-6.16112Q22.6527,82.23658,15.73693,76.74938c-1.53329-1.21113-3.10554-2.37425-4.57012-3.66938-3.64548-3.22369-5.2606-8.341-2.88723-13.03872a15.84385,15.84385,0,0,1,1.34857-2.39665l.29957.286a2.69891,2.69891,0,0,1-.38936.88142A3.8674,3.8674,0,0,0,11.223,60.83119,8.4647,8.4647,0,0,1,12.46,61.664c1.09728.85312,2.04929,1.90151,3.17172,2.68391,1.24432.86736,2.25253,2.01048,3.55924,2.79127.65624.39213,1.25419.88492,1.933,1.25378a1.06417,1.06417,0,0,1,.496.51366,1.17814,1.17814,0,0,0,.95.79278c.48889.085.608.59333.95044.85143A5.44962,5.44962,0,0,1,24.996,71.91815a.7135.7135,0,0,0,.35783.238,9.98848,9.98848,0,0,1,3.21452,2.4019,9.16323,9.16323,0,0,0,2.18989,1.50344c.14771.08023.33274.11384.42468.264.61175.99925,1.72787,1.45406,2.48154,2.30636a2.11263,2.11263,0,0,0,1.1595.69785,1.24566,1.24566,0,0,1,.77823.50624c.8585,1.36538,2.35588,1.93871,3.582,2.80538a15.0372,15.0372,0,0,0,4.51013,2.09617,21.17334,21.17334,0,0,0,7.4073.85121,10.4649,10.4649,0,0,0,3.80306-.76274,5.85029,5.85029,0,0,1,1.60625-.40011,3.62691,3.62691,0,0,0,2.12271-.99848,1.45076,1.45076,0,0,1,.59983-.38058,9.89638,9.89638,0,0,0,2.898-1.94691c.8808-.68964,1.77611-1.37155,2.70912-1.99876.91751-.61677,1.70251-1.41566,2.659-1.98391a.448.448,0,0,0,.19569-.21c.36531-1.00908,1.36835-1.23184,2.154-1.67934a8.74073,8.74073,0,0,0,2.09905-1.81927,5.82,5.82,0,0,1,1.96589-1.246,1.81036,1.81036,0,0,0,.94013-.73482A4.52673,4.52673,0,0,1,76.766,69.71331a2.18237,2.18237,0,0,0,.86129-.73415,1.11622,1.11622,0,0,1,.47293-.43782c.91982-.50389,1.51243-1.46839,2.39869-1.92056a28.84213,28.84213,0,0,0,2.62712-1.97256c.57138-.37406,1.0712-.86426,1.62192-1.282.41381-.31387.69088-.80333,1.2497-.93505a.41818.41818,0,0,0,.27092-.23075c.415-1.03321,1.43611-1.27573,2.27185-1.76153a6.62959,6.62959,0,0,0,1.68571-1.85446c.10219-.12844.13815-.30888.32352-.36255a8.401,8.401,0,0,1,1.70586,3.21124,10.17407,10.17407,0,0,1-.74956,8.22611,5.82008,5.82008,0,0,0-.23862.60135l.00145.00049c-.12813.20674-.2959.38362-.4372.58045-1.75667,2.39533-4.21469,4.00957-6.491,5.82567q-6.41647,5.1192-12.83868,10.23117c-2.5306,2.00786-5.08685,3.98334-7.6231,5.98413a37.71023,37.71023,0,0,1-3.68332,2.79543,20.04969,20.04969,0,0,1-5.03057,2.17586A5.45921,5.45921,0,0,0,54.56483,98.09856Z"/><path class="cls-23" d="M8.03173,45.61093c.508-.42374.56341-1.13461,1.01245-1.59573a2.80254,2.80254,0,0,1,.94365.96536,5.34184,5.34184,0,0,0,2.0213,1.67051,10.9,10.9,0,0,1,1.90093,1.74161A11.1229,11.1229,0,0,0,15.63224,49.675a11.17069,11.17069,0,0,1,2.09246,1.69735,9.11446,9.11446,0,0,0,1.95072,1.5738c.7302.4511,1.38087.94259,2.06186,1.45454a42.57638,42.57638,0,0,0,4.02611,3.23992c.86891.49984,1.49513,1.27375,2.37351,1.7207a.387.387,0,0,1,.17478.12625c.623,1.14015,1.86881,1.50557,2.79395,2.26767a11.29456,11.29456,0,0,1,1.88247,1.62745,11.75459,11.75459,0,0,0,2.24871,1.79764,34.49194,34.49194,0,0,0,3.5893,2.71277,20.20932,20.20932,0,0,0,4.4676,2.12927,24.17767,24.17767,0,0,0,6.03268,1.00237,17.851,17.851,0,0,0,3.986-.336c1.01919-.19769,1.95507-.62974,2.97062-.78089a6.175,6.175,0,0,0,1.65565-.70141,17.96282,17.96282,0,0,1,2.3397-1.09173c.68209-.206,1.07448-.86028,1.615-1.28255,1.25967-.9841,2.57577-1.88887,3.836-2.86827a16.21415,16.21415,0,0,0,2.11553-1.88672,3.1649,3.1649,0,0,1,1.16642-.89359,6.46922,6.46922,0,0,0,2.303-1.77506,13.76372,13.76372,0,0,1,3.16819-2.30778c.59775-.36977.9365-1.03336,1.51586-1.43938A38.27045,38.27045,0,0,1,79.143,53.30914,12.34621,12.34621,0,0,0,81.9022,51.05a26.9937,26.9937,0,0,1,2.60621-2.00725,2.01819,2.01819,0,0,0,.43467-.3799,9.15286,9.15286,0,0,1,2.49458-2.06878A11.391,11.391,0,0,1,88.991,45.57866a.89486.89486,0,0,0,.47582-.42936c.21118-.65758.76819-.99239,1.2249-1.42344a11.41828,11.41828,0,0,1,2.01548,4.73506,9.32658,9.32658,0,0,1-.6197,5.37751,8.1095,8.1095,0,0,0-.81537,1.92321c-.90537.93-1.66808,1.98517-2.63,2.87144-1.01593.93605-2.16055,1.69832-3.22594,2.56577-2.242,1.82551-4.5224,3.604-6.78964,5.39848q-3.57275,2.82781-7.14964,5.65038c-3.4555,2.73933-6.883,5.5148-10.3712,8.21169a15.51321,15.51321,0,0,1-5.02352,2.51135,20.432,20.432,0,0,1-6.49458.90651A18.993,18.993,0,0,1,37.712,79.57373c-3.82175-3.13032-7.71121-6.17816-11.581-9.24956-2.00046-1.58774-4.02826-3.141-6.03292-4.72348-2.98854-2.3592-6.051-4.63416-8.92663-7.12431a10.78337,10.78337,0,0,1-3.99568-9.21949A16.91046,16.91046,0,0,1,8.03173,45.61093Z"/><path class="cls-24" d="M90.54969,58.2219a.76059.76059,0,0,1-.238.90559,2.98537,2.98537,0,0,0-.55733.66117,4.28533,4.28533,0,0,1-2.16866,1.53518c-.13251.05715-.32742.07541-.38841.17561A7.46155,7.46155,0,0,1,85.465,63.21335c-.75588.64111-1.559,1.21395-2.326,1.83544-.09289.07527-.24171.10438-.3.196-.63111.99232-1.85986,1.23815-2.59783,2.06646-.78306.87893-1.95952,1.26916-2.64193,2.27911-.23214.34358-.75158.49163-1.137.73338a3.10243,3.10243,0,0,0-1.30838,1.30065c-.41484.89495-1.46514.88146-2.17436,1.37034-.18447.12716-.45156.12785-.55984.38816a2.13965,2.13965,0,0,1-.90013.914c-.28062.18553-.59153.34869-.61375.74994-.00713.12859-.06555.265-.2015.26142-.75567-.01959-1.15678.76716-1.89326.81166-.28207.017-.41606.30718-.53544.54772a2.81609,2.81609,0,0,1-1.45488,1.33771c-.63934.28053-.97693.92851-1.57974,1.25478a24.97957,24.97957,0,0,0-2.72862,1.97331c-.77044.56259-1.523,1.20622-2.27444,1.82489-.15379.12663-.298.2666-.50663.23-.47346-.083-.72833.14209-1.00689.51313a2.52736,2.52736,0,0,1-1.76959.88152,17.99808,17.99808,0,0,0-3.18148.89108,11.43582,11.43582,0,0,1-2.56683.33944,17.69089,17.69089,0,0,1-5.31691-.248c-1.45517-.34663-2.89168-.82367-4.32443-1.28456-.988-.31786-1.55-1.19757-2.54535-1.47144-.74673-.20546-1.2048-1.00233-1.94863-1.3212a2.67316,2.67316,0,0,1-1.66193-1.56205.70855.70855,0,0,0-.54723-.31,2.33744,2.33744,0,0,1-1.60483-1.00133c-.7359-.79777-1.785-1.23577-2.38522-2.19852a2.29366,2.29366,0,0,0-1.02447-.6378c-1.21691-.543-1.96648-1.63679-2.94817-2.45536a3.202,3.202,0,0,0-1.02516-.63235c-1.1966-.34266-1.70886-1.49827-2.685-2.095-.38643-.23624-.59874-.72981-1.16515-.7634a.676.676,0,0,1-.47883-.40863c-.30464-1.224-1.61307-1.23617-2.33421-1.96619-.67668-.685-1.58683-1.08439-2.27822-1.8254-.73305-.78566-1.81768-1.22426-2.58138-2.02712-.7961-.83693-1.81058-1.41127-2.62059-2.238-.325-.33168-.88837-.32176-1.2832-.68918-.48744-.45361-.61129-1.18368-1.28045-1.49995-.2251-.10639.00678-.42944.166-.61558.38568-.3147.65521-.05869.947.176.94968.764,1.86148,1.57273,2.827,2.3192.87237.67443,1.67525,1.43814,2.5101,2.16087.73872.63951,1.517,1.23307,2.28187,1.83438.823.647,1.65516,1.28661,2.48615,1.92176,1.21747.93053,2.42393,1.88243,3.63671,2.81849a10.92474,10.92474,0,0,1,2.21363,1.827,2.24263,2.24263,0,0,0,.72531.46387,31.59288,31.59288,0,0,1,2.8561,2.27807,9.27382,9.27382,0,0,1,2.42575,1.99549c.25872.39848.793.50207,1.17533.80655,2.04916,1.63213,4.00078,3.39162,6.16991,4.8674a4.228,4.228,0,0,0,2.02274.90237,2.90417,2.90417,0,0,1,1.06349.42385,9.34584,9.34584,0,0,0,2.86925.94085c.95867.15366,1.979.13759,2.90579.30234a14.11418,14.11418,0,0,0,3.0069.02386,18.84436,18.84436,0,0,0,2.68229-.46323,34.88209,34.88209,0,0,0,4.07324-1.23737c.21131.02393.1121-.09221.12041.00411.00182.02107-.0224.016-.0701.01957a.34263.34263,0,0,1-.36449-.17437,27.85719,27.85719,0,0,0,3.95465-2.40049q6.40275-5.08893,12.80509-10.1784c2.9879-2.36839,5.99046-4.71826,8.9818-7.08231,1.79792-1.4209,3.59463-2.84362,5.37408-4.28747a13.63874,13.63874,0,0,0,1.11617-1.13514A.48147.48147,0,0,1,90.54969,58.2219Z"/><path class="cls-25" d="M57.89768,82.87359c.48533.07685.84316-.44208,1.35209-.33327a.48583.48583,0,0,1-.41689.48362c-.951.263-1.79671.79773-2.76323,1.02481-.64286.151-1.2643.39371-1.89427.59862-.09106.02961-.18755.12661-.26232.10932-.93932-.21723-1.77306.54339-2.71326.28572a1.28643,1.28643,0,0,0-.76414.15582,1.38213,1.38213,0,0,1-1.49828-.13214.93372.93372,0,0,0-.90346-.12346c-1.06107.318-2.044-.15821-3.04518-.30323-1.544-.22366-2.90114-1.08491-4.39412-1.54526A9.86809,9.86809,0,0,1,37.575,81.09051c-1.00934-.81377-2.02285-1.62235-3.03117-2.43737a9.78611,9.78611,0,0,0-1.4971-1.20359,16.54585,16.54585,0,0,1-2.622-2.05194c-.7653-.61467-1.79172-.97647-2.32922-1.89495-.25406-.43415-.78264-.546-1.16361-.83946-1.84146-1.41853-3.61486-2.92268-5.48791-4.30267a25.41374,25.41374,0,0,0-2.976-2.38321c-.99809-.51917-1.5562-1.53907-2.648-1.91925-.43062-.15-.7382-.71442-1.14194-1.05939-.92268-.78838-1.90264-1.521-2.78623-2.33174-.62793-.57621-1.45751-.92758-1.93308-1.67464a.88364.88364,0,0,0-.62546-.32979c.07684-.34236.19132-.65414.59431-.73181,3.949,3.51953,8.22,6.64019,12.34122,9.94607q7.99154,6.41052,16.058,12.7272a17.8886,17.8886,0,0,0,9.26461,3.60172,20.37885,20.37885,0,0,0,9.74491-1.19576A4.215,4.215,0,0,1,57.89768,82.87359Z"/><path class="cls-16" d="M7.43443,53.76041a9.10281,9.10281,0,0,1-.435-5.845A17.34513,17.34513,0,0,0,7,51.65018,8.1622,8.1622,0,0,1,7.43443,53.76041Z"/><path class="cls-14" d="M90.83161,70.84154a.8574.8574,0,0,1,.43724-.58041l0,.29545Z"/><path class="cls-26" d="M90.69173,43.72586c.00917.33593-.04836.62988-.434.73609-.15094.04157-.216.16643-.2888.29954a4.18714,4.18714,0,0,1-2.21109,1.971,3.09905,3.09905,0,0,0-.73451.45207,22.93978,22.93978,0,0,0-2.585,2.35289,1.59232,1.59232,0,0,1-.84612.50052,1.12015,1.12015,0,0,0-.76871.50364c-.44433.76138-1.29918,1.08218-1.8385,1.7003a25.50683,25.50683,0,0,1-2.54022,1.90543,28.6923,28.6923,0,0,0-2.54419,2.02026,7.10615,7.10615,0,0,1-1.883,1.623,4.531,4.531,0,0,0-1.79949,1.20426c-.35937.5259-.98631.77749-1.34752,1.33755-.40425.62681-1.17971.8265-1.80664,1.14317a2.3563,2.3563,0,0,0-.924.73074,9.04362,9.04362,0,0,1-2.74032,2.459c-1.54973,1.05108-3.02385,2.17349-4.46049,3.36145a1.92793,1.92793,0,0,1-.665.42707c-1.042.27361-1.81079,1.119-2.816,1.39345-1.25879.34369-2.39477,1.11863-3.77469,1.05614a7.556,7.556,0,0,0-1.516.35737,16.76124,16.76124,0,0,1-4.149-.00136,23.67989,23.67989,0,0,1-5.26964-1.02863,31.02141,31.02141,0,0,1-3.08715-1.49909,15.44906,15.44906,0,0,1-2.56831-1.72838,24.16959,24.16959,0,0,0-3.01825-2.194,5.32161,5.32161,0,0,1-1.28563-1.14575c-.32863-.3385-.53358-.77343-1.09657-.86171-.38259-.06-.34319-.65684-.77347-.79459-.83223-.26642-1.34738-1.07092-2.1883-1.342-.10786-.03479-.26107-.12363-.27956-.21137-.23314-1.10634-1.51337-1.18059-2.01276-2.056-.17954-.31473-.7374-.34425-1.10875-.58908-1.41723-.93436-2.38659-2.44357-4.01363-3.09674a.30715.30715,0,0,1-.17516-.20306c-.031-.6893-.60316-.90342-1.07611-.99524a1.54423,1.54423,0,0,1-1.28644-.99048c-.035-.08723-.08793-.20769-.16066-.23346-1.62147-.57438-2.38734-2.38333-4.10026-2.83264-.36972-.097-.47077-.5317-.7385-.77544a7.19807,7.19807,0,0,1-1.599-1.53081c-.17242-.29342-.54222-.31731-.81544-.429-1.01535-.41514-1.43877-1.42036-2.196-2.08542-.17886-.15709-.11223-.40735-.12459-.6213a1.53567,1.53567,0,0,1,.43339-.72459c.07251.00717.176.00766.20258.05994.44609.87682,1.43975,1.2418,1.93122,2.074.21691.36731.65929.368.97046.59005,1.48526,1.06,2.84735,2.27863,4.32427,3.34741a39.561,39.561,0,0,1,3.16529,2.5714c.92919.83107,1.93038,1.58074,2.90048,2.33678,1.66186,1.29517,3.2741,2.6584,4.9719,3.91175a21.16791,21.16791,0,0,1,2.0995,1.72089,3.807,3.807,0,0,0,1.18362.79332,7.35434,7.35434,0,0,1,1.74438,1.49514c.15054.46431.32971.8937.95373.781a2.53314,2.53314,0,0,1,.70714.62986c.04543.66383.65569.65839,1.06284.89394a.59449.59449,0,0,1,.11477.17075,2.375,2.375,0,0,0,1.08592.98638c.27841.131.58083.23387.66156.593a.32779.32779,0,0,0,.301.27037c.54872-.025.83294.41757,1.2324.65445A8.29156,8.29156,0,0,0,41.824,68.60474a18.03514,18.03514,0,0,0,4.715,1.37738,16.14541,16.14541,0,0,0,3.41521.34364,23.92957,23.92957,0,0,0,2.92368-.29123A23.34169,23.34169,0,0,0,57.581,68.64141c.794-.38038,1.603-.70669,2.41073-1.04518,1.11539-.93046,2.33576-1.72238,3.46441-2.63781a16.65292,16.65292,0,0,1,2.106-1.57645A9.68331,9.68331,0,0,0,67.112,62.007a11.51214,11.51214,0,0,1,2.35022-1.7349,10.07959,10.07959,0,0,0,2.06427-1.77973,28.74542,28.74542,0,0,1,2.51221-1.90993c1.052-.79619,2.008-1.70186,3.0596-2.49764.99131-.7502,1.981-1.51138,2.94014-2.30822.86291-.7169,1.74569-1.41158,2.61124-2.12513.8902-.73387,1.86581-1.35165,2.72629-2.12821a35.904,35.904,0,0,1,3.31443-2.39368c.39047-.27892.66665-.7187.95754-.94432a12.30868,12.30868,0,0,1-2.46466,1.97794c-.15782.09439-.28288.19053-.43646.01707,1.14608-1.03479,2.40823-1.93673,3.488-3.04752C90.54239,43.21079,90.5745,43.50111,90.69173,43.72586Z"/><path class="cls-27" d="M86.74685,46.18023a8.36005,8.36005,0,0,0,2.39437-1.70717c.38407-.33972.74086-.71028,1.15986-1.01823-.047.49173-.48092.6799-.72173,1.01173-.69936.96368-1.82664,1.3755-2.68623,2.12811-1.443,1.26335-2.97348,2.4164-4.47945,3.60105a14.49669,14.49669,0,0,1-1.72226,1.52536c-.88646.44768-1.45615,1.2058-2.271,1.6944A18.497,18.497,0,0,0,75.52058,55.663a26.9206,26.9206,0,0,1-3.2075,2.43267,6.45825,6.45825,0,0,0-.98121.92333c-.93681.96388-2.14809,1.54279-3.13262,2.401a24.26372,24.26372,0,0,0-2.16417,1.88555,15.77308,15.77308,0,0,1-1.87025,1.40461c-.68478.55279-1.39513,1.085-2.09884,1.6203-.65267.49649-1.31541.97976-1.97373,1.46884-.18843-.42271.25789-.57148.37223-.86342.21129-.29845.54764-.47167.76355-.76593.43431-.33912.86044-.68893,1.28664-1.03853.138-.13495.28722-.25788.41606-.403a1.37719,1.37719,0,0,1,.15869-.12164,2.02177,2.02177,0,0,0,.99778-.75484c.07571-.068.15729-.12867.23707-.19177a9.06061,9.06061,0,0,0,2.50636-1.91737,1.45708,1.45708,0,0,1,.139-.14646,8.86837,8.86837,0,0,0,1.498-1.14235.82559.82559,0,0,1,.16343-.11334,12.99629,12.99629,0,0,0,2.38941-1.90744.65649.65649,0,0,1,.1258-.15471c.249-.19764.56651-.30626.75609-.58225a1.24593,1.24593,0,0,1,.12728-.14343c.152-.16421.3696-.2432.52466-.40444a2.17079,2.17079,0,0,1,.22412-.19385,4.314,4.314,0,0,0,1.72764-1.31641.6743.6743,0,0,1,.15708-.13022c.62808-.13949.94094-.6714,1.34782-1.08654,1.48143-1.33431,3.10157-2.49474,4.6643-3.72694.47038-.3709.9037-.78388,1.36072-1.16967,1.4085-1.10354,2.882-2.11888,4.32-3.18247Z"/><path class="cls-28" d="M86.356,46.34232a46.0835,46.0835,0,0,1-4.197,3.33761c-.44157.09769-.63088.72474-1.19337.5687a28.07678,28.07678,0,0,1,3.35217-2.7499c.50141.12978.65214-.39746,1.01161-.54361C85.69844,46.80507,85.935,46.41725,86.356,46.34232Z"/><path class="cls-29" d="M34.42337,63.73867a1.69427,1.69427,0,0,0-.58045-.58009,1.53472,1.53472,0,0,1-1.015-.86978c-.51713-.14348-.6915-.71474-1.09231-.93985a29.86417,29.86417,0,0,1-4.1289-3.06574c-1.08067-.88035-2.46377-1.40381-3.25293-2.65388a1.72741,1.72741,0,0,0-.75208-.53749,16.87552,16.87552,0,0,1-3.216-2.46448c-.62247-.48488-1.55592-.791-1.837-1.70775-.03282-.10706-.21192-.20533-.34147-.24059-.64827-.17643-1.0235-.71475-1.51072-1.10415-.85353-.68218-1.73743-1.32984-2.55395-2.05363a8.50443,8.50443,0,0,0-1.82333-1.27348c-.87285-.41858-1.127-1.38993-2.03008-1.72728-.37178-.13888-.547-.80407-.81159-1.22986l.00279-.00166c.37361-.17853.50861.16538.69278.34309a12.35183,12.35183,0,0,0,2.68474,2.253q2.27488,1.76714,4.5505,3.53333c.24576.19042.50126.36828.75226.55194.91152.26,1.4627,1.03923,2.19722,1.55355.406.28429.80886.58629,1.20964.88488a1.75554,1.75554,0,0,0,.55334.41878.85867.85867,0,0,1,.1536.12926c1.61666,1.3802,3.26573,2.71963,4.97948,3.97813.50534.55078,1.20722.86663,1.70509,1.4261a7.18743,7.18743,0,0,0,1.22673,1.12334,6.2461,6.2461,0,0,0,1.00732.74037,7.53358,7.53358,0,0,1,.62978.48049,50.26321,50.26321,0,0,0,4.62,3.67634.874.874,0,0,1,.16616.10731,2.61384,2.61384,0,0,0,.60746.49415.96264.96264,0,0,1,.15814.12207,7.00863,7.00863,0,0,0,1.47687,1.25893.68564.68564,0,0,1,.432.619.30524.30524,0,0,1-.32181.21544,15.18331,15.18331,0,0,1-2.54382-1.84218c-.27-.21623-.69243-.21752-.83424-.60246l-.00024-.145C35.15,64.38091,34.64636,64.24688,34.42337,63.73867Z"/><path class="cls-30" d="M16.73029,48.5107c.53254-.01956.79027.424,1.11322.71224a14.83883,14.83883,0,0,1,2.225,1.89657c-.20364.19618-.37868.02276-.5079-.08232a8.02858,8.02858,0,0,1-1.23168-1.08133Z"/><path class="cls-31" d="M18.3289,49.95585c.64417.29174.991,1.02793,1.73955,1.16367l-.00119,0c.447.5014,1.13434.72467,1.51222,1.30623a.23623.23623,0,0,1-.07508.17875,25.21575,25.21575,0,0,1-3.34372-2.63415Z"/><path class="cls-26" d="M12.8579,45.88509c-.766-.133-1.20147-.75492-1.75782-1.19534-.55979-.44314-.91185-1.12746-1.61971-1.40078l.28092-.14423C10.72794,44.13222,11.80634,44.99349,12.8579,45.88509Z"/><path class="cls-30" d="M15.86224,47.77974a1.1378,1.1378,0,0,1,.71841.58725A1.10046,1.10046,0,0,1,15.86224,47.77974Z"/><path class="cls-32" d="M42.38534,35.18216c-3.49194-.45874-6.78972-1.36127-9.29-4.07706a3.2137,3.2137,0,0,1-.27785-.41167A7.12443,7.12443,0,0,1,31.747,28.45419c.00709-.1786-.10786-.3633.02733-.53533.70681.05306.58617.72341.83531,1.11742.50338.62311.51275.62993.99028-.026a2.69267,2.69267,0,0,1,.8283-.67745c1.22385-.73561,2.10914-1.90117,3.31323-2.62036.83714-.5,1.26118-1.37325,2.05654-1.86995a13.658,13.658,0,0,0,2.84272-2.05494A12.557,12.557,0,0,1,45.169,19.93436a6.27765,6.27765,0,0,0,1.40252-1.03805,25.13427,25.13427,0,0,1,3.238-2.72572,7.56278,7.56278,0,0,0,1.96679-1.76413c.25273-.35276.7422-.5028,1.09083-.80808a1.56688,1.56688,0,0,0,.66883-1.09993c.30157-.13735.52492.08652.77863.16884.21813.07311.42275.18334.64615.24312a.327.327,0,0,1,.14085.12526c.11269.19426.30734.34267.33159.58794a1.15618,1.15618,0,0,1-.54151.80967c-1.06068.82523-2.15936,1.59572-3.18433,2.47686a9.38626,9.38626,0,0,1-1.54645,1.40068A10.82311,10.82311,0,0,0,48.021,19.86066c-1.18078,1.02226-2.45937,1.92546-3.57256,3.03363A6.3596,6.3596,0,0,1,42.771,24.29922a6.69505,6.69505,0,0,0-1.98467,1.36942c-.64034.61215-1.30828,1.1992-1.97305,1.77525a11.78485,11.78485,0,0,1-2.4505,1.73622.808.808,0,0,0-.47991.50034.85871.85871,0,0,1-.66973.59005,1.45241,1.45241,0,0,0-1.03217.9161c-.03684.485.304.69035.65292.88924a8.13849,8.13849,0,0,0,1.25633.73224,3.99257,3.99257,0,0,0,.79038.40885,7.02111,7.02111,0,0,0,1.42382.606,7.85935,7.85935,0,0,0,2.53908.64361c.43672.24148.95706.16972,1.404.37355a.42173.42173,0,0,1,.17839.13866A.15609.15609,0,0,1,42.38534,35.18216Z"/><path class="cls-33" d="M31.80918,27.9159l.01446.57687a.23461.23461,0,0,1-.02472.323A5.85451,5.85451,0,0,1,33.122,22.58245a9.74469,9.74469,0,0,1,7.1262-3.20491c.41049-.02518.67822-.07531.71435-.58074a6.62137,6.62137,0,0,1,2.78233-4.95195,10.25463,10.25463,0,0,1,8.54681-1.89425c-.13327.25193-.40611.26741-.62709.37037a5.83928,5.83928,0,0,0-1.80666-.096,2.04837,2.04837,0,0,0-1.00063.22556,4.89583,4.89583,0,0,0-1.40679.18148.79368.79368,0,0,0-.7465.36033c-.6227.93973-1.75762,1.31413-2.40218,2.24306-.24782.35715-.7851.44491-1.20227.61007-.40049.15854-.54362-.10246-.39372-.642a7.34509,7.34509,0,0,1-.72982,1.76932c-.45712.44536-.24276,1.1025-.50707,1.60833-.21477.26859-.11774.60755-.20584.90475-.19854.41965-.60341.43326-.98033.49009a8.80073,8.80073,0,0,0-1.28785.13057c-.6103.1272-1.22731.23823-1.45566.95873-.03364.10614-.171.16227-.2704.22959-1.10527.74868-1.99775,1.74856-3.03757,2.57608-.4683.37269-1.04779.55032-1.495.97065-.24417.2295-.49831.06959-.45163-.32183.0143-.03624.0299-.073.0464-.10932l-.00862.01621c-.02683.058-.05068.11-.07568.16523a4.87344,4.87344,0,0,0-.17544,1.9564c-.00161.32557-.2205.61408-.16.95058A2.3174,2.3174,0,0,1,31.80918,27.9159Z"/><path class="cls-34" d="M64.39584,63.86862l-.11574.0976a4.35809,4.35809,0,0,1-1.15762.92345l.01065-.0081c-.14542.12665-.29565.24745-.44674.36747A8.96076,8.96076,0,0,0,61.24,66.43684c-.56806.29554-.90213.948-1.59926,1.04632-1.09215.314-2.02568,1.01978-3.12991,1.29a10.45745,10.45745,0,0,1-3.8083.63813.37152.37152,0,0,1-.159-.1654c.95243-.24852,1.92732-.38864,2.87709-.66383A17.44823,17.44823,0,0,0,61.627,65.47451c1.65-1.32776,3.33773-2.60847,4.99941-3.92183.88543-.69983,1.7511-1.42468,2.62536-2.13862a1.16916,1.16916,0,0,1,.55693-.3192c.168.33358-.12491.466-.28774.65238-.30132.34483-.76164.49917-1.04476.86662a8.40529,8.40529,0,0,1-1.44207,1.2273l.0133-.00922A22.01337,22.01337,0,0,1,64.39584,63.86862Z"/><path class="cls-35" d="M68.37,60.5824c.30366-.66593,1.09951-.85583,1.43862-1.4875a11.67233,11.67233,0,0,1,2.10842-1.73917C73.322,56.222,74.692,55.043,76.1828,54.01894c.93187-.71228,1.87721-1.40754,2.7587-2.18347l.14316-.13627c.20892-.12584.38209-.29989.585-.43381l-.00035.0003c.20375-.13348.38406-.29756.57841-.4433a2.58029,2.58029,0,0,1,.718-.57374c.45186-.07583.70393-.57105,1.1932-.56874-1.33136,1.22333-2.80812,2.26674-4.20958,3.40335-.59694.48412-1.1795.986-1.7686,1.47975a6.01933,6.01933,0,0,1-1.46031,1.18691l.01322-.00893a12.41811,12.41811,0,0,1-1.91291,1.46044l-.12153.08365a1.69753,1.69753,0,0,1-.58535.49767l.01031-.00713c-.31523.21832-.53015.55781-.88291.7308l.01139-.00883a24.37643,24.37643,0,0,1-2.616,2.043l.00806-.00624A.19427.19427,0,0,1,68.37,60.5824Z"/><path class="cls-36" d="M52.6971,69.252a14.51926,14.51926,0,0,0,5.52281-1.45889,4.3617,4.3617,0,0,1,1.47254-.557c.09641.4483-.29033.53835-.54764.63079a9.38807,9.38807,0,0,0-1.72629.86373c-.07888.00981-.15679.021-.235.03492a20.624,20.624,0,0,1-6.20745,1.173,23.501,23.501,0,0,1-7.11646-.794c-.45478-.12617-.94937-.20681-1.20877-.68725a.24573.24573,0,0,1,.13629-.19027c.9245.0705,1.75285.5362,2.66689.65131a9.09219,9.09219,0,0,0,1.87812.3286l-.001-.00045c.66626.20912,1.36647-.05431,2.03336.146q.07005-.00268.14007.00026a1.903,1.903,0,0,0,1.161.00006l-.00107.00049C51.33152,69.19519,52.02991,69.44807,52.6971,69.252Z"/><path class="cls-35" d="M31.66519,60.829l-.57411-.426c-.30983-.22838-.5975-.48609-.92129-.69611-.4275-.44662-.9569-.77514-1.39735-1.20665l-1.61972-1.41115.06838-.07711c.64578.09055.98317.69871,1.54922.9231l-.00145-.0011c.26221.16845.45715.42033.72363.58348l.00014.00019c.32843.19571.54054.53164.87221.72343l-.00124-.00088c.96528.88527,2.05855,1.61253,3.04757,2.46849l.13948.1388a5.93349,5.93349,0,0,1,1.16643.87241l-.00162-.00015c.19852.13834.37465.30631.57865.4374l.00032.00024a10.0742,10.0742,0,0,1,1.48785,1.32405.2003.2003,0,0,1-.06312.17843.19316.19316,0,0,1-.25923-.074l.013.01006C34.81548,63.41031,33.24825,62.10955,31.66519,60.829Z"/><path class="cls-37" d="M42.38534,35.18216l.00685-.15518c.17126-.26142.43868-.20477.68787-.20818a5.188,5.188,0,0,0,.99022.1299,15.93452,15.93452,0,0,0,2.42443.14794,44.21362,44.21362,0,0,0,8.22232-.57626c.26735.01734.56061-.05292.7502.22395a28.72769,28.72769,0,0,1-5.868.74932A32.75851,32.75851,0,0,1,42.38534,35.18216Z"/><path class="cls-38" d="M55.30463,13.562c-.37152-.25138-.37152-.25138-.28645-.43822.37917-.167.59328.19545.89438.27888a9.94429,9.94429,0,0,1,4.48535,6.82043.16338.16338,0,0,1-.19234.05391.44936.44936,0,0,1-.15189-.14726c-.21513-.697-.477-1.37732-.75047-2.053a1.76679,1.76679,0,0,0-.5027-.7291,6.24811,6.24811,0,0,0-1.47361-2.164,1.91845,1.91845,0,0,0-1.12182-.84888A1.06282,1.06282,0,0,1,55.30463,13.562Z"/><path class="cls-39" d="M55.46722,34.74433l-.74015-.0201c.15256-.59455.70066-.41262,1.06214-.46718.57219-.08636,1.10284-.296,1.655-.43084a1.74089,1.74089,0,0,0,1.40175-1.3893c.7461-.65625.68323-1.64659,1.00723-2.476.10249-.26235.10175-.564.341-.76527a.20613.20613,0,0,1,.2117.03572,10.595,10.595,0,0,1-1.32461,4.09729,1.57221,1.57221,0,0,1-.8267.67811A11.11226,11.11226,0,0,1,55.46722,34.74433Z"/><path class="cls-35" d="M27.15271,57.08912A59.3205,59.3205,0,0,1,22.075,53.02755c.43968-.23711.64465.17091.89352.36355a15.73762,15.73762,0,0,0,1.59331,1.21113l1.74149,1.44661c.26384.36071.8708.42358.8758,1.009Z"/><path class="cls-40" d="M42.82917,68.36336l-.15348.02145c-.25109.25915-.48631.05219-.72527-.02548a6.51759,6.51759,0,0,0-1.62765-.541,1.5286,1.5286,0,0,1-1.01664-.78893c-.58863-.75523-1.512-1.12989-2.12174-1.86189l.01375.00877c-.21477-.12967-.45967-.23227-.48138-.5355l.03343-.04111c.45631-.12669.65072.33917,1.00467.44406l.14861.14458c.53549.431,1.05777.87822,1.5988,1.30241L39.50056,66.49a7.06663,7.06663,0,0,1,1.01116.58423l.29213.14455a6.07281,6.07281,0,0,0,1.30523.58014l.00073.00035C42.26587,68.09411,42.84982,67.8432,42.82917,68.36336Z"/><path class="cls-30" d="M24.56181,54.60223c-.64811-.12483-1.018-.66807-1.51617-1.017a2.27444,2.27444,0,0,0-.97056-.5577l.015.00166a2.42612,2.42612,0,0,1-.57315-.60229,7.1545,7.1545,0,0,1-1.44963-1.30736,22.78349,22.78349,0,0,1,2.95636,2.17434C23.55852,53.70084,24.05048,54.16426,24.56181,54.60223Z"/><path class="cls-30" d="M33.41118,61.70872a11.70691,11.70691,0,0,1-3.04758-2.46847A14.0901,14.0901,0,0,1,33.41118,61.70872Z"/><path class="cls-30" d="M42.82917,68.36336c-.15842-.29181-.57067-.25985-.71936-.564L45.599,68.955a.0869.0869,0,0,1-.1551.00655A16.09367,16.09367,0,0,1,42.82917,68.36336Z"/><path class="cls-33" d="M51.68092,12.11031a1.00257,1.00257,0,0,1,.61075-.15967,5.38855,5.38855,0,0,1,2.31871.72342c-.06243.14009-.2398.05077-.318.15933l-.72023-.27771c-.18049.14123-.40242.08272-.60351.12718a.62159.62159,0,0,1-.20606-.04126,3.31788,3.31788,0,0,0-.956-.37183A.37127.37127,0,0,1,51.68092,12.11031Z"/><path class="cls-28" d="M78.9415,51.83547a10.27364,10.27364,0,0,1-2.75863,2.1835A16.3861,16.3861,0,0,1,78.9415,51.83547Z"/><path class="cls-30" d="M27.1791,57.0578c-.21444-.40358-.705-.56743-.87581-1.00892a14.77828,14.77828,0,0,1,2.467,1.88625C28.1285,57.84473,27.78721,57.2093,27.1791,57.0578Z"/><path class="cls-41" d="M60.40588,29.23138l-.16085-.00485a10.56042,10.56042,0,0,1,.25458-3.12791.2833.2833,0,0,1,.31368-.2388.30873.30873,0,0,1,.0221.36309A10.08111,10.08111,0,0,1,60.40588,29.23138Z"/><path class="cls-30" d="M37.75487,65.04373l-1.00468-.44405c-.36684-.60028-1.10328-.82749-1.45577-1.44225A16.5425,16.5425,0,0,1,37.75487,65.04373Z"/><path class="cls-42" d="M60.24731,20.21815l.15061.005a8.22334,8.22334,0,0,1,.445,2.88444l-.10547.06471a.303.303,0,0,1-.204-.12575c-.32209-.7418-.171-1.58029-.47806-2.3292A.39533.39533,0,0,1,60.24731,20.21815Z"/><path class="cls-43" d="M60.8354,26.22291l-.06083-.31208a9.61885,9.61885,0,0,1-.27228-2.432c-.01872-.14054.12179-.24671.26318-.30219a.64872.64872,0,0,0,.07744-.069A11.2318,11.2318,0,0,1,60.8354,26.22291Z"/><path class="cls-44" d="M31.79892,28.81582l.02464-.323q.497,1.10031.99391,2.20065A3.6892,3.6892,0,0,1,31.79892,28.81582Z"/><path class="cls-30" d="M39.50228,66.49072a4.32749,4.32749,0,0,1-1.5988-1.3024A4.60137,4.60137,0,0,1,39.50228,66.49072Z"/><path class="cls-30" d="M34.71709,62.71994a3.18125,3.18125,0,0,1-1.16639-.87235A1.63955,1.63955,0,0,1,34.71709,62.71994Z"/><path class="cls-40" d="M45.44392,68.9616l.155-.0065a6.534,6.534,0,0,1,1.73318.29186A4.11358,4.11358,0,0,1,45.44392,68.9616Z"/><path class="cls-40" d="M49.36447,69.39254a5.863,5.863,0,0,1-2.03336-.146A6.3445,6.3445,0,0,1,49.36447,69.39254Z"/><path class="cls-40" d="M52.6971,69.252a6.12469,6.12469,0,0,1-2.03261.14132,5.512,5.512,0,0,1,1.87912-.14741Z"/><path class="cls-30" d="M42.10909,67.799a1.59336,1.59336,0,0,1-1.30522-.58013A2.91822,2.91822,0,0,1,42.10909,67.799Z"/><path class="cls-30" d="M40.51172,67.07427a2.06506,2.06506,0,0,1-1.01117-.5842A1.40231,1.40231,0,0,1,40.51172,67.07427Z"/><path class="cls-30" d="M30.36485,59.24111a1.50855,1.50855,0,0,1-.87221-.72343A1.58367,1.58367,0,0,1,30.36485,59.24111Z"/><path class="cls-45" d="M55.91256,13.40271l-.8944-.27886-.01173-.12122q.06856-.13569.18386-.03661A1.3169,1.3169,0,0,1,55.91256,13.40271Z"/><path class="cls-46" d="M55.1903,12.966l-.18379.03643q-.35717-.08434-.71417-.16905l.31807-.15933A.94872.94872,0,0,1,55.1903,12.966Z"/><path class="cls-40" d="M50.66555,69.39286a1.15238,1.15238,0,0,1-1.161,0Z"/><path class="cls-30" d="M29.4925,58.51749a1.10058,1.10058,0,0,1-.72364-.58346A1.15645,1.15645,0,0,1,29.4925,58.51749Z"/><path class="cls-30" d="M35.29412,63.15718a.77238.77238,0,0,1-.57866-.43737A.8177.8177,0,0,1,35.29412,63.15718Z"/><path class="cls-28" d="M80.24775,50.82239a.76287.76287,0,0,1-.5784.44331A.85433.85433,0,0,1,80.24775,50.82239Z"/><path class="cls-28" d="M79.66969,51.26539a.775.775,0,0,1-.585.43383A.84239.84239,0,0,1,79.66969,51.26539Z"/><path class="cls-47" d="M39.39333,66.9141l.97443.59144a21.15566,21.15566,0,0,0,6.31538,2.134,19.41589,19.41589,0,0,0,5.86922.09111,18.50719,18.50719,0,0,0,4.78278-1.22755l-.015.00826a23.5629,23.5629,0,0,0,2.85161-1.33584c.15046-.09167.28875-.29314.50063-.10131l-.58009.72511c-.21534.3363-.61457.18441-.91221.35035a21.88932,21.88932,0,0,1-5.08478,1.9162,19.30006,19.30006,0,0,1-3.02356.439A26.84859,26.84859,0,0,1,47.23,70.30537a6.04458,6.04458,0,0,1-2.96746-.68579.50813.50813,0,0,0-.5448-.04243.47827.47827,0,0,1-.48531.04166c-1.18016-.73656-2.55145-1.04423-3.77229-1.6899a1.69814,1.69814,0,0,1-.54123-.56465.20171.20171,0,0,1,0-.29l.28934-.14367A.116.116,0,0,1,39.39333,66.9141Z"/><path class="cls-48" d="M38.9189,67.0742v.29A31.42039,31.42039,0,0,1,35.96,65.31435c-.20867-.14594-.37822-.28757-.37647-.56052,1.00394.16205,1.50746,1.06691,2.29518,1.55192C38.2445,66.531,38.57333,66.81618,38.9189,67.0742Z"/><path class="cls-48" d="M32.82794,62.2888a4.37967,4.37967,0,0,1,1.015.86978C33.08243,63.3613,32.89228,62.89845,32.82794,62.2888Z"/><path class="cls-48" d="M34.42337,63.73867a4.76452,4.76452,0,0,1,1.15994.87014C35.04713,64.5181,34.46824,64.48432,34.42337,63.73867Z"/><path class="cls-26" d="M60.67234,67.0742c-.84457.39808-1.69.79431-2.53318,1.19538a1.62754,1.62754,0,0,1-.819.24182c.71656-.5629,1.68339-.66041,2.37215-1.27528a9.41381,9.41381,0,0,0,1.55279-.89336q.10355-.10532.15384.03356Z"/><path class="cls-26" d="M64.39584,63.86862A17.29834,17.29834,0,0,1,67.04737,61.832,7.19055,7.19055,0,0,1,64.39584,63.86862Z"/><path class="cls-26" d="M68.6366,60.54053a15.5502,15.5502,0,0,1,2.616-2.04285A7.60885,7.60885,0,0,1,68.6366,60.54053Z"/><path class="cls-26" d="M72.82072,57.20143a9.91178,9.91178,0,0,1,1.9129-1.46032A3.84222,3.84222,0,0,1,72.82072,57.20143Z"/><path class="cls-26" d="M68.37,60.58239l.27464-.04805a3.90545,3.90545,0,0,1-1.61047,1.30686C67.37039,61.30588,68.02127,61.10447,68.37,60.58239Z"/><path class="cls-26" d="M74.72042,55.74993a6.977,6.977,0,0,1,1.46032-1.18683A2.34171,2.34171,0,0,1,74.72042,55.74993Z"/><path class="cls-49" d="M61.399,66.37631l-.15381-.03354a4.64277,4.64277,0,0,1,1.44646-1.16927q.126.08013-.00135.15809Z"/><path class="cls-26" d="M63.12248,64.88967a5.11849,5.11849,0,0,1,1.15759-.92323C64.10118,64.53347,63.60126,64.69832,63.12248,64.88967Z"/><path class="cls-26" d="M71.24124,58.50641a2.00783,2.00783,0,0,1,.8829-.73073A1.34031,1.34031,0,0,1,71.24124,58.50641Z"/><path class="cls-26" d="M72.11384,57.78275a1.56825,1.56825,0,0,1,.58525-.49738A.65853.65853,0,0,1,72.11384,57.78275Z"/><path class="cls-26" d="M62.69027,65.3316l.00136-.15806a.72953.72953,0,0,1,.44149-.29189A.93406.93406,0,0,1,62.69027,65.3316Z"/><path class="cls-48" d="M31.66519,60.829a37.12221,37.12221,0,0,1,3.26317,2.47709c.53386.4048,1.03073.85839,1.54444,1.28988a14.22221,14.22221,0,0,1-2.91131-2.108A7.187,7.187,0,0,1,31.66519,60.829Z"/><path class="cls-48" d="M39.39333,66.9141l-.18508.01642a6.75351,6.75351,0,0,1-2.02384-1.76292A14.128,14.128,0,0,1,39.39333,66.9141Z"/><path class="cls-26" d="M28.77244,58.50027a4.90643,4.90643,0,0,1,1.45783,1.1725.09121.09121,0,0,1-.15683.01456A4.35674,4.35674,0,0,1,28.77244,58.50027Z"/><path class="cls-48" d="M30.07343,59.68732l.1568-.01453a1.7648,1.7648,0,0,1,.86083.73024A2.42828,2.42828,0,0,1,30.07343,59.68732Z"/><path class="cls-48" d="M36.71677,64.64077q.24058.26779.48127.53553a.96264.96264,0,0,1-.7381-.5903Q36.58835,64.61327,36.71677,64.64077Z"/><path class="cls-35" d="M21.51689,52.42687a1.45233,1.45233,0,0,1,.57314.60218,1.02764,1.02764,0,0,1-.58561-.42464Z"/><path class="cls-50" d="M55.30463,13.562c.40478.0768.63582.45738,1.01435.58009a.24653.24653,0,0,1,.21719.2058c-.22319.81935-1.06728.98408-1.58879,1.49107-.96665.93971-2.1314,1.63763-3.15963,2.51587-1.25711,1.07372-2.64646,2.00636-3.97174,3.00679-.52295.39475-.93521.983-1.50062,1.32676-.93978.57144-1.53,1.59612-2.62195,1.95847-.20348.06752-.3176.287-.45608.45578a3.66394,3.66394,0,0,1-1.264,1.05655,4.38407,4.38407,0,0,0-1.26988.94881c-.72.74557-1.5992,1.30892-2.36937,1.98869a18.51785,18.51785,0,0,0-2.45423,2.08264,2.0094,2.0094,0,0,1-1.607.64246c-.24269-.19663-.57853-.318-.5745-.71315a2.14486,2.14486,0,0,1,1.42716-1.164c.17193-.03005.40689-.06008.39607-.24263-.04317-.72857.56831-.80081.9991-1.04032a16.08,16.08,0,0,0,2.76277-2.11144c.80671-.71183,1.59918-1.43985,2.3934-2.16569a.72023.72023,0,0,1,.516-.22618.73.73,0,0,0,.81638-.55885.60084.60084,0,0,1,.21928-.27768c1.791-1.29488,3.38129-2.83175,5.10178-4.2082.473-.37841.84534-1.03171,1.60316-.99849.06247.00274.17553-.04817.18474-.09131.24026-1.12554,1.46873-1.23569,2.0825-2.02033a9.10339,9.10339,0,0,1,2.12744-1.58823A4.98663,4.98663,0,0,0,55.30463,13.562Z"/><path class="cls-51" d="M38.19041,34.01262a6.02724,6.02724,0,0,1-1.45282-.58c.11837-.545.50463-.36.84129-.31064a1.86172,1.86172,0,0,0,2.10936-.41155,6.09488,6.09488,0,0,1,1.49327-1.23789,15.62864,15.62864,0,0,0,2.78791-2.389,1.58612,1.58612,0,0,1,.323-.28512C46.324,27.78492,47.8,26.07383,49.48913,24.63328c.42529-.36272.897-.64575,1.32762-.99045,2.37257-1.89918,4.79835-3.73088,7.15671-5.648a1.36741,1.36741,0,0,1,1.16143-.24846c.22885.10837.24454.35473.35167.5418.02411.1795.16149.33021.13415.52289a11.34276,11.34276,0,0,1-2.24786,1.9918,2.34275,2.34275,0,0,0-.44494.36275c-.79263.95436-1.97717,1.44072-2.81655,2.31939-.726.76-1.82509,1.02157-2.39277,2.017-.28.491-.96457.73523-1.45657,1.09582-1.4534,1.06522-2.7821,2.27517-4.19471,3.3825-1.44578,1.13334-2.97025,2.167-4.39711,3.3287a1.9574,1.9574,0,0,0-.44082.3705c-.60348.92563-1.40719.82288-2.26643.46891A1.54434,1.54434,0,0,0,38.19041,34.01262Z"/><path class="cls-52" d="M38.19041,34.01262c.54691-.29536,1.02331.10063,1.53172.1681a.743.743,0,0,0,.75984-.20362,22.86331,22.86331,0,0,1,3.45176-2.79165,23.94272,23.94272,0,0,0,2.26869-1.74488c1.20333-1.04435,2.47379-2.00547,3.68618-3.02643.67532-.56868,1.655-.82041,2.04758-1.7468a1.12091,1.12091,0,0,1,.84695-.623c.62828-.12378.97027-.70175,1.37467-1.06879.851-.77244,1.86072-1.32258,2.68457-2.15583A9.5637,9.5637,0,0,1,59.509,18.77986a1.918,1.918,0,0,1,.46582,1.11551,9.38617,9.38617,0,0,1-1.9032,1.78066c-.82717.61962-1.60515,1.30162-2.45023,1.89795-.19319.13633-.38336.26594-.5837.39071a3.39112,3.39112,0,0,0-1.40683,1.18868,1.17433,1.17433,0,0,1-.83341.642.74076.74076,0,0,0-.48234.29274,10.12955,10.12955,0,0,1-3.14174,2.569,6.34359,6.34359,0,0,0-1.43851,1.28424,27.16819,27.16819,0,0,1-3.59856,2.84411c-.78258.60969-1.38227,1.40424-2.20411,1.95506-.37982-.00223-.7592-.01626-1.1385.00319A9.343,9.343,0,0,1,38.19041,34.01262Z"/><path class="cls-53" d="M37.61373,33.4287c-.29187.03026-.585-.23209-.87607.0039a1.68725,1.68725,0,0,1-.72411-.43506c-.07384-.17312.02554-.2801.15619-.35268a17.30347,17.30347,0,0,0,4.07459-3.03817,21.55417,21.55417,0,0,1,1.91461-1.46553c.85553-.71405,1.71513-1.42946,2.55284-2.16822a23.98128,23.98128,0,0,1,2.78176-2.23324,28.18067,28.18067,0,0,0,2.76079-2.2c1.394-1.17546,2.92249-2.18683,4.24494-3.44251a9.62867,9.62867,0,0,1,2.4266-1.75175c.341-.165.32874-.73871.829-.72612.328.11243.46048.40018.61883.67272a.57417.57417,0,0,1-.2044.86944,20.42655,20.42655,0,0,0-2.01858,1.8298,31.12986,31.12986,0,0,1-2.59649,1.9537,5.61469,5.61469,0,0,0-.68614.52587,32.11211,32.11211,0,0,1-4.55142,3.64541c-.86335.54721-1.49648,1.41967-2.32133,2.05438-2.243,1.726-4.47968,3.46212-6.64909,5.27927C38.81179,32.89755,38.40536,33.47468,37.61373,33.4287Z"/><path class="cls-54" d="M52.83914,12.40151l.15455.01474c.62.36024.6419.501.11265.88793-.92444.67586-1.66519,1.55546-2.55362,2.27523a18.05994,18.05994,0,0,1-2.18789,1.49512c-.14277.08455-.35045.1063-.43155.24883-.57644,1.013-1.652,1.52321-2.37675,2.38423-.28395.33732-.73285.4045-1.08826.64478-1.4471.97837-2.62669,2.28523-4.089,3.235a1.62137,1.62137,0,0,0-.4452.56008.73928.73928,0,0,0-.4321.36231,4.87434,4.87434,0,0,1-1.44957,1.37214,12.75786,12.75786,0,0,0-2.0225,1.68836c-.53472.536-1.22414.83642-1.78578,1.32986a2.746,2.746,0,0,0-.52761.62266c-.46242.72577-.80434.70725-1.19428-.041-.04456-.08551-.08607-.17262-.129-.259A2.47009,2.47009,0,0,1,33.91,27.19846a12.38428,12.38428,0,0,0,1.48968-1.11555c1.03936-.68723,1.88455-1.613,2.93381-2.30043a29.812,29.812,0,0,0,2.36986-2.00213c1.32194-1.08064,2.6952-2.10647,3.98283-3.2198,1.3973-1.20815,2.87962-2.30449,4.30609-3.47113a8.32187,8.32187,0,0,1,1.805-1.29273.72914.72914,0,0,0,.37257-.33173,2.52209,2.52209,0,0,1,1.15716-1.04441A1.20924,1.20924,0,0,1,52.83914,12.40151Z"/><path class="cls-37" d="M40.79369,34.74364c.36336-.25339.77794-.12074,1.17034-.15528.32036-.24253.70753-.08948,1.05335-.179a4.88759,4.88759,0,0,0,1.449-1.0305,14.38393,14.38393,0,0,1,2.23917-1.76595,2.41724,2.41724,0,0,0,.6867-.52262,17.41494,17.41494,0,0,1,2.61411-2.21982,53.70519,53.70519,0,0,0,4.89493-4.16082c.31318-.35068.77746-.4236,1.14821-.70212a40.68067,40.68067,0,0,0,3.42469-2.81906c.47749-.4476.70322.00284.89632.38411.01816.21182.01055.42381.00938.63563-.33549.88942-1.16608,1.30181-1.84012,1.84483-.8165.65779-1.6685,1.26268-2.46791,1.95325a31.06915,31.06915,0,0,1-3.64613,2.91018,7.44718,7.44718,0,0,0-1.76412,1.57578,1.05945,1.05945,0,0,1-.36311.34358c-1.2067.5108-1.98836,1.56277-2.99735,2.31968-.78028.58535-1.53065,1.20471-2.29839,1.80363-.244.19032-.51459.03195-.7707.06534-.14915-.00042-.29787-.00028-.44705-.00041-.50311.03969-1.00273-.18685-1.50686-.01709A6.69359,6.69359,0,0,1,40.79369,34.74364Z"/><path class="cls-45" d="M52.406,12.54558A16.47526,16.47526,0,0,1,49.205,15.32a23.76105,23.76105,0,0,0-3.86921,3.16455,4.28006,4.28006,0,0,1-.83332.68742,61.68483,61.68483,0,0,0-5.68963,4.72585c-.33868.29718-.86334.31018-1.10992.65118a6.66713,6.66713,0,0,1-2.06424,1.724c-.72784.43965-1.16,1.306-2.10251,1.42273-.2078.02573-.26111.26229-.37507.41446-.27051.36123-.32649.87056-.7679,1.11254l-.584-1.30681-.12994-.286c1.19672-.0095,1.77695-1.044,2.63616-1.60771.96792-.63507,1.67758-1.56742,2.70848-2.19014a13.45907,13.45907,0,0,0,2.9023-2.35185c.80272-.86742,1.96417-1.31241,2.78855-2.16127.66853-.68839,1.61416-1.035,2.17114-1.85867a3.77814,3.77814,0,0,1,1.08332-.80577c1.41252-.99175,2.6373-2.19873,3.94977-3.30345a6.735,6.735,0,0,0,.57077-.4329c.255-.26582.1181-.36731-.17417-.40046-.34953-.017-.6629-.06717-.51639-.54767a6.16121,6.16121,0,0,1,1.88173.14031l.14649.00262C51.96949,12.32508,52.38116,12.17668,52.406,12.54558Z"/><path class="cls-55" d="M57.77259,15.73614c-.33461,1.2138-1.68661,1.16573-2.407,1.94743a32.44736,32.44736,0,0,1-4.20728,3.45184,32.44077,32.44077,0,0,0-2.53764,2.11807c-.44975.42768-1.01323.64256-1.47419,1.01842-.96988.79081-1.859,1.69243-2.88277,2.40211-1.06.73477-1.912,1.70207-3.02107,2.40793a18.26044,18.26044,0,0,0-2.08328,1.87392c-.67594.60973-1.5782.92644-2.14913,1.6778-.24263.31931-.70624.12325-.99661.36384a3.97,3.97,0,0,1-1.29927-.73037c-.04951-.12877.02167-.20372.11842-.26746a.559.559,0,0,1,.20985-.04439c.90519.59785,1.49148-.248,2.13684-.56473a9.68518,9.68518,0,0,0,1.11545-.886,44.16049,44.16049,0,0,1,4.00343-3.1501,17.91263,17.91263,0,0,0,2.97733-2.60766c.73163-.66961,1.60781-1.12345,2.33905-1.8446a39.75113,39.75113,0,0,1,3.30467-2.72954c1.25315-.99113,2.5538-1.9252,3.73979-2.99689.80378-.72631,1.78554-1.19219,2.60456-1.88891a.35635.35635,0,0,1,.2756-.06428C57.73,15.34276,57.93787,15.45491,57.77259,15.73614Z"/><path class="cls-54" d="M39.93406,24.14741c.0161-.90463.78821-1.21189,1.35145-1.66057a17.153,17.153,0,0,0,2.27542-2.03774c.33288-.37809,1.07512-.35015,1.48308-.77341a16.54874,16.54874,0,0,0,2.31024-2.19555c.17516-.26882.3508-.59016.65133-.645.94219-.17178,1.50545-.92314,2.23826-1.40274a12.639,12.639,0,0,0,2.242-2.10851.9452.9452,0,0,1,.41292-.2766c.54966-.147.32232-.38323.09477-.63123q.28932.06983.57849.13947a.76576.76576,0,0,1-.211,1.03252,17.37172,17.37172,0,0,0-2.28,1.91487c-.86225,1.00288-2.12443,1.4412-3.00422,2.41654a9.53913,9.53913,0,0,1-2.5767,2.1652,10.38063,10.38063,0,0,0-2.41954,1.74115A19.97813,19.97813,0,0,1,39.93406,24.14741Z"/><path class="cls-56" d="M34.85856,32.12328l-.14424.14387c-.42764-.30811-1.0555-.44065-1.0159-1.15849a1.67152,1.67152,0,0,0,.57974.57994C34.42148,31.90046,34.91239,31.64821,34.85856,32.12328Z"/><path class="cls-57" d="M42.27815,35.007a4.03323,4.03323,0,0,1,1.57082-.12363.12611.12611,0,0,1-.03793.19563,1.202,1.202,0,0,1-.68461-.05148l-.73417-.00052A.68787.68787,0,0,1,42.27815,35.007Z"/><path class="cls-44" d="M49.79919,11.97c.13594.35881.45146.26459.72119.28588.47494.36238.08083.57967-.15528.77746-1.10162.92283-2.23278,1.81166-3.31306,2.75832A8.56361,8.56361,0,0,1,45.097,17.22821a.80261.80261,0,0,0-.21928.18576,19.1784,19.1784,0,0,1-3.75344,2.9668,17.59543,17.59543,0,0,0-1.94323,1.7145,14.32174,14.32174,0,0,1-2.86848,2.14012,2.21475,2.21475,0,0,0-.963.83837c-.39178.6344-1.11024.90143-1.64064,1.386a5.67927,5.67927,0,0,0-.69311.62145c-.22389.2853-.47176.5114-.8478.40839-.40829-.11184-.42346-.47493-.42835-.82154a.28548.28548,0,0,0-.06958-.19684c.19706-.67652.03519-1.45485.5769-2.03359.10076.09458.05349.22515.08327.33665.04833.181.05363.42173.27552.4638.23171.04393.309-.17359.39414-.34712a1.1232,1.1232,0,0,1,.66458-.61762c1.18029-.39565,1.91333-1.39922,2.83925-2.13676a6.60213,6.60213,0,0,1,.8471-.642,2.57151,2.57151,0,0,0,1.4255-1.69557c.76486-.20084,1.62082.08111,2.32547-.4388.22148-.10974.201-.32711.23186-.52165a4.48458,4.48458,0,0,1,.88093-.98863c.82064-.90892,1.97-1.364,2.8113-2.21891a1.6485,1.6485,0,0,1,.71215-.4756c.09308-.0266.22383-.0439.25578-.1199.34639-.82387,1.30675-1.03079,1.74847-1.75144.2782-.45387.88015-.61383,1.04457-1.16665A2.77257,2.77257,0,0,1,49.79919,11.97Z"/><path class="cls-58" d="M31.67007,26.47123c.45763,1.0266.56213.96752,1.42.19374a32.24116,32.24116,0,0,1,3.90346-3.26775c.66157-.43073,1.303-1.02024,1.92927-1.52157.81174-.64983,1.38644-1.59683,2.397-2.0113A13.01279,13.01279,0,0,0,43.192,18.47564c.862-.5438,1.33631-1.59537,2.43959-1.801.15973-.02977.30965-.22459.42254-.37437a8.30364,8.30364,0,0,1,2.08262-1.83611c.77-.50833,1.23062-1.39977,2.17018-1.66493a.38193.38193,0,0,0,.21344-.54334,2.22735,2.22735,0,0,1,.50315.03642c.31769.096.38534.26077.09509.50118-.87273.72287-1.72479,1.46631-2.5562,2.2395-.56165.52231-1.33706.81377-1.64205,1.60772-1.47771.169-2.07356,1.59447-3.199,2.29161-.70669.43774-1.3424,1.10923-2.0368,1.61569-1.54387,1.126-2.87025,2.53137-4.44593,3.57743-1.0686.70942-1.90389,1.63043-2.89725,2.37772-.6175.46454-1.26316.91758-1.90491,1.36312-.353.24507-.46916-.27206-.7573-.23639Q31.67473,27.05058,31.67007,26.47123Z"/><path class="cls-46" d="M48.78688,12.11745c.482.18335.69116.38433.06786.687a2.14186,2.14186,0,0,0-1.06167,1.03623.59457.59457,0,0,1-.35925.33307,1.27279,1.27279,0,0,0-.96943.942.47271.47271,0,0,1-.27768.31409c-1.11251.21043-1.75683,1.17185-2.646,1.72779a7.94739,7.94739,0,0,0-2.01141,1.769c-.239-.04784-.211-.27354-.28659-.43028a4.98,4.98,0,0,1,.43419-1.739,1.77132,1.77132,0,0,0,1.21984-.44406c1.03526-.725,1.88377-1.66731,2.91952-2.39315.57936-.406.97224-1.048,1.51538-1.51885A2.28873,2.28873,0,0,1,48.78688,12.11745Z"/><path class="cls-59" d="M38.77634,19.799c.45922.31141.53089.52534.022.9611-.95426.81723-2.03557,1.48256-2.92172,2.36389a5.31937,5.31937,0,0,1-2.28523,1.51721.35685.35685,0,0,0-.20981.26131c.008.52766-.4396.64355-.75621.87225-.45234.32676-.541.05014-.51165-.34.02511-.33386.08736-.66492.1332-.99721l.001-.001a.08851.08851,0,0,1,.14524.00143c.00867.22973.02183.31426.27175.11778a15.23473,15.23473,0,0,0,2.45721-1.89962c.73721-.88782,1.97444-1.22008,2.43167-2.3935C37.74021,19.78457,38.37021,19.97359,38.77634,19.799Z"/><path class="cls-33" d="M47.33165,12.40126c-.126.95106-.8745,1.44547-1.547,1.92957a5.89623,5.89623,0,0,0-.87868.69707c-.91489.96131-2.05809,1.64069-3.05554,2.5102-.25009-.26515.07063-.57632-.17354-.78087a5.749,5.749,0,0,1,1.57458-2.13416c-.03167.44013-.72194.60581-.42846.93495.22316.25028.50424-.32183.84329-.36.3369-.038.46125-.29912.66159-.55334A6.01334,6.01334,0,0,1,45.672,13.568c.19946-.1389.46431-.238.52962-.467C46.37254,12.50173,46.84681,12.45746,47.33165,12.40126Z"/><path class="cls-59" d="M35.06986,21.35136a2.71773,2.71773,0,0,1,2.08175-.91478Z"/><path class="cls-33" d="M44.07472,14.0547a1.63683,1.63683,0,0,1,1.35671-.76932Z"/><path class="cls-45" d="M41.24272,18.49631a.55246.55246,0,0,1,.28659.43028c-.02716.25836-.01242.558-.42758.43365A1.68552,1.68552,0,0,1,41.24272,18.49631Z"/><path class="cls-44" d="M32.39326,24.438l-.14524-.00143a.87849.87849,0,0,1,.53385-.803Z"/><path class="cls-48" d="M57.33513,68.5031a7.73948,7.73948,0,0,1-2.83574,1.00511,20.72886,20.72886,0,0,1-4.13076.56112,16.84719,16.84719,0,0,1-3.65756-.31024A20.35623,20.35623,0,0,1,40.894,67.86234c-.19233-.09963-.40869-.15152-.52621-.35679.84538.09345,1.49991.68791,2.308.87924a16.98287,16.98287,0,0,0,5.9019,1.31324,19.97307,19.97307,0,0,0,8.33156-1.12921A2.10858,2.10858,0,0,1,57.33513,68.5031Z"/><path class="cls-60" d="M59.07845,32.55911a1.80789,1.80789,0,0,1-1.29528,1.3968c-.99987.34958-2.04669.4782-3.05615.7684a39.97016,39.97016,0,0,1-8.24865.57891c.04462-.46353.43369-.48115.75614-.58942a.81917.81917,0,0,1,.24409-.02034c.39711.00805.79853.17456,1.18878-.043.56246-.05951,1.15247.314,1.69119-.11246.65953.18728,1.29052-.29271,1.95036-.08593a28.01391,28.01391,0,0,0,4.35193-.91557,3.50014,3.50014,0,0,0,1.90836-.93907.42525.42525,0,0,1,.40728-.09451C59.01057,32.52122,59.04451,32.54016,59.07845,32.55911Z"/><path class="cls-39" d="M47.33094,35.02511l-.8528.27818a10.83048,10.83048,0,0,1-2.47759-.14686.25445.25445,0,0,1-.15017-.13357l-.00141-.13957.43525-.0035c.64483.23557,1.17589-.32513,1.79731-.25894C46.477,34.8198,47.02463,34.55167,47.33094,35.02511Z"/><path class="cls-61" d="M43.85039,35.02286l.15014.13367a1.38713,1.38713,0,0,1-.87413-.12907Z"/><path class="cls-62" d="M57.77259,15.73614a.5714.5714,0,0,0-.28975-.43668.17127.17127,0,0,1-.00066-.28778,7.40606,7.40606,0,0,1,1.59155,2.18012c-.08848.24044.32741.478.00406.7198a8.577,8.577,0,0,0-2.83714,1.91233c-.85063.65435-1.71137,1.29943-2.54265,1.9732a7.1876,7.1876,0,0,0-1.75868,1.51017c-.19627.30477-.55912.36754-.837.54634-1.6081,1.03466-2.83,2.51676-4.32826,3.67239a20.54975,20.54975,0,0,0-3.00969,2.25378c-1.18488,1.338-2.85837,2.02122-4.03024,3.36495a1.61285,1.61285,0,0,1-2.1204.284c1.11809-.72163,1.96393-1.76716,3.0385-2.54379a25.53047,25.53047,0,0,0,3.3684-2.573c1.195-1.21569,2.83877-1.89831,3.80971-3.34741.2033-.30341.58109-.30737.863-.4904a42.55782,42.55782,0,0,0,4.20288-3.47969c.82066-.69611,1.70987-1.31535,2.59647-1.92833a10.83654,10.83654,0,0,0,1.46618-1.429,4.51974,4.51974,0,0,1,.67671-.52157C58.43689,16.55861,58.45281,16.47108,57.77259,15.73614Z"/><path class="cls-63" d="M47.33094,35.02512l-1.30562-.00239a.32534.32534,0,0,1,.0506-.39955A11.24445,11.24445,0,0,1,47.53868,33.073c1.65678-1.36294,3.40307-2.60865,5.01051-4.04343a6.16145,6.16145,0,0,1,2.59565-1.86489.36994.36994,0,0,0,.18709-.10622c.85155-.95146,1.99471-1.57131,2.84912-2.52415a2.60626,2.60626,0,0,1,1.62246-1.11157c.17751-.01789.28368-.092.2544-.26728-.05425-.32481.22083-.57617.17938-.89335l-.00306-.727c-.124-.33915-.38237-.61248-.47456-.96775a.58481.58481,0,0,1,.02963-.22273c.11056-.14893.19959-.33607.4427-.25211q.00908.06274.01525.12571a22.49444,22.49444,0,0,1,.42821,2.905c-.18894.44526.04573.8924-.00593,1.3375.023.63265-.17661,1.077-.8811,1.20842-.58825.10974-.81374.7108-1.24125,1.05035-.90016.71495-1.93247,1.25006-2.79558,1.99428-.9512.82019-1.93742,1.6-2.86507,2.44608a5.975,5.975,0,0,1-.82379.561,18.6137,18.6137,0,0,0-3.30028,2.7932c-.42607.44761-.94206.38223-1.43184.5103Z"/><path class="cls-42" d="M60.232,20.09255l-.28333.287c-.18928-.09891-.05907-.30492-.14678-.43788q-.14638-.58088-.29282-1.16177l-.14368-.43317c-.07071-.1735-.18664-.36085.12759-.41641A11.20849,11.20849,0,0,1,60.232,20.09255Z"/><path class="cls-55" d="M57.48218,15.01168l-.00106.144a.47278.47278,0,0,1-.58293-.08131c-.37093-.13767-.36581-.48255-.4337-.78729l-.14547-.145C56.969,14.08115,57.12775,14.67728,57.48218,15.01168Z"/><path class="cls-52" d="M59.493,17.93029l-.12757.41641-.28759-.43512c.02849-.24014-.16928-.479-.004-.71987Q59.28333,17.56108,59.493,17.93029Z"/><path class="cls-64" d="M60.52211,24.58367c.055-.48634-.11851-.99665.15329-1.46033a.41813.41813,0,0,1,.09021.0532q.00449,1.367.00912,2.734c-.36237,1.0758-.12558,2.247-.52978,3.31592a19.8805,19.8805,0,0,1-.71941,2.69935,1.048,1.048,0,0,1-.44711.63325l-.00135-.00019c-.535-.43258-.20888-.95268-.07786-1.39543.22336-.75477.39308-1.52522.64712-2.27043a21.5756,21.5756,0,0,0,.37623-2.33523c.02149-.22705.154-.42727.15765-.6598C60.4972,25.51256,60.41656,25.02385,60.52211,24.58367Z"/><path class="cls-54" d="M52.406,12.54558c-.21159-.11923-.50183-.13327-.57864-.43267a1.6102,1.6102,0,0,1,1.01176.28859Z"/><path class="cls-38" d="M56.46449,14.2871l.58157.5791c.06254.14162.09088.33758-.02062.40829-.5748.36453-.81777,1.121-1.58262,1.27153-.5673.11168-.9129.64623-1.25813,1.01274-.60493.64223-1.40576.99447-2.00165,1.63054-.81651.87157-1.90814,1.43174-2.76209,2.26271-.8037.78207-1.88379,1.24238-2.52507,2.205-.05351.08031-.09929.18216-.18913.214a10.2455,10.2455,0,0,0-2.54092,1.86182,17.40028,17.40028,0,0,1-2.62342,2.12906,6.36419,6.36419,0,0,0-2.039,1.68932,13.49872,13.49872,0,0,1-1.422,1.105,19.62255,19.62255,0,0,1-2.06505,1.483c-.37408.2562-.67817.09267-1.013-.01557l-.14472-.00039c-.18-.16288-.46005-.19215-.58039-.43468,1.16341-.21826,1.75308-1.28274,2.66764-1.87817.68726-.44744,1.29784-1.12265,1.997-1.61273,1.11761-.78338,1.89038-1.99737,3.209-2.52616a1.26945,1.26945,0,0,0,.54519-.46128,3.33973,3.33973,0,0,1,1.74764-1.338c.06772-.0237.16591-.04563.18987-.09661.57606-1.22587,2.12527-1.40951,2.76512-2.60535.1941-.36275.80223-.40823,1.12621-.81223a16.30491,16.30491,0,0,1,2.37659-1.8184c1.1845-1.01848,2.46948-1.95412,3.73676-2.89171C55.24931,15.19665,55.85617,14.74088,56.46449,14.2871Z"/><path class="cls-65" d="M59.80186,19.94165l.14677.43784q.00042.07107.0001.14209a8.07036,8.07036,0,0,1-2.06945,2.0545,18.62438,18.62438,0,0,1-2.08981,1.639c-1.603,1.00558-2.819,2.47313-4.3498,3.54947a25.99032,25.99032,0,0,0-3.25285,2.558c-1.18949,1.16071-2.68213,1.92374-3.81531,3.14539-.39929.43047-1,.67305-1.24726,1.26567a2.50288,2.50288,0,0,1-1.1602-.14528,4.70062,4.70062,0,0,1,1.68418-1.8311,45.41376,45.41376,0,0,0,5.09625-4.08148c.75879-.70863,1.76995-1.12739,2.55626-1.84192a2.66019,2.66019,0,0,0,.653-.75227.9496.9496,0,0,1,.87247-.64777c.201.00081.44652-.10293.46447-.28493.07068-.71658.66079-.83483,1.14427-1.11479.91479-.52971,1.67155-1.28761,2.54092-1.87445C57.97549,21.48493,58.815,20.62229,59.80186,19.94165Z"/><path class="cls-61" d="M60.23727,22.26211c.28024.52755.07656,1.08273.1595,1.679-.944-.57941-1.4.201-1.7837.6542-.86471,1.0212-2.10266,1.60489-2.925,2.656a.94334.94334,0,0,1-.50079.27628c-1.09691.26572-1.6363,1.27768-2.50376,1.85723-1.20387.80428-2.13518,1.94452-3.37825,2.74726a6.17458,6.17458,0,0,0-2.112,1.85291,5.24966,5.24966,0,0,1-1.168,1.03778c-.5796-.0568-1.17984.13779-1.74107-.14294.763.00366,1.07216-.65556,1.52182-1.0838.24836-.23653.4332-.50419.81068-.529a.749.749,0,0,0,.48127-.29117,10.37009,10.37009,0,0,1,3.05-2.45378c.3773-.1768.65625-.66033.98141-1.00125.78593-.824,1.83756-1.27886,2.66024-2.05461A30.62271,30.62271,0,0,0,56.663,24.895c.35495-.42974.93029-.56064,1.38188-.87808C58.81632,23.47467,59.44249,22.76406,60.23727,22.26211Z"/><path class="cls-42" d="M43.12423,34.73365c-.31747-.266-.19783-.50072.06162-.71056.7993-.64643,1.61079-1.278,2.40288-1.93306a21.50573,21.50573,0,0,0,3.24271-2.78647,1.64166,1.64166,0,0,1,.48986-.41337c1.17721-.6195,2.03245-1.68444,3.13765-2.35484,1.15009-.69763,1.8172-1.87615,3.03076-2.52793a19.64714,19.64714,0,0,0,2.697-2.1241c.57144-.45714.95632-1.20352,1.762-1.36173a1.60849,1.60849,0,0,1,.28554,1.01358c-.24534-.08882-.42041-.45779-.75548-.03585a15.86223,15.86223,0,0,1-3.9076,3.17574,10.2055,10.2055,0,0,0-1.9502,1.63618,7.96317,7.96317,0,0,1-1.21356.9916c-.13295.10011-.31742.14342-.42747.26052a28.50087,28.50087,0,0,1-3.22145,2.69226A13.0264,13.0264,0,0,0,47.118,31.79506c-.32967.36751-.89507.38215-1.30553.78907-.70548.69943-1.53173,1.28633-2.21078,2.02992C43.47682,34.75082,43.29148,34.72457,43.12423,34.73365Z"/><path class="cls-56" d="M35.00328,32.12367a3.29923,3.29923,0,0,0,2.33546-1.31474,1.41845,1.41845,0,0,1,.3524-.35117,11.59881,11.59881,0,0,0,2.6553-2.15786,4.143,4.143,0,0,1,.80489-.59806,16.368,16.368,0,0,0,1.93174-1.48521,12.64258,12.64258,0,0,1,2.85462-2.22991c.4549-.188.69466-.58057,1.04094-.8687,1.2535-1.043,2.42894-2.19538,3.76252-3.12111a14.58039,14.58039,0,0,0,2.46749-2.028c.88366-.97222,2.24608-1.26683,2.94657-2.40378.198-.32142.71839-.30208.89084-.69889l.43506.2895.0017.14377a3.81957,3.81957,0,0,1-1.9713,1.46019.68515.68515,0,0,0-.44683.33148,5.07547,5.07547,0,0,1-2.00663,1.70774c-.38661.19972-.60033.58337-.90095.85767a33.32448,33.32448,0,0,1-3.3458,2.64053c-.97394.68174-1.57327,1.759-2.75715,2.2409a6.59809,6.59809,0,0,0-1.81188,1.59142,11.60467,11.60467,0,0,1-2.884,2.24489,3.84375,3.84375,0,0,0-1.53273,1.349c-.40363.61784-1.2774.90707-1.84985,1.44209-.58233.54426-1.36523.71584-1.95717,1.23361C35.645,32.7257,35.31337,32.33549,35.00328,32.12367Z"/><path class="cls-66" d="M59.94581,28.93094a9.35616,9.35616,0,0,1-.53294,2.10691,9.17515,9.17515,0,0,0-.33578,1.52107c-1.093,1.31788-2.69181,1.4029-4.19357,1.76057A23.03,23.03,0,0,1,52.405,34.733a.48679.48679,0,0,1,.06162-.76016c.78037-.70014,1.566-1.40774,2.40253-2.02711,1.35963-1.00666,2.73591-1.98906,4.03262-3.0772C59.27943,28.55161,59.62181,28.50591,59.94581,28.93094Z"/><path class="cls-67" d="M60.52211,24.58367c-.04088.48344.12253.9868-.14123,1.44851a16.32556,16.32556,0,0,1-2.87664,2.38227,16.64466,16.64466,0,0,0-1.61752,1.34676,16.695,16.695,0,0,1-2.20932,1.79007,9.7742,9.7742,0,0,0-2.00152,1.69482,18.98866,18.98866,0,0,0-1.68568,1.42148c-.33513.405-.90751.20881-1.35477.35654l-1.30485.00021a1.63921,1.63921,0,0,0,1.33854-1.04673c.07589-.20634.28271-.317.46747-.43723a4.20127,4.20127,0,0,0,1.663-1.45233c.03207-.06185.08867-.143.14625-.15485,1.2978-.26609,1.85307-1.64574,3.06893-2.03861.47365-.15305.47932-.73628.89022-1.00456,1.06941-.69823,2.11993-1.43319,3.12121-2.22528a5.6282,5.6282,0,0,0,1.84988-1.83683c.043-.09011.13587-.16239.23453-.10623.17383.09895.08543.31095.19043.50266Z"/><path class="cls-41" d="M59.94581,28.93094a.771.771,0,0,0-.85111.18951A36.53916,36.53916,0,0,1,55.171,32.15139c-.92371.66182-1.71726,1.50323-2.64,2.18116-.091.06684-.0863.26389-.126.40048l-2.02931.1454a.56183.56183,0,0,1,.26786-.74259c.99058-.64364,1.60324-1.74321,2.62652-2.296a13.79566,13.79566,0,0,0,2.38974-1.88273,29.15854,29.15854,0,0,0,3.52371-2.8321,1.47231,1.47231,0,0,1,1.1995-.65678A15.43272,15.43272,0,0,1,59.94581,28.93094Z"/><path class="cls-39" d="M60.383,26.4682a24.08461,24.08461,0,0,1-2.69657,2.37035,20.00044,20.00044,0,0,0-2.96531,2.33728,1.54664,1.54664,0,0,1-.57378.42568,5.14057,5.14057,0,0,0-2.03068,1.57628c-.55748.59679-1.19925,1.09631-1.741,1.70066a5.45155,5.45155,0,0,1-1.74024.14569A2.30949,2.30949,0,0,0,50.3626,33.7502c.11067-.20732.32871-.24517.52853-.33478a2.04338,2.04338,0,0,0,1.21654-1.11529c.04971-.13626.06938-.29518.23384-.33687a6.526,6.526,0,0,0,2.3968-1.692c1.13624-.92686,2.0604-2.11555,3.44166-2.75433A2.21562,2.21562,0,0,0,59.427,26.3746c.16522-.413.599-.32442.95386-.34242Z"/></svg>