<?xml version="1.0" encoding="utf-8"?>
<!-- Generator: Adobe Illustrator 16.0.0, SVG Export Plug-In . SVG Version: 6.00 Build 0)  -->
<!DOCTYPE svg PUBLIC "-//W3C//DTD SVG 1.1//EN" "http://www.w3.org/Graphics/SVG/1.1/DTD/svg11.dtd">
<svg version="1.1" id="Layer_1" xmlns="http://www.w3.org/2000/svg" xmlns:xlink="http://www.w3.org/1999/xlink" x="0px" y="0px"
	 width="74px" height="74px" viewBox="0 0 74 74" enable-background="new 0 0 74 74" xml:space="preserve">
<g>
	<polygon fill="#2E87C8" points="4.666,53.006 4.666,20.064 37.021,1.397 69.169,18.98 69.169,52.824 36.915,72.906 	"/>
	<path fill="#094B7C" d="M37.034,2.544l31.135,17.029V52.27l-31.257,19.46L5.666,52.447V20.642L37.034,2.544 M37.008,0.25
		L3.666,19.487v34.077l33.251,20.52L70.169,53.38V18.388L37.008,0.25L37.008,0.25z"/>
</g>
<image display="none" overflow="visible" width="74" height="74" xlink:href="../../../framework-icon4.png" >
</image>
<path display="none" fill="#FFFFFF" d="M19.75,25.875c0,0-0.25-5.625,11.75-7.125h12.25c0,0,8,1.625,10.625,5.25
	c0,0,0.25,36.5-14.625,32.875l-7.25,0.253c0,0-10.125-2.628-11.25-8.503s-0.125-5.5-0.125-5.5s3.625,5.125,10.625,6.5l10.875-0.375
	L42.75,32c0,0-4.291-5.875-5.833-7.375c0,0-6.417-1.375-12.542,1.5L19.75,25.875z"/>
<path display="none" fill="#094B7C" d="M22.625,28.5c0,0,4.875,2.5,9,3.25h8.25c0,0-2.166-3.25-2.958-4.375s-14.292,0.5-14.292,0.5"
	/>
<path display="none" fill="#094B7C" d="M23.25,31.75c0,0,5.25,2.5,8,2.625h9.375V46.75H29.5c0,0-7.125-2.875-6.875-8.375
	S23.25,31.75,23.25,31.75z"/>
<path fill="#FFFFFF" d="M19.282,26.633c0,0-2.271-6.894,16.691-7.54c0,0,13.037-0.323,16.808,5.708l-4.523,26.177
	c0,0-2.155,3.983-12.28,4.631c0,0-9.909,1.508-14.649-7.434l-0.431-6.086c0,0,6.248,9.479,20.574,6.355l0.036-16.534l-5.518-7.11
	C35.989,24.802,20.466,26.669,19.282,26.633z"/>
<path fill="#094B7C" d="M21.902,28.285l13.644-1.76l3.878,5.745C39.425,32.27,26.032,32.881,21.902,28.285z"/>
<path fill="#094B7C" d="M21.723,30.547c0,0,6.319,4.093,18.097,3.482v13.033h-5.853c0,0-9.443-0.61-11.31-5.887L21.723,30.547z"/>
</svg>
