<?xml version="1.0" encoding="utf-8"?>
<!-- Generator: Adobe Illustrator 16.0.0, SVG Export Plug-In . SVG Version: 6.00 Build 0)  -->
<!DOCTYPE svg PUBLIC "-//W3C//DTD SVG 1.1//EN" "http://www.w3.org/Graphics/SVG/1.1/DTD/svg11.dtd">
<svg version="1.1" id="Layer_1" xmlns="http://www.w3.org/2000/svg" xmlns:xlink="http://www.w3.org/1999/xlink" x="0px" y="0px"
	 width="74px" height="74px" viewBox="0 0 54 53" enable-background="new 0 0 54 53" xml:space="preserve">
<g id="Layer_x0020_1">
	<path fill="#0069E2" d="M8.523,1.192h36.953c4.032,0,7.33,3.299,7.33,7.331v36.954c0,4.032-3.298,7.331-7.33,7.331H8.523
		c-4.032,0-7.331-3.299-7.331-7.331V8.523C1.193,4.492,4.492,1.192,8.523,1.192z"/>
	<g id="_337332576">
		<path id="_337333776" fill="#FFFFFE" d="M27,10.512c4.387,0,8.557,1.727,11.658,4.829c3.103,3.102,4.83,7.272,4.83,11.659
			c0,4.386-1.728,8.557-4.83,11.659C35.557,41.761,31.387,43.49,27,43.49c-4.387,0-8.557-1.729-11.659-4.831
			c-3.102-3.101-4.83-7.273-4.83-11.659c0-4.386,1.728-8.557,4.83-11.659C18.443,12.239,22.613,10.512,27,10.512z M37.231,16.769
			C34.51,14.046,30.853,12.531,27,12.531c-3.851,0-7.509,1.515-10.231,4.238c-2.722,2.723-4.238,6.38-4.238,10.231
			c0,3.853,1.516,7.51,4.238,10.232C19.491,39.954,23.149,41.47,27,41.47c3.853,0,7.51-1.516,10.231-4.237
			C39.954,34.51,41.47,30.853,41.47,27C41.47,23.149,39.954,19.492,37.231,16.769z"/>
		<path id="_337333848" fill="#FFFFFE" d="M25.605,19.829l1.692,0.976h0.001c0.12,0.071,0.201,0.182,0.235,0.307
			c0.033,0.124,0.018,0.261-0.052,0.383l-6.023,10.432h0c-0.07,0.121-0.182,0.202-0.305,0.235c-0.124,0.033-0.261,0.018-0.381-0.051
			h-0.002l-1.693-0.977l0,0c-0.12-0.071-0.201-0.184-0.235-0.309c-0.033-0.123-0.019-0.261,0.051-0.383l0,0.002l6.022-10.431v-0.002
			c0.07-0.121,0.182-0.202,0.307-0.236C25.348,19.744,25.485,19.757,25.605,19.829L25.605,19.829L25.605,19.829z"/>
		<path id="_337333632" fill="#FFFFFE" d="M20.802,32.962l-2.241,1.658c-0.068,0.058-0.161,0.092-0.258,0.079
			c-0.185-0.021-0.318-0.187-0.297-0.372l0.334,0.04l-0.334-0.04l0.318-2.777c0.002-0.052,0.017-0.103,0.044-0.148
			c0.092-0.159,0.298-0.216,0.459-0.123h-0.001l1.916,1.107c0.05,0.023,0.095,0.059,0.13,0.104
			C20.983,32.64,20.952,32.851,20.802,32.962L20.802,32.962z"/>
		<path id="_337334040" fill="#FFFFFE" d="M26.825,17.091c2.47,3.051,4.566,5.896,5.905,8.104c0.697,1.15,1.191,2.131,1.429,2.883
			c0.28,0.886,0.221,1.517-0.245,1.834c-0.041,0.028-0.084,0.054-0.129,0.074c-0.041,0.028-0.084,0.053-0.127,0.074
			c-0.499,0.242-1.056-0.018-1.651-0.686c-0.508-0.563-1.074-1.452-1.685-2.589c-1.227-2.291-2.644-5.622-4.087-9.385h-0.001
			c-0.067-0.173,0.02-0.368,0.193-0.434C26.575,16.91,26.739,16.965,26.825,17.091z"/>
		<line id="_337333944" fill="none" x1="33.593" y1="31.903" x2="33.593" y2="31.903"/>
		<line id="_337332648" fill="none" x1="34.17" y1="31.558" x2="34.17" y2="31.558"/>
		<path id="_337332816" fill="#FFFFFE" d="M33.849,29.966c0.304-0.184,0.669-0.184,1.014-0.038c0.31,0.131,0.605,0.383,0.813,0.73
			c0.207,0.346,0.292,0.727,0.261,1.061c-0.036,0.372-0.21,0.694-0.515,0.875c-0.305,0.184-0.671,0.185-1.016,0.04
			c-0.309-0.132-0.605-0.385-0.813-0.73l0,0c-0.207-0.349-0.291-0.728-0.259-1.062C33.368,30.469,33.542,30.148,33.849,29.966z"/>
		<path id="_337333032" fill="#FFFFFE" d="M36.927,33.189c0.218,0.512,0.302,1.269,0.356,2.076l0.05,0.686l-0.571-0.384
			c-0.672-0.452-1.285-0.903-1.62-1.348c-0.433-0.575-0.459-1.116,0.238-1.595l0.046-0.027
			C36.189,32.233,36.644,32.528,36.927,33.189z"/>
		<path id="_337332792" fill="#FFFFFE" d="M15.223,24.907h6.335l-2.418,4.189h-3.917V24.907z M26.047,24.907h2.819
			c0.333,0.709,0.68,1.411,1.047,2.097c0.364,0.682,0.791,1.435,1.271,2.092h-7.556L26.047,24.907z M33.095,24.907h5.683v4.189
			h-3.991c0.015-0.388-0.072-0.794-0.186-1.156c-0.321-1.011-0.928-2.081-1.476-2.984L33.095,24.907z"/>
	</g>
</g>
<rect fill="none" width="54" height="54"/>
</svg>
