<svg xmlns="http://www.w3.org/2000/svg" xmlns:xlink="http://www.w3.org/1999/xlink" width="60" height="60" viewBox="0 0 60 60">
  <defs>
    <clipPath id="clip-dotnet-tech-icon">
      <rect width="60" height="60"/>
    </clipPath>
  </defs>
  <g id="dotnet-tech-icon" clip-path="url(#clip-dotnet-tech-icon)">
    <path id="dotnet-tech-icon-2" data-name="dotnet-tech-icon" d="M50.927,13.1c-4.662.3-6.917,2.707-7.97,6.316C41,25.581,39.8,29.641,38.747,32.2c-2.256-6.617-3.008-18.647-9.323-18.647H16.641C11.077,13.551,3.559,23.777.1,37.01H5.965c4.812-.3,7.068-2.707,8.271-6.316q1.353-4.286,2.256-7.218c1.5-2.105,1.955-3.91,3.308-5.414H21c2.105,6.617,3.008,18.5,9.323,18.5h11.88c4.812,0,9.774-8.722,17.895-23.308Z" transform="translate(-0.1 4.9)" fill="#f6c315"/>
  </g>
</svg>
