<svg xmlns="http://www.w3.org/2000/svg" xmlns:xlink="http://www.w3.org/1999/xlink" width="60" height="60" viewBox="0 0 60 60">
  <defs>
    <clipPath id="clip-drupal-tech-icon">
      <rect width="60" height="60"/>
    </clipPath>
  </defs>
  <g id="drupal-tech-icon" clip-path="url(#clip-drupal-tech-icon)">
    <g id="drupal-tech-icon-2" data-name="drupal-tech-icon" transform="translate(-25.207)">
      <path id="Drupal_3_" d="M68.555,11.1c-3.083-1.9-5.977-2.64-8.892-4.54C57.857,5.35,55.355,2.47,53.25,0c-.385,3.987-1.595,5.622-2.988,6.785a42.848,42.848,0,0,1-7.347,4.42C40.78,12.315,29.132,19.29,29.207,34.22,29.26,49.135,41.892,60.077,55.875,60c13.977-.052,26.06-10.235,26-25.532A27.18,27.18,0,0,0,68.555,11.1Zm.412,43.022a12.588,12.588,0,0,1-6.077,2.458c-3.135.308-7.375.477-9.925-1.822a.815.815,0,0,1-.015-1.2,1.314,1.314,0,0,1,.867-.412c.355,0,.29,0,.468.11,1.172.925,2.907,1.657,6.612,1.648s6.327-1.048,7.49-1.945c.52-.387.74-.055.82.182A.9.9,0,0,1,68.967,54.12ZM58.89,49.295a10.523,10.523,0,0,1,2.672-1.915,5.071,5.071,0,0,1,2.425-.365,4.843,4.843,0,0,1,2.62.515,4.385,4.385,0,0,1,1.337,2.065.826.826,0,0,1-.457,1.172c-.405.22-.463.108-.875-.645-.387-.737-.747-1.5-2.785-1.495a4.746,4.746,0,0,0-3.652,1.532c-.977.815-1.337,1.09-1.665.625C58.152,50.33,58.257,49.867,58.89,49.295Zm20.887-11.11a13.872,13.872,0,0,1-1.93,7.052c-1.38,2.042-2.252,2.8-3.89,2.675-2.073-.16-6.287-6.6-8.955-6.71-3.357-.1-10.645,7.043-16.385,7.055-3.49.01-4.527-.507-5.7-1.242a6.2,6.2,0,0,1-2.575-5.6c.045-4.517,4.252-8.745,9.6-8.832,6.785-.07,11.515,6.665,14.945,6.588,2.895-.06,8.45-5.765,11.17-5.77C78.952,33.39,79.775,36.382,79.777,38.185Z" transform="translate(0)" fill="#f6c315"/>
    </g>
  </g>
</svg>
