<svg xmlns="http://www.w3.org/2000/svg" xmlns:xlink="http://www.w3.org/1999/xlink" width="60" height="60" viewBox="0 0 60 60">
  <defs>
    <clipPath id="clip-html-tech-icon">
      <rect width="60" height="60"/>
    </clipPath>
  </defs>
  <g id="html-tech-icon" clip-path="url(#clip-html-tech-icon)">
    <g id="XMLID_106_" transform="translate(-13.772)">
      <path id="XMLID_107_" d="M18.69,0a.9.9,0,0,0-.913,1l4.649,52.146a1.561,1.561,0,0,0,1.055,1.267l19.728,5.478a4.278,4.278,0,0,0,1.932,0L64.929,54.4a1.561,1.561,0,0,0,1.056-1.267L70.641,1a.9.9,0,0,0-.913-1ZM60.74,11.96c-.044.49-.12,1.34-.169,1.89l-.123,1.368c-.049.549-.12,1.334-.157,1.745s-.072.747-.078.747h-24.4a.9.9,0,0,0-.913,1l.43,4.8a1.12,1.12,0,0,0,1.092,1h22.3a.8.8,0,0,1,.812.891c-.045.49-.121,1.341-.17,1.89L57.986,42.776c-.049.549-.112,1.251-.139,1.559s-.484.681-1.016.828L45.175,48.4l-.981.271c-.008,0-.45-.118-.981-.265l-11.67-3.238A1.561,1.561,0,0,1,30.488,43.9l-.751-8.431a.9.9,0,0,1,.914-1h4.658a1.12,1.12,0,0,1,1.092,1l.295,3.3a1.547,1.547,0,0,0,1.057,1.26L43.211,41.5l.972.261.972-.262,5.468-1.478a1.549,1.549,0,0,0,1.057-1.26l.593-6.613a.9.9,0,0,0-.913-1H30.353a1.12,1.12,0,0,1-1.091-1l-1.455-16.3c-.049-.549-.125-1.4-.169-1.89a.859.859,0,0,1,.923-.891H59.817A.859.859,0,0,1,60.74,11.96Z" fill="#f6c315"/>
    </g>
  </g>
</svg>
