<svg xmlns="http://www.w3.org/2000/svg" xmlns:xlink="http://www.w3.org/1999/xlink" width="60" height="60" viewBox="0 0 60 60">
  <defs>
    <clipPath id="clip-laravel-tech-icon">
      <rect width="60" height="60"/>
    </clipPath>
  </defs>
  <g id="laravel-tech-icon" clip-path="url(#clip-laravel-tech-icon)">
    <g id="comp_x5F_194-laravel" transform="translate(0 2.505)">
      <g id="Group_1" data-name="Group 1" transform="translate(0 6.495)">
        <path id="Path_1" data-name="Path 1" d="M38.112,47.7A1.29,1.29,0,0,1,37,47.06L30.174,35.424l-13.13,3.222A1.286,1.286,0,0,1,15.6,37.99L.147,8.378a1.287,1.287,0,0,1,1.14-1.883H15.452a1.285,1.285,0,0,1,1.11.637L31.426,32.467,47.92,28.418,42.2,20.1A1.287,1.287,0,0,1,43.08,18.1l9.013-1.287a1.291,1.291,0,0,1,1.23.526l6.437,9.013a1.29,1.29,0,0,1-.742,2l-6.867,1.684,6.333,9.211a1.287,1.287,0,0,1-.653,1.95L38.517,47.631A1.3,1.3,0,0,1,38.112,47.7ZM32.785,34.784l5.91,10.075,16.7-5.568-5.916-8.6ZM3.411,9.07l14,26.835,11.4-2.8L14.713,9.07ZM45.5,20.353l5.1,7.409L56.559,26.3,51.68,19.468Z" transform="translate(0 -6.495)" fill="#f6c315"/>
      </g>
    </g>
  </g>
</svg>
