<svg xmlns="http://www.w3.org/2000/svg" xmlns:xlink="http://www.w3.org/1999/xlink" width="60" height="60" viewBox="0 0 60 60">
  <defs>
    <clipPath id="clip-mongodb-tech-icon">
      <rect width="60" height="60"/>
    </clipPath>
  </defs>
  <g id="mongodb-tech-icon" clip-path="url(#clip-mongodb-tech-icon)">
    <g id="mongodb-tech-icon-2" data-name="mongodb-tech-icon" transform="translate(-254.356 -10)">
      <path id="Path_4" data-name="Path 4" d="M283.435,32.522c-.025-5.742-.08-17.423-.4-22.522-.1.11-.178.208-.288.331-1.886,1.475-11.582,9.6-12.36,26.1-.631,13.088,7.86,21.677,11.4,24.683a109.984,109.984,0,0,0,1.7-23.4C283.447,37,283.447,35.124,283.435,32.522Z" fill="#f6c315"/>
      <path id="Path_5" data-name="Path 5" d="M489.412,850.6a12.74,12.74,0,0,1-.6,2.081l-.312.618a27.072,27.072,0,0,1,.435,5.277l1.684.563a31.515,31.515,0,0,1,.135-6.593c.025-.1.043-.177.067-.276A8.42,8.42,0,0,1,489.412,850.6Z" transform="translate(-204.79 -789.14)" fill="#f6c315"/>
      <path id="Path_6" data-name="Path 6" d="M534.382,45.537C531.071,31,523.277,26.228,522.445,24.41a.28.28,0,0,1-.067-.11c.19,3.747.3,10.383.355,21.635v.024c.012,2.461.012,4.42.043,5.087a127.173,127.173,0,0,1-.575,15.96c.043,3.636,1.328,6.807,2.081,7.346.3-.245.655-.545,1.041-.9a.711.711,0,0,0,.067-.043v-.024C529.35,69.742,536.954,60.566,534.382,45.537Z" transform="translate(-236.426 -13.425)" fill="#f6c315"/>
    </g>
  </g>
</svg>
