<svg xmlns="http://www.w3.org/2000/svg" xmlns:xlink="http://www.w3.org/1999/xlink" width="60" height="60" viewBox="0 0 60 60">
  <defs>
    <clipPath id="clip-mysql-tech-icon">
      <rect width="60" height="60"/>
    </clipPath>
  </defs>
  <g id="mysql-tech-icon" clip-path="url(#clip-mysql-tech-icon)">
    <path id="mysql-tech-icon-2" data-name="mysql-tech-icon" d="M29.7,26.079h5.55v1.35H29.4c-.75,0-.9.15-1.05.6v1.2c.15.6.45.75,1.35.75h2.4a5.392,5.392,0,0,1,1.65.3,1.7,1.7,0,0,1,1.35,1.5v1.5c0,.75-.45,1.2-1.35,1.65a3.563,3.563,0,0,1-1.8.45h-5.7v-1.35h5.7a1.608,1.608,0,0,0,.9-.3c.15-.15.3-.3.3-.45v-1.2c0-.15,0-.3-.15-.3-.15-.3-.45-.3-1.05-.45H29.1c-1.65-.15-2.7-.9-2.7-1.8v-1.2c0-1.05.45-1.65,1.65-1.95A2.723,2.723,0,0,1,29.7,26.079Zm15.6,8.7,1.95,1.8H45l-1.65-1.5-1.65.15H39.6a3.728,3.728,0,0,1-1.2-.15,2.223,2.223,0,0,1-1.95-2.1v-4.65c0-1.2.9-1.95,2.55-2.1h4.95c1.65.3,2.55.9,2.55,2.1v4.65C46.35,34.029,46.05,34.479,45.3,34.779Zm-.75-6.45v-.15c-.15-.45-.6-.75-1.35-.75h-3c-.9,0-1.5.45-1.5,1.05v4.65a1.206,1.206,0,0,0,1.35.9H42l-1.65-1.5H42.6l1.5,1.35c.3-.15.45-.3.45-.6v-4.95ZM12.9,26.079c-1.5-.45-2.55,0-3,.9l-3,6.75-2.85-6.75c-.45-1.05-1.5-1.5-3-.9A1.2,1.2,0,0,0,0,27.429v7.8H1.95v-7.8l3.15,6.9c.3.9.9,1.05,1.8,1.05a1.7,1.7,0,0,0,1.8-1.05l3.15-6.9v7.8H13.8v-7.8A1.206,1.206,0,0,0,12.9,26.079Zm10.05,2.7v5.25H18.6c-1.05,0-1.2-.6-1.2-.75v-4.35H15.45v4.5c0,1.05,1.2,1.8,3.3,1.8h4.2v.45c0,.15.15.9-1.2,1.05h-6.3v1.35h6.3c1.05,0,3.15-.45,3.15-2.1v-7.05l-1.95-.15Zm19.8-18.15h-.6a2.071,2.071,0,0,0,.45.6c.15.3.3.45.3.75h0a1.146,1.146,0,0,0,.3-.75c-.15-.15-.15-.15-.15-.3S42.75,10.779,42.75,10.629Zm16.8,17.85.45.45h0c-.15-.15-.15-.3-.3-.45l-.45-.45a7.862,7.862,0,0,0-1.65-1.5c-.45-.3-1.5-.75-1.8-1.35h0a2.781,2.781,0,0,0,1.05-.3c.45-.15,1.05-.15,1.5-.3.3,0,.45-.15.75-.15v-.15c-.3-.3-.45-.6-.75-.9-.75-.6-1.65-1.35-2.55-1.95a17.6,17.6,0,0,0-1.65-.75c-.15-.15-.45-.15-.6-.3a3.015,3.015,0,0,1-.6-1.2,21.251,21.251,0,0,1-1.2-2.7c-.3-.6-.45-1.2-.75-1.8a16.371,16.371,0,0,0-5.85-5.7,7.426,7.426,0,0,0-1.95-.6H42c-.3-.15-.45-.45-.75-.45-.9-.6-3.15-1.8-3.75-.15-.45,1.05.6,1.95.9,2.4a3.266,3.266,0,0,1,.75,1.2c.15.3.15.45.3.75.3.75.45,1.35.75,2.1a3.138,3.138,0,0,0,.6.9l.45.45a2.826,2.826,0,0,0-.3,1.2,6.558,6.558,0,0,0,.45,5.1c.3.45.75,1.2,1.65.9.75-.3.6-1.2.75-1.95a.551.551,0,0,1,.15-.45h0a8.907,8.907,0,0,0,.6,1.2,12.953,12.953,0,0,0,1.95,2.1c.3.3.6.75,1.05.9h0c-.15-.15-.3-.15-.3-.3a3.977,3.977,0,0,1-.75-.9,17.673,17.673,0,0,1-1.65-2.85,6.269,6.269,0,0,1-.6-1.5c-.15-.15-.15-.45-.3-.6a2.691,2.691,0,0,0-.75,1.05,9.961,9.961,0,0,0-.45,2.25h0c-.45-.15-.6-.6-.9-1.05a6.217,6.217,0,0,1-.15-4.05c.15-.3.6-1.35.45-1.65s-.45-.45-.6-.75-.45-.6-.6-.9l-.9-2.7a5.262,5.262,0,0,0-.75-1.2,2.547,2.547,0,0,1-.9-.9.456.456,0,0,1,0-.6.147.147,0,0,1,.15-.15c.15-.15.75,0,.9.15a13.937,13.937,0,0,1,1.5.75c.3.15.45.45.75.45H42c.45.15,1.05,0,1.5.15a15.138,15.138,0,0,1,2.25,1.05,13.592,13.592,0,0,1,4.8,5.25c.15.3.3.75.45,1.05.3.75.75,1.5,1.05,2.25a9.164,9.164,0,0,0,1.05,2.1c.3.3,1.2.45,1.5.6s.75.3,1.05.45c.45.3,1.05.75,1.5,1.05.3.15,1.05.6,1.05.9a9.02,9.02,0,0,0-3,.45c-.3.15-.6.15-.6.45.15.15.15.3.3.45a2.2,2.2,0,0,0,.75.9c.3.3.6.45.9.75l1.8.9A1.852,1.852,0,0,1,59.55,28.479Zm-9.9,4.5v-6.9H47.7v6.9c0,1.35,1.05,2.1,3,2.25h5.85v-1.35H51.3C50.1,33.879,49.65,33.579,49.65,32.979Z" transform="translate(0 7.057)" fill="#f6c315"/>
  </g>
</svg>
