<svg xmlns="http://www.w3.org/2000/svg" xmlns:xlink="http://www.w3.org/1999/xlink" width="60" height="60" viewBox="0 0 60 60">
  <defs>
    <clipPath id="clip-nodejs-tech-icon">
      <rect width="60" height="60"/>
    </clipPath>
  </defs>
  <g id="nodejs-tech-icon" clip-path="url(#clip-nodejs-tech-icon)">
    <path id="nodejs-tech-icon-2" data-name="nodejs-tech-icon" d="M5.7,18.37.3,21.52c-.15,0-.3.3-.3.6v8.25c0,.3.3.3.45.3l3.15-1.8a.779.779,0,0,0,.3-.6v-3.9a.779.779,0,0,1,.3-.6l1.35-.75c.3-.15.3-.15.6,0l1.35.75a.779.779,0,0,1,.3.6v3.9a.779.779,0,0,0,.3.6l3.45,1.8c.15,0,.45,0,.45-.3V22.12a.779.779,0,0,0-.3-.6L6.3,18.37C6,18.22,6,18.22,5.7,18.37Zm34.05,1.05-1.35-.75a.456.456,0,0,0-.6,0l-5.4,3a.779.779,0,0,0-.3.6v6.15a.779.779,0,0,0,.3.6l5.4,3.15a.456.456,0,0,0,.6,0l5.4-3.15a.779.779,0,0,0,.3-.6V12.97a.779.779,0,0,0-.3-.6l-3.3-1.65c-.15-.15-.45,0-.45.3v8.25A.524.524,0,0,1,39.75,19.42Zm.3,6.9h0L38.1,27.67h-.15l-1.8-1.05L36,26.47v-2.1a.147.147,0,0,1,.15-.15l1.8-1.05h.15l1.8,1.05.15.15Zm19.65-2.1a.779.779,0,0,0,.3-.6v-1.5a.779.779,0,0,0-.3-.6l-5.25-3a.456.456,0,0,0-.6,0l-5.4,3.15a.479.479,0,0,0-.45.45v6.15a.779.779,0,0,0,.3.6l5.25,3a.456.456,0,0,0,.6,0l3.3-1.8c.15,0,.15-.15.15-.3s0-.3-.15-.3l-5.4-3.15c-.15,0-.15-.15-.15-.3V24.07c0-.15,0-.3.15-.3l1.65-1.05H54l1.65,1.05c.15,0,.15.15.15.3v1.5c0,.15,0,.3.15.3h.3Zm-37.95-5.7a.456.456,0,0,1,.6,0l5.4,3.15a.779.779,0,0,1,.3.6v6.15a.779.779,0,0,1-.3.6l-5.4,3.15a.456.456,0,0,1-.6,0l-5.4-3.15a.779.779,0,0,1-.3-.6V22.27a.779.779,0,0,1,.3-.6ZM54,23.92h0l1.2.6v1.5l-1.05.6H54l-1.05-.6v-1.5Z" transform="translate(0 8.339)" fill="#f6c315"/>
  </g>
</svg>
