<svg xmlns="http://www.w3.org/2000/svg" xmlns:xlink="http://www.w3.org/1999/xlink" width="60" height="60" viewBox="0 0 60 60">
  <defs>
    <clipPath id="clip-react-tech-icon">
      <rect width="60" height="60"/>
    </clipPath>
  </defs>
  <g id="react-tech-icon" clip-path="url(#clip-react-tech-icon)">
    <g id="react-tech-icon-2" data-name="react-tech-icon" transform="translate(0.15 1.001)">
      <circle id="Ellipse_1" data-name="Ellipse 1" cx="5.361" cy="5.361" r="5.361" transform="translate(24.5 23.273)" fill="#f6c315"/>
      <g id="Group_3" data-name="Group 3" transform="translate(-0.15 16.46)">
        <path id="Path_11" data-name="Path 11" d="M29.861,36.18c-7.53,0-14.109-.886-19.033-2.573a24.2,24.2,0,0,1-7.839-4.2C.94,27.658-.15,25.744-.15,23.9c0-3.545,3.887-7.016,10.413-9.281a61.71,61.71,0,0,1,19.586-2.894,61.135,61.135,0,0,1,19.332,2.842,24.555,24.555,0,0,1,7.585,3.995c2.017,1.688,3.084,3.534,3.084,5.34,0,3.684-4.347,7.412-11.352,9.729A61.672,61.672,0,0,1,29.861,36.18Zm0-21.894a59.986,59.986,0,0,0-18.744,2.744c-6,2.1-8.693,4.957-8.693,6.869,0,1.987,2.9,5.116,9.238,7.283,4.656,1.591,10.957,2.437,18.2,2.437A58.8,58.8,0,0,0,47.7,31.193c6.59-2.189,9.6-5.318,9.6-7.295,0-1.016-.77-2.21-2.168-3.376a21.989,21.989,0,0,0-6.773-3.545A59.067,59.067,0,0,0,29.861,14.285Z" transform="translate(0.15 -11.723)" fill="#f6c315"/>
      </g>
      <g id="Group_4" data-name="Group 4" transform="translate(11.456 1.999)">
        <path id="Path_12" data-name="Path 12" d="M13.9,55.357a5.632,5.632,0,0,1-2.863-.7C7.966,52.88,6.9,47.773,8.192,40.99a61.613,61.613,0,0,1,7.283-18.411A61.454,61.454,0,0,1,27.587,7.252,24.381,24.381,0,0,1,34.84,2.68c2.467-.907,4.6-.907,6.161-.01,3.193,1.837,4.252,7.476,2.757,14.7a61.868,61.868,0,0,1-7.1,17.431c-3.76,6.515-7.818,11.769-11.738,15.2a24.163,24.163,0,0,1-7.55,4.688A10.391,10.391,0,0,1,13.9,55.357Zm2.68-32.136,1.111.641A59.64,59.64,0,0,0,10.7,41.473c-1.185,6.248-.043,10.007,1.6,10.957a3.161,3.161,0,0,0,1.591.363c2.125,0,5.467-1.344,9.333-4.72,3.706-3.238,7.585-8.278,11.2-14.548a59.114,59.114,0,0,0,6.814-16.661c1.4-6.8.192-10.968-1.526-11.961-.877-.5-2.3-.437-4,.192a21.813,21.813,0,0,0-6.451,4.1A58.881,58.881,0,0,0,17.687,23.871Z" transform="translate(-7.654 -1.999)" fill="#f6c315"/>
      </g>
      <g id="Group_5" data-name="Group 5" transform="translate(11.468 2.051)">
        <path id="Path_13" data-name="Path 13" d="M38.22,55.371c-2.9,0-6.591-1.752-10.435-5.062A61.515,61.515,0,0,1,15.471,34.8h0A61.292,61.292,0,0,1,8.24,16.645,24.48,24.48,0,0,1,7.9,8.081c.448-2.6,1.505-4.444,3.075-5.352,3.183-1.847,8.6.054,14.109,4.955A61.693,61.693,0,0,1,36.629,22.541c3.77,6.515,6.3,12.656,7.3,17.761a24.413,24.413,0,0,1,.3,8.886c-.492,2.659-1.6,4.551-3.2,5.479A5.485,5.485,0,0,1,38.22,55.371ZM17.693,33.52A59.662,59.662,0,0,0,29.462,48.365c4.817,4.143,8.64,5.042,10.294,4.079,1.721-.993,2.982-5.062,1.678-11.642-.961-4.827-3.385-10.7-7.018-16.97A59.132,59.132,0,0,0,23.386,9.607c-5.19-4.615-9.4-5.65-11.118-4.656-.876.5-1.527,1.774-1.838,3.568a21.841,21.841,0,0,0,.332,7.637A58.82,58.82,0,0,0,17.693,33.52Z" transform="translate(-7.662 -2.034)" fill="#f6c315"/>
      </g>
    </g>
  </g>
</svg>
