<svg xmlns="http://www.w3.org/2000/svg" xmlns:xlink="http://www.w3.org/1999/xlink" width="60" height="60" viewBox="0 0 60 60">
  <defs>
    <clipPath id="clip-wordpress-tech-icon">
      <rect width="60" height="60"/>
    </clipPath>
  </defs>
  <g id="wordpress-tech-icon" clip-path="url(#clip-wordpress-tech-icon)">
    <g id="wordpress-tech-icon-2" data-name="wordpress-tech-icon" transform="translate(0 0)">
      <path id="WordPress" d="M0,30A30,30,0,1,0,30,0,30,30,0,0,0,0,30Zm2.312,0a27.632,27.632,0,0,1,2.4-11.269L17.917,54.917A27.687,27.687,0,0,1,2.312,30ZM30,57.688a27.718,27.718,0,0,1-7.823-1.124l8.31-24.137L39,55.74a2.5,2.5,0,0,0,.2.377A27.54,27.54,0,0,1,30,57.688ZM52.376,29.481a26.152,26.152,0,0,0,2.108-9.916,20.6,20.6,0,0,0-.191-2.849A27.694,27.694,0,0,1,43.921,53.93Zm-5.97-8.515A14.6,14.6,0,0,1,48.691,28.6a25.836,25.836,0,0,1-2.107,8.952L43.82,46.779,33.814,17.02c1.671-.091,3.168-.264,3.168-.264a1.145,1.145,0,0,0-.174-2.284s-4.486.354-7.381.354c-2.721,0-7.291-.354-7.291-.354a1.146,1.146,0,0,0-.177,2.284s1.415.174,2.908.264l4.31,11.819L23.119,47.007,13.034,17.02c1.67-.091,3.172-.264,3.172-.264a1.146,1.146,0,0,0-.177-2.284s-4.483.354-7.381.354c-.519,0-1.129-.014-1.78-.032A27.673,27.673,0,0,1,48.7,9.585c-.118-.009-.237-.023-.355-.023a4.79,4.79,0,0,0-4.651,4.912C43.689,16.757,45,18.687,46.406,20.966Z" fill="#f6c315"/>
    </g>
  </g>
</svg>
