<?xml version="1.0" encoding="utf-8"?>
<!-- Generator: Adobe Illustrator 16.0.0, SVG Export Plug-In . SVG Version: 6.00 Build 0)  -->
<!DOCTYPE svg PUBLIC "-//W3C//DTD SVG 1.1//EN" "http://www.w3.org/Graphics/SVG/1.1/DTD/svg11.dtd">
<svg version="1.1" id="Layer_1" xmlns="http://www.w3.org/2000/svg" xmlns:xlink="http://www.w3.org/1999/xlink" x="0px" y="0px"
	 width="83px" height="80px" viewBox="0 0 83 80" enable-background="new 0 0 83 80" xml:space="preserve">
<path fill="#010101" d="M75.049,20.645h-9.033V0H9.242v20.645H7.952c-3.557,0-6.452,2.895-6.452,6.452v38.71
	c0,3.557,2.895,6.451,6.452,6.451h16.774v5.162h-5.161V80h43.871v-2.58h-5.161v-5.162h16.774c3.557,0,6.451-2.895,6.451-6.451
	v-38.71C81.5,23.54,78.605,20.645,75.049,20.645z M63.436,30.968h2.58v7.742h-2.58V30.968z M60.855,33.548H37.629v-2.581h23.227
	V33.548z M35.048,38.138l-7.372-2.764c-0.222-0.083-0.37-0.298-0.37-0.535c0-0.238,0.148-0.452,0.372-0.536l7.37-2.764V38.138z
	 M37.629,36.129h23.227v2.581H37.629V36.129z M68.597,30.968h1.29c2.135,0,3.871,1.737,3.871,3.871s-1.736,3.871-3.871,3.871h-1.29
	V30.968z M36.104,28.387l-9.331,3.499c-1.223,0.458-2.047,1.645-2.047,2.953c0,1.307,0.824,2.494,2.045,2.952l9.333,3.5h27.332
	v12.902H11.823v-41.29h51.613v15.484H36.104z M63.436,2.581v7.742H11.823V2.581H63.436z M7.952,23.226h1.291v33.549h56.773V41.291
	h3.871c3.558,0,6.452-2.895,6.452-6.452c0-3.558-2.895-6.452-6.452-6.452h-3.871v-5.162h9.033c2.133,0,3.871,1.737,3.871,3.871
	v34.839H4.081V27.097C4.081,24.963,5.818,23.226,7.952,23.226z M55.693,77.42H27.307v-5.162h28.387V77.42z M75.049,69.678H7.952
	c-2.134,0-3.871-1.737-3.871-3.871v-1.291H78.92v1.291C78.92,67.94,77.182,69.678,75.049,69.678z"/>
<path fill="#010101" d="M14.403,5.161h2.581v2.581h-2.581V5.161z"/>
<path fill="#010101" d="M19.564,5.161h2.581v2.581h-2.581V5.161z"/>
<path fill="#010101" d="M24.726,5.161h2.581v2.581h-2.581V5.161z"/>
<path fill="#010101" d="M14.403,25.807h15.484V15.484H14.403V25.807z M16.984,18.064h10.323v5.161H16.984V18.064z"/>
<path fill="#010101" d="M33.758,15.484v10.323h15.484V15.484H33.758z M46.661,23.226H36.339v-5.161h10.322V23.226z"/>
<path fill="#010101" d="M14.403,28.387h9.032v2.581h-9.032V28.387z"/>
<path fill="#010101" d="M14.403,33.548h7.742v2.581h-7.742V33.548z"/>
<path fill="#010101" d="M14.403,38.709h9.032v2.582h-9.032V38.709z"/>
<path fill="#010101" d="M14.403,43.871h46.452v2.58H14.403V43.871z"/>
<path fill="#010101" d="M58.274,49.032h2.581v2.581h-2.581V49.032z"/>
<path fill="#010101" d="M14.403,49.032h41.29v2.581h-41.29V49.032z"/>
</svg>
