<?xml version="1.0" encoding="utf-8"?>
<!-- Generator: Adobe Illustrator 16.0.0, SVG Export Plug-In . SVG Version: 6.00 Build 0)  -->
<!DOCTYPE svg PUBLIC "-//W3C//DTD SVG 1.1//EN" "http://www.w3.org/Graphics/SVG/1.1/DTD/svg11.dtd">
<svg version="1.1" id="Layer_1" xmlns="http://www.w3.org/2000/svg" xmlns:xlink="http://www.w3.org/1999/xlink" x="0px" y="0px"
	 width="83px" height="80px" viewBox="0 0 83 80" enable-background="new 0 0 83 80" xml:space="preserve">
<g>
	<g>
		<path fill="#010101" d="M65.535,49.693c-1.629-3.396-7.456-8.109-13.087-12.664c-3.14-2.539-6.106-4.939-7.998-6.83
			c-0.476-0.478-1.185-0.63-1.81-0.405c-1.166,0.422-1.885,0.747-2.453,0.999c-0.865,0.389-1.155,0.52-2.32,0.637
			c-0.516,0.052-0.979,0.328-1.266,0.758c-2.445,3.655-4.976,3.344-6.667,2.777c-0.539-0.181-0.636-0.412-0.688-0.633
			c-0.363-1.52,1.459-5.053,3.821-7.416c5.621-5.623,8.518-7.03,14.64-4.294c6.942,3.105,13.901,5.537,13.972,5.56
			c0.909,0.315,1.889-0.162,2.202-1.064c0.312-0.902-0.161-1.888-1.063-2.203c-0.07-0.024-6.891-2.407-13.695-5.454
			c-7.93-3.545-12.28-1.21-18.495,5.008c-2.366,2.366-5.578,7.151-4.748,10.663c0.356,1.493,1.407,2.601,2.97,3.115
			c3.918,1.294,7.495,0.056,10.158-3.479c1.099-0.17,1.697-0.418,2.597-0.823c0.325-0.146,0.706-0.314,1.209-0.519
			c1.979,1.857,4.648,4.019,7.461,6.29c5.082,4.112,10.849,8.773,12.146,11.473c0.64,1.33-0.049,2.199-0.517,2.598
			c-0.684,0.588-1.621,0.773-2.129,0.418c-0.562-0.385-1.289-0.408-1.867-0.063c-0.581,0.347-0.906,1-0.834,1.67
			c0.117,1.1-0.889,1.729-1.325,1.946c-1.106,0.562-2.261,0.464-2.692,0.063c-0.483-0.449-1.18-0.581-1.795-0.354
			c-0.615,0.231-1.045,0.799-1.107,1.456c-0.104,1.134-0.943,2.224-2.039,2.648c-0.529,0.2-1.297,0.321-1.986-0.308
			c-0.428-0.389-1.021-0.537-1.579-0.401c-0.563,0.139-1.018,0.547-1.215,1.09c-0.065,0.172-0.215,0.587-1.832,0.587
			c-1.152,0-3.224-0.777-4.237-1.449c-1.213-0.798-8.826-6.477-15.399-11.982c-0.924-0.777-2.521-2.444-3.933-3.918
			c-1.251-1.307-2.396-2.493-2.984-2.99c-0.737-0.623-1.826-0.529-2.438,0.203c-0.616,0.729-0.526,1.822,0.204,2.438
			c0.536,0.452,1.574,1.55,2.719,2.742c1.542,1.61,3.137,3.278,4.208,4.177c6.439,5.393,14.179,11.213,15.721,12.227
			C36.634,64.824,39.376,66,41.5,66c1.705,0,3.016-0.391,3.925-1.154c1.218,0.473,2.601,0.478,3.933-0.041
			c1.574-0.609,2.867-1.838,3.602-3.324c1.361,0.291,2.922,0.086,4.339-0.627c1.388-0.697,2.39-1.767,2.888-3.015
			c1.377,0.072,2.795-0.415,3.967-1.422C66.137,54.721,66.684,52.077,65.535,49.693z"/>
	</g>
</g>
<g>
	<g>
		<path fill="#010101" d="M34.583,21.042H19.02c-0.954,0-1.729,0.775-1.729,1.729S18.066,24.5,19.02,24.5h15.563
			c0.955,0,1.73-0.775,1.73-1.729S35.538,21.042,34.583,21.042z"/>
	</g>
</g>
<g>
	<g>
		<path fill="#010101" d="M70.602,46.016c-0.537-0.793-1.607-1.011-2.399-0.472l-5.056,3.396c-0.793,0.533-1.004,1.608-0.472,2.4
			c0.336,0.494,0.882,0.764,1.438,0.764c0.33,0,0.664-0.094,0.962-0.293l5.057-3.396C70.923,47.882,71.134,46.809,70.602,46.016z"/>
	</g>
</g>
<g>
	<g>
		<path fill="#010101" d="M59.866,54.266c-1.237-0.974-6.774-6.643-10.198-10.211c-0.66-0.691-1.757-0.717-2.445-0.053
			c-0.69,0.66-0.711,1.757-0.052,2.445c0.89,0.927,8.729,9.1,10.552,10.537c0.314,0.25,0.694,0.369,1.068,0.369
			c0.508,0,1.018-0.228,1.361-0.66C60.745,55.947,60.617,54.857,59.866,54.266z"/>
	</g>
</g>
<g>
	<g>
		<path fill="#010101" d="M52.958,57.734c-2.071-1.656-7.276-7.187-8.453-8.467c-0.649-0.705-1.739-0.746-2.444-0.104
			c-0.703,0.646-0.75,1.743-0.104,2.445c0.063,0.064,6.272,6.771,8.839,8.824c0.318,0.254,0.703,0.379,1.08,0.379
			c0.505,0,1.01-0.227,1.352-0.646C53.82,59.419,53.701,58.33,52.958,57.734z"/>
	</g>
</g>
<g>
	<g>
		<path fill="#010101" d="M46.075,61.217c-2.468-2.078-7.511-7.447-8.497-8.503c-0.654-0.698-1.751-0.737-2.446-0.084
			c-0.699,0.654-0.733,1.747-0.083,2.445c1.418,1.519,6.246,6.637,8.795,8.786c0.325,0.274,0.719,0.41,1.113,0.41
			c0.491,0,0.98-0.211,1.325-0.617C46.898,62.923,46.805,61.833,46.075,61.217z"/>
	</g>
</g>
<g>
	<g>
		<path fill="#010101" d="M20.21,18.058C17.247,15.25,5.395,14.34,1.833,14.129c-0.491-0.024-0.944,0.138-1.29,0.467
			C0.197,14.921,0,15.377,0,15.854v31.125c0,0.955,0.775,1.729,1.729,1.729h10.375c0.747,0,1.411-0.479,1.643-1.192
			C14,46.74,19.958,28.453,20.743,19.462C20.788,18.936,20.594,18.417,20.21,18.058z M10.842,45.251H3.458V17.708
			c5.558,0.439,11.555,1.394,13.733,2.452C16.275,27.733,12.128,41.189,10.842,45.251z"/>
	</g>
</g>
<g>
	<g>
		<path fill="#010101" d="M81.27,17.584c-13.576,0-21.107,3.476-21.424,3.621c-0.449,0.211-0.785,0.602-0.923,1.076
			c-0.139,0.474-0.069,0.982,0.19,1.404c2.137,3.441,8.828,22.551,10.115,27.213c0.207,0.75,0.889,1.269,1.666,1.269H81.27
			c0.955,0,1.73-0.772,1.73-1.729V19.313C83,18.355,82.225,17.584,81.27,17.584z M79.542,48.709h-7.354
			c-1.639-5.34-6.48-19.263-9.182-25.018c2.639-0.896,8.309-2.435,16.535-2.628L79.542,48.709L79.542,48.709z"/>
	</g>
</g>
</svg>
