<?xml version="1.0" encoding="utf-8"?>
<!-- Generator: Adobe Illustrator 16.0.0, SVG Export Plug-In . SVG Version: 6.00 Build 0)  -->
<!DOCTYPE svg PUBLIC "-//W3C//DTD SVG 1.1//EN" "http://www.w3.org/Graphics/SVG/1.1/DTD/svg11.dtd">
<svg version="1.1" id="Layer_1" xmlns="http://www.w3.org/2000/svg" xmlns:xlink="http://www.w3.org/1999/xlink" x="0px" y="0px"
	 width="83px" height="83px" viewBox="0 0 83 83" enable-background="new 0 0 83 83" xml:space="preserve">
<g>
	<g>
		<g>
			<path fill="#010101" d="M43.617,28.809c-1.863,0-3.387,1.524-3.387,3.387c0,1.863,1.525,3.387,3.387,3.387
				s3.387-1.524,3.387-3.387C47.004,30.333,45.479,28.809,43.617,28.809z"/>
			<path fill="#010101" d="M48.697,0H37.69c-7.191,0-14.002,2.887-19.178,8.13c-5.044,5.109-7.938,12.029-7.938,18.985v9.991
				L7.221,53.875C7.12,54.379,7.25,54.9,7.576,55.297c0.325,0.397,0.812,0.627,1.325,0.627H15.1c0.858,0.768,0.882,1.76,0.733,3.834
				c-0.207,2.879-0.52,7.229,6.03,9.611c0.188,0.068,0.386,0.104,0.585,0.104h18.608V83h3.427V67.759
				c0-0.946-0.767-1.714-1.714-1.714H22.759c-3.836-1.479-3.704-3.307-3.507-6.041c0.158-2.202,0.375-5.218-2.626-7.219
				c-0.281-0.188-0.612-0.287-0.95-0.287h-4.684l2.978-14.886c0.022-0.111,0.033-0.223,0.033-0.336V27.116
				c0-12.841,10.848-23.689,23.688-23.689h11.007c13.063,0,23.688,10.627,23.688,23.688V83h3.427V27.115
				C75.813,12.164,63.648,0,48.697,0z"/>
			<path fill="#010101" d="M45.33,14.478V9.334h-3.426v5.144c-8.451,0.811-15.195,7.554-16.005,16.005h-5.144v3.427h5.144
				c0.811,8.45,7.555,15.194,16.005,16.005v5.144h3.426v-5.144c8.451-0.811,15.194-7.555,16.006-16.005h5.143v-3.427h-5.143
				C60.524,22.032,53.781,15.288,45.33,14.478z M43.617,46.57c-7.926,0-14.375-6.448-14.375-14.375s6.448-14.375,14.375-14.375
				c7.926,0,14.374,6.448,14.374,14.375S51.543,46.57,43.617,46.57z"/>
			<path fill="#010101" d="M43.617,20.321c-6.548,0-11.875,5.327-11.875,11.875S37.069,44.07,43.617,44.07
				c6.547,0,11.874-5.327,11.874-11.875S50.164,20.321,43.617,20.321z M43.617,40.643c-4.658,0-8.447-3.789-8.447-8.447
				c0-4.658,3.789-8.447,8.447-8.447s8.447,3.79,8.447,8.447C52.064,36.854,48.275,40.643,43.617,40.643z"/>
		</g>
	</g>
</g>
</svg>
