<?xml version="1.0" encoding="utf-8"?>
<!-- Generator: Adobe Illustrator 16.0.0, SVG Export Plug-In . SVG Version: 6.00 Build 0)  -->
<!DOCTYPE svg PUBLIC "-//W3C//DTD SVG 1.1//EN" "http://www.w3.org/Graphics/SVG/1.1/DTD/svg11.dtd">
<svg version="1.1" id="Layer_1" xmlns="http://www.w3.org/2000/svg" xmlns:xlink="http://www.w3.org/1999/xlink" x="0px" y="0px"
	 width="83px" height="83px" viewBox="0 0 83 83" enable-background="new 0 0 83 83" xml:space="preserve">
<g>
	<path fill="#010101" d="M2.844,38.753h8.979l3.223,6.446c0.224,0.449,0.683,0.732,1.185,0.732c0.501,0,0.96-0.283,1.185-0.732
		l3.223-6.446h0.658c0.731,0,1.325-0.593,1.325-1.325s-0.593-1.325-1.325-1.325H19.82c-0.501,0-0.96,0.284-1.185,0.732l-2.405,4.81
		l-2.405-4.81c-0.224-0.449-0.683-0.732-1.185-0.732H2.844c-0.108,0-0.195-0.087-0.195-0.195V2.844c0-0.108,0.087-0.195,0.195-0.195
		h26.772c0.108,0,0.195,0.087,0.195,0.195v14.358c0,0.732,0.593,1.325,1.325,1.325c0.731,0,1.324-0.593,1.324-1.325V2.844
		C32.461,1.276,31.185,0,29.617,0H2.844C1.276,0,0,1.276,0,2.844v33.064C0,37.477,1.276,38.753,2.844,38.753z"/>
	<path fill="#010101" d="M16.23,5.298c-3.653,0-6.625,2.972-6.625,6.625s2.972,6.625,6.625,6.625s6.625-2.972,6.625-6.625
		S19.884,5.298,16.23,5.298z M16.23,15.9c-2.193,0-3.977-1.784-3.977-3.977c0-2.192,1.784-3.977,3.977-3.977
		s3.977,1.784,3.977,3.977C20.207,14.116,18.423,15.9,16.23,15.9z"/>
	<path fill="#010101" d="M16.23,23.847c1.558,0,3.075,0.435,4.388,1.256c0.62,0.388,1.437,0.2,1.825-0.42s0.2-1.438-0.42-1.825
		c-1.735-1.085-3.738-1.659-5.793-1.659c-6.028,0-10.933,4.904-10.933,10.933c0,0.731,0.593,1.325,1.325,1.325h14.673
		c0.731,0,1.325-0.593,1.325-1.325s-0.593-1.325-1.325-1.325H8.053C8.688,26.866,12.114,23.847,16.23,23.847z"/>
	<path fill="#010101" d="M80.156,0H53.383c-1.568,0-2.844,1.276-2.844,2.844v14.358c0,0.732,0.593,1.325,1.324,1.325
		c0.732,0,1.324-0.593,1.324-1.325V2.844c0-0.108,0.088-0.195,0.195-0.195h26.773c0.107,0,0.195,0.087,0.195,0.195v33.064
		c0,0.107-0.088,0.195-0.195,0.195h-9.797c-0.502,0-0.961,0.284-1.186,0.732l-2.404,4.81l-2.404-4.81
		c-0.225-0.449-0.684-0.732-1.186-0.732h-1.476c-0.731,0-1.325,0.593-1.325,1.325c0,0.731,0.594,1.324,1.325,1.324h0.657
		l3.224,6.447c0.225,0.449,0.683,0.732,1.185,0.732s0.961-0.283,1.185-0.732l3.224-6.447h8.979c1.568,0,2.844-1.276,2.844-2.844
		V2.844C83,1.276,81.725,0,80.156,0z"/>
	<path fill="#010101" d="M66.77,5.298c-3.653,0-6.625,2.972-6.625,6.625s2.972,6.625,6.625,6.625s6.625-2.972,6.625-6.625
		S70.423,5.298,66.77,5.298z M66.77,15.9c-2.193,0-3.977-1.784-3.977-3.977s1.783-3.977,3.977-3.977s3.977,1.784,3.977,3.977
		S68.963,15.9,66.77,15.9z"/>
	<path fill="#010101" d="M60.379,32.13c0,0.731,0.594,1.325,1.325,1.325h14.673c0.732,0,1.325-0.593,1.325-1.325
		c0-6.028-4.904-10.933-10.933-10.933c-2.055,0-4.059,0.574-5.793,1.659c-0.619,0.388-0.808,1.205-0.42,1.826
		c0.389,0.62,1.205,0.808,1.826,0.42c1.313-0.821,2.829-1.255,4.387-1.255c4.117,0,7.542,3.019,8.178,6.959H61.704
		C60.973,30.806,60.379,31.399,60.379,32.13z"/>
	<path fill="#010101" d="M25.27,24.019v33.065c0,1.568,1.276,2.844,2.844,2.844h8.979l3.224,6.446
		c0.224,0.448,0.683,0.732,1.185,0.732s0.96-0.284,1.185-0.732l3.224-6.446h8.979c1.568,0,2.844-1.276,2.844-2.844V24.019
		c0-1.568-1.276-2.844-2.844-2.844H28.113C26.545,21.175,25.27,22.451,25.27,24.019z M55.082,24.019v33.065
		c0,0.107-0.088,0.194-0.195,0.194H45.09c-0.502,0-0.961,0.283-1.186,0.732L41.5,62.82l-2.405-4.81
		c-0.224-0.448-0.683-0.732-1.185-0.732h-9.797c-0.107,0-0.195-0.087-0.195-0.194V24.019c0-0.107,0.088-0.195,0.195-0.195h26.773
		C54.994,23.824,55.082,23.911,55.082,24.019z"/>
	<path fill="#010101" d="M41.5,39.724c3.653,0,6.625-2.972,6.625-6.625c0-3.654-2.972-6.625-6.625-6.625s-6.625,2.972-6.625,6.625
		C34.875,36.751,37.847,39.724,41.5,39.724z M41.5,29.122c2.192,0,3.977,1.784,3.977,3.977s-1.784,3.977-3.977,3.977
		c-2.193,0-3.977-1.784-3.977-3.977S39.307,29.122,41.5,29.122z"/>
	<path fill="#010101" d="M31.892,54.63h19.216c0.732,0,1.325-0.593,1.325-1.325c0-6.027-4.904-10.932-10.933-10.932
		s-10.933,4.904-10.933,10.932C30.567,54.037,31.16,54.63,31.892,54.63L31.892,54.63z M41.5,45.021c4.117,0,7.542,3.02,8.178,6.959
		H33.322C33.958,48.041,37.383,45.021,41.5,45.021z"/>
	<path fill="#010101" d="M67.371,77.791c0.779,0,1.413-0.635,1.413-1.414c0-0.778-0.634-1.412-1.413-1.412s-1.412,0.634-1.412,1.412
		C65.959,77.156,66.592,77.791,67.371,77.791z"/>
	<path fill="#010101" d="M60.131,77.791c0.779,0,1.412-0.635,1.412-1.414c0-0.778-0.633-1.412-1.412-1.412s-1.412,0.634-1.412,1.412
		C58.719,77.156,59.352,77.791,60.131,77.791z"/>
	<path fill="#010101" d="M74.611,77.791c0.779,0,1.413-0.635,1.413-1.414c0-0.778-0.634-1.412-1.413-1.412s-1.412,0.634-1.412,1.412
		C73.199,77.156,73.832,77.791,74.611,77.791z"/>
	<path fill="#010101" d="M81.676,69.756H1.324C0.593,69.756,0,70.348,0,71.08v10.596C0,82.407,0.593,83,1.324,83h80.352
		C82.407,83,83,82.407,83,81.676V71.08C83,70.348,82.407,69.756,81.676,69.756z M2.649,72.404h49.005v7.947H2.649V72.404z
		 M80.352,80.352H54.303v-7.947h26.049V80.352z"/>
</g>
</svg>
