<?xml version="1.0" encoding="utf-8"?>
<!-- Generator: Adobe Illustrator 16.0.0, SVG Export Plug-In . SVG Version: 6.00 Build 0)  -->
<!DOCTYPE svg PUBLIC "-//W3C//DTD SVG 1.1//EN" "http://www.w3.org/Graphics/SVG/1.1/DTD/svg11.dtd">
<svg version="1.1" id="Layer_1" xmlns="http://www.w3.org/2000/svg" xmlns:xlink="http://www.w3.org/1999/xlink" x="0px" y="0px"
	 width="83px" height="80px" viewBox="0 0 83 80" enable-background="new 0 0 83 80" xml:space="preserve">
<g>
	<g>
		<path fill="#010101" d="M81.5,60V22.667c-0.004-3.68-2.986-6.662-6.666-6.667H60.166V0H57.5v18.424
			c-0.751-1.255-1.646-2.418-2.666-3.466V0h-2.668v15.511c0,0.363,0.148,0.71,0.41,0.961C55.73,19.476,57.512,23.644,57.5,28
			c0.008,8.836-7.148,16.006-15.985,16.015c-8.836,0.008-16.007-7.149-16.015-15.986c-0.007-7.419,5.088-13.87,12.307-15.583
			c0.602-0.142,1.026-0.679,1.027-1.297V8h-2.667v2.125c-3.501,1.035-6.621,3.078-8.968,5.875H8.167
			c-3.68,0.004-6.662,2.987-6.667,6.667V60c0.004,3.68,2.987,6.662,6.667,6.666h21.843L27.343,72H2.833
			C2.097,72,1.5,72.598,1.5,73.334C1.5,80,8.525,80,10.833,80h61.333c2.309,0,9.334,0,9.334-6.666c0-0.736-0.598-1.334-1.334-1.334
			H55.657l-2.667-5.334h21.844C78.514,66.662,81.496,63.68,81.5,60z M37.436,46.226c1.334,0.296,2.697,0.443,4.064,0.44
			C51.805,46.654,60.154,38.305,60.166,28v-4H73.5v32h-64V24h13.774C21.048,34.048,27.388,43.998,37.436,46.226z M78.672,74.666
			c-0.465,1.643-2.074,2.668-6.506,2.668H10.833c-4.431,0-6.04-1.025-6.505-2.668H78.672z M30.324,72l2.667-5.334H50.01L52.676,72
			H30.324z M8.167,64c-2.209,0-4-1.791-4-4V22.667c0-2.209,1.791-4,4-4h17.168c-0.492,0.854-0.916,1.746-1.267,2.667H8.167
			c-0.736,0-1.333,0.597-1.333,1.333v34.667c0,0.736,0.597,1.332,1.333,1.332h66.667c0.736,0,1.332-0.596,1.332-1.332V22.667
			c0-0.736-0.596-1.333-1.332-1.333H60.166v-2.667h14.668c2.209,0,4,1.791,4,4V60c0,2.209-1.791,4-4,4H8.167z"/>
	</g>
</g>
<g>
	<g>
		<path fill="#010101" d="M41.5,21.333c-3.68,0.004-6.662,2.986-6.667,6.667c0,3.682,2.985,6.667,6.667,6.667
			s6.666-2.985,6.666-6.667S45.182,21.333,41.5,21.333z M41.5,32c-2.209,0-4-1.791-4-4s1.791-4,4-4s4,1.791,4,4S43.709,32,41.5,32z"
			/>
	</g>
</g>
<g>
	<g>
		<path fill="#010101" d="M46.834,0v10.113c-0.875-0.257-1.766-0.449-2.668-0.576V6.667H41.5v4.068
			c-0.002,0.698,0.535,1.28,1.232,1.333c1.691,0.124,3.354,0.518,4.921,1.167c0.68,0.283,1.46-0.038,1.743-0.717
			C49.465,12.354,49.5,12.178,49.5,12V0H46.834z"/>
	</g>
</g>
<g>
	<g>
		<rect x="41.5" fill="#010101" width="2.666" height="4"/>
	</g>
</g>
<g>
	<g>
		<rect x="36.167" y="2.667" fill="#010101" width="2.667" height="2.667"/>
	</g>
</g>
<g>
	<g>
		<path fill="#010101" d="M53.5,24h-2.111c-0.023-0.055-0.045-0.109-0.067-0.164l1.493-1.493c0.521-0.521,0.521-1.365,0-1.885
			l-3.771-3.772c-0.529-0.5-1.356-0.5-1.886,0l-1.493,1.493L45.5,18.112V16c0-0.736-0.598-1.333-1.334-1.333h-5.333
			c-0.736,0-1.333,0.597-1.333,1.333v2.112l-0.164,0.067l-1.493-1.493c-0.521-0.521-1.365-0.521-1.885,0l-3.772,3.772
			c-0.521,0.521-0.521,1.364,0,1.885l1.493,1.493c-0.022,0.055-0.045,0.109-0.067,0.164H29.5c-0.736,0-1.333,0.597-1.333,1.333
			v5.333c0,0.736,0.597,1.333,1.333,1.333h2.112c0.023,0.055,0.044,0.109,0.067,0.164l-1.493,1.493
			c-0.521,0.521-0.521,1.365,0,1.885l3.772,3.772c0.529,0.5,1.356,0.5,1.885,0l1.493-1.493l0.164,0.067V40
			c0,0.736,0.597,1.334,1.333,1.334h5.333c0.736,0,1.334-0.598,1.334-1.334v-2.112l0.164-0.067l1.493,1.493
			c0.521,0.521,1.364,0.521,1.886,0l3.771-3.772c0.521-0.521,0.521-1.364,0-1.885l-1.493-1.493c0.022-0.055,0.046-0.109,0.067-0.164
			H53.5c0.736,0,1.334-0.597,1.334-1.333v-5.333C54.834,24.597,54.236,24,53.5,24z M52.166,29.334h-1.725
			c-0.59,0-1.109,0.388-1.277,0.954c-0.155,0.526-0.365,1.035-0.625,1.519c-0.281,0.519-0.188,1.161,0.229,1.579l1.218,1.217
			L48.1,36.485l-1.217-1.217c-0.418-0.417-1.06-0.511-1.578-0.229c-0.484,0.261-0.992,0.47-1.52,0.625
			c-0.564,0.168-0.953,0.688-0.953,1.277v1.725h-2.666v-1.725c0-0.59-0.388-1.109-0.953-1.277c-0.526-0.155-1.036-0.365-1.519-0.625
			c-0.519-0.281-1.162-0.188-1.579,0.229l-1.218,1.217L33.015,34.6l1.217-1.217c0.417-0.417,0.511-1.06,0.229-1.579
			c-0.261-0.483-0.47-0.992-0.625-1.519c-0.168-0.564-0.688-0.952-1.277-0.952h-1.725v-2.667h1.725c0.59,0,1.109-0.388,1.277-0.953
			c0.155-0.526,0.365-1.036,0.625-1.519c0.281-0.519,0.188-1.162-0.229-1.579l-1.217-1.218l1.885-1.885l1.217,1.217
			c0.417,0.417,1.06,0.511,1.579,0.229c0.483-0.261,0.992-0.47,1.519-0.625c0.564-0.168,0.951-0.687,0.952-1.276v-1.725h2.667v1.725
			c0,0.59,0.387,1.109,0.953,1.277c0.525,0.155,1.035,0.365,1.518,0.625c0.52,0.281,1.162,0.188,1.579-0.229l1.218-1.217
			l1.885,1.885l-1.217,1.217c-0.418,0.417-0.512,1.06-0.229,1.579c0.261,0.483,0.47,0.992,0.626,1.519
			c0.168,0.565,0.688,0.953,1.277,0.953h1.723V29.334z"/>
	</g>
</g>
<g>
	<g>
		<path fill="#010101" d="M21.109,38.276l-1.885-1.885l-6.667,6.666c-0.521,0.521-0.521,1.365,0,1.887l6.667,6.666l1.885-1.885
			L15.385,44L21.109,38.276z"/>
	</g>
</g>
<g>
	<g>
		<path fill="#010101" d="M70.443,43.057l-6.668-6.666l-1.885,1.885L67.615,44l-5.725,5.725l1.885,1.885l6.668-6.666
			C70.963,44.422,70.963,43.578,70.443,43.057z"/>
	</g>
</g>
</svg>
