<?xml version="1.0" encoding="utf-8"?>
<!-- Generator: Adobe Illustrator 16.0.0, SVG Export Plug-In . SVG Version: 6.00 Build 0)  -->
<!DOCTYPE svg PUBLIC "-//W3C//DTD SVG 1.1//EN" "http://www.w3.org/Graphics/SVG/1.1/DTD/svg11.dtd">
<svg version="1.1" id="Layer_1" xmlns="http://www.w3.org/2000/svg" xmlns:xlink="http://www.w3.org/1999/xlink" x="0px" y="0px"
	 width="83px" height="80px" viewBox="0 0 83 80" enable-background="new 0 0 83 80" xml:space="preserve">
<g>
	<g>
		<g>
			<path fill="#010101" d="M2,73.549C2,77.106,4.894,80,8.452,80H42c3.558,0,6.451-2.894,6.451-6.451v-6.452H2V73.549z
				 M4.581,69.678h41.291v3.871c0,2.134-1.736,3.871-3.871,3.871H8.452c-2.134,0-3.871-1.737-3.871-3.871V69.678z"/>
			<path fill="#010101" d="M4.581,10.323h41.291h1.29h1.29V6.452C48.451,2.894,45.558,0,42,0H8.452C4.894,0,2,2.894,2,6.452v58.064
				h2.581V10.323z M4.581,6.452c0-2.134,1.737-3.871,3.871-3.871H42c2.135,0,3.871,1.737,3.871,3.871v1.29H4.581V6.452z"/>
			<rect x="18.774" y="72.258" fill="#010101" width="12.903" height="2.581"/>
			<path fill="#010101" d="M56.193,12.903c-9.508,0-18.218,5.204-22.731,13.582l2.271,1.223c4.063-7.541,11.903-12.225,20.46-12.225
				C69,15.484,79.42,25.903,79.42,38.709S69,61.936,56.193,61.936c-8.558,0-16.397-4.684-20.46-12.225l-2.271,1.224
				c4.513,8.378,13.223,13.581,22.731,13.581C70.424,64.516,82,52.939,82,38.709C82,24.48,70.424,12.903,56.193,12.903z"/>
			<path fill="#010101" d="M56.193,20.646c-5.691,0-10.322,4.631-10.322,10.322v5.398c-1.498,0.535-2.58,1.954-2.58,3.634v12.903
				c0,2.134,1.735,3.871,3.87,3.871h18.064c2.135,0,3.871-1.737,3.871-3.871V40c0-1.68-1.083-3.099-2.581-3.634v-5.398
				C66.516,25.276,61.885,20.646,56.193,20.646z M48.451,30.968c0-4.27,3.473-7.742,7.742-7.742s7.742,3.473,7.742,7.742v5.161
				h-2.581v-5.161c0-2.847-2.314-5.162-5.161-5.162s-5.16,2.315-5.16,5.162v5.161h-2.582V30.968z M58.774,30.968v5.161h-5.162
				v-5.161c0-1.423,1.158-2.581,2.581-2.581C57.617,28.387,58.774,29.544,58.774,30.968z M66.516,52.903
				c0,0.711-0.578,1.29-1.29,1.29H47.161c-0.712,0-1.29-0.579-1.29-1.29V40c0-0.711,0.578-1.291,1.29-1.291h18.064
				c0.712,0,1.29,0.58,1.29,1.291V52.903z"/>
			<path fill="#010101" d="M56.193,40c-2.134,0-3.871,1.736-3.871,3.871c0,1.68,1.082,3.1,2.581,3.634v5.398h2.581v-5.398
				c1.498-0.534,2.58-1.954,2.58-3.634C60.064,41.736,58.328,40,56.193,40z M56.193,45.161c-0.712,0-1.29-0.579-1.29-1.29
				s0.578-1.291,1.29-1.291c0.713,0,1.291,0.58,1.291,1.291S56.906,45.161,56.193,45.161z"/>
			<path fill="#010101" d="M11.032,20.646c-2.134,0-3.871,1.736-3.871,3.871s1.737,3.871,3.871,3.871s3.871-1.737,3.871-3.871
				S13.167,20.646,11.032,20.646z M11.032,25.806c-0.712,0-1.291-0.579-1.291-1.29s0.578-1.291,1.291-1.291s1.291,0.58,1.291,1.291
				S11.745,25.806,11.032,25.806z"/>
			<path fill="#010101" d="M11.032,49.033c-2.134,0-3.871,1.735-3.871,3.87c0,2.134,1.737,3.871,3.871,3.871
				s3.871-1.737,3.871-3.871C14.903,50.769,13.167,49.033,11.032,49.033z M11.032,54.193c-0.712,0-1.291-0.579-1.291-1.29
				s0.578-1.291,1.291-1.291s1.291,0.58,1.291,1.291S11.745,54.193,11.032,54.193z"/>
			<polygon fill="#010101" points="36.839,29.677 26.099,29.677 23.519,23.226 17.484,23.226 17.484,25.806 21.772,25.806 
				24.353,32.258 36.839,32.258 			"/>
			<polygon fill="#010101" points="26.099,47.742 36.839,47.742 36.839,45.161 24.353,45.161 21.772,51.612 17.484,51.612 
				17.484,54.193 23.519,54.193 			"/>
			<rect x="20.064" y="34.839" fill="#010101" width="16.775" height="2.581"/>
			<rect x="14.903" y="34.839" fill="#010101" width="2.581" height="2.581"/>
			<rect x="22.646" y="40" fill="#010101" width="14.193" height="2.58"/>
			<rect x="17.484" y="40" fill="#010101" width="2.58" height="2.58"/>
		</g>
	</g>
</g>
</svg>
