<svg xmlns="http://www.w3.org/2000/svg" width="71.835" height="40.312" viewBox="0 0 71.835 40.312">
  <g id="_317758_android_google_icon_1_" data-name="317758_android_google_icon (1)" transform="translate(-22.59 0.001)">
    <path id="Path_23758" data-name="Path 23758" d="M65.123,11.361l4.611-7.987a2.247,2.247,0,1,0-3.893-2.245L61.347,8.914a35.84,35.84,0,0,0-34.858,0l-4.5-7.794A2.247,2.247,0,0,0,18.1,3.37l4.615,7.992A35.846,35.846,0,0,0,8,40.311H79.835A35.846,35.846,0,0,0,65.123,11.361ZM30.449,26.842a4.49,4.49,0,1,1,4.49-4.49A4.486,4.486,0,0,1,30.449,26.842Zm26.938,0a4.49,4.49,0,1,1,4.49-4.49A4.486,4.486,0,0,1,57.387,26.842Z" transform="translate(14.59 0)" fill="#2ec948"/>
  </g>
</svg>
