<svg xmlns="http://www.w3.org/2000/svg" width="64.321" height="34.506" viewBox="0 0 64.321 34.506">
  <g id="g10088_1_" transform="translate(298.18 110.664)">
    <path id="path10079_1_" d="M-275-110.664a14.934,14.934,0,0,0-6.91,1.595c-5.544,2.734-8.733,8.581-8.733,15.871s3.114,12.986,8.657,15.568a18,18,0,0,0,5.316,1.367,16.379,16.379,0,0,0,3.341,0,18,18,0,0,0,5.316-1.367c5.544-2.658,8.657-8.277,8.657-15.568s-3.19-13.138-8.733-15.871a15.389,15.389,0,0,0-6.91-1.595Zm2.2,5.164c3.341.911,5.7,3.873,6.683,8.277a18.769,18.769,0,0,1-.456,9.416c-1.443,4.329-4.556,6.835-8.429,6.759-3.8.076-6.986-2.43-8.429-6.759a18.725,18.725,0,0,1-.456-9.416c.911-4.4,3.341-7.366,6.683-8.277a10.758,10.758,0,0,1,4.4,0Z" transform="translate(2.263)"/>
    <path id="path10077_1_" d="M-294.839-110.664a3.371,3.371,0,0,0-3.341,3.341,3.371,3.371,0,0,0,3.341,3.341,3.371,3.371,0,0,0,3.341-3.341A3.371,3.371,0,0,0-294.839-110.664Zm-3.114,10.1v24.377h6.227v-24.377h-6.227Z" transform="translate(0)"/>
    <path id="path10039_1_" d="M-257.994-76.2c-2.658-.456-5.24-.835-7.366-2.05,0,0,1.291-4.936,1.367-5.012,3.493,1.215,8.429,2.81,11.695,1.291a4.235,4.235,0,0,0,2.43-4.48c-.3-2.2-1.823-3.417-5.923-4.936-4.556-1.747-7.29-3.8-8.353-6.531a9.212,9.212,0,0,1-.456-4.556c.683-4.177,3.949-7.062,8.885-7.974a27.082,27.082,0,0,1,6.075,0c2.2.38,4.708,1.215,4.708,1.519,0,.152-1.291,4.632-1.367,4.784a21.754,21.754,0,0,0-6.683-1.519c-2.886-.076-6.075,1.671-5.544,4.708.38,1.9,1.595,2.81,6.075,4.632,3.341,1.367,4.86,2.278,6.227,3.645a8.509,8.509,0,0,1,2.506,6.3,7.958,7.958,0,0,1-.835,4.1c-1.595,3.417-4.784,5.392-9.644,5.923a21.744,21.744,0,0,1-3.8.152Z" transform="translate(9.858 0.013)"/>
  </g>
</svg>
