<svg xmlns="http://www.w3.org/2000/svg" width="70.744" height="64" viewBox="0 0 70.744 64">
  <g id="react-native-1" transform="translate(-670.288 -273.075)">
    <path id="Path_23759" data-name="Path 23759" d="M746.744,305.082c0-4.761-5.869-9.273-14.867-12.07,2.076-9.317,1.154-16.729-2.913-19.1a6.244,6.244,0,0,0-3.23-.82v3.267a3.3,3.3,0,0,1,1.644.381c1.961,1.143,2.812,5.493,2.148,11.089-.158,1.377-.418,2.827-.735,4.307a68.9,68.9,0,0,0-9.157-1.6,71.179,71.179,0,0,0-6-7.324c4.7-4.439,9.113-6.87,12.113-6.87v-3.267c-3.966,0-9.157,2.871-14.405,7.852-5.249-4.951-10.44-7.793-14.405-7.793V276.4c2.985,0,7.412,2.417,12.113,6.826a68.97,68.97,0,0,0-5.956,7.31,66.375,66.375,0,0,0-9.171,1.611c-.332-1.465-.577-2.886-.75-4.248-.677-5.6.159-9.946,2.106-11.1a3.167,3.167,0,0,1,1.658-.381v-3.267a6.349,6.349,0,0,0-3.259.82c-4.052,2.373-4.96,9.771-2.87,19.058C681.84,295.839,676,300.336,676,305.082c0,4.761,5.869,9.273,14.867,12.071-2.077,9.317-1.154,16.729,2.913,19.1a6.261,6.261,0,0,0,3.244.82c3.965,0,9.157-2.871,14.405-7.852,5.249,4.951,10.44,7.793,14.405,7.793a6.35,6.35,0,0,0,3.259-.821c4.052-2.373,4.96-9.771,2.869-19.058C740.9,314.34,746.744,309.829,746.744,305.082Zm-18.774-9.771c-.534,1.89-1.2,3.838-1.947,5.786-.591-1.172-1.211-2.344-1.889-3.516s-1.37-2.314-2.077-3.428C724.1,294.462,726.08,294.843,727.969,295.312Zm-6.6,15.6c-1.125,1.978-2.278,3.853-3.475,5.6-2.149.19-4.326.293-6.518.293s-4.355-.1-6.489-.278q-1.8-2.615-3.49-5.567c-1.1-1.919-2.091-3.867-3-5.83.894-1.963,1.9-3.926,2.985-5.845,1.125-1.977,2.278-3.853,3.475-5.6,2.149-.19,4.326-.293,6.518-.293s4.355.1,6.489.278q1.8,2.615,3.49,5.567c1.1,1.919,2.091,3.867,3,5.83C723.441,307.031,722.446,308.994,721.365,310.913Zm4.658-1.9q1.135,2.863,1.99,5.83c-1.889.469-3.879.864-5.941,1.172.706-1.128,1.413-2.285,2.077-3.472C724.811,311.367,725.431,310.18,726.022,309.008ZM711.4,324.639a60.167,60.167,0,0,1-4.008-4.688c1.3.059,2.624.1,3.965.1s2.7-.029,4.009-.1A56.967,56.967,0,0,1,711.4,324.639Zm-10.728-8.628c-2.047-.308-4.023-.689-5.912-1.157.533-1.89,1.2-3.838,1.947-5.786.591,1.172,1.211,2.344,1.889,3.516S699.966,314.9,700.672,316.01Zm10.656-30.484a60.1,60.1,0,0,1,4.009,4.688c-1.3-.059-2.624-.1-3.965-.1s-2.7.029-4.009.1A56.962,56.962,0,0,1,711.329,285.526Zm-10.671,8.628c-.706,1.128-1.413,2.285-2.076,3.472s-1.283,2.344-1.875,3.516q-1.135-2.864-1.99-5.83C696.606,294.858,698.6,294.462,700.658,294.155Zm-13.05,18.34c-5.1-2.212-8.407-5.112-8.407-7.412s3.3-5.215,8.407-7.412c1.24-.542,2.6-1.026,3.994-1.48a71.1,71.1,0,0,0,3.244,8.921,70.06,70.06,0,0,0-3.2,8.877C690.218,313.535,688.863,313.037,687.608,312.495Zm7.758,20.933c-1.961-1.143-2.812-5.493-2.148-11.089.159-1.377.418-2.827.735-4.307a68.855,68.855,0,0,0,9.157,1.6,71.211,71.211,0,0,0,6,7.324c-4.7,4.439-9.113,6.87-12.113,6.87A3.4,3.4,0,0,1,695.366,333.428Zm34.2-11.162c.677,5.6-.159,9.946-2.106,11.1a3.167,3.167,0,0,1-1.658.381c-2.985,0-7.412-2.417-12.112-6.826a68.949,68.949,0,0,0,5.956-7.31A66.38,66.38,0,0,0,728.82,318,41.573,41.573,0,0,1,729.57,322.265Zm5.551-9.771c-1.24.542-2.6,1.026-3.994,1.48a71.086,71.086,0,0,0-3.244-8.921,70.014,70.014,0,0,0,3.2-8.877c1.428.454,2.783.952,4.052,1.494,5.1,2.212,8.407,5.112,8.407,7.412s-3.317,5.215-8.421,7.412Z" transform="translate(-5.712 0)" fill="#07c2f2"/>
    <path id="Path_23760" data-name="Path 23760" d="M707,1059.03a6.59,6.59,0,1,0-6.59-6.59A6.59,6.59,0,0,0,707,1059.03Z" transform="translate(-1.354 -747.357)" fill="#07c2f2"/>
  </g>
</svg>
