<svg xmlns="http://www.w3.org/2000/svg" width="69.434" height="61.946" viewBox="0 0 69.434 61.946">
  <g id="Page-1" transform="translate(-42 -56)">
    <g id="xamarin-logo" transform="translate(42 56)">
      <path id="Logo" d="M62.034,56a5.506,5.506,0,0,0-4.655,2.7L42.7,84.273a5.577,5.577,0,0,0,0,5.4L57.38,115.246a5.505,5.505,0,0,0,4.655,2.7H91.4a5.506,5.506,0,0,0,4.655-2.7l14.683-25.573a5.577,5.577,0,0,0,0-5.4L96.054,58.7A5.505,5.505,0,0,0,91.4,56ZM62.3,70.961a.642.642,0,0,1,.123,0h5.065a.668.668,0,0,1,.554.33l8.592,15.353a.657.657,0,0,1,.082.247.659.659,0,0,1,.082-.247L85.37,71.291a.67.67,0,0,1,.575-.33h5.065a.7.7,0,0,1,.575.969L83.2,86.973,91.583,102a.7.7,0,0,1-.575.989H85.944a.67.67,0,0,1-.575-.351L76.8,87.282a.663.663,0,0,1-.082-.247.661.661,0,0,1-.082.247l-8.592,15.352a.67.67,0,0,1-.554.351H62.424A.7.7,0,0,1,61.85,102l8.387-15.023L61.85,71.93a.693.693,0,0,1,.451-.969Z" transform="translate(-42 -56)" fill="#3498db" fill-rule="evenodd"/>
    </g>
  </g>
</svg>
