<?xml version="1.0" encoding="utf-8"?>
<!-- Generator: Adobe Illustrator 16.0.0, SVG Export Plug-In . SVG Version: 6.00 Build 0)  -->
<!DOCTYPE svg PUBLIC "-//W3C//DTD SVG 1.1//EN" "http://www.w3.org/Graphics/SVG/1.1/DTD/svg11.dtd">
<svg version="1.1" id="Layer_1" xmlns="http://www.w3.org/2000/svg" xmlns:xlink="http://www.w3.org/1999/xlink" x="0px" y="0px"
	 width="83px" height="80px" viewBox="0 0 83 80" enable-background="new 0 0 83 80" xml:space="preserve">
<g>
	<g>
		<g>
			<path fill="#ffffff" d="M82.438,39.599L68.619,25.78c-0.324-0.323-0.762-0.506-1.222-0.506H55.307v-5.182
				c0-0.955-0.772-1.727-1.728-1.727H17.305V9.729c0-0.773-0.513-1.453-1.258-1.662c-0.749-0.215-1.535,0.098-1.939,0.755
				L0.288,31.278c-0.328,0.533-0.341,1.202-0.037,1.749c0.306,0.545,0.883,0.884,1.508,0.884h8.637V47.73
				c0,0.773,0.512,1.452,1.258,1.661c0.155,0.044,0.314,0.065,0.469,0.065c0.591,0,1.151-0.302,1.471-0.821l0.256-0.417v8.149
				c0,3.809,3.101,6.908,6.909,6.908h0.175c0.803,3.937,4.29,6.909,8.462,6.909c4.172,0,7.659-2.973,8.462-6.909h21.077
				c0.803,3.937,4.29,6.909,8.462,6.909c4.173,0,7.66-2.973,8.462-6.909h5.357c0.954,0,1.728-0.773,1.728-1.727V40.82
				C82.944,40.361,82.762,39.923,82.438,39.599z M13.85,41.627v-9.442c0-0.955-0.773-1.728-1.728-1.728H4.849l9.001-14.625v9.443
				c0,0.955,0.773,1.728,1.728,1.728h7.273L13.85,41.627z M29.396,66.731c-2.858,0-5.182-2.325-5.182-5.182
				c0-2.858,2.324-5.182,5.182-5.182c2.857,0,5.182,2.323,5.182,5.182C34.578,64.406,32.253,66.731,29.396,66.731z M51.852,59.821
				H37.859c-0.803-3.938-4.291-6.909-8.462-6.909s-7.66,2.972-8.462,6.909h-0.175c-1.906,0-3.455-1.55-3.455-3.453V42.604
				l10.108-16.424c0.328-0.533,0.341-1.202,0.037-1.749c-0.307-0.545-0.884-0.884-1.508-0.884h-8.637V21.82h34.547V59.821
				L51.852,59.821z M67.397,66.731c-2.858,0-5.182-2.325-5.182-5.182c0-2.858,2.323-5.182,5.182-5.182
				c2.857,0,5.183,2.323,5.183,5.182C72.58,64.406,70.255,66.731,67.397,66.731z M79.488,59.821H75.86
				c-0.803-3.938-4.29-6.909-8.463-6.909c-4.172,0-7.659,2.972-8.462,6.909h-3.629V28.729h11.377l12.805,12.807V59.821
				L79.488,59.821z"/>
			<path fill="#ffffff" d="M62.216,33.911c0-0.955-0.772-1.727-1.728-1.727c-0.954,0-1.728,0.771-1.728,1.727v10.364
				c0,0.955,0.773,1.729,1.728,1.729h13.818c0.955,0,1.728-0.773,1.728-1.729c0-0.954-0.772-1.728-1.728-1.728H62.216V33.911
				L62.216,33.911z"/>
		</g>
	</g>
</g>
</svg>
