<?xml version="1.0" encoding="utf-8"?>
<!-- Generator: Adobe Illustrator 16.0.0, SVG Export Plug-In . SVG Version: 6.00 Build 0)  -->
<!DOCTYPE svg PUBLIC "-//W3C//DTD SVG 1.1//EN" "http://www.w3.org/Graphics/SVG/1.1/DTD/svg11.dtd">
<svg version="1.1" id="Layer_1" xmlns="http://www.w3.org/2000/svg" xmlns:xlink="http://www.w3.org/1999/xlink" x="0px" y="0px"
	 width="83px" height="80px" viewBox="0 0 83 80" enable-background="new 0 0 83 80" xml:space="preserve">
<g>
	<g>
		<path fill="#ffffff" d="M41.453,68.591c-15.818-0.018-28.637-12.837-28.655-28.655H9.428c0.02,17.678,14.347,32.005,32.025,32.025
			h8.429v-3.37H41.453L41.453,68.591z"/>
	</g>
</g>
<g>
	<g>
		<path fill="#ffffff" d="M41.453,7.911h-8.428v3.371h8.428c15.817,0.018,28.637,12.837,28.655,28.655h3.369
			C73.459,22.257,59.132,7.93,41.453,7.911z"/>
	</g>
</g>
<g>
	<g>
		<path fill="#ffffff" d="M51.072,69.085l-8.428-8.429l-2.382,2.384l7.235,7.235l-7.235,7.235l2.382,2.385l8.428-8.429
			C51.73,70.809,51.73,69.742,51.072,69.085z"/>
	</g>
</g>
<g>
	<g>
		<path fill="#ffffff" d="M42.645,2.36l-2.382-2.384l-8.429,8.428c-0.658,0.658-0.658,1.725,0,2.383l8.429,8.428l2.382-2.383
			l-7.236-7.236L42.645,2.36z"/>
	</g>
</g>
<g>
	<g>
		<path fill="#ffffff" d="M53.784,53.506c-2.473-0.819-4.9-1.768-7.274-2.841v-0.079c4.111-1.954,6.733-6.097,6.741-10.65v-5.057
			c0-6.517-5.281-11.799-11.798-11.799c-6.516,0-11.798,5.282-11.798,11.799v5.057c0.008,4.553,2.63,8.695,6.742,10.65v0.079
			c-2.374,1.071-4.802,2.018-7.275,2.836c-1.414,0.441-2.726,1.164-3.854,2.126l2.237,2.528c0.788-0.658,1.701-1.151,2.683-1.449
			c2.955-0.966,5.845-2.124,8.649-3.463c0.571-0.285,0.932-0.869,0.932-1.509v-2.273c0-0.714-0.45-1.352-1.123-1.59
			c-3.363-1.191-5.613-4.368-5.621-7.935v-5.057c0-4.655,3.773-8.428,8.428-8.428c4.654,0,8.429,3.773,8.429,8.428v5.057
			c-0.008,3.567-2.258,6.744-5.621,7.935c-0.673,0.238-1.123,0.876-1.123,1.59v2.273c-0.003,0.642,0.358,1.23,0.933,1.517
			c2.806,1.337,5.694,2.491,8.649,3.455c3.735,1.243,3.903,3.411,3.903,3.456v10.113h3.372V60.162
			C59.995,59.975,59.924,55.552,53.784,53.506z"/>
	</g>
</g>
<g>
	<g>
		<path fill="#ffffff" d="M6.057,12.967H1v3.371h5.057c0.134-0.008,0.27-0.008,0.404,0c1.75,0.112,3.079,1.621,2.967,3.372v10.113
			h3.371V19.709c0.004-0.129,0.004-0.258,0-0.387C12.691,15.706,9.673,12.861,6.057,12.967z"/>
	</g>
</g>
<g>
	<g>
		<path fill="#ffffff" d="M76.85,63.534c-0.135,0.008-0.27,0.008-0.404,0c-1.75-0.112-3.078-1.622-2.968-3.372V50.049h-3.369v10.113
			c-0.004,0.129-0.004,0.258,0,0.388c0.106,3.616,3.125,6.462,6.741,6.354h5.057v-3.37H76.85L76.85,63.534z"/>
	</g>
</g>
<g>
	<g>
		<rect x="9.428" y="33.194" fill="#ffffff" width="3.371" height="3.371"/>
	</g>
</g>
<g>
	<g>
		<rect x="16.17" y="33.194" fill="#ffffff" width="3.372" height="3.371"/>
	</g>
</g>
<g>
	<g>
		<rect x="22.912" y="33.194" fill="#ffffff" width="3.372" height="3.371"/>
	</g>
</g>
<g>
	<g>
		<rect x="63.364" y="43.308" fill="#ffffff" width="3.372" height="3.37"/>
	</g>
</g>
<g>
	<g>
		<rect x="56.623" y="43.308" fill="#ffffff" width="3.372" height="3.37"/>
	</g>
</g>
<g>
	<g>
		<rect x="70.108" y="43.308" fill="#ffffff" width="3.369" height="3.37"/>
	</g>
</g>
</svg>
