<?xml version="1.0" encoding="utf-8"?>
<!-- Generator: Adobe Illustrator 16.0.0, SVG Export Plug-In . SVG Version: 6.00 Build 0)  -->
<!DOCTYPE svg PUBLIC "-//W3C//DTD SVG 1.1//EN" "http://www.w3.org/Graphics/SVG/1.1/DTD/svg11.dtd">
<svg version="1.1" id="Layer_1" xmlns="http://www.w3.org/2000/svg" xmlns:xlink="http://www.w3.org/1999/xlink" x="0px" y="0px"
	 width="83px" height="80px" viewBox="0 0 83 80" enable-background="new 0 0 83 80" xml:space="preserve">
<g>
	<g>
		<path fill="#ffffff" d="M41.5,0c-22.091,0-40,17.909-40,40c0,22.092,17.909,40,40,40v-3.334C21.25,76.666,4.833,60.25,4.833,40
			C4.833,19.75,21.25,3.333,41.5,3.333C61.75,3.333,78.166,19.75,78.166,40H81.5C81.5,17.909,63.592,0,41.5,0z"/>
	</g>
</g>
<g>
	<g>
		<path fill="#ffffff" d="M41.5,8.333C24.011,8.333,9.833,22.511,9.833,40c0,17.488,14.178,31.666,31.667,31.666v-3.332
			c-15.648,0-28.333-12.686-28.333-28.334c0-15.648,12.686-28.333,28.333-28.333c15.648,0,28.333,12.686,28.333,28.333h3.333
			C73.166,22.511,58.988,8.333,41.5,8.333z"/>
	</g>
</g>
<g>
	<g>
		<path fill="#ffffff" d="M79.833,55h-4.202c-0.176-0.495-0.377-0.98-0.603-1.455L78,50.572c0.65-0.651,0.65-1.707,0-2.357
			L73.285,43.5c-0.65-0.65-1.706-0.65-2.357,0l-2.973,2.973c-0.475-0.225-0.96-0.427-1.455-0.603v-4.204
			c0-0.92-0.746-1.666-1.667-1.666h-6.667c-0.92,0-1.666,0.746-1.666,1.666v4.204c-0.495,0.175-0.98,0.376-1.455,0.602L52.072,43.5
			c-0.651-0.65-1.707-0.65-2.357,0L45,48.215c-0.65,0.65-0.65,1.706,0,2.357l2.973,2.973c-0.225,0.475-0.427,0.96-0.603,1.455
			h-4.204c-0.92,0-1.666,0.746-1.666,1.666v6.668c0,0.92,0.746,1.666,1.666,1.666h4.204c0.175,0.495,0.376,0.98,0.602,1.455
			L45,69.428c-0.65,0.651-0.65,1.706,0,2.357l4.715,4.715c0.65,0.65,1.706,0.65,2.357,0l2.973-2.974
			c0.475,0.226,0.96,0.427,1.455,0.604v4.203c0,0.921,0.746,1.667,1.666,1.667h6.668c0.92,0,1.666-0.746,1.666-1.667v-4.202
			c0.495-0.176,0.98-0.377,1.455-0.603l2.973,2.972c0.651,0.65,1.707,0.65,2.357,0L78,71.785c0.65-0.65,0.65-1.706,0-2.357
			l-2.973-2.973c0.225-0.475,0.426-0.96,0.603-1.455h4.204c0.92,0,1.666-0.746,1.666-1.667v-6.667C81.5,55.746,80.754,55,79.833,55z
			 M78.166,61.665L78.166,61.665h-3.768c-0.76,0-1.424,0.515-1.613,1.25c-0.271,1.053-0.689,2.063-1.242,3
			c-0.387,0.655-0.281,1.489,0.257,2.026l2.667,2.667l-2.357,2.356l-2.666-2.666c-0.538-0.539-1.371-0.645-2.027-0.258
			c-0.937,0.553-1.946,0.971-3,1.242c-0.735,0.189-1.249,0.854-1.25,1.613v3.77h-3.332l0.001-3.766c0-0.76-0.515-1.424-1.25-1.613
			c-1.053-0.272-2.063-0.69-3-1.242c-0.655-0.387-1.489-0.281-2.026,0.257l-2.667,2.667l-2.356-2.357l2.666-2.666
			c0.539-0.538,0.645-1.372,0.258-2.027c-0.553-0.938-0.971-1.947-1.242-3c-0.19-0.735-0.854-1.25-1.613-1.25h-3.77v-3.333h3.768
			c0.76,0,1.424-0.515,1.613-1.25c0.271-1.054,0.689-2.063,1.242-3c0.387-0.655,0.281-1.489-0.258-2.026l-2.666-2.667l2.356-2.356
			l2.667,2.666c0.537,0.539,1.371,0.645,2.027,0.257c0.937-0.552,1.946-0.97,3-1.241c0.735-0.19,1.249-0.854,1.25-1.613v-3.771
			h3.331v3.769c0,0.76,0.515,1.424,1.25,1.613c1.053,0.271,2.063,0.689,3,1.242c0.655,0.387,1.489,0.281,2.026-0.258l2.667-2.666
			l2.356,2.356l-2.666,2.667c-0.539,0.537-0.645,1.371-0.257,2.026c0.552,0.938,0.97,1.947,1.241,3
			c0.19,0.735,0.854,1.25,1.613,1.25h3.77V61.665z"/>
	</g>
</g>
<g>
	<g>
		<path fill="#ffffff" d="M61.5,53.333c-3.682,0-6.667,2.985-6.667,6.667s2.985,6.666,6.667,6.666s6.666-2.984,6.666-6.666
			S65.182,53.333,61.5,53.333z M61.5,63.333c-1.841,0-3.334-1.492-3.334-3.333s1.493-3.334,3.334-3.334s3.333,1.493,3.333,3.334
			S63.341,63.333,61.5,63.333z"/>
	</g>
</g>
<g>
	<g>
		<rect x="39.833" y="10" fill="#ffffff" width="3.333" height="10"/>
	</g>
</g>
<g>
	<g>
		<rect x="11.5" y="38.333" fill="#ffffff" width="10" height="3.333"/>
	</g>
</g>
<g>
	<g>
		
			<rect x="21.499" y="18.62" transform="matrix(-0.7072 0.707 -0.707 -0.7072 56.0465 23.4562)" fill="#ffffff" width="3.334" height="9.428"/>
	</g>
</g>
<g>
	<g>
		
			<rect x="18.452" y="54.999" transform="matrix(-0.7072 0.7071 -0.7071 -0.7072 79.6137 80.3574)" fill="#ffffff" width="9.428" height="3.333"/>
	</g>
</g>
<g>
	<g>
		<path fill="#ffffff" d="M39.833,26.667V39.31l-7.845,7.845l2.356,2.356l8.333-8.333c0.313-0.313,0.488-0.737,0.488-1.179V26.667
			H39.833z"/>
	</g>
</g>
</svg>
