<?xml version="1.0" encoding="utf-8"?>
<!-- Generator: Adobe Illustrator 16.0.0, SVG Export Plug-In . SVG Version: 6.00 Build 0)  -->
<!DOCTYPE svg PUBLIC "-//W3C//DTD SVG 1.1//EN" "http://www.w3.org/Graphics/SVG/1.1/DTD/svg11.dtd">
<svg version="1.1" id="Layer_1" xmlns="http://www.w3.org/2000/svg" xmlns:xlink="http://www.w3.org/1999/xlink" x="0px" y="0px"
	 width="83px" height="80px" viewBox="0 0 83 80" enable-background="new 0 0 83 80" xml:space="preserve">
	 
	 

<g>
	<g>
		<path fill="#ffffff" d="M63.301,35.324c0-2.533-2.061-4.593-4.593-4.593h-8.44c2.051-2.305,3.391-4.93,3.649-7.285
			c0.158-1.438-0.286-2.866-1.22-3.917c-0.853-0.96-2.02-1.496-3.284-1.508c-0.015,0-0.029,0-0.044,0
			c-1.223,0-2.371,0.471-3.238,1.33c-0.867,0.859-1.347,2.003-1.353,3.225c-0.044,0.267-0.515,1.189-1.665,2.283
			c-0.943,0.896-2.57,2.128-4.973,2.909c-0.943,0.306-1.804,0.869-2.56,1.674c-0.397,0.422-0.991,1.005-1.727,1.591
			c-0.361-0.191-0.771-0.301-1.208-0.301H24.63c-1.427,0-2.589,1.162-2.589,2.589v21.377c0,1.428,1.162,2.59,2.589,2.59h8.017
			c0.973,0,1.822-0.541,2.264-1.337h20.456c2.165,0,3.926-1.761,3.926-3.925c0-0.728-0.199-1.41-0.546-1.994
			c1.128-0.69,1.882-1.934,1.882-3.35c0-0.729-0.199-1.41-0.545-1.995c1.127-0.69,1.881-1.935,1.881-3.351
			c0-0.818-0.252-1.58-0.684-2.21C62.5,38.299,63.301,36.903,63.301,35.324z M58.708,37.411H58.04c-0.692,0-1.253,0.561-1.253,1.253
			c0,0.691,0.561,1.252,1.253,1.252c0.782,0,1.419,0.637,1.419,1.42s-0.637,1.42-1.419,1.42h-1.336
			c-0.692,0-1.253,0.561-1.253,1.253c0,0.691,0.561,1.253,1.253,1.253c0.782,0,1.419,0.637,1.419,1.42
			c0,0.782-0.637,1.419-1.419,1.419h-1.337c-0.691,0-1.252,0.562-1.252,1.253s0.561,1.252,1.252,1.252c0.783,0,1.42,0.637,1.42,1.42
			s-0.637,1.42-1.42,1.42H35.236V41.337c0-0.692-0.561-1.253-1.252-1.253s-1.253,0.561-1.253,1.253v13.36
			c0,0.047-0.037,0.084-0.083,0.084H24.63c-0.046,0-0.083-0.037-0.083-0.084V33.319c0-0.046,0.038-0.083,0.083-0.083h8.017
			c0.046,0,0.083,0.038,0.083,0.083v2.672c0,0.692,0.561,1.252,1.253,1.252s1.252-0.561,1.252-1.252v-2.672
			c0-0.061-0.005-0.12-0.009-0.18c0.939-0.727,1.69-1.462,2.181-1.983c0.464-0.494,0.97-0.833,1.507-1.006
			c2.947-0.957,4.932-2.499,6.077-3.623c1.436-1.409,2.292-2.878,2.292-3.93c0-0.556,0.217-1.076,0.61-1.466
			c0.398-0.395,0.927-0.604,1.497-0.604c0.701,0.007,1.166,0.366,1.434,0.667c0.457,0.515,0.682,1.255,0.603,1.98
			c-0.274,2.489-2.265,5.565-5.071,7.837c-0.412,0.334-0.569,0.892-0.393,1.392c0.178,0.5,0.65,0.834,1.181,0.834h11.564
			c1.151,0,2.087,0.937,2.087,2.088C60.795,36.475,59.859,37.411,58.708,37.411z"/>
	</g>
</g>
<g>
	<g>
		<path fill="#ffffff" d="M28.639,49.423c-0.691,0-1.259,0.567-1.259,1.259s0.567,1.26,1.259,1.26c0.692,0,1.259-0.568,1.259-1.26
			C29.898,49.99,29.331,49.423,28.639,49.423z"/>
	</g>
</g>
<g>
	<g>
		<path fill="#ffffff" d="M79.768,40l2.151-5.694c0.157-0.414,0.083-0.88-0.194-1.226l-3.806-4.75l0.286-6.081
			c0.021-0.442-0.193-0.863-0.563-1.106l-5.088-3.342l-1.606-5.872c-0.116-0.427-0.45-0.761-0.878-0.878l-5.871-1.606l-3.342-5.087
			c-0.243-0.37-0.664-0.583-1.105-0.563l-6.081,0.287L48.92,0.275c-0.346-0.277-0.812-0.351-1.227-0.194L42,2.233l-5.693-2.152
			c-0.415-0.157-0.881-0.083-1.227,0.194l-4.751,3.806l-6.081-0.287c-0.444-0.021-0.863,0.193-1.106,0.563l-3.342,5.088
			l-5.872,1.606c-0.427,0.117-0.761,0.451-0.877,0.877l-1.606,5.872l-5.088,3.342c-0.37,0.243-0.584,0.664-0.563,1.106l0.287,6.081
			L2.275,33.08c-0.277,0.345-0.351,0.812-0.194,1.226L4.233,40l-2.152,5.693c-0.157,0.415-0.083,0.881,0.194,1.227l3.806,4.751
			l-0.287,6.081c-0.021,0.441,0.193,0.862,0.563,1.105l5.088,3.342l1.606,5.871c0.117,0.428,0.45,0.762,0.877,0.878l5.872,1.606
			l3.342,5.088c0.243,0.369,0.665,0.582,1.106,0.563l6.081-0.286l4.75,3.806c0.346,0.277,0.812,0.352,1.226,0.194L42,77.768
			l5.694,2.151C47.838,79.973,47.988,80,48.137,80c0.281,0,0.558-0.094,0.783-0.275l4.751-3.806l6.081,0.286
			c0.443,0.02,0.862-0.193,1.105-0.563l3.342-5.088l5.871-1.606c0.428-0.116,0.762-0.45,0.878-0.878l1.606-5.871l5.088-3.342
			c0.369-0.243,0.584-0.664,0.563-1.105l-0.286-6.081l3.806-4.751c0.277-0.346,0.352-0.812,0.194-1.227L79.768,40z M77.256,40.443
			l2.066,5.469l-3.654,4.562c-0.191,0.238-0.289,0.538-0.273,0.843l0.275,5.839l-4.887,3.21c-0.254,0.167-0.439,0.422-0.521,0.717
			l-1.542,5.639l-5.639,1.542c-0.295,0.081-0.549,0.266-0.717,0.521l-3.21,4.887l-5.839-0.275c-0.305-0.015-0.604,0.082-0.843,0.273
			l-4.562,3.655l-5.469-2.067c-0.143-0.053-0.293-0.08-0.443-0.08s-0.301,0.027-0.443,0.08l-5.469,2.067l-4.562-3.655
			c-0.238-0.191-0.538-0.288-0.842-0.273l-5.839,0.275l-3.21-4.887c-0.167-0.254-0.422-0.439-0.716-0.521l-5.639-1.542l-1.542-5.639
			c-0.081-0.295-0.266-0.549-0.521-0.717l-4.886-3.21l0.275-5.839c0.015-0.305-0.083-0.604-0.273-0.843l-3.655-4.562l2.066-5.469
			c0.108-0.285,0.108-0.602,0-0.887l-2.066-5.468l3.655-4.562c0.19-0.238,0.288-0.538,0.273-0.842l-0.275-5.839l4.886-3.21
			c0.254-0.167,0.44-0.422,0.521-0.716l1.542-5.639l5.639-1.542c0.294-0.081,0.549-0.266,0.716-0.521l3.21-4.886l5.839,0.275
			c0.304,0.014,0.604-0.083,0.842-0.273l4.562-3.655l5.469,2.066c0.286,0.108,0.602,0.108,0.887,0l5.469-2.066l4.562,3.655
			c0.238,0.191,0.538,0.288,0.843,0.273l5.839-0.275l3.21,4.886c0.167,0.254,0.422,0.44,0.717,0.521l5.639,1.542l1.542,5.639
			c0.081,0.294,0.266,0.549,0.521,0.716l4.887,3.21l-0.275,5.839c-0.016,0.305,0.082,0.604,0.273,0.842l3.654,4.562l-2.066,5.468
			C77.148,39.843,77.148,40.158,77.256,40.443z"/>
	</g>
</g>
<g>
	<g>
		<path fill="#ffffff" d="M65.537,18.371c-0.313-0.339-0.636-0.677-0.962-1.003c-0.327-0.326-0.663-0.649-1.003-0.961
			c-0.51-0.468-1.303-0.434-1.77,0.076c-0.469,0.51-0.435,1.302,0.075,1.77c0.313,0.288,0.624,0.586,0.926,0.887
			c0.301,0.301,0.6,0.613,0.888,0.926c0.246,0.269,0.584,0.406,0.923,0.406c0.302,0,0.606-0.109,0.847-0.33
			C65.971,19.673,66.004,18.88,65.537,18.371z"/>
	</g>
</g>
<g>
	<g>
		<path fill="#ffffff" d="M59.123,12.988C53.083,9.14,45.811,7.43,38.646,8.171c-7.27,0.753-14.125,4.019-19.302,9.196
			c-5.698,5.698-9.016,13.267-9.342,21.314c-0.324,7.999,2.326,15.766,7.46,21.867c0.248,0.295,0.602,0.446,0.959,0.446
			c0.285,0,0.571-0.097,0.806-0.294c0.529-0.445,0.597-1.235,0.152-1.765c-4.731-5.624-7.172-12.78-6.874-20.153
			c0.3-7.416,3.358-14.393,8.609-19.644c4.772-4.772,11.089-7.782,17.789-8.476c6.605-0.685,13.308,0.892,18.873,4.438
			c0.584,0.372,1.357,0.2,1.729-0.383S59.707,13.36,59.123,12.988z"/>
	</g>
</g>
<g>
	<g>
		<path fill="#ffffff" d="M68.955,22.819c-0.372-0.583-1.146-0.755-1.73-0.384c-0.583,0.372-0.754,1.146-0.383,1.729
			c3.547,5.566,5.122,12.269,4.438,18.874c-0.693,6.699-3.703,13.016-8.475,17.789c-5.252,5.251-12.229,8.309-19.645,8.609
			c-7.371,0.299-14.53-2.143-20.153-6.875c-0.529-0.445-1.319-0.377-1.765,0.152c-0.446,0.529-0.377,1.32,0.152,1.766
			c5.769,4.854,13.023,7.486,20.557,7.486c0.436,0,0.873-0.009,1.311-0.026c8.047-0.325,15.615-3.644,21.314-9.341
			c5.178-5.178,8.443-12.033,9.195-19.303C74.514,36.132,72.803,28.86,68.955,22.819z"/>
	</g>
</g>
</svg>
