<?xml version="1.0" encoding="utf-8"?>
<!-- Generator: Adobe Illustrator 16.0.0, SVG Export Plug-In . SVG Version: 6.00 Build 0)  -->
<!DOCTYPE svg PUBLIC "-//W3C//DTD SVG 1.1//EN" "http://www.w3.org/Graphics/SVG/1.1/DTD/svg11.dtd">
<svg version="1.1" id="Layer_1" xmlns="http://www.w3.org/2000/svg" xmlns:xlink="http://www.w3.org/1999/xlink" x="0px" y="0px"
	 width="83px" height="80px" viewBox="0 0 83 80" enable-background="new 0 0 83 80" xml:space="preserve">
<g>
	<g>
		<path fill="#ffffff" d="M34.559,49.891l-2.94-0.978C30.652,48.591,30,47.686,30,46.666C30,45.193,31.194,44,32.667,44
			c1.473,0,2.667,1.193,2.667,2.666H38c-0.009-2.424-1.652-4.537-4-5.144v-2.856h-2.667v2.856c-2.348,0.606-3.991,2.72-4,5.144
			c-0.002,2.168,1.385,4.092,3.441,4.776l2.94,0.978c0.967,0.322,1.619,1.227,1.619,2.246c0,1.473-1.194,2.667-2.667,2.667
			c-1.473,0-2.667-1.194-2.667-2.667h-2.667c0.009,2.425,1.652,4.538,4,5.145v2.855H34v-2.855c2.348-0.606,3.991-2.72,4-5.145
			C38.001,52.499,36.615,50.574,34.559,49.891z"/>
	</g>
</g>
<g>
	<g>
		<path fill="#ffffff" d="M80.666,29.333H53.712c-2.817-3.472-6.36-6.287-10.378-8.248v-5.752l4.799-3.6
			c0.336-0.252,0.533-0.647,0.533-1.067V1.333C48.666,0.597,48.07,0,47.334,0H42c-0.354,0-0.693,0.141-0.943,0.391l-1.723,1.724
			l-1.724-1.724C37.359,0.141,37.021,0,36.667,0h-8c-0.354,0-0.692,0.141-0.942,0.391L26,2.115l-1.724-1.724
			C24.026,0.141,23.687,0,23.333,0H18c-0.736,0-1.333,0.597-1.333,1.333v9.333c0,0.42,0.197,0.815,0.533,1.067l4.8,3.6v5.765
			C11.907,25.982,2,39.101,2,55.926C2,71.225,13.177,80,32.667,80c3.164,0.011,6.321-0.27,9.433-0.838
			c0.203,0.504,0.69,0.836,1.234,0.838h37.332C81.402,80,82,79.402,82,78.666v-48C82,29.93,81.402,29.333,80.666,29.333z M19.333,10
			V2.667h3.448l2.276,2.276c0.521,0.52,1.364,0.52,1.885,0l2.276-2.276h6.896l2.276,2.276c0.521,0.52,1.365,0.52,1.885,0
			l2.276-2.276H46V10l-4.443,3.333H23.777L19.333,10z M40.666,16v4H24.667v-4H40.666z M42,61.964
			c-6.239,5.166-15.484,4.296-20.65-1.942c-5.166-6.239-4.296-15.484,1.942-20.651c5.427-4.494,13.281-4.494,18.708,0V61.964
			L42,61.964z M42,30.667v5.409c-8.058-5.168-18.78-2.826-23.948,5.232c-5.168,8.058-2.826,18.78,5.232,23.948
			c5.703,3.658,13.014,3.658,18.716,0v11.213c-3.076,0.588-6.202,0.878-9.333,0.864c-8.419,0-28-2.085-28-21.407
			c0-12.756,7.646-28.627,20.445-33.259H40.23c3.771,1.432,7.163,3.713,9.911,6.667h-6.808C42.598,29.333,42,29.93,42,30.667z
			 M79.333,77.333H44.666V42.666h34.667V77.333z M79.333,40H44.666v-8h34.667V40z"/>
	</g>
</g>
<g>
	<g>
		<path fill="#ffffff" d="M54,45.333h-5.334c-0.736,0-1.332,0.597-1.332,1.333V52c0,0.736,0.596,1.333,1.332,1.333H54
			c0.736,0,1.334-0.597,1.334-1.333v-5.334C55.334,45.93,54.736,45.333,54,45.333z M52.666,50.666H50V48h2.666V50.666z"/>
	</g>
</g>
<g>
	<g>
		<path fill="#ffffff" d="M64.666,45.333h-5.333c-0.736,0-1.333,0.597-1.333,1.333V52c0,0.736,0.597,1.333,1.333,1.333h5.333
			C65.402,53.333,66,52.736,66,52v-5.334C66,45.93,65.402,45.333,64.666,45.333z M63.333,50.666h-2.667V48h2.667V50.666z"/>
	</g>
</g>
<g>
	<g>
		<path fill="#ffffff" d="M75.333,45.333H70c-0.736,0-1.334,0.597-1.334,1.333V52c0,0.736,0.598,1.333,1.334,1.333h5.333
			c0.736,0,1.333-0.597,1.333-1.333v-5.334C76.666,45.93,76.069,45.333,75.333,45.333z M74,50.666h-2.667V48H74V50.666z"/>
	</g>
</g>
<g>
	<g>
		<path fill="#ffffff" d="M54,56h-5.334c-0.736,0-1.332,0.597-1.332,1.333v5.333c0,0.736,0.596,1.334,1.332,1.334H54
			c0.736,0,1.334-0.598,1.334-1.334v-5.333C55.334,56.597,54.736,56,54,56z M52.666,61.333H50v-2.667h2.666V61.333z"/>
	</g>
</g>
<g>
	<g>
		<path fill="#ffffff" d="M64.666,56h-5.333C58.597,56,58,56.597,58,57.333v5.333C58,63.402,58.597,64,59.333,64h5.333
			C65.402,64,66,63.402,66,62.666v-5.333C66,56.597,65.402,56,64.666,56z M63.333,61.333h-2.667v-2.667h2.667V61.333z"/>
	</g>
</g>
<g>
	<g>
		<path fill="#ffffff" d="M54,66.666h-5.334c-0.736,0-1.332,0.598-1.332,1.334v5.333c0,0.736,0.596,1.333,1.332,1.333H54
			c0.736,0,1.334-0.597,1.334-1.333V68C55.334,67.264,54.736,66.666,54,66.666z M52.666,72H50v-2.667h2.666V72z"/>
	</g>
</g>
<g>
	<g>
		<path fill="#ffffff" d="M64.666,66.666h-5.333C58.597,66.666,58,67.264,58,68v5.333c0,0.736,0.597,1.333,1.333,1.333h5.333
			c0.736,0,1.334-0.597,1.334-1.333V68C66,67.264,65.402,66.666,64.666,66.666z M63.333,72h-2.667v-2.667h2.667V72z"/>
	</g>
</g>
<g>
	<g>
		<path fill="#ffffff" d="M75.333,56H70c-0.736,0-1.334,0.597-1.334,1.333v16c0,0.736,0.598,1.333,1.334,1.333h5.333
			c0.736,0,1.333-0.597,1.333-1.333v-16C76.666,56.597,76.069,56,75.333,56z M74,72h-2.667V58.666H74V72z"/>
	</g>
</g>
<g>
	<g>
		<rect x="74" y="34.667" fill="#ffffff" width="2.666" height="2.667"/>
	</g>
</g>
<g>
	<g>
		<rect x="68.666" y="34.667" fill="#ffffff" width="2.667" height="2.667"/>
	</g>
</g>
<g>
	<g>
		<rect x="63.333" y="34.667" fill="#ffffff" width="2.667" height="2.667"/>
	</g>
</g>
</svg>
