<?xml version="1.0" encoding="utf-8"?>
<!-- Generator: Adobe Illustrator 16.0.0, SVG Export Plug-In . SVG Version: 6.00 Build 0)  -->
<!DOCTYPE svg PUBLIC "-//W3C//DTD SVG 1.1//EN" "http://www.w3.org/Graphics/SVG/1.1/DTD/svg11.dtd">
<svg version="1.1" id="Layer_1" xmlns="http://www.w3.org/2000/svg" xmlns:xlink="http://www.w3.org/1999/xlink" x="0px" y="0px"
	 width="83px" height="80px" viewBox="0 0 83 80" enable-background="new 0 0 83 80" xml:space="preserve">
<g>
	<g>
		<path fill="#ffffff" d="M51.254,44.578c-0.859,0-1.559,0.699-1.559,1.559c0,0.861,0.699,1.56,1.559,1.56
			c0.861,0,1.561-0.698,1.561-1.56C52.814,45.277,52.115,44.578,51.254,44.578z"/>
	</g>
</g>
<g>
	<g>
		<path fill="#ffffff" d="M51.504,28.06l-3.502-2.022c0.09-0.594,0.135-1.164,0.135-1.721s-0.045-1.127-0.135-1.721l3.502-2.023
			c0.746-0.43,1.002-1.383,0.57-2.129l-3.117-5.4c-0.207-0.358-0.547-0.619-0.945-0.726c-0.4-0.107-0.826-0.051-1.184,0.156
			l-3.518,2.031c-0.896-0.696-1.889-1.263-2.966-1.695V8.261c0-0.861-0.697-1.559-1.559-1.559H32.55
			c-0.86,0-1.559,0.698-1.559,1.559v4.549c-1.069,0.432-2.071,1.004-2.964,1.694l-3.52-2.032c-0.746-0.43-1.698-0.175-2.129,0.571
			l-3.118,5.399c-0.43,0.746-0.175,1.699,0.57,2.129l3.503,2.022c-0.091,0.594-0.136,1.164-0.136,1.721s0.044,1.127,0.136,1.721
			l-3.503,2.023c-0.745,0.43-1,1.383-0.57,2.129l3.118,5.399c0.43,0.746,1.384,1.001,2.129,0.57l3.52-2.031
			c0.893,0.689,1.895,1.261,2.964,1.694v4.081c0,0.861,0.698,1.559,1.559,1.559h6.235c0.861,0,1.559-0.697,1.559-1.559v-4.079
			c1.077-0.432,2.07-0.999,2.966-1.695l3.518,2.031c0.357,0.207,0.783,0.263,1.184,0.156c0.398-0.107,0.738-0.368,0.945-0.726
			l3.117-5.399C52.506,29.443,52.25,28.49,51.504,28.06z M47.037,32.679l-3.121-1.802c-0.596-0.344-1.348-0.256-1.85,0.216
			c-1.041,0.982-2.295,1.7-3.73,2.132c-0.659,0.198-1.109,0.805-1.109,1.492v3.625H34.11v-3.625c0-0.688-0.451-1.294-1.109-1.492
			c-1.436-0.432-2.69-1.149-3.73-2.131c-0.5-0.473-1.252-0.562-1.849-0.217l-3.122,1.802l-1.559-2.7l3.118-1.8
			c0.597-0.345,0.896-1.041,0.736-1.711c-0.188-0.786-0.279-1.49-0.279-2.153s0.091-1.367,0.279-2.152
			c0.16-0.67-0.14-1.367-0.736-1.711l-3.118-1.8l1.559-2.7l3.122,1.802c0.597,0.344,1.349,0.256,1.849-0.217
			c1.04-0.982,2.295-1.699,3.73-2.131c0.658-0.198,1.109-0.805,1.109-1.493V9.82h3.117v4.093c0,0.688,0.45,1.294,1.109,1.492
			c1.435,0.432,2.689,1.15,3.73,2.132c0.502,0.473,1.254,0.561,1.85,0.216l3.121-1.802l1.559,2.699l-3.117,1.8
			c-0.598,0.345-0.896,1.041-0.736,1.711c0.188,0.786,0.277,1.49,0.277,2.153s-0.09,1.367-0.277,2.152
			c-0.16,0.671,0.139,1.367,0.736,1.711l3.117,1.8L47.037,32.679z"/>
	</g>
</g>
<g>
	<g>
		<path fill="#ffffff" d="M35.668,18.081c-3.438,0-6.235,2.797-6.235,6.235s2.797,6.235,6.235,6.235
			c3.438,0,6.234-2.797,6.234-6.235C41.903,20.878,39.106,18.081,35.668,18.081z M35.668,27.433c-1.719,0-3.117-1.398-3.117-3.118
			c0-1.719,1.398-3.117,3.117-3.117s3.117,1.398,3.117,3.117C38.786,26.035,37.387,27.433,35.668,27.433z"/>
	</g>
</g>
<g>
	<g>
		<path fill="#ffffff" d="M45.02,44.578H23.198c-0.861,0-1.559,0.698-1.559,1.559c0,0.861,0.698,1.56,1.559,1.56H45.02
			c0.861,0,1.559-0.698,1.559-1.56C46.578,45.276,45.881,44.578,45.02,44.578z"/>
	</g>
</g>
<g>
	<g>
		<path fill="#ffffff" d="M77.129,25.875h-5.611V4.676C71.518,2.098,69.42,0,66.842,0H6.676C4.098,0,2,2.098,2,4.676v44.579
			c0,2.578,2.098,4.676,4.676,4.676h8.729v10.062c0,0.59,0.333,1.129,0.86,1.393c0.221,0.111,0.46,0.166,0.699,0.166
			c0.33,0,0.658-0.104,0.932-0.309l6.862-5.115v5.65c0,2.578,2.098,4.676,4.676,4.676h28.53l10.996,9.185
			c0.287,0.239,0.643,0.362,1,0.362c0.225,0,0.449-0.049,0.66-0.146c0.549-0.257,0.898-0.807,0.898-1.412v-7.988h5.611
			c2.578,0,4.676-2.098,4.676-4.676V30.55C81.805,27.972,79.707,25.875,77.129,25.875z M18.522,60.887v-8.515
			c0-0.86-0.698-1.559-1.559-1.559H6.676c-0.859,0-1.559-0.699-1.559-1.559V4.676c0-0.86,0.699-1.559,1.559-1.559h60.166
			c0.859,0,1.559,0.699,1.559,1.559v44.579c0,0.859-0.699,1.559-1.559,1.559H32.551c-0.336,0-0.663,0.108-0.932,0.31L18.522,60.887z
			 M78.688,65.777c0,0.859-0.699,1.559-1.559,1.559h-7.17c-0.861,0-1.559,0.697-1.559,1.559v6.214l-8.871-7.41
			c-0.281-0.233-0.635-0.362-1-0.362H29.433c-0.859,0-1.559-0.699-1.559-1.559v-7.975l5.193-3.871h33.774
			c2.578,0,4.676-2.098,4.676-4.677V28.992h5.611c0.859,0,1.559,0.699,1.559,1.559V65.777z"/>
	</g>
</g>
</svg>
