<?xml version="1.0" encoding="utf-8"?>
<!-- Generator: Adobe Illustrator 16.0.0, SVG Export Plug-In . SVG Version: 6.00 Build 0)  -->
<!DOCTYPE svg PUBLIC "-//W3C//DTD SVG 1.1//EN" "http://www.w3.org/Graphics/SVG/1.1/DTD/svg11.dtd">
<svg version="1.1" id="Layer_1" xmlns="http://www.w3.org/2000/svg" xmlns:xlink="http://www.w3.org/1999/xlink" x="0px" y="0px"
	 width="83px" height="80px" viewBox="0 0 83 80" enable-background="new 0 0 83 80" xml:space="preserve">
<g>
	<g>
		<path fill="#ffffff" d="M80.334,76.666H3.667C2.747,76.666,2,77.413,2,78.334C2,79.254,2.747,80,3.667,80h76.667
			C81.254,80,82,79.254,82,78.334C82,77.413,81.254,76.666,80.334,76.666z"/>
	</g>
</g>
<g>
	<g>
		<path fill="#ffffff" d="M17,56.666H7c-0.92,0-1.667,0.748-1.667,1.668v20C5.333,79.254,6.08,80,7,80h10
			c0.92,0,1.667-0.746,1.667-1.666v-20C18.667,57.413,17.92,56.666,17,56.666z M15.333,76.666H8.667V60h6.667V76.666L15.333,76.666z
			"/>
	</g>
</g>
<g>
	<g>
		<path fill="#ffffff" d="M37,40H27c-0.92,0-1.667,0.746-1.667,1.666v36.668C25.333,79.254,26.08,80,27,80h10
			c0.92,0,1.667-0.746,1.667-1.666V41.666C38.667,40.746,37.92,40,37,40z M35.333,76.666h-6.667V43.334h6.667V76.666z"/>
	</g>
</g>
<g>
	<g>
		<path fill="#ffffff" d="M57,46.666H47c-0.92,0-1.666,0.748-1.666,1.668v30C45.334,79.254,46.08,80,47,80h10
			c0.92,0,1.666-0.746,1.666-1.666v-30C58.666,47.413,57.92,46.666,57,46.666z M55.334,76.666h-6.668V50h6.668V76.666z"/>
	</g>
</g>
<g>
	<g>
		<path fill="#ffffff" d="M77,26.667H67c-0.92,0-1.666,0.747-1.666,1.667v50C65.334,79.254,66.08,80,67,80h10
			c0.92,0,1.666-0.746,1.666-1.666v-50C78.666,27.413,77.92,26.667,77,26.667z M75.334,76.666h-6.668V30h6.668V76.666z"/>
	</g>
</g>
<g>
	<g>
		<path fill="#ffffff" d="M12,30c-3.677,0-6.667,2.99-6.667,6.667c0,3.677,2.99,6.667,6.667,6.667s6.667-2.99,6.667-6.667
			C18.667,32.99,15.677,30,12,30z M12,40c-1.84,0-3.333-1.497-3.333-3.333c0-1.836,1.494-3.333,3.333-3.333s3.333,1.497,3.333,3.333
			C15.333,38.503,13.84,40,12,40z"/>
	</g>
</g>
<g>
	<g>
		<path fill="#ffffff" d="M32,13.333c-3.677,0-6.667,2.99-6.667,6.667s2.99,6.667,6.667,6.667s6.667-2.99,6.667-6.667
			S35.677,13.333,32,13.333z M32,23.333c-1.84,0-3.333-1.497-3.333-3.333c0-1.837,1.494-3.333,3.333-3.333s3.333,1.497,3.333,3.333
			C35.333,21.837,33.84,23.333,32,23.333z"/>
	</g>
</g>
<g>
	<g>
		<path fill="#ffffff" d="M52,20c-3.677,0-6.666,2.99-6.666,6.667c0,3.677,2.989,6.667,6.666,6.667s6.666-2.99,6.666-6.667
			C58.666,22.99,55.677,20,52,20z M52,30c-1.84,0-3.334-1.497-3.334-3.333c0-1.836,1.494-3.333,3.334-3.333s3.334,1.497,3.334,3.333
			C55.334,28.503,53.84,30,52,30z"/>
	</g>
</g>
<g>
	<g>
		<path fill="#ffffff" d="M72,0c-3.677,0-6.666,2.99-6.666,6.667c0,3.677,2.989,6.667,6.666,6.667s6.666-2.99,6.666-6.667
			C78.666,2.99,75.677,0,72,0z M72,10c-1.84,0-3.334-1.497-3.334-3.333c0-1.836,1.494-3.333,3.334-3.333s3.334,1.497,3.334,3.333
			C75.334,8.503,73.84,10,72,10z"/>
	</g>
</g>
<g>
	<g>
		<path fill="#ffffff" d="M69.646,9.02c-0.65-0.65-1.707-0.65-2.356,0L54.357,21.953c-0.65,0.65-0.65,1.707,0,2.357
			c0.326,0.323,0.752,0.487,1.18,0.487c0.423,0,0.85-0.16,1.176-0.487l12.934-12.933C70.297,10.727,70.297,9.67,69.646,9.02z"/>
	</g>
</g>
<g>
	<g>
		<path fill="#ffffff" d="M47.971,22.82l-10.708-3.053c-0.896-0.26-1.807,0.26-2.057,1.147c-0.253,0.887,0.26,1.807,1.143,2.06
			l10.707,3.053c0.153,0.043,0.307,0.063,0.457,0.063c0.727,0,1.393-0.477,1.604-1.21C49.37,23.997,48.857,23.073,47.971,22.82z"/>
	</g>
</g>
<g>
	<g>
		<path fill="#ffffff" d="M29.4,22.077c-0.573-0.72-1.62-0.836-2.34-0.267L14.493,31.83c-0.72,0.577-0.84,1.623-0.263,2.343
			c0.33,0.413,0.817,0.626,1.303,0.626c0.363,0,0.73-0.12,1.037-0.36l12.567-10.02C29.857,23.843,29.977,22.797,29.4,22.077z"/>
	</g>
</g>
</svg>
