<?xml version="1.0" encoding="utf-8"?>
<!-- Generator: Adobe Illustrator 16.0.0, SVG Export Plug-In . SVG Version: 6.00 Build 0)  -->
<!DOCTYPE svg PUBLIC "-//W3C//DTD SVG 1.1//EN" "http://www.w3.org/Graphics/SVG/1.1/DTD/svg11.dtd">
<svg version="1.1" id="Layer_1" xmlns="http://www.w3.org/2000/svg" xmlns:xlink="http://www.w3.org/1999/xlink" x="0px" y="0px"
	 width="83px" height="83px" viewBox="0 0 496 496" enable-background="new 0 0 496 496" xml:space="preserve">
<path fill="#010101" d="M248,129.078L306.895,80H384V0H192v80h56V129.078z M208,64V16h160v48h-66.895L264,94.922V64H208z"/>
<path fill="#010101" d="M224,32h16v16h-16V32z"/>
<path fill="#010101" d="M256,32h64v16h-64V32z"/>
<path fill="#010101" d="M336,32h16v16h-16V32z"/>
<path fill="#010101" d="M407.238,480l-6.469-64.762C427.48,411.016,448,387.887,448,360V256h-32v-11.055
	c0-10.875-5.977-20.641-15.586-25.648C409.969,210.52,416,197.969,416,184v-16c0-26.473-21.527-48-48-48s-48,21.527-48,48v16
	c0,20.711,13.207,38.344,31.625,45.063L308.688,272h-44.863c-0.895-13.336-10.055-24.961-23.031-28.672L208,233.969V219.68
	c9.793-8.793,16-21.504,16-35.68v-16c0-26.473-21.527-48-48-48s-48,21.527-48,48v16c0,14.168,6.207,26.879,16,35.68v14.297
	l-32.793,9.359C97.543,247.23,88,259.887,88,274.105V304H56v48h16v128H0v16h496v-16H407.238z M336,352v-36.688l56.688-56.688
	c4.098-4.098,6.535-9.602,7.082-15.344c0.07,0.559,0.23,1.086,0.23,1.664V344c0,13.23-10.77,24-24,24h-64v-16H336z M312,416h40.762
	l6.398,64H312V416z M368.84,416h15.922l6.398,64h-15.922L368.84,416z M416,344v-72h16v88c0,22.055-17.945,40-40,40h-80v-16h64
	C398.055,384,416,366.055,416,344z M336,184v-16c0-17.648,14.352-32,32-32s32,14.352,32,32v16c0,17.648-14.352,32-32,32
	S336,201.648,336,184z M315.313,288l53.375-53.375c1.672-1.672,3.984-2.625,6.344-2.625c4.945,0,8.969,4.023,8.969,8.969
	c0,2.359-0.953,4.672-2.625,6.344L324.688,304H240c-4.414,0-8-3.586-8-8s3.586-8,8-8H315.313z M144,168c0-17.648,14.352-32,32-32
	s32,14.352,32,32v16c0,17.648-14.352,32-32,32s-32-14.352-32-32V168z M176,232c5.617,0,10.984-1.023,16-2.801v8.594
	c-1.984,3.063-7.496,10.207-16,10.207s-14.016-7.145-16-10.207v-8.594C165.016,230.977,170.383,232,176,232z M104,274.105
	c0-7.113,4.777-13.434,11.602-15.387l32.957-9.414C153.199,255.352,162.23,264,176,264s22.801-8.648,27.441-14.703l32.957,9.414
	c6.129,1.754,10.402,7.082,11.258,13.281H240c-13.23,0-24,10.77-24,24c0,2.816,0.574,5.488,1.473,8H104V274.105z M72,320h248v16H72
	V320z M88,384h24v-16H88v-16h208v16H128v16h168v96h-19.055l-16-32H123.055l-16,32H88V384z M259.055,480H124.945l8-16h118.109
	L259.055,480z"/>
</svg>
