<?xml version="1.0" encoding="utf-8"?>
<!-- Generator: Adobe Illustrator 16.0.0, SVG Export Plug-In . SVG Version: 6.00 Build 0)  -->
<!DOCTYPE svg PUBLIC "-//W3C//DTD SVG 1.1//EN" "http://www.w3.org/Graphics/SVG/1.1/DTD/svg11.dtd">
<svg version="1.1" id="Layer_1" xmlns="http://www.w3.org/2000/svg" xmlns:xlink="http://www.w3.org/1999/xlink" x="0px" y="0px"
	 width="83px" height="83px" viewBox="0 0 486 486" enable-background="new 0 0 486 486" xml:space="preserve">
<path fill="#010101" d="M302.795,373.593l-8.798-4.19c-3.987-1.897-8.759-0.207-10.66,3.78l-23.606,49.573
	c-1.9,3.987-0.206,8.759,3.781,10.657l108.78,51.811c3.987,1.898,8.763,0.203,10.661-3.783l23.609-49.57
	c1.897-3.986,0.207-8.759-3.784-10.66l-4.64-2.21l-1.159-15.507c-0.465-6.057,1.444-12.059,5.326-16.733l56.333-68.169
	c0.113-0.141,0.219-0.281,0.324-0.426c11.613-16.213,17.736-35.714,17.475-55.653c-0.008-0.379-0.039-0.758-0.102-1.129
	L453.32,116.165c-0.66-4.178-4.464-7.119-8.677-6.708c-19.146,1.847-33.47,18.412-32.532,37.625l1.44,58.918
	c-15.753,1.566-29.541,11.254-36.358,25.546l-21.529,45.205c-3.35,7.009-8.23,13.175-14.287,18.044l-4.476,3.589
	C314.143,316.541,301.464,344.505,302.795,373.593z M371.952,467.343l-94.341-44.931l16.733-35.129l94.341,44.931L371.952,467.343z
	 M346.91,310.859l4.471-3.589c7.936-6.377,14.335-14.456,18.725-23.645l21.527-45.204c5.631-11.781,18.381-18.412,31.26-16.256
	l-31.471,66.084c-1.249,2.58-1.019,5.635,0.605,8.001c1.621,2.362,4.382,3.683,7.24,3.448c2.858-0.23,5.373-1.977,6.596-4.573
	l35.387-74.308c1.897-3.987,0.207-8.759-3.78-10.657c-2.534-1.207-5.178-2.171-7.892-2.886l-1.48-60.679c0-0.07,0-0.141-0.008-0.211
	c-0.41-7.873,3.831-15.253,10.833-18.869l21.523,135.795c0.098,16.225-4.908,32.075-14.312,45.302l-56.157,67.958
	c-6.517,7.856-9.724,17.936-8.946,28.115l0.48,6.393l-61.836-29.451C315.279,354.853,325.697,327.787,346.91,310.859z"/>
<path fill="#010101" d="M99.413,231.545c-6.818-14.292-20.606-23.98-36.359-25.546l1.441-58.918
	c0.938-19.213-13.386-35.778-32.532-37.625c-4.213-0.41-8.017,2.53-8.677,6.708L0.265,261.383c-0.059,0.371-0.094,0.75-0.102,1.129
	c-0.257,19.939,5.865,39.44,17.475,55.653c0.105,0.145,0.214,0.285,0.328,0.426L74.3,386.76c3.877,4.675,5.787,10.677,5.326,16.733
	L78.462,419l-4.639,2.21c-3.987,1.901-5.682,6.674-3.78,10.66l23.606,49.57c1.901,3.986,6.673,5.682,10.661,3.783l108.781-51.811
	c3.987-1.898,5.682-6.67,3.78-10.657l-23.605-49.573c-1.902-3.987-6.674-5.678-10.661-3.78l-8.798,4.19
	c1.335-29.088-11.344-57.052-34.102-75.214l-4.475-3.589c-6.057-4.865-10.938-11.031-14.289-18.04L99.413,231.545z M198.993,422.412
	l-94.34,44.931L87.92,432.214l94.34-44.931L198.993,422.412z M129.696,310.859c21.211,16.928,31.626,43.993,27.233,70.77
	L95.094,411.08l0.48-6.393c0.781-10.18-2.429-20.259-8.942-28.115L30.47,308.614c-9.403-13.227-14.413-29.077-14.319-45.306
	l21.528-135.792c7.006,3.616,11.243,10.996,10.836,18.869c0,0.07-0.008,0.141-0.008,0.207l-1.484,60.679
	c-2.714,0.719-5.354,1.683-7.888,2.886c-3.987,1.902-5.682,6.674-3.784,10.661l35.391,74.308c1.218,2.597,3.733,4.343,6.592,4.573
	s5.623-1.086,7.244-3.448c1.621-2.366,1.851-5.421,0.605-8.001l-31.474-66.084c12.879-2.159,25.632,4.471,31.263,16.256
	l21.528,45.204c4.389,9.188,10.786,17.271,18.721,23.648L129.696,310.859z"/>
<path fill="#010101" d="M279.287,241.499v-22.493h2.012c4.443-0.063,8.005-3.69,7.985-8.13v-13.578l31.466,16.749
	c2.586,1.378,5.717,1.23,8.162-0.383c2.447-1.613,3.814-4.432,3.568-7.353l-2.959-35.079c-2.109-25.593-14.145-49.347-33.533-66.185
	l-6.704-5.842V82.824c-0.02-14.569-4.886-28.717-13.827-40.217L244.6,3.077C243.084,1.136,240.761,0,238.297,0
	c-2.464,0-4.788,1.136-6.303,3.077l-30.845,39.53c-8.942,11.5-13.808,25.648-13.832,40.217v16.382l-6.701,5.842
	c-19.392,16.838-31.423,40.592-33.532,66.185l-2.96,35.079c-0.246,2.921,1.121,5.744,3.569,7.357
	c2.445,1.609,5.581,1.757,8.166,0.379l31.458-16.749v13.578c-0.016,4.44,3.546,8.067,7.99,8.13h2.007v22.493
	c0.133,4.585,3.78,8.294,8.365,8.497h65.248C275.512,249.793,279.158,246.084,279.287,241.499z M203.312,203.012v-41.986h69.977
	v41.986H203.312z M313.576,172.58l1.723,20.447l-26.015-13.847v-58.508C303.322,134.519,311.937,152.931,313.576,172.58z
	 M213.758,52.448l24.543-31.458l24.543,31.458c6.756,8.685,10.43,19.373,10.445,30.376v62.207h-69.977V82.824
	C203.328,71.82,207.002,61.136,213.758,52.448z M161.302,193.027l1.726-20.447c1.64-19.649,10.254-38.062,24.289-51.909v58.508
	L161.302,193.027z M213.309,234.001v-14.995h49.984v14.995H213.309z"/>
<path fill="#010101" d="M238.301,116.017h0.18c13.96-0.309,25.32-11.746,25.32-25.496c0.004-14.081-11.415-25.5-25.496-25.5
	c-14.085,0-25.5,11.415-25.5,25.5C212.805,104.603,224.219,116.017,238.301,116.017z M238.301,81.017
	c5.252,0,9.504,4.256,9.504,9.504c0,5.249-4.252,9.505-9.504,9.505c-5.249,0-9.501-4.256-9.501-9.505
	C228.929,85.328,233.107,81.149,238.301,81.017z"/>
<path fill="#010101" d="M230.303,265.429v42.834c0,4.416,3.581,7.997,7.998,7.997c4.42,0,7.997-3.581,7.997-7.997v-42.834
	c0-4.417-3.577-7.997-7.997-7.997C233.884,257.432,230.303,261.012,230.303,265.429z"/>
<path fill="#010101" d="M267.732,295.497c1.422,4.183,5.963,6.42,10.145,4.998c4.183-1.421,6.42-5.962,4.999-10.145l-9.345-27.491
	c-0.898-2.733-3.194-4.771-6.018-5.342c-2.819-0.57-5.725,0.418-7.615,2.589c-1.885,2.167-2.463,5.186-1.511,7.899L267.732,295.497z
	"/>
<path fill="#010101" d="M203.074,262.855l-9.344,27.491c-1.421,4.179,0.816,8.724,4.998,10.145
	c4.183,1.422,8.724-0.815,10.146-4.998l9.344-27.491c0.953-2.714,0.375-5.732-1.511-7.899c-1.89-2.171-4.799-3.159-7.619-2.589
	C206.268,258.08,203.972,260.122,203.074,262.855z"/>
</svg>
