<?xml version="1.0" encoding="utf-8"?>
<!-- Generator: Adobe Illustrator 16.0.0, SVG Export Plug-In . SVG Version: 6.00 Build 0)  -->
<!DOCTYPE svg PUBLIC "-//W3C//DTD SVG 1.1//EN" "http://www.w3.org/Graphics/SVG/1.1/DTD/svg11.dtd">
<svg version="1.1" id="Layer_1" xmlns="http://www.w3.org/2000/svg" xmlns:xlink="http://www.w3.org/1999/xlink" x="0px" y="0px"
	 width="83px" height="83px" viewBox="0 0 496 496" enable-background="new 0 0 496 496" xml:space="preserve">
<path fill="#010101" d="M452.594,335.617L392,321.633v-15.754c6.16-4.941,11.352-11.016,15.344-17.879H416c22.055,0,40-17.945,40-40
	c0-8.93-3.039-17.09-8-23.754V192c0-52.938-43.063-96-96-96s-96,43.063-96,96v32.246c-4.961,6.664-8,14.832-8,23.754
	c0,22.055,17.945,40,40,40h8.656c3.984,6.863,9.184,12.938,15.344,17.879v15.754l-60.594,13.984
	c-3.957,0.91-7.758,2.336-11.406,4.07V296c0-13.23-10.77-24-24-24H24c-13.23,0-24,10.77-24,24v144c0,13.23,10.77,24,24,24h64v16H72
	v16h424V390.184C496,363.953,478.152,341.512,452.594,335.617z M318.184,336.633l19.504,14.625l-19.719,11.832l-4.242-25.434
	L318.184,336.633z M343.359,400h17.289l6.664,80h-30.617L343.359,400z M362.23,384h-20.469l-4.594-13.777L352,361.328l14.824,8.895
	L362.23,384z M366.32,351.258l19.504-14.625l5.641,1.305l-5.074,25.359L366.32,351.258z M416,272h-2.105
	c1.328-5.129,2.105-10.465,2.105-16v-32c13.23,0,24,10.77,24,24S429.23,272,416,272z M352,112c44.113,0,80,35.887,80,80v19.391
	c-4.91-2.16-10.305-3.391-16-3.391v-16h-16v4.465c-5.551,4.832-12.199,8.27-19.313,10.063c0.313-0.305,0.656-0.566,0.969-0.871
	l-11.313-11.313c-5.969,5.969-13.527,10.137-21.656,12.184c0.313-0.305,0.656-0.566,0.969-0.871l-11.313-11.313
	c-8.68,8.68-20.695,13.656-32.969,13.656H304v-16h-16v16c-5.695,0-11.09,1.23-16,3.391V192C272,147.887,307.887,112,352,112z
	 M288,272c-13.23,0-24-10.77-24-24s10.77-24,24-24v32c0,5.535,0.777,10.871,2.105,16H288z M304,256v-32h1.375
	c7.77,0,15.441-1.535,22.625-4.328V224h9.375c7.77,0,15.441-1.535,22.625-4.328V224h9.375c10.746,0,21.32-2.887,30.625-8.09V256
	c0,5.617-1.023,10.984-2.801,16H352v16h35.68c-8.793,9.793-21.504,16-35.68,16C325.527,304,304,282.473,304,256z M352,320
	c8.488,0,16.586-1.695,24-4.711V324l-24,18l-24-18v-8.711C335.414,318.305,343.512,320,352,320z M255,351.207l43.105-9.941
	l7.934,47.637l17.082-10.246l4.773,14.32L320.641,480H280v-88h-16v88h-40v-17.473c9.289-3.313,16-12.113,16-22.527v-81.727
	C244.449,354.922,249.543,352.473,255,351.207z M152,464h56v16h-56V464z M24,448c-4.414,0-8-3.586-8-8V296c0-4.414,3.586-8,8-8h192
	c4.414,0,8,3.586,8,8v144c0,4.414-3.586,8-8,8h-64v-16c0-17.648-14.352-32-32-32s-32,14.352-32,32v16H24z M104,432
	c0-8.824,7.176-16,16-16s16,7.176,16,16v48h-32V432z M480,480h-40v-88h-16v88h-40.641l-7.246-87.023l4.766-14.32l16.738,10.047
	l9.43-47.168l41.953,9.68c18.246,4.211,31,20.234,31,38.969V480z"/>
<path fill="#010101" d="M200,163.527c0-10.344-6.594-19.496-16.406-22.766L152,130.23v-10.438c9.656-7.313,16-18.785,16-31.793V72
	c0-22.055-17.945-40-40-40S88,49.945,88,72v16c0,13.016,6.344,24.488,16,31.793v10.438l-31.594,10.531
	C62.594,144.039,56,153.184,56,163.527V208h144V163.527z M104,72c0-13.23,10.77-24,24-24s24,10.77,24,24v16c0,13.23-10.77,24-24,24
	s-24-10.77-24-24V72z M184,192H72v-28.473c0-3.449,2.191-6.496,5.473-7.59L120,141.77v-14.578c2.586,0.527,5.266,0.809,8,0.809
	s5.414-0.281,8-0.809v14.578l42.527,14.168c3.281,1.094,5.473,4.152,5.473,7.59V192z"/>
<path fill="#010101" d="M128,256c70.574,0,128-57.426,128-128S198.574,0,128,0S0,57.426,0,128S57.426,256,128,256z M128,16
	c61.762,0,112,50.238,112,112s-50.238,112-112,112S16,189.762,16,128S66.238,16,128,16z"/>
<path fill="#010101" d="M296,48h16v16h-16V48z"/>
<path fill="#010101" d="M344,48h16v16h-16V48z"/>
<path fill="#010101" d="M392,48h16v16h-16V48z"/>
</svg>
