<?xml version="1.0" encoding="utf-8"?>
<!-- Generator: Adobe Illustrator 16.0.0, SVG Export Plug-In . SVG Version: 6.00 Build 0)  -->
<!DOCTYPE svg PUBLIC "-//W3C//DTD SVG 1.1//EN" "http://www.w3.org/Graphics/SVG/1.1/DTD/svg11.dtd">
<svg version="1.1" id="Layer_1" xmlns="http://www.w3.org/2000/svg" xmlns:xlink="http://www.w3.org/1999/xlink" x="0px" y="0px"
	 width="83px" height="83px" viewBox="0 0 309 308" enable-background="new 0 0 309 308" xml:space="preserve">
<g>
	<g>
		<path fill="#010101" d="M224.5,38.43c-8.125-8.129-17.575-14.73-27.844-19.57h38.798c1.946,5.486,7.187,9.426,13.331,9.426
			c7.799,0,14.143-6.344,14.143-14.143C262.928,6.344,256.584,0,248.786,0c-6.147,0-11.388,3.942-13.333,9.431h-66.811V0h-28.285
			v9.431h-66.81C71.602,3.942,66.361,0,60.214,0c-7.798,0-14.143,6.345-14.143,14.143c0,7.798,6.344,14.143,14.143,14.143
			c6.145,0,11.385-3.94,13.332-9.427h38.787c-29.488,13.934-51.04,42.016-55.828,75.429H46.071v28.286h28.286V94.288h-8.313
			c6.051-38.091,36.222-68.263,74.314-74.315v8.313h28.285v-8.313c18.526,2.956,35.832,11.759,49.191,25.123
			c13.363,13.357,22.165,30.664,25.121,49.191h-8.313v28.286h28.285V94.287h-10.433C249.469,73.246,239.625,53.547,224.5,38.43z
			 M248.786,9.428c2.6,0,4.714,2.115,4.714,4.714c0,2.6-2.114,4.715-4.714,4.715c-2.601,0-4.715-2.115-4.715-4.715
			C244.071,11.544,246.186,9.428,248.786,9.428z M60.214,18.857c-2.6,0-4.714-2.115-4.714-4.715c0-2.599,2.115-4.714,4.714-4.714
			c2.6,0,4.715,2.115,4.715,4.714C64.929,16.742,62.814,18.857,60.214,18.857z M64.929,113.145H55.5v-9.428h9.428V113.145
			L64.929,113.145z M159.215,18.857h-9.429V9.428h9.429V18.857z M253.5,113.145h-9.429v-9.428h9.429V113.145z"/>
	</g>
</g>
<g>
	<g>
		<path fill="#010101" d="M97.177,183.493l52.609-98.906v59.67h9.429v-59.67l52.609,98.906l-20.749,29.053l7.671,5.479
			l24.145-33.805L154.5,55.647L86.109,184.221l27.801,38.922H96.357v25.144h20.904L104.69,308h99.621l-12.572-59.714h20.904v-25.144
			h-87.145L97.177,183.493z M192.69,298.571H116.31l10.586-50.285h55.208L192.69,298.571z M203.215,238.857h-97.429v-6.286h97.429
			V238.857z"/>
	</g>
</g>
<g>
	<g>
		<path fill="#010101" d="M154.5,150.857c-10.398,0-18.857,8.459-18.857,18.857s8.459,18.857,18.857,18.857
			c10.398,0,18.857-8.46,18.857-18.857S164.898,150.857,154.5,150.857z M154.5,179.143c-5.199,0-9.428-4.229-9.428-9.428
			c0-5.199,4.229-9.429,9.428-9.429c5.199,0,9.428,4.229,9.428,9.429C163.928,174.913,159.699,179.143,154.5,179.143z"/>
	</g>
</g>
</svg>
