<?xml version="1.0" encoding="utf-8"?>
<!-- Generator: Adobe Illustrator 16.0.0, SVG Export Plug-In . SVG Version: 6.00 Build 0)  -->
<!DOCTYPE svg PUBLIC "-//W3C//DTD SVG 1.1//EN" "http://www.w3.org/Graphics/SVG/1.1/DTD/svg11.dtd">
<svg version="1.1" id="Layer_1" xmlns="http://www.w3.org/2000/svg" xmlns:xlink="http://www.w3.org/1999/xlink" x="0px" y="0px"
	 width="83px" height="83px" viewBox="0 0 480 480" enable-background="new 0 0 480 480" xml:space="preserve">
<path fill="#010101" d="M82.344,173.656l11.313-11.313L67.313,136l26.344-26.344L82.344,98.344l-32,32
	c-3.121,3.125-3.121,8.188,0,11.313L82.344,173.656z"/>
<path fill="#010101" d="M173.656,173.656l32-32c3.121-3.125,3.121-8.188,0-11.313l-32-32l-11.313,11.313L188.688,136l-26.344,26.344
	L173.656,173.656z"/>
<path fill="#010101" d="M112.234,166.059l16.008-63.996l15.52,3.883l-16.004,63.996L112.234,166.059z"/>
<path fill="#010101" d="M224,120h80v16h-80V120z"/>
<path fill="#010101" d="M320,120h32v16h-32V120z"/>
<path fill="#010101" d="M368,120h64v16h-64V120z"/>
<path fill="#010101" d="M224,152h48v16h-48V152z"/>
<path fill="#010101" d="M288,152h32v16h-32V152z"/>
<path fill="#010101" d="M336,152h96v16h-96V152z"/>
<path fill="#010101" d="M48,200h48v16H48V200z"/>
<path fill="#010101" d="M112,200h64v16h-64V200z"/>
<path fill="#010101" d="M192,200h16v16h-16V200z"/>
<path fill="#010101" d="M224,200h208v16H224V200z"/>
<path fill="#010101" d="M48,232h160v16H48V232z"/>
<path fill="#010101" d="M224,232h48v16h-48V232z"/>
<path fill="#010101" d="M288,232h144v16H288V232z"/>
<path fill="#010101" d="M48,264h96v16H48V264z"/>
<path fill="#010101" d="M160,264h80v16h-80V264z"/>
<path fill="#010101" d="M256,264h112v16H256V264z"/>
<path fill="#010101" d="M384,264h48v16h-48V264z"/>
<path fill="#010101" d="M440,0H40C17.918,0.027,0.027,17.918,0,40v304c0.027,22.082,17.918,39.973,40,40h134.938l-6,48H152
	c-13.254,0-24,10.746-24,24s10.746,24,24,24h176c13.254,0,24-10.746,24-24s-10.746-24-24-24h-16.938l-6-48H440
	c22.082-0.027,39.973-17.918,40-40V40C479.973,17.918,462.082,0.027,440,0z M40,16h400c13.254,0,24,10.746,24,24v24H16V40
	C16,26.746,26.746,16,40,16z M464,80v224H16V80H464z M336,456c0,4.418-3.582,8-8,8H152c-4.418,0-8-3.582-8-8s3.582-8,8-8h176
	C332.418,448,336,451.582,336,456z M294.938,432H185.063l6-48h97.875L294.938,432z M440,368H40c-13.254,0-24-10.746-24-24v-24h448
	v24C464,357.254,453.254,368,440,368z"/>
<path fill="#010101" d="M416,336h16v16h-16V336z"/>
<path fill="#010101" d="M48,32h16v16H48V32z"/>
<path fill="#010101" d="M80,32h16v16H80V32z"/>
<path fill="#010101" d="M112,32h16v16h-16V32z"/>
</svg>
